<svg width="89" height="81" viewBox="0 0 89 81" fill="none" xmlns="http://www.w3.org/2000/svg">
<g id="_&#234;&#178;&#169;&#235;&#166;&#172;_&#235;&#170;&#168;&#235;&#147;&#156;" clip-path="url(#clip0_1054_10365)">
<path id="Vector" d="M11.4939 57.0837C11.2603 56.0561 10.7596 53.3553 10.9984 51.0035C11.3885 47.1556 12.0971 45.3105 13.7626 41.4174C18.3031 30.8106 27.8238 23.411 38.8003 20.8541C44.5593 19.5124 53.2909 17.9912 69.9036 23.6321C68.6116 23.6574 64.6916 24.4987 63.8041 24.6924C61.8779 25.1129 59.9509 25.5287 58.0398 26.0117C51.1244 27.7539 44.4111 30.3526 38.0195 33.4991C32.3554 36.287 24.9385 40.2701 18.3895 47.0543C16.7649 48.7369 14.168 52.0889 11.4944 57.0807L11.4939 57.0837Z" fill="url(#paint0_radial_1054_10365)"/>
<g id="Group">
<path id="Vector_2" d="M11.4939 57.0837C11.2603 56.0561 10.7596 53.3553 10.9984 51.0035C11.3885 47.1556 12.0971 45.3105 13.7626 41.4174C18.3031 30.8106 27.8238 23.411 38.8003 20.8541C44.5593 19.5124 53.2909 17.9912 69.9036 23.6321C68.6116 23.6574 64.6916 24.4987 63.8041 24.6924C61.8779 25.1129 59.9509 25.5287 58.0398 26.0117C51.1244 27.7539 44.4111 30.3526 38.0195 33.4991C32.3554 36.287 24.9385 40.2701 18.3895 47.0543C16.7649 48.7369 14.168 52.0889 11.4944 57.0807L11.4939 57.0837Z" fill="url(#paint1_linear_1054_10365)"/>
</g>
<g id="Group_2">
<path id="Vector_3" d="M11.4939 57.0837C11.2603 56.0561 10.7596 53.3553 10.9984 51.0035C11.3885 47.1556 12.0971 45.3105 13.7626 41.4174C18.3031 30.8106 27.8238 23.411 38.8003 20.8541C44.5593 19.5124 53.2909 17.9912 69.9036 23.6321C68.6116 23.6574 64.6916 24.4987 63.8041 24.6924C61.8779 25.1129 59.9509 25.5287 58.0398 26.0117C51.1244 27.7539 44.4111 30.3526 38.0195 33.4991C32.3554 36.287 24.9385 40.2701 18.3895 47.0543C16.7649 48.7369 14.168 52.0889 11.4944 57.0807L11.4939 57.0837Z" fill="url(#paint2_radial_1054_10365)"/>
</g>
<path id="Vector_4" fill-rule="evenodd" clip-rule="evenodd" d="M69.9037 23.6321C68.6117 23.6575 64.6917 24.4987 63.8043 24.6925C61.878 25.113 59.951 25.5287 58.04 26.0117C51.1245 27.754 44.4112 30.3526 38.0196 33.4992C32.3555 36.2871 24.9386 40.2701 18.3896 47.0543C16.7651 48.7369 14.1699 52.0878 11.4946 57.0808C11.796 56.9426 19.0703 58.8314 20.3898 58.9827L20.4374 58.9912C23.8127 59.3079 27.1886 59.7182 30.557 59.2638C41.7727 57.7462 47.1329 52.7832 51.805 46.3822C55.761 40.9615 57.6937 34.9057 60.6827 31.1324C63.0513 28.1417 65.6866 26.2964 67.1058 25.2047C67.9004 24.5926 68.9637 24.0221 69.8967 23.637L69.9054 23.6309L69.9037 23.6321Z" fill="url(#paint3_radial_1054_10365)"/>
<g id="Group_3">
<path id="Vector_5" fill-rule="evenodd" clip-rule="evenodd" d="M69.9037 23.6321C68.6117 23.6575 64.6917 24.4987 63.8043 24.6925C61.878 25.113 59.951 25.5287 58.04 26.0117C51.1245 27.754 44.4112 30.3526 38.0196 33.4992C32.3555 36.2871 24.9386 40.2701 18.3896 47.0543C16.7651 48.7369 14.1699 52.0878 11.4946 57.0808C11.796 56.9426 19.0703 58.8314 20.3898 58.9827L20.4374 58.9912C23.8127 59.3079 27.1886 59.7182 30.557 59.2638C41.7727 57.7462 47.1329 52.7832 51.805 46.3822C55.761 40.9615 57.6937 34.9057 60.6827 31.1324C63.0513 28.1417 65.6866 26.2964 67.1058 25.2047C67.9004 24.5926 68.9637 24.0221 69.8967 23.637L69.9054 23.6309L69.9037 23.6321Z" fill="url(#paint4_radial_1054_10365)"/>
</g>
<g id="Group_4">
<path id="Vector_6" fill-rule="evenodd" clip-rule="evenodd" d="M69.9037 23.6321C68.6117 23.6575 64.6917 24.4987 63.8043 24.6925C61.878 25.113 59.951 25.5287 58.04 26.0117C51.1245 27.754 44.4112 30.3526 38.0196 33.4992C32.3555 36.2871 24.9386 40.2701 18.3896 47.0543C16.7651 48.7369 14.1699 52.0878 11.4946 57.0808C11.796 56.9426 19.0703 58.8314 20.3898 58.9827L20.4374 58.9912C23.8127 59.3079 27.1886 59.7182 30.557 59.2638C41.7727 57.7462 47.1329 52.7832 51.805 46.3822C55.761 40.9615 57.6937 34.9057 60.6827 31.1324C63.0513 28.1417 65.6866 26.2964 67.1058 25.2047C67.9004 24.5926 68.9637 24.0221 69.8967 23.637L69.9054 23.6309L69.9037 23.6321Z" fill="url(#paint5_radial_1054_10365)"/>
</g>
<path id="Vector_7" opacity="0.4" fill-rule="evenodd" clip-rule="evenodd" d="M12.1519 57.5839C12.7517 57.1582 12.9358 56.5927 15.1012 53.6687C16.163 52.2344 16.9984 51.0789 18.1189 49.6949C23.0443 43.618 29.5611 39.0198 36.4081 35.3789C41.6237 32.605 46.9186 30.0184 52.5188 28.1271C55.9124 26.9808 59.6331 25.796 63.1385 24.9946C65.3845 24.4806 66.8711 24.0235 69.9023 23.6304C68.025 23.5227 65.5853 24.0837 63.4345 24.6146C59.1375 25.6758 56.3496 26.0001 52.1144 27.3054C46.5202 29.0306 40.9198 30.9586 35.6753 33.5464C28.0836 37.2914 20.9751 42.2601 15.5887 48.8902C14.4612 50.2791 13.3973 51.8142 12.4182 53.3107C12.0658 53.8478 11.5175 54.6294 11.1358 55.7227C10.916 56.3524 10.603 57.0683 11.1361 57.4052C11.4994 57.6338 12.1414 57.5913 12.1484 57.5864L12.1519 57.5839Z" fill="url(#paint6_linear_1054_10365)"/>
<path id="Vector_8" fill-rule="evenodd" clip-rule="evenodd" d="M12.0842 57.7882C12.5714 57.3838 12.8577 56.5221 13.1195 56.0563C13.532 55.315 13.9457 54.5756 14.3833 53.848C16.1686 50.8795 18.2354 48.2049 20.7257 45.7925C25.2525 41.4086 30.5893 37.9461 36.1327 34.9972C41.3483 32.2233 46.7787 29.8004 52.3789 27.9091C55.7725 26.7628 59.6111 25.72 63.1164 24.9186C65.3625 24.4046 66.8893 23.9454 69.9023 23.6304C68.0892 23.6031 65.5997 24.1599 63.4488 24.6908C59.1518 25.752 56.4032 26.1508 52.1692 27.4578C46.5749 29.1829 41.1479 31.4362 35.9004 34.0235C28.8269 37.5122 21.7522 41.9164 16.5427 47.9521C14.7016 50.087 13.1095 52.4288 11.6777 54.8541C11.4193 55.2914 11.1668 55.7297 10.918 56.1733C10.7134 56.5389 10.4718 56.9147 10.6136 57.3509C10.7086 57.6423 10.9526 57.8788 11.2472 57.9648C11.5825 58.0642 11.8556 57.9746 12.083 57.7864L12.0842 57.7882Z" fill="url(#paint7_linear_1054_10365)"/>
<path id="Vector_9" fill-rule="evenodd" clip-rule="evenodd" d="M11.5243 57.9848C11.8695 57.9126 12.4566 56.4141 12.7818 55.8307C13.1942 55.0894 13.6592 54.2486 14.0951 53.5223C15.8804 50.5539 17.9789 48.006 20.4674 45.5948C24.9942 41.2109 30.413 37.7353 35.9593 34.787C41.1749 32.013 46.6774 29.652 52.2775 27.7607C55.6712 26.6144 59.6061 25.7052 63.1086 24.885C65.3549 24.3603 67.4749 23.8039 69.8989 23.6328C67.5297 23.7446 65.3517 24.326 63.4724 24.7318C59.1468 25.6667 56.4807 26.2872 52.2455 27.5924C46.6512 29.3176 41.1965 31.6948 35.949 34.2821C28.8756 37.7708 22.0324 42.1563 16.823 48.192C14.9766 50.3306 13.425 52.6074 11.9496 55.0189C11.7221 55.3927 10.5149 57.1432 10.6772 57.4971C10.7749 57.7108 11.1744 58.0577 11.5243 57.9848Z" fill="url(#paint8_radial_1054_10365)"/>
</g>
<defs>
<radialGradient id="paint0_radial_1054_10365" cx="0" cy="0" r="1" gradientUnits="userSpaceOnUse" gradientTransform="translate(44.6163 37.8102) rotate(-24.4518) scale(41.4735 41.6074)">
<stop stop-color="#077800"/>
<stop offset="1" stop-color="#44AD00"/>
</radialGradient>
<linearGradient id="paint1_linear_1054_10365" x1="44.2661" y1="51.1071" x2="27.4495" y2="16.2098" gradientUnits="userSpaceOnUse">
<stop stop-color="#51AD04"/>
<stop offset="0.24" stop-color="#4EAB03"/>
<stop offset="0.35" stop-color="#47A603"/>
<stop offset="0.44" stop-color="#3A9D02"/>
<stop offset="0.52" stop-color="#279001"/>
<stop offset="0.58" stop-color="#0F7F00"/>
<stop offset="0.6" stop-color="#087A00"/>
<stop offset="0.65" stop-color="#1C8701"/>
<stop offset="0.72" stop-color="#339802"/>
<stop offset="0.8" stop-color="#43A303"/>
<stop offset="0.89" stop-color="#4DAA03"/>
<stop offset="1" stop-color="#51AD04"/>
</linearGradient>
<radialGradient id="paint2_radial_1054_10365" cx="0" cy="0" r="1" gradientUnits="userSpaceOnUse" gradientTransform="translate(48.816 61.7275) rotate(-24.4518) scale(38.0366 38.1594)">
<stop offset="0.91" stop-color="#098200"/>
<stop offset="0.94" stop-color="#0C8200"/>
<stop offset="0.96" stop-color="#188400"/>
<stop offset="0.98" stop-color="#2C8801"/>
<stop offset="1" stop-color="#418C03"/>
</radialGradient>
<radialGradient id="paint3_radial_1054_10365" cx="0" cy="0" r="1" gradientUnits="userSpaceOnUse" gradientTransform="translate(0.0446784 49.2371) rotate(145.384) scale(57.0646 57.2621)">
<stop stop-color="#48A304"/>
<stop offset="1" stop-color="#6EC224"/>
</radialGradient>
<radialGradient id="paint4_radial_1054_10365" cx="0" cy="0" r="1" gradientUnits="userSpaceOnUse" gradientTransform="translate(30.5937 37.822) rotate(145.384) scale(74.2684 74.5254)">
<stop stop-color="#258A00"/>
<stop offset="0.43" stop-color="#518904"/>
</radialGradient>
<radialGradient id="paint5_radial_1054_10365" cx="0" cy="0" r="1" gradientUnits="userSpaceOnUse" gradientTransform="translate(10.7677 65.7225) rotate(145.384) scale(115.737 116.138)">
<stop stop-color="#76C425"/>
<stop offset="0.22" stop-color="#3D8303"/>
</radialGradient>
<linearGradient id="paint6_linear_1054_10365" x1="66.7312" y1="23.7283" x2="11.2194" y2="62.0505" gradientUnits="userSpaceOnUse">
<stop stop-color="#3D8A03"/>
<stop offset="1" stop-color="#005C28"/>
</linearGradient>
<linearGradient id="paint7_linear_1054_10365" x1="10.0053" y1="60.8255" x2="94.0459" y2="7.73718" gradientUnits="userSpaceOnUse">
<stop stop-color="#64B021"/>
<stop offset="1" stop-color="#48A304"/>
</linearGradient>
<radialGradient id="paint8_radial_1054_10365" cx="0" cy="0" r="1" gradientUnits="userSpaceOnUse" gradientTransform="translate(40.8522 36.4096) rotate(145.384) scale(40.1467 40.2856)">
<stop offset="0.15" stop-color="#48A304"/>
<stop offset="0.38" stop-color="#5FB219"/>
<stop offset="0.45" stop-color="#67B821"/>
</radialGradient>
<clipPath id="clip0_1054_10365">
<rect width="44.0729" height="76.8451" fill="white" transform="matrix(-0.574112 -0.818777 -0.818777 0.574112 88.5012 36.5193)"/>
</clipPath>
</defs>
</svg>
