<svg width="177" height="61" viewBox="0 0 177 61" fill="none" xmlns="http://www.w3.org/2000/svg">
<mask id="path-1-outside-1_99_2832" maskUnits="userSpaceOnUse" x="0" y="-0.833984" width="177" height="62" fill="black">
<rect fill="white" y="-0.833984" width="177" height="62"/>
<path d="M171.43 29.2671C171.084 24.9766 169.609 21.0686 166.803 17.7802C164.544 15.1385 161.237 13.1253 157.83 12.4421C154.341 11.7316 150.78 12.1779 147.527 13.5352C147.445 12.1597 146.744 10.9117 145.633 10.0372C145.478 9.9188 145.332 9.80038 145.177 9.68196C145.15 9.55443 145.123 9.4269 145.095 9.29937C144.831 8.00584 144.294 6.92182 143.21 6.08376C141.534 4.79024 139.256 4.91777 137.589 6.12931C137.453 6.22951 137.307 6.32972 137.17 6.43903L136.669 6.38437C135.23 6.22951 133.727 6.64854 132.707 7.71434C131.504 8.96232 131.185 10.7113 131.586 12.351C131.632 12.5241 131.686 12.7063 131.741 12.8793C131.768 12.9613 131.787 13.0433 131.814 13.1253C131.787 13.1799 131.768 13.2346 131.741 13.2893C131.705 13.3804 131.668 13.4623 131.632 13.5443C131.167 13.3257 130.693 13.1162 130.22 12.9249C125.592 11.0939 120.145 11.5585 115.517 13.1526C112.784 14.0909 110.188 15.3844 107.629 16.7235C106.636 15.7579 105.542 14.9016 104.294 14.2002C102.072 12.934 99.6669 12.2599 97.1345 12.0413C92.5707 11.6496 87.9159 13.6081 84.5363 16.596C83.2792 17.6982 82.2225 18.9735 81.348 20.3672C79.599 17.4249 77.0939 14.9381 73.9968 13.4988C71.0909 12.1415 67.9117 11.4492 64.6961 11.686C61.6991 11.9046 58.9572 12.6972 56.2153 13.8723C54.3023 14.6921 52.5169 15.7397 50.7679 16.851C50.4582 16.3045 50.1029 15.8034 49.6566 15.2569C48.527 13.8905 46.7962 12.852 45.0655 12.5059C43.4531 12.187 41.9136 12.3874 40.3468 12.7427C37.7689 13.3348 35.2 13.9269 32.6221 14.519C26.2273 15.9947 19.8417 17.4613 13.4469 18.9371C12.7728 19.0919 12.0623 19.2194 11.4064 19.4381C9.37502 20.1031 7.74445 21.2235 6.48736 22.9452C5.48533 24.2843 5.04808 26.0059 5.00253 27.6547C4.96609 29.0302 5.33047 30.3966 5.62197 31.7357C5.97723 33.3389 6.32339 34.9331 6.67865 36.5363C7.29809 39.3602 7.89931 42.1932 8.54607 45.0171C8.91044 46.6022 9.73028 48.0323 10.8143 49.2257C12.3447 50.9109 14.458 51.7672 16.6716 52.0222C18.0016 52.1771 19.3589 51.8674 20.6706 51.667C26.2273 50.8289 31.7931 50.0091 37.3407 49.1437C37.5138 49.1163 37.6869 49.089 37.86 49.0617C39.5998 49.7358 41.3489 50.4008 43.0887 51.0749C43.9268 51.3937 44.7557 51.7763 45.612 52.0496C47.3246 52.587 49.3286 52.0769 50.522 50.7287C51.3327 49.8087 51.7062 48.7884 51.7791 47.6953C51.9521 48.005 52.1617 48.2965 52.4076 48.5607C53.3094 49.5445 54.7214 49.9908 55.942 50.4463C56.7619 50.756 57.609 51.002 58.4744 51.1842C63.3844 52.2317 68.3763 51.6579 72.9219 49.5809C73.3591 49.3805 73.7781 49.1619 74.1972 48.9342C74.3429 49.6447 74.6253 50.2277 75.0717 50.8107C75.4725 51.3299 75.8095 51.6943 76.4199 52.0404C76.5292 52.1042 76.6476 52.1498 76.766 52.2044C76.8298 52.2317 76.9027 52.2682 76.9755 52.2955C76.9937 52.3411 77.012 52.3775 77.0393 52.423C77.6314 53.6983 78.7883 54.6184 80.1274 55.0101C81.8308 55.5111 83.6436 54.755 84.7549 53.4524C84.7822 53.416 84.8096 53.3886 84.8369 53.3522C84.928 53.3431 85.01 53.3249 85.092 53.3158C85.1922 53.2975 85.2924 53.2884 85.3926 53.2702C85.3197 53.2793 85.2377 53.2884 85.1648 53.2975C85.6567 53.2156 86.0667 53.1062 86.6497 52.7601C87.6608 52.168 88.4533 51.1842 88.7539 50.0455C88.8906 49.5354 88.927 49.0344 88.8815 48.5333C89.2276 48.6973 89.5829 48.8522 89.9381 48.9979C91.0677 49.4625 92.1973 49.7085 93.3724 49.8815C96.4969 50.2641 99.503 49.9453 102.427 48.7155C104.313 47.9139 106.071 46.8026 107.574 45.3906C107.601 45.4999 107.628 45.6184 107.665 45.7186C108.093 46.9665 108.904 47.8501 110.033 48.5151C111.828 49.5809 113.832 50.4099 115.863 50.9109C120.946 52.1589 126.275 51.6396 130.985 49.3805C134.301 47.7955 137.125 45.1447 139.001 41.9746C141.187 45.3906 144.458 48.0688 148.338 49.3076C151.8 50.4099 155.817 50.3279 159.206 48.9979C162.904 47.5404 165.874 45.1447 168.124 41.8653C170.611 38.2398 171.84 33.6578 171.421 29.2762"/>
</mask>
<path d="M171.43 29.2671C171.084 24.9766 169.609 21.0686 166.803 17.7802C164.544 15.1385 161.237 13.1253 157.83 12.4421C154.341 11.7316 150.78 12.1779 147.527 13.5352C147.445 12.1597 146.744 10.9117 145.633 10.0372C145.478 9.9188 145.332 9.80038 145.177 9.68196C145.15 9.55443 145.123 9.4269 145.095 9.29937C144.831 8.00584 144.294 6.92182 143.21 6.08376C141.534 4.79024 139.256 4.91777 137.589 6.12931C137.453 6.22951 137.307 6.32972 137.17 6.43903L136.669 6.38437C135.23 6.22951 133.727 6.64854 132.707 7.71434C131.504 8.96232 131.185 10.7113 131.586 12.351C131.632 12.5241 131.686 12.7063 131.741 12.8793C131.768 12.9613 131.787 13.0433 131.814 13.1253C131.787 13.1799 131.768 13.2346 131.741 13.2893C131.705 13.3804 131.668 13.4623 131.632 13.5443C131.167 13.3257 130.693 13.1162 130.22 12.9249C125.592 11.0939 120.145 11.5585 115.517 13.1526C112.784 14.0909 110.188 15.3844 107.629 16.7235C106.636 15.7579 105.542 14.9016 104.294 14.2002C102.072 12.934 99.6669 12.2599 97.1345 12.0413C92.5707 11.6496 87.9159 13.6081 84.5363 16.596C83.2792 17.6982 82.2225 18.9735 81.348 20.3672C79.599 17.4249 77.0939 14.9381 73.9968 13.4988C71.0909 12.1415 67.9117 11.4492 64.6961 11.686C61.6991 11.9046 58.9572 12.6972 56.2153 13.8723C54.3023 14.6921 52.5169 15.7397 50.7679 16.851C50.4582 16.3045 50.1029 15.8034 49.6566 15.2569C48.527 13.8905 46.7962 12.852 45.0655 12.5059C43.4531 12.187 41.9136 12.3874 40.3468 12.7427C37.7689 13.3348 35.2 13.9269 32.6221 14.519C26.2273 15.9947 19.8417 17.4613 13.4469 18.9371C12.7728 19.0919 12.0623 19.2194 11.4064 19.4381C9.37502 20.1031 7.74445 21.2235 6.48736 22.9452C5.48533 24.2843 5.04808 26.0059 5.00253 27.6547C4.96609 29.0302 5.33047 30.3966 5.62197 31.7357C5.97723 33.3389 6.32339 34.9331 6.67865 36.5363C7.29809 39.3602 7.89931 42.1932 8.54607 45.0171C8.91044 46.6022 9.73028 48.0323 10.8143 49.2257C12.3447 50.9109 14.458 51.7672 16.6716 52.0222C18.0016 52.1771 19.3589 51.8674 20.6706 51.667C26.2273 50.8289 31.7931 50.0091 37.3407 49.1437C37.5138 49.1163 37.6869 49.089 37.86 49.0617C39.5998 49.7358 41.3489 50.4008 43.0887 51.0749C43.9268 51.3937 44.7557 51.7763 45.612 52.0496C47.3246 52.587 49.3286 52.0769 50.522 50.7287C51.3327 49.8087 51.7062 48.7884 51.7791 47.6953C51.9521 48.005 52.1617 48.2965 52.4076 48.5607C53.3094 49.5445 54.7214 49.9908 55.942 50.4463C56.7619 50.756 57.609 51.002 58.4744 51.1842C63.3844 52.2317 68.3763 51.6579 72.9219 49.5809C73.3591 49.3805 73.7781 49.1619 74.1972 48.9342C74.3429 49.6447 74.6253 50.2277 75.0717 50.8107C75.4725 51.3299 75.8095 51.6943 76.4199 52.0404C76.5292 52.1042 76.6476 52.1498 76.766 52.2044C76.8298 52.2317 76.9027 52.2682 76.9755 52.2955C76.9937 52.3411 77.012 52.3775 77.0393 52.423C77.6314 53.6983 78.7883 54.6184 80.1274 55.0101C81.8308 55.5111 83.6436 54.755 84.7549 53.4524C84.7822 53.416 84.8096 53.3886 84.8369 53.3522C84.928 53.3431 85.01 53.3249 85.092 53.3158C85.1922 53.2975 85.2924 53.2884 85.3926 53.2702C85.3197 53.2793 85.2377 53.2884 85.1648 53.2975C85.6567 53.2156 86.0667 53.1062 86.6497 52.7601C87.6608 52.168 88.4533 51.1842 88.7539 50.0455C88.8906 49.5354 88.927 49.0344 88.8815 48.5333C89.2276 48.6973 89.5829 48.8522 89.9381 48.9979C91.0677 49.4625 92.1973 49.7085 93.3724 49.8815C96.4969 50.2641 99.503 49.9453 102.427 48.7155C104.313 47.9139 106.071 46.8026 107.574 45.3906C107.601 45.4999 107.628 45.6184 107.665 45.7186C108.093 46.9665 108.904 47.8501 110.033 48.5151C111.828 49.5809 113.832 50.4099 115.863 50.9109C120.946 52.1589 126.275 51.6396 130.985 49.3805C134.301 47.7955 137.125 45.1447 139.001 41.9746C141.187 45.3906 144.458 48.0688 148.338 49.3076C151.8 50.4099 155.817 50.3279 159.206 48.9979C162.904 47.5404 165.874 45.1447 168.124 41.8653C170.611 38.2398 171.84 33.6578 171.421 29.2762" fill="#4416CE"/>
<path d="M166.803 17.7802L170.607 14.5349L170.603 14.5305L166.803 17.7802ZM157.83 12.4421L156.832 17.3415L156.84 17.343L156.847 17.3445L157.83 12.4421ZM147.527 13.5352L142.536 13.8327L142.955 20.8615L149.453 18.1494L147.527 13.5352ZM145.633 10.0372L148.725 6.10787L148.697 6.08646L148.67 6.06543L145.633 10.0372ZM145.177 9.68196L140.288 10.7296L140.675 12.5332L142.14 13.6537L145.177 9.68196ZM145.095 9.29937L140.196 10.2998L140.201 10.3234L140.206 10.347L145.095 9.29937ZM143.21 6.08376L146.268 2.12807L146.264 2.12545L143.21 6.08376ZM137.589 6.12931L134.65 2.08467L134.641 2.09096L134.632 2.09729L137.589 6.12931ZM137.17 6.43903L136.628 11.4095L138.681 11.6335L140.294 10.3434L137.17 6.43903ZM136.669 6.38437L137.211 1.41386L137.204 1.41306L136.669 6.38437ZM132.707 7.71434L136.307 11.1836L136.313 11.1777L136.318 11.1719L132.707 7.71434ZM131.586 12.351L126.729 13.5383L126.74 13.581L126.751 13.6235L131.586 12.351ZM131.741 12.8793L126.973 14.385L126.985 14.4228L126.998 14.4605L131.741 12.8793ZM131.814 13.1253L136.286 15.3614L137.212 13.5089L136.557 11.5442L131.814 13.1253ZM131.741 13.2893L127.269 11.0532L127.176 11.2392L127.099 11.4323L131.741 13.2893ZM131.632 13.5443L129.503 18.0684L134.126 20.2439L136.201 15.575L131.632 13.5443ZM130.22 12.9249L132.092 8.28868L132.076 8.28208L132.059 8.27559L130.22 12.9249ZM115.517 13.1526L117.141 17.8817L117.146 17.88L115.517 13.1526ZM107.629 16.7235L104.143 20.308L106.738 22.8321L109.946 21.1539L107.629 16.7235ZM104.294 14.2002L101.82 18.5447L101.832 18.5518L101.845 18.5589L104.294 14.2002ZM97.1345 12.0413L97.5646 7.05981L97.5621 7.0596L97.1345 12.0413ZM84.5363 16.596L87.8327 20.3555L87.8404 20.3487L87.8481 20.3419L84.5363 16.596ZM81.348 20.3672L77.05 22.9221L81.2327 29.9585L85.5833 23.0247L81.348 20.3672ZM73.9968 13.4988L71.8808 18.029L71.8896 18.0331L73.9968 13.4988ZM64.6961 11.686L65.0599 16.6728L65.0634 16.6725L64.6961 11.686ZM56.2153 13.8723L54.2457 9.27653L56.2153 13.8723ZM50.7679 16.851L46.4178 19.3161L49.0106 23.8916L53.4495 21.0711L50.7679 16.851ZM49.6566 15.2569L53.5292 12.0942L53.5198 12.0826L53.5103 12.0711L49.6566 15.2569ZM45.0655 12.5059L46.046 7.60294L46.0354 7.60083L45.0655 12.5059ZM40.3468 12.7427L39.2412 7.86646L39.2276 7.86959L40.3468 12.7427ZM32.6221 14.519L31.5028 9.64591L31.4978 9.64707L32.6221 14.519ZM13.4469 18.9371L14.5664 23.8101L14.5712 23.809L13.4469 18.9371ZM11.4064 19.4381L12.962 24.1899L12.9748 24.1858L12.9875 24.1815L11.4064 19.4381ZM6.48736 22.9452L10.4906 25.9408L10.5082 25.9173L10.5255 25.8937L6.48736 22.9452ZM5.00253 27.6547L0.00443411 27.5166L0.00428391 27.5223L5.00253 27.6547ZM5.62197 31.7357L0.736385 32.7992L0.738366 32.8083L0.74038 32.8174L5.62197 31.7357ZM6.67865 36.5363L11.5625 35.465L11.5602 35.4546L6.67865 36.5363ZM8.54607 45.0171L3.67226 46.1334L3.67317 46.1373L8.54607 45.0171ZM10.8143 49.2257L14.5158 45.8643L14.5153 45.8637L10.8143 49.2257ZM16.6716 52.0222L17.2499 47.0558L17.244 47.0551L16.6716 52.0222ZM20.6706 51.667L19.925 46.7229L19.9155 46.7243L20.6706 51.667ZM37.3407 49.1437L38.1114 54.0839L38.1205 54.0825L37.3407 49.1437ZM37.86 49.0617L39.6663 44.3994L38.4105 43.9128L37.0802 44.1229L37.86 49.0617ZM43.0887 51.0749L41.2824 55.7372L41.2966 55.7427L41.3109 55.7481L43.0887 51.0749ZM45.612 52.0496L44.0918 56.8129L44.1033 56.8165L44.1149 56.8201L45.612 52.0496ZM50.522 50.7287L54.266 54.0427L54.2733 54.0344L50.522 50.7287ZM51.7791 47.6953L56.1438 45.2562L47.9125 30.5266L46.7901 47.3627L51.7791 47.6953ZM52.4076 48.5607L56.0934 45.182L56.0803 45.1678L56.0671 45.1536L52.4076 48.5607ZM55.942 50.4463L57.709 45.7689L57.6995 45.7654L57.69 45.7618L55.942 50.4463ZM58.4744 51.1842L59.5177 46.2942L59.5045 46.2914L58.4744 51.1842ZM72.9219 49.5809L74.9998 54.1287L75.0051 54.1262L72.9219 49.5809ZM74.1972 48.9342L79.0952 47.9294L77.7391 41.3185L71.8096 44.541L74.1972 48.9342ZM75.0717 50.8107L71.1016 53.8502L71.1077 53.8581L71.1137 53.8659L75.0717 50.8107ZM76.4199 52.0404L78.9392 47.7215L78.913 47.7062L78.8866 47.6913L76.4199 52.0404ZM76.766 52.2044L74.6707 56.7442L74.7332 56.773L74.7964 56.8001L76.766 52.2044ZM76.9755 52.2955L81.6179 50.4386L80.7981 48.389L78.7311 47.6139L76.9755 52.2955ZM77.0393 52.423L81.5743 50.3175L81.4629 50.0775L81.3268 49.8506L77.0393 52.423ZM80.1274 55.0101L81.5382 50.2133L81.5311 50.2112L80.1274 55.0101ZM84.7549 53.4524L88.5587 56.6976L88.6607 56.5781L88.7549 56.4524L84.7549 53.4524ZM84.8369 53.3522L84.3394 48.377L82.1544 48.5955L80.8369 50.3522L84.8369 53.3522ZM85.092 53.3158L85.6441 58.2852L85.8161 58.2661L85.9864 58.2351L85.092 53.3158ZM85.3926 53.2702L86.287 58.1896L84.7724 48.3088L85.3926 53.2702ZM85.1648 53.2975L84.3428 48.3656L85.785 58.2589L85.1648 53.2975ZM86.6497 52.7601L84.1231 48.4454L84.11 48.4531L84.097 48.4608L86.6497 52.7601ZM88.7539 50.0455L83.9242 48.7518L83.9219 48.7605L83.9196 48.7692L88.7539 50.0455ZM88.8815 48.5333L91.0219 44.0147L83.1093 40.2666L83.902 48.986L88.8815 48.5333ZM89.9381 48.9979L91.84 44.3738L91.8359 44.3721L89.9381 48.9979ZM93.3724 49.8815L92.6438 54.8282L92.7041 54.837L92.7647 54.8445L93.3724 49.8815ZM102.427 48.7155L104.365 53.3245L104.374 53.3208L104.383 53.317L102.427 48.7155ZM107.574 45.3906L112.425 44.1779L110.359 35.9144L104.15 41.7464L107.574 45.3906ZM107.665 45.7186L112.394 44.0961L112.38 44.0528L112.364 44.0098L107.665 45.7186ZM110.033 48.5151L112.587 44.2162L112.578 44.2112L112.57 44.2063L110.033 48.5151ZM115.863 50.9109L114.666 55.7654L114.671 55.7667L115.863 50.9109ZM130.985 49.3805L128.828 44.8694L128.822 44.8724L130.985 49.3805ZM139.001 41.9746L143.212 39.2793L138.835 32.4396L134.698 39.4276L139.001 41.9746ZM148.338 49.3076L146.818 54.0708L146.821 54.0719L148.338 49.3076ZM159.206 48.9979L161.032 53.6523L161.039 53.6497L159.206 48.9979ZM168.124 41.8653L172.247 44.6941L172.247 44.6935L168.124 41.8653ZM171.43 29.2671L176.414 28.865C175.993 23.6406 174.166 18.7065 170.607 14.5349L166.803 17.7802L162.999 21.0254C165.051 23.4308 166.176 26.3125 166.447 29.6692L171.43 29.2671ZM166.803 17.7802L170.603 14.5305C167.657 11.0861 163.378 8.45507 158.813 7.53969L157.83 12.4421L156.847 17.3445C159.096 17.7955 161.43 19.1909 163.003 21.0298L166.803 17.7802ZM157.83 12.4421L158.828 7.54266C154.269 6.61415 149.69 7.21466 145.602 8.92098L147.527 13.5352L149.453 18.1494C151.869 17.1412 154.414 16.849 156.832 17.3415L157.83 12.4421ZM147.527 13.5352L152.519 13.2377C152.344 10.302 150.849 7.77954 148.725 6.10787L145.633 10.0372L142.541 13.9666C142.591 14.0058 142.594 14.0236 142.58 13.9979C142.572 13.9851 142.562 13.9634 142.554 13.933C142.545 13.9023 142.538 13.868 142.536 13.8327L147.527 13.5352ZM145.633 10.0372L148.67 6.06543C148.626 6.03174 148.579 5.99476 148.499 5.93213C148.429 5.87634 148.325 5.79489 148.215 5.71017L145.177 9.68196L142.14 13.6537C142.184 13.6874 142.231 13.7244 142.311 13.787C142.381 13.8428 142.485 13.9243 142.595 14.009L145.633 10.0372ZM145.177 9.68196L150.066 8.63431C150.053 8.57043 150.039 8.50657 150.025 8.44282C150.012 8.37904 149.998 8.31537 149.984 8.25172L145.095 9.29937L140.206 10.347C140.22 10.4109 140.234 10.4748 140.247 10.5385C140.261 10.6023 140.275 10.666 140.288 10.7296L145.177 9.68196ZM145.095 9.29937L149.994 8.29889C149.556 6.15522 148.532 3.87837 146.268 2.12807L143.21 6.08376L140.151 10.0395C140.165 10.0502 140.158 10.0459 140.14 10.0255C140.122 10.005 140.11 9.9857 140.104 9.97556C140.093 9.95615 140.142 10.0323 140.196 10.2998L145.095 9.29937ZM143.21 6.08376L146.264 2.12545C142.597 -0.704598 137.862 -0.249882 134.65 2.08467L137.589 6.12931L140.529 10.1739C140.562 10.1494 140.567 10.1646 140.506 10.1659C140.47 10.1667 140.414 10.1622 140.345 10.14C140.272 10.1169 140.206 10.0812 140.155 10.0421L143.21 6.08376ZM137.589 6.12931L134.632 2.09729C134.559 2.15136 134.59 2.1274 134.443 2.23422C134.349 2.30245 134.205 2.40788 134.047 2.53468L137.17 6.43903L140.294 10.3434C140.272 10.3609 140.269 10.3615 140.317 10.3273C140.341 10.3096 140.364 10.2931 140.405 10.2632C140.442 10.2371 140.492 10.2007 140.546 10.1613L137.589 6.12931ZM137.17 6.43903L137.712 1.46852L137.211 1.41386L136.669 6.38437L136.127 11.3549L136.628 11.4095L137.17 6.43903ZM136.669 6.38437L137.204 1.41306C134.532 1.12562 131.386 1.86306 129.095 4.25682L132.707 7.71434L136.318 11.1719C136.197 11.2983 136.086 11.3436 136.055 11.3537C136.04 11.3583 136.042 11.3562 136.06 11.3545C136.077 11.3528 136.103 11.3524 136.134 11.3557L136.669 6.38437ZM132.707 7.71434L129.106 4.24512C126.502 6.9479 126 10.5547 126.729 13.5383L131.586 12.351L136.443 11.1637C136.428 11.1003 136.423 11.0504 136.422 11.0175C136.422 10.9848 136.425 10.9746 136.423 10.9852C136.42 10.9968 136.412 11.0273 136.39 11.0689C136.367 11.1119 136.338 11.152 136.307 11.1836L132.707 7.71434ZM131.586 12.351L126.751 13.6235C126.825 13.9044 126.905 14.1709 126.973 14.385L131.741 12.8793L136.509 11.3737C136.467 11.2416 136.439 11.1437 136.421 11.0785L131.586 12.351ZM131.741 12.8793L126.998 14.4605C126.978 14.4032 126.966 14.36 126.96 14.3409C126.956 14.3254 126.953 14.315 126.96 14.3406C126.964 14.356 126.978 14.4074 126.995 14.4638C127.012 14.5239 127.038 14.6082 127.07 14.7064L131.814 13.1253L136.557 11.5442C136.576 11.6014 136.589 11.6447 136.595 11.6638C136.599 11.6792 136.602 11.6896 136.595 11.664C136.591 11.6486 136.576 11.5972 136.56 11.5408C136.542 11.4807 136.517 11.3965 136.484 11.2982L131.741 12.8793ZM131.814 13.1253L127.342 10.8892C127.286 11.0011 127.243 11.0964 127.214 11.1621C127.187 11.2228 127.165 11.277 127.162 11.2841C127.154 11.3044 127.165 11.2775 127.179 11.2441C127.196 11.2057 127.227 11.1377 127.269 11.0532L131.741 13.2893L136.213 15.5253C136.269 15.4134 136.312 15.3182 136.341 15.2524C136.367 15.1917 136.39 15.1375 136.393 15.1304C136.401 15.1102 136.39 15.1371 136.376 15.1704C136.359 15.2088 136.328 15.2768 136.286 15.3614L131.814 13.1253ZM131.741 13.2893L127.099 11.4323C127.102 11.4242 127.102 11.4235 127.097 11.4354C127.094 11.4417 127.091 11.4504 127.085 11.4635C127.079 11.4774 127.072 11.4921 127.063 11.5136L131.632 13.5443L136.201 15.575C136.233 15.502 136.307 15.3376 136.383 15.1462L131.741 13.2893ZM131.632 13.5443L133.761 9.02023C133.226 8.76882 132.666 8.52058 132.092 8.28868L130.22 12.9249L128.347 17.5611C128.721 17.7118 129.108 17.8826 129.503 18.0684L131.632 13.5443ZM130.22 12.9249L132.059 8.27559C125.975 5.86838 119.233 6.58409 113.889 8.42526L115.517 13.1526L117.146 17.88C121.056 16.5329 125.209 16.3194 128.38 17.5742L130.22 12.9249ZM115.517 13.1526L113.894 8.42358C110.778 9.49335 107.897 10.9401 105.311 12.2931L107.629 16.7235L109.946 21.1539C112.479 19.8288 114.791 18.6884 117.141 17.8817L115.517 13.1526ZM107.629 16.7235L111.114 13.139C109.862 11.9215 108.427 10.7875 106.744 9.84147L104.294 14.2002L101.845 18.5589C102.657 19.0157 103.409 19.5943 104.143 20.308L107.629 16.7235ZM104.294 14.2002L106.769 9.8557C103.839 8.18614 100.718 7.33207 97.5646 7.05981L97.1345 12.0413L96.7045 17.0228C98.6155 17.1877 100.305 17.6819 101.82 18.5447L104.294 14.2002ZM97.1345 12.0413L97.5621 7.0596C91.3481 6.52626 85.3909 9.16655 81.2245 12.85L84.5363 16.596L87.8481 20.3419C90.4408 18.0496 93.7934 16.7729 96.707 17.023L97.1345 12.0413ZM84.5363 16.596L81.2399 12.8364C79.5867 14.286 78.222 15.9419 77.1127 17.7098L81.348 20.3672L85.5833 23.0247C86.2231 22.0051 86.9717 21.1104 87.8327 20.3555L84.5363 16.596ZM81.348 20.3672L85.646 17.8124C83.4737 14.158 80.2633 10.8974 76.1039 8.96446L73.9968 13.4988L71.8896 18.0331C73.9246 18.9788 75.7243 20.6918 77.05 22.9221L81.348 20.3672ZM73.9968 13.4988L76.1127 8.96859C72.5372 7.2985 68.5066 6.39181 64.3288 6.69952L64.6961 11.686L65.0634 16.6725C67.3169 16.5065 69.6446 16.9845 71.8808 18.029L73.9968 13.4988ZM64.6961 11.686L64.3323 6.69927C60.6519 6.96775 57.3618 7.94108 54.2457 9.27653L56.2153 13.8723L58.1849 18.468C60.5527 17.4532 62.7464 16.8415 65.0599 16.6728L64.6961 11.686ZM56.2153 13.8723L54.2457 9.27653C51.9668 10.2532 49.9177 11.4673 48.0864 12.6309L50.7679 16.851L53.4495 21.0711C55.1162 20.0121 56.6379 19.131 58.1849 18.468L56.2153 13.8723ZM50.7679 16.851L55.118 14.386C54.6365 13.5362 54.1068 12.8014 53.5292 12.0942L49.6566 15.2569L45.7839 18.4196C46.0991 18.8055 46.2799 19.0727 46.4178 19.3161L50.7679 16.851ZM49.6566 15.2569L53.5103 12.0711C51.6546 9.82634 48.9123 8.17621 46.046 7.60295L45.0655 12.5059L44.0849 17.4088C44.6801 17.5278 45.3994 17.9546 45.8029 18.4426L49.6566 15.2569ZM45.0655 12.5059L46.0354 7.60083C43.4126 7.08219 41.0701 7.45178 39.2412 7.86648L40.3468 12.7427L41.4525 17.6189C42.7571 17.3231 43.4937 17.2919 44.0955 17.4109L45.0655 12.5059ZM40.3468 12.7427L39.2276 7.86959C37.9375 8.16589 36.6498 8.46216 35.3633 8.75818C34.0765 9.05427 32.7907 9.35011 31.5028 9.64591L32.6221 14.519L33.7414 19.3921C35.0314 19.0958 36.3191 18.7996 37.6056 18.5035C38.8925 18.2075 40.1782 17.9116 41.4661 17.6158L40.3468 12.7427ZM32.6221 14.519L31.4978 9.64707C28.3019 10.3846 25.1081 11.1199 21.9127 11.8555C18.7178 12.591 15.5215 13.3269 12.3226 14.0651L13.4469 18.9371L14.5712 23.809C17.7671 23.0715 20.9609 22.3362 24.1563 21.6006C27.3512 20.8651 30.5475 20.1292 33.7464 19.391L32.6221 14.519ZM13.4469 18.9371L12.3274 14.064C11.9808 14.1436 10.7847 14.3749 9.82527 14.6947L11.4064 19.4381L12.9875 24.1815C13.3399 24.064 13.5648 24.0402 14.5664 23.8101L13.4469 18.9371ZM11.4064 19.4381L9.85086 14.6862C6.91262 15.648 4.37754 17.3558 2.44923 19.9967L6.48736 22.9452L10.5255 25.8937C11.1114 25.0913 11.8374 24.5581 12.962 24.1899L11.4064 19.4381ZM6.48736 22.9452L2.48409 19.9495C0.689575 22.3477 0.0692878 25.1691 0.00443745 27.5166L5.00253 27.6547L10.0006 27.7928C10.0269 26.8428 10.2811 26.2208 10.4906 25.9408L6.48736 22.9452ZM5.00253 27.6547L0.00428391 27.5223C-0.0525727 29.6687 0.522678 31.8175 0.736385 32.7992L5.62197 31.7357L10.5075 30.6722C10.1383 28.9757 9.98476 28.3918 10.0008 27.7871L5.00253 27.6547ZM5.62197 31.7357L0.74038 32.8174C0.916678 33.613 1.0909 34.4072 1.26645 35.2074C1.44161 36.0059 1.6181 36.8104 1.79706 37.618L6.67865 36.5363L11.5602 35.4546C11.3839 34.659 11.2097 33.8648 11.0342 33.0646C10.859 32.2661 10.6825 31.4616 10.5036 30.654L5.62197 31.7357ZM6.67865 36.5363L1.79477 37.6076C2.40428 40.3863 3.01884 43.2804 3.67227 46.1334L8.54607 45.0171L13.4199 43.9009C12.7798 41.1061 12.1919 38.3342 11.5625 35.465L6.67865 36.5363ZM8.54607 45.0171L3.67317 46.1373C4.25834 48.6828 5.54592 50.8622 7.11332 52.5876L10.8143 49.2257L14.5153 45.8637C13.9146 45.2025 13.5625 44.5215 13.419 43.8969L8.54607 45.0171ZM10.8143 49.2257L7.11279 52.587C9.65726 55.389 13.0151 56.634 16.0993 56.9894L16.6716 52.0222L17.244 47.0551C15.9009 46.9003 15.0321 46.4328 14.5158 45.8643L10.8143 49.2257ZM16.6716 52.0222L16.0933 56.9887C18.2946 57.245 20.6496 56.7282 21.4257 56.6096L20.6706 51.667L19.9155 46.7243C18.0681 47.0065 17.7085 47.1092 17.2499 47.0558L16.6716 52.0222ZM20.6706 51.667L21.4163 56.611C26.95 55.7765 32.5474 54.9519 38.1114 54.0839L37.3407 49.1437L36.5701 44.2034C31.0389 45.0662 25.5047 45.8813 19.925 46.7229L20.6706 51.667ZM37.3407 49.1437L38.1205 54.0825C38.2071 54.0688 38.2936 54.0552 38.3802 54.0415C38.4667 54.0278 38.5532 54.0142 38.6398 54.0005L37.86 49.0617L37.0802 44.1229C36.9936 44.1365 36.9071 44.1502 36.8205 44.1639C36.734 44.1775 36.6475 44.1912 36.5609 44.2049L37.3407 49.1437ZM37.86 49.0617L36.0536 53.724C36.9321 54.0644 37.8117 54.402 38.6827 54.7363C39.5562 55.0715 40.421 55.4034 41.2824 55.7372L43.0887 51.0749L44.8951 46.4125C44.0166 46.0722 43.137 45.7346 42.266 45.4003C41.3925 45.065 40.5277 44.7331 39.6663 44.3994L37.86 49.0617ZM43.0887 51.0749L41.3109 55.7481C41.6636 55.8823 43.1144 56.5009 44.0918 56.8129L45.612 52.0496L47.1322 47.2863C46.3971 47.0516 46.19 46.9051 44.8666 46.4016L43.0887 51.0749ZM45.612 52.0496L44.1149 56.8201C47.6155 57.9188 51.702 56.9393 54.266 54.0427L50.522 50.7287L46.778 47.4147C46.8368 47.3483 46.89 47.3098 46.9235 47.2897C46.9559 47.2703 46.9757 47.2644 46.9817 47.2629C46.9876 47.2613 46.995 47.2599 47.0086 47.2601C47.0227 47.2603 47.0569 47.2626 47.1092 47.279L45.612 52.0496ZM50.522 50.7287L54.2733 54.0344C55.8681 52.2246 56.6275 50.1355 56.768 48.0279L51.7791 47.6953L46.7901 47.3627C46.7874 47.4042 46.7831 47.4246 46.7823 47.4284C46.7816 47.4315 46.7831 47.4242 46.7884 47.411C46.7939 47.3974 46.7992 47.3879 46.8011 47.3849C46.8027 47.3822 46.7952 47.3951 46.7706 47.423L50.522 50.7287ZM51.7791 47.6953L47.4143 50.1344C47.7738 50.7777 48.2168 51.3971 48.7481 51.9678L52.4076 48.5607L56.0671 45.1536C56.1065 45.1959 56.1304 45.2323 56.1438 45.2562L51.7791 47.6953ZM52.4076 48.5607L48.7218 51.9393C49.7844 53.0985 51.0048 53.7913 51.9231 54.2242C52.7894 54.6326 53.7598 54.9688 54.1941 55.1308L55.942 50.4463L57.69 45.7618C57.5212 45.6988 57.3451 45.6345 57.2001 45.5813C57.0464 45.5248 56.9115 45.475 56.7826 45.4258C56.5223 45.3266 56.3345 45.2484 56.1875 45.179C55.8691 45.0289 55.9326 45.0067 56.0934 45.182L52.4076 48.5607ZM55.942 50.4463L54.175 55.1237C55.2413 55.5265 56.3353 55.8434 57.4444 56.0769L58.4744 51.1842L59.5045 46.2914C58.8828 46.1605 58.2824 45.9856 57.709 45.7689L55.942 50.4463ZM58.4744 51.1842L57.4311 56.0741C63.4072 57.3492 69.4926 56.645 74.9998 54.1287L72.9219 49.5809L70.8439 45.0332C67.26 46.6707 63.3615 47.1143 59.5177 46.2942L58.4744 51.1842ZM72.9219 49.5809L75.0051 54.1262C75.5902 53.8581 76.1215 53.5791 76.5847 53.3273L74.1972 48.9342L71.8096 44.541C71.4348 44.7447 71.128 44.903 70.8386 45.0356L72.9219 49.5809ZM74.1972 48.9342L69.2992 49.9389C69.6124 51.466 70.2466 52.7334 71.1016 53.8502L75.0717 50.8107L79.0417 47.7711C79.0201 47.7429 79.0141 47.7325 79.0178 47.7384C79.0218 47.7449 79.0327 47.7635 79.0462 47.7921C79.0598 47.821 79.0718 47.8513 79.0813 47.8801C79.0907 47.9085 79.0946 47.9264 79.0952 47.9294L74.1972 48.9342ZM75.0717 50.8107L71.1137 53.8659C71.7232 54.6555 72.5378 55.5869 73.9532 56.3896L76.4199 52.0404L78.8866 47.6913C78.8915 47.6941 78.9229 47.7124 78.9701 47.7471C79.0186 47.7827 79.0645 47.8215 79.1032 47.8581C79.1399 47.8929 79.1556 47.9119 79.1453 47.9C79.1318 47.8844 79.0983 47.8444 79.0296 47.7554L75.0717 50.8107ZM76.4199 52.0404L73.9005 56.3593C74.1764 56.5203 74.4157 56.6304 74.534 56.6838C74.5909 56.7094 74.6507 56.7356 74.6651 56.7419C74.6914 56.7535 74.6854 56.751 74.6707 56.7442L76.766 52.2044L78.8613 47.6646C78.8228 47.6469 78.7883 47.6313 78.76 47.6186C78.732 47.6062 78.707 47.5951 78.6896 47.5875C78.6816 47.584 78.6716 47.5796 78.6663 47.5773C78.6597 47.5743 78.655 47.5723 78.6511 47.5706C78.6431 47.567 78.6422 47.5666 78.6451 47.5679C78.6499 47.5701 78.6828 47.5849 78.7305 47.6087C78.7793 47.6329 78.8518 47.6705 78.9392 47.7215L76.4199 52.0404ZM76.766 52.2044L74.7964 56.8001C74.7635 56.786 74.7421 56.7762 74.7493 56.7795C74.7526 56.781 74.7554 56.7823 74.7672 56.7876C74.7766 56.7919 74.7921 56.799 74.8094 56.8068C74.8696 56.834 75.0261 56.9045 75.2199 56.9772L76.9755 52.2955L78.7311 47.6139C78.7646 47.6264 78.7937 47.6378 78.8177 47.6475C78.8417 47.6572 78.8619 47.6656 78.8775 47.6723C78.8931 47.6789 78.9052 47.6842 78.9129 47.6876C78.9205 47.691 78.9252 47.6931 78.9253 47.6931C78.9254 47.6932 78.9248 47.6929 78.923 47.6921C78.9212 47.6912 78.9188 47.6902 78.9151 47.6885C78.9131 47.6876 78.9114 47.6868 78.9089 47.6857C78.9067 47.6846 78.904 47.6834 78.9013 47.6822C78.8959 47.6797 78.889 47.6766 78.8815 47.6732C78.8669 47.6665 78.8464 47.6573 78.8229 47.6468C78.7992 47.6363 78.7695 47.6232 78.7356 47.6087L76.766 52.2044ZM76.9755 52.2955L72.3331 54.1525C72.4582 54.465 72.5985 54.7399 72.7518 54.9955L77.0393 52.423L81.3268 49.8506C81.3648 49.914 81.4181 50.0071 81.4761 50.1232C81.5354 50.2417 81.5822 50.3493 81.6179 50.4386L76.9755 52.2955ZM77.0393 52.423L72.5042 54.5286C73.7631 57.2399 76.1439 59.0544 78.7236 59.809L80.1274 55.0101L81.5311 50.2112C81.5158 50.2067 81.5031 50.2013 81.4942 50.1966C81.4853 50.1919 81.4836 50.1897 81.4878 50.1933C81.4971 50.2009 81.5377 50.2386 81.5743 50.3175L77.0393 52.423ZM80.1274 55.0101L78.7165 59.8069C82.7182 60.9839 86.4667 59.1497 88.5587 56.6976L84.7549 53.4524L80.9511 50.2072C80.9519 50.2063 80.9475 50.2111 80.9411 50.2155C80.9349 50.2199 80.9426 50.2129 80.9726 50.2021C81.035 50.1797 81.2471 50.1277 81.5382 50.2133L80.1274 55.0101ZM84.7549 53.4524L88.7549 56.4524C88.7017 56.5233 88.6565 56.5791 88.6274 56.6143C88.6131 56.6316 88.6019 56.6448 88.5962 56.6515C88.5913 56.6572 88.5876 56.6616 88.5922 56.6562C88.5945 56.6536 88.605 56.6413 88.6167 56.6275C88.6293 56.6128 88.6473 56.5915 88.6684 56.5659C88.7112 56.5142 88.77 56.4414 88.8369 56.3522L84.8369 53.3522L80.8369 50.3522C80.8901 50.2812 80.9353 50.2255 80.9644 50.1903C80.9787 50.173 80.9899 50.1598 80.9956 50.1531C81.0005 50.1473 81.0042 50.143 80.9996 50.1484C80.9973 50.151 80.9868 50.1633 80.9751 50.177C80.9626 50.1918 80.9446 50.2131 80.9234 50.2387C80.8806 50.2904 80.8218 50.3632 80.7549 50.4524L84.7549 53.4524ZM84.8369 53.3522L85.3344 58.3274C85.4468 58.3161 85.5429 58.3034 85.6153 58.293C85.6847 58.2831 85.7439 58.2734 85.7682 58.2695C85.8052 58.2635 85.792 58.2657 85.7804 58.2674C85.7623 58.2702 85.7123 58.2776 85.6441 58.2852L85.092 53.3158L84.5398 48.3463C84.4306 48.3585 84.3396 48.3716 84.2803 48.3806C84.2501 48.3852 84.224 48.3893 84.206 48.3922C84.191 48.3946 84.1707 48.3979 84.1675 48.3985C84.1497 48.4013 84.1661 48.3986 84.192 48.3948C84.2208 48.3907 84.2725 48.3837 84.3394 48.377L84.8369 53.3522ZM85.092 53.3158L85.9864 58.2351C85.9406 58.2434 85.908 58.2483 85.8978 58.2498C85.8907 58.2509 85.8882 58.2512 85.9178 58.2471C85.9383 58.2443 85.9909 58.2372 86.0481 58.2288C86.1085 58.2199 86.1911 58.207 86.287 58.1896L85.3926 53.2702L84.4981 48.3509C84.5439 48.3425 84.5765 48.3376 84.5867 48.3361C84.5938 48.3351 84.5963 48.3348 84.5667 48.3388C84.5462 48.3416 84.4936 48.3487 84.4364 48.3572C84.3761 48.3661 84.2934 48.379 84.1975 48.3964L85.092 53.3158ZM85.3926 53.2702L84.7724 48.3088C84.7572 48.3107 84.737 48.3131 84.6945 48.3181C84.6596 48.3222 84.6023 48.3289 84.5447 48.3361L85.1648 53.2975L85.785 58.2589C85.8002 58.257 85.8204 58.2546 85.8629 58.2496C85.8978 58.2455 85.9551 58.2388 86.0127 58.2316L85.3926 53.2702ZM85.1648 53.2975L85.9868 58.2295C86.9375 58.0711 87.9683 57.7921 89.2023 57.0594L86.6497 52.7601L84.097 48.4608C84.0735 48.4748 84.0807 48.4691 84.1141 48.4534C84.1495 48.4368 84.1989 48.4161 84.2579 48.396C84.382 48.3536 84.4528 48.3472 84.3428 48.3656L85.1648 53.2975ZM86.6497 52.7601L89.1763 57.0747C91.2338 55.8699 92.9234 53.8403 93.5883 51.3218L88.7539 50.0455L83.9196 48.7692C83.9549 48.6353 84.0055 48.5584 84.0319 48.5246C84.0574 48.4921 84.0846 48.468 84.1231 48.4454L86.6497 52.7601ZM88.7539 50.0455L93.5837 51.3392C93.88 50.2328 93.9571 49.139 93.8609 48.0807L88.8815 48.5333L83.902 48.986C83.9001 48.9653 83.8986 48.9282 83.9025 48.8801C83.9065 48.8316 83.9147 48.7872 83.9242 48.7518L88.7539 50.0455ZM88.8815 48.5333L86.741 53.052C87.181 53.2605 87.6189 53.4509 88.0404 53.6238L89.9381 48.9979L91.8359 44.3721C91.5469 44.2535 91.2742 44.1342 91.0219 44.0147L88.8815 48.5333ZM89.9381 48.9979L88.0363 53.6221C89.6847 54.3001 91.2537 54.6234 92.6438 54.8282L93.3724 49.8815L94.1009 44.9349C93.1408 44.7935 92.4507 44.6249 91.84 44.3738L89.9381 48.9979ZM93.3724 49.8815L92.7647 54.8445C96.644 55.3195 100.541 54.9327 104.365 53.3245L102.427 48.7155L100.489 44.1065C98.4644 44.9579 96.3498 45.2088 93.9801 44.9186L93.3724 49.8815ZM102.427 48.7155L104.383 53.317C106.766 52.304 109.031 50.8815 110.997 49.0349L107.574 45.3906L104.15 41.7464C103.11 42.7236 101.859 43.5238 100.471 44.1141L102.427 48.7155ZM107.574 45.3906L102.723 46.6033C102.732 46.6391 102.726 46.6168 102.742 46.6807C102.752 46.7184 102.766 46.7754 102.783 46.8401C102.815 46.9593 102.875 47.1759 102.966 47.4273L107.665 45.7186L112.364 44.0098C112.393 44.0911 112.414 44.156 112.426 44.1967C112.439 44.2379 112.446 44.2665 112.449 44.2759C112.451 44.2848 112.451 44.2854 112.447 44.267C112.444 44.2577 112.442 44.2484 112.438 44.2325C112.435 44.2184 112.43 44.1988 112.425 44.1779L107.574 45.3906ZM107.665 45.7186L102.936 47.3411C103.813 49.8978 105.516 51.6581 107.497 52.8239L110.033 48.5151L112.57 44.2063C112.391 44.1007 112.352 44.0466 112.37 44.0669C112.377 44.0755 112.387 44.0893 112.396 44.1041C112.404 44.1186 112.402 44.119 112.394 44.0961L107.665 45.7186ZM110.033 48.5151L107.48 52.8141C109.688 54.125 112.147 55.1442 114.666 55.7654L115.863 50.9109L117.061 46.0564C115.517 45.6755 113.968 45.0368 112.587 44.2162L110.033 48.5151ZM115.863 50.9109L114.671 55.7667C120.856 57.2851 127.372 56.659 133.147 53.8887L130.985 49.3805L128.822 44.8724C125.178 46.6203 121.037 47.0326 117.056 46.0551L115.863 50.9109ZM130.985 49.3805L133.141 53.8916C137.394 51.8588 140.947 48.5033 143.304 44.5216L139.001 41.9746L134.698 39.4276C133.302 41.786 131.208 43.7321 128.828 44.8694L130.985 49.3805ZM139.001 41.9746L134.79 44.6699C137.542 48.971 141.722 52.4439 146.818 54.0708L148.338 49.3076L149.859 44.5445C147.194 43.6936 144.832 41.8102 143.212 39.2793L139.001 41.9746ZM148.338 49.3076L146.821 54.0719C151.332 55.5084 156.532 55.4186 161.032 53.6523L159.206 48.9979L157.379 44.3436C155.102 45.2372 152.267 45.3114 149.855 44.5433L148.338 49.3076ZM159.206 48.9979L161.039 53.6497C165.686 51.8183 169.445 48.7771 172.247 44.6941L168.124 41.8653L164.001 39.0365C162.302 41.5122 160.122 43.2626 157.372 44.3461L159.206 48.9979ZM168.124 41.8653L172.247 44.6935C175.378 40.1294 176.933 34.3833 176.399 28.8002L171.421 29.2762L166.444 29.7522C166.748 32.9322 165.844 36.3501 164 39.0371L168.124 41.8653Z" fill="white" mask="url(#path-1-outside-1_99_2832)"/>
<path d="M94.1885 49.9819C93.9147 49.9454 93.65 49.9089 93.3763 49.8633C93.2941 49.8542 93.212 49.8451 93.1299 49.8359C93.4858 49.8816 93.8326 49.9272 94.1885 49.9728" fill="#4416CE"/>
<path d="M109.203 27.2364C108.72 25.0957 107.855 23.1827 106.625 21.5066C106.242 20.9873 105.832 20.4954 105.386 20.0309C102.844 17.3983 99.4831 15.959 96.0944 15.959C94.9102 15.959 93.7169 16.1685 92.5691 16.5147C87.1764 18.0815 83.3596 22.709 82.4668 28.6028C82.3393 29.5319 82.2573 30.4246 82.2573 31.3174C82.2573 35.8994 84.2067 40.2263 87.5225 43.032C88.0691 43.4874 88.6248 43.8883 89.1895 44.2435C90.7472 45.2182 92.4051 45.8285 94.1815 46.0472C94.728 46.1292 95.2837 46.1292 95.9214 46.1292C96.9416 46.1292 97.9163 46.0472 98.8455 45.7921C103.938 44.5168 107.754 40.536 109.194 35.0157C109.531 33.704 109.704 32.3831 109.704 31.1078C109.704 29.8325 109.531 28.5663 109.194 27.2455M97.0145 23.9297C98.7088 24.3942 100.103 25.6969 100.931 27.2455C102.717 30.5704 101.952 34.7971 99.0094 37.1929C98.2625 37.7941 97.3606 38.2313 96.4041 38.2951C93.389 38.4864 91.0023 35.6716 90.3646 32.9844C90.1734 32.1645 90.0914 31.29 90.1096 30.3882C90.2007 26.7991 92.9699 22.8274 97.0054 23.9297" fill="#F7CE46"/>
<path d="M95.9375 46.1154C96.9578 46.1154 97.9325 46.0334 98.8616 45.7784C103.954 44.5031 107.771 40.5132 109.219 35.002C109.556 33.6903 109.729 32.3694 109.729 31.0941C109.729 29.8188 109.556 28.5526 109.219 27.2317C108.736 25.091 107.871 23.1781 106.641 21.502C106.987 22.4311 107.288 23.3785 107.543 24.335C109.009 29.8097 107.771 36.4868 103.69 40.5769C101.421 42.8543 98.3515 44.248 95.1632 44.6124C93.6511 44.7855 92.1207 44.7126 90.6177 44.4757C90.1622 44.4029 89.6885 44.33 89.2148 44.2298C90.7725 45.2045 92.4304 45.8148 94.2068 46.0334C94.7624 46.1154 95.309 46.1154 95.9467 46.1154" fill="#E8963A"/>
<path d="M167.468 29.2698C167.286 26.8285 166.603 24.5876 165.418 22.5836C165.218 22.2374 164.999 21.9004 164.772 21.5633C162.649 18.5846 159.552 16.6534 156.191 16.1432C155.015 15.9702 153.813 15.9975 152.629 16.1615C147.063 16.9084 142.599 20.9074 140.832 26.6099C140.568 27.5117 140.349 28.3862 140.213 29.2607C139.53 33.7881 140.814 38.361 143.665 41.6221C143.957 41.95 144.266 42.2598 144.576 42.5513C146.116 44.027 147.846 45.0472 149.805 45.5938C150.342 45.7578 150.88 45.8397 151.517 45.9399C152.529 46.0948 153.503 46.1586 154.46 46.0401C159.689 45.5391 164.061 42.1687 166.311 36.9308C166.839 35.6828 167.204 34.4075 167.395 33.1504C167.586 31.8933 167.605 30.6089 167.468 29.2607M148.129 29.5431C148.757 26.0087 152.091 22.4925 155.908 24.1868C157.511 24.9064 158.696 26.3913 159.288 28.0492C160.563 31.6018 159.169 35.6646 155.899 37.5958C155.07 38.0786 154.114 38.3792 153.166 38.2972C150.16 38.0421 148.211 34.8903 147.992 32.1484C147.919 31.3103 147.974 30.4358 148.129 29.5431Z" fill="#ED739F"/>
<path d="M151.513 45.9592C152.515 46.1141 153.498 46.1779 154.455 46.0594C159.684 45.5584 164.047 42.188 166.306 36.9501C166.835 35.7021 167.199 34.4268 167.39 33.1697C167.582 31.9126 167.6 30.6282 167.463 29.28C167.281 26.8387 166.598 24.5978 165.413 22.5938C165.641 23.6322 165.805 24.6889 165.924 25.7456C166.388 29.8903 165.86 33.607 163.765 37.2689C161.296 41.5685 156.924 44.11 151.458 43.9461C149.645 43.8914 147.914 43.6637 146.184 43.1262C145.664 42.9623 145.118 42.7801 144.571 42.5706C146.111 44.0463 147.842 45.0665 149.8 45.6131C150.328 45.7771 150.875 45.859 151.504 45.9592" fill="#DD468F"/>
<path d="M137.936 28.7039C137.772 27.3648 137.454 26.0531 136.98 24.8142C135.741 21.5257 133.418 18.7018 129.957 17.0895C125.766 15.1219 121.43 15.632 118.515 16.379C115.163 17.2352 112.111 18.8294 109.442 20.2322L113.013 27.0278C113.614 26.6907 114.216 26.3537 114.817 26.0622L115.008 38.8335L112.849 42.0491L111.51 44.0532C111.319 44.3356 111.401 44.7181 111.692 44.8912C113.624 46.0845 116.539 47.3872 120.21 47.5785C120.875 47.6331 121.54 47.6514 122.195 47.6149C126.24 47.4327 129.92 45.9843 132.753 43.4246C136.78 39.79 138.574 34.0329 137.927 28.6948M115.682 25.6341C117.276 24.8598 118.871 24.1674 120.483 23.7393C122.879 23.1017 125.083 23.1745 126.705 23.9397C130.348 25.6614 131.25 31.0723 129.911 34.4701C129.419 35.6999 128.654 36.793 127.707 37.6857C126.923 38.4145 126.012 39.0066 125.019 39.4256C123.699 39.9904 122.769 40.0724 122.769 40.0997C122.769 40.127 122.551 25.5338 122.551 25.5338L120.601 25.5612L115.691 25.6341H115.682Z" fill="#ED739F"/>
<path d="M111.704 44.8947C113.635 46.088 116.55 47.3907 120.221 47.582C120.886 47.6366 121.551 47.6549 122.207 47.6184C126.251 47.4271 129.931 45.9878 132.764 43.4281C136.791 39.7935 138.576 34.0364 137.938 28.6983C137.774 27.3592 137.456 26.0475 136.982 24.8086C137.164 27.4867 137.082 30.174 136.499 32.7793C135.743 36.1224 134.049 39.2287 131.343 41.4423C128.966 43.4008 125.85 44.9038 122.79 44.9129C119.1 44.922 116.085 44.2297 112.724 42.253L111.521 44.0475C111.33 44.3299 111.412 44.7125 111.704 44.8856" fill="#DD468F"/>
<path d="M122.766 40.101L122.548 25.5352L120.598 25.5625C120.589 25.69 120.58 25.8175 120.58 25.9451C120.698 29.9532 120.653 33.9522 120.753 37.9512C120.753 37.9512 120.753 37.9603 120.753 37.9694C120.753 37.9967 120.753 38.0241 120.753 38.0514C120.753 38.2154 120.753 38.3793 120.762 38.5524C120.78 39.3358 121.755 40.183 122.766 40.101Z" fill="#DD468F"/>
<path d="M79.8322 27.0706C79.5316 25.7588 79.0761 24.4926 78.4749 23.2993C76.8899 20.1657 74.2846 17.6059 70.6773 16.358C66.3048 14.8458 62.0416 15.8114 59.2268 16.8681C55.9839 18.0796 53.1144 19.9926 50.6094 21.6687L54.8817 28.0453C55.4464 27.6444 56.0112 27.2527 56.576 26.8975L58.1246 39.5686L56.3209 42.9937L55.2005 45.1253C55.0456 45.4259 55.164 45.7903 55.4647 45.9451C57.5143 46.9289 60.5477 47.9128 64.2187 47.7123C64.8837 47.7032 65.5396 47.6395 66.1955 47.5393C70.1945 46.9198 73.7016 45.098 76.2522 42.2558C79.8777 38.2204 81.0346 32.2993 79.8322 27.0614M57.3776 26.3782C58.8807 25.4309 60.3928 24.5746 61.9505 23.9825C64.2643 23.0898 66.4688 22.9349 68.154 23.5179C71.9617 24.8479 73.4374 30.1222 72.4536 33.6475C72.0983 34.9228 71.4516 36.0979 70.5953 37.0817C69.8939 37.8925 69.0558 38.5757 68.1084 39.0949C66.8513 39.7963 65.9404 39.9785 65.9404 40.0058C65.9404 40.0332 64.1823 25.5402 64.1823 25.5402L62.242 25.777L57.3594 26.3691L57.3776 26.3782Z" fill="#F7CE46"/>
<path d="M55.4677 45.9538C57.5173 46.9376 60.5507 47.9214 64.2218 47.721C64.8868 47.7119 65.5427 47.6481 66.1985 47.5479C70.1975 46.9285 73.7046 45.1066 76.2553 42.2645C79.8808 38.2291 81.0377 32.308 79.8352 27.0701C79.5346 25.7584 79.0701 24.4922 78.478 23.2988C78.9425 25.9405 79.152 28.6278 78.8423 31.2786C78.4506 34.6855 77.0842 37.9467 74.6338 40.4426C72.4749 42.638 69.5417 44.469 66.4992 44.7969C62.8281 45.1977 59.7582 44.8242 56.2056 43.221L55.2036 45.1339C55.0487 45.4346 55.1671 45.808 55.4768 45.9538" fill="#E8963A"/>
<path d="M65.9523 40.0203L64.1942 25.5547L62.2539 25.7915C62.2539 25.9191 62.263 26.0466 62.2812 26.1741C62.8187 30.1458 63.2013 34.1266 63.7296 38.0983V38.1165C63.7296 38.1438 63.7296 38.1711 63.7387 38.1985C63.757 38.3624 63.7752 38.5264 63.8025 38.6904C63.9118 39.4738 64.9594 40.2116 65.9523 40.0112" fill="#E8963A"/>
<path d="M91.7197 20.1653C91.4373 19.6916 90.8634 19.5368 90.3077 19.7918C89.0415 20.384 87.8846 21.4771 86.7733 23.135C85.9443 24.3647 85.2794 25.7494 84.8421 27.1431C84.7601 27.389 84.7966 27.6623 84.9241 27.8992C85.0607 28.1542 85.2976 28.3455 85.5618 28.4184C85.6528 28.4457 85.7439 28.4548 85.8259 28.4548C86.2723 28.4548 86.6822 28.1633 86.828 27.6988C86.919 27.4255 87.0192 27.1431 87.1195 26.8607C87.1377 26.806 87.165 26.7514 87.1832 26.6967L87.2288 26.5965C87.2925 26.4508 87.3563 26.305 87.4292 26.1593C87.748 25.4852 88.1033 24.8475 88.495 24.2645C89.3786 22.9255 90.2804 22.0783 91.3371 21.5864C91.5557 21.4862 91.7197 21.2858 91.8017 21.0307C91.8928 20.7392 91.8654 20.4113 91.7197 20.1653Z" fill="white"/>
<path d="M60.2604 19.6459C60.06 19.0994 59.5043 18.817 58.9669 18.9718C57.2543 19.482 55.6693 20.3747 54.2756 21.6135C54.0934 21.7775 53.9932 22.0326 53.9932 22.315C53.9932 22.6247 54.1207 22.9071 54.3211 23.0893C54.5306 23.2623 54.7675 23.3534 55.0134 23.3534C55.2776 23.3534 55.5418 23.2532 55.7786 23.0437L55.8424 22.98C55.8879 22.9344 55.9426 22.8889 55.9972 22.8524C55.9972 22.8524 56.0154 22.8342 56.0245 22.8251L56.1065 22.7613C56.2614 22.6429 56.4163 22.5245 56.5802 22.4061C56.899 22.1783 57.2361 21.9688 57.5731 21.7775C57.7462 21.6864 57.9193 21.5953 58.0924 21.5042L58.1835 21.4587C58.1835 21.4587 58.1926 21.4587 58.2017 21.4587L58.2837 21.4223C58.3474 21.3949 58.4112 21.3676 58.475 21.3403C58.8211 21.1945 59.1946 21.067 59.5863 20.9486C59.8505 20.8666 60.0691 20.6753 60.2057 20.4111C60.3333 20.1652 60.3515 19.8828 60.2695 19.6459" fill="white"/>
<path d="M118.941 19.1182C118.749 18.5808 118.257 18.3257 117.656 18.435C116.171 18.7265 114.705 19.3278 113.411 20.1749C113.174 20.3298 113.001 20.5848 112.947 20.8763C112.892 21.1405 112.947 21.4047 113.092 21.6051C113.311 21.9148 113.648 22.0879 113.976 22.0879C114.167 22.0879 114.349 22.0332 114.513 21.9239C114.823 21.7235 115.133 21.5413 115.443 21.3774L115.497 21.35C115.616 21.2863 115.734 21.2225 115.862 21.1678C115.898 21.1587 115.944 21.1314 115.998 21.1041C116.071 21.0676 116.153 21.0403 116.226 21.013C116.873 20.7579 117.547 20.5484 118.248 20.4118C118.485 20.3662 118.704 20.1931 118.84 19.9563C118.995 19.6921 119.032 19.3642 118.941 19.1091" fill="white"/>
<path d="M143.197 13.1273L141.585 11.8611L141.148 9.74773C141.148 9.74773 141.075 9.28315 140.71 9.1374C140.346 8.99165 139.963 9.27404 139.954 9.28315L138.269 10.5129L136.256 10.3034C136.192 10.3034 135.636 10.2487 135.454 10.604C135.29 10.9319 135.409 11.2963 135.409 11.3054L136.001 13.3368L135.163 15.2953C135.135 15.35 134.926 15.8419 135.19 16.1334C135.427 16.4067 135.855 16.4431 135.891 16.4522L137.905 16.4704L139.389 17.8733C139.389 17.8733 139.654 18.0828 139.954 18.1192C140 18.1192 140.054 18.1192 140.1 18.1192C140.492 18.0919 140.656 17.5818 140.674 17.5271L141.375 15.514L143.161 14.4573C143.161 14.4573 143.507 14.266 143.598 13.9107C143.698 13.5281 143.27 13.1728 143.215 13.1273" fill="#F7EBA1"/>
<path d="M84.0189 47.0137L84.2831 45.3831C84.3195 45.2374 84.3195 44.9368 84.11 44.7364C83.8641 44.4904 83.4906 44.5815 83.4541 44.5906L81.9238 44.955L80.5483 44.1989C80.5027 44.1716 80.0746 43.953 79.8013 44.1807C79.5736 44.3811 79.5462 44.6999 79.5462 44.7273L79.4096 46.3396L78.28 47.4692C78.28 47.4692 77.9157 47.8244 78.0432 48.1706C78.1525 48.4621 78.4531 48.6261 78.4895 48.6443L79.9197 49.2637L80.5938 50.7121C80.5938 50.7121 80.776 51.0309 81.0493 51.1311C81.0493 51.1311 81.0675 51.1311 81.0766 51.1402C81.4137 51.2495 81.7051 50.9034 81.7416 50.867L82.7892 49.6463L84.3377 49.4277C84.3377 49.4277 84.6748 49.3821 84.857 49.1362C85.0665 48.8538 84.8297 48.4165 84.8023 48.371L84.0007 46.9955L84.0189 47.0137Z" fill="#F7EBA1"/>
<path d="M49.9233 38.0858L48.1196 21.2335C47.8008 18.3094 45.6783 16.1505 43.073 16.2598C42.7724 16.2689 42.4718 16.3054 42.1621 16.3783L13.413 23.0008C9.70548 23.7477 8.48483 26.3074 9.12248 29.2316L12.3836 44.0342C12.4838 44.4988 12.6569 44.9452 12.8664 45.346C13.8685 47.2499 16 48.3976 18.2318 48.0606L35.5578 45.4371L38.3271 45.009L46.7623 48.2519C46.8352 48.2792 46.899 48.2883 46.9718 48.2883C47.5913 48.3521 48.0194 47.8055 47.8919 47.1132L47.0903 43.3966C47.0903 43.3966 47.6004 43.1051 47.655 43.0778C47.8372 42.9593 48.0103 42.8227 48.1743 42.6861C48.5022 42.4037 48.8028 42.0757 49.0488 41.7205C49.5589 41.0008 49.8686 40.1446 49.9597 39.2701C49.9961 38.8692 49.9779 38.4775 49.9324 38.0858" fill="white"/>
<path d="M30.8042 23.8662C31.0411 25.7062 32.2162 34.7609 33.3457 39.434C33.3913 39.6253 33.2728 39.8075 33.0815 39.8622L29.5653 40.7822C29.374 40.8278 29.1827 40.7185 29.1372 40.5363C28.7182 38.8328 28.3447 37.0929 28.0168 35.353C27.9803 35.1617 27.7981 35.0433 27.5977 35.0798C25.8032 35.4715 24.0177 35.9087 22.2323 36.4006C22.0501 36.4462 21.9408 36.6284 21.9681 36.8014L22.7607 41.6294C22.788 41.8207 22.6605 42.0029 22.4692 42.0393L18.8892 42.6861C18.6979 42.7225 18.5157 42.595 18.4884 42.4037L15.9104 26.5443C15.8831 26.353 16.0106 26.1708 16.2019 26.1344L19.7819 25.4876C19.9732 25.4512 20.1554 25.5787 20.1827 25.77L21.1756 31.8733C21.2121 32.0737 21.4125 32.2012 21.6129 32.1466C23.3801 31.6638 25.1564 31.2356 26.9418 30.8439C27.124 30.8075 27.2516 30.6253 27.2242 30.4431C26.9236 28.4117 26.6868 26.3712 26.5046 24.3398C26.4864 24.1485 26.6321 23.9755 26.8325 23.9572L30.4307 23.5838C30.622 23.5655 30.786 23.6931 30.8133 23.8753" fill="black"/>
<path d="M40.9241 24.0622C40.9423 23.379 40.4139 22.8142 39.7307 22.7869L36.7064 22.6958C36.0232 22.6776 35.4585 23.2059 35.4311 23.8891L35.3765 25.5106L40.8694 25.6836L40.9241 24.0622Z" fill="black"/>
<path d="M35.2003 37.049L37.1041 38.7707L37.0859 39.4721C37.0859 39.7545 37.3045 39.9913 37.5869 40.0096H37.7509C38.0333 40.0278 38.2701 39.8 38.2792 39.5177L38.2974 38.8071L40.3106 37.2039C40.429 37.1037 40.511 36.9579 40.511 36.8031L40.8025 27.3567L35.3096 27.1836L35.0181 36.63C35.0181 36.7849 35.0727 36.9397 35.1911 37.049" fill="black"/>
<path d="M35.6596 43.4846L18.2972 46.0807C17.368 46.2083 16.7304 46.1992 15.7283 46.1354C15.7283 46.1354 15.4824 46.1081 15.4733 46.1081C15.2364 46.0807 14.9905 46.0443 14.7536 46.0079C14.1889 45.9259 13.4237 45.6526 12.8589 45.3611C13.8609 47.265 15.9925 48.4127 18.2243 48.0757L35.5503 45.4522L38.3195 45.0241C38.1373 44.7326 38.0827 44.6506 37.9643 44.5139C37.2264 43.6941 36.9167 43.3479 35.6687 43.5028" fill="#C1B5D9"/>
<path d="M47.1685 27.9198C47.3507 29.3955 47.5147 30.8804 47.6605 32.3652C47.7789 33.5403 47.9702 34.6972 48.0795 35.8723C48.1432 36.5373 48.1797 37.2022 48.1615 37.8672C48.1615 38.0221 48.1432 38.1769 48.1341 38.3318C48.1068 38.6597 48.043 39.0697 47.8882 39.516C47.8244 39.7073 47.7424 39.8895 47.6696 40.0444C47.6058 40.1628 47.542 40.2812 47.4692 40.3996C47.3598 40.5636 47.205 40.7731 46.9955 40.9826C46.7768 41.1921 46.5673 41.347 46.3851 41.4563C46.2121 41.5656 46.039 41.6658 45.8568 41.7569C45.3558 42.0211 44.9003 42.3126 45.2465 43.2509C45.8568 44.8814 46.203 46.3663 46.8224 47.9877C46.8588 48.097 46.9044 48.1972 46.959 48.3065C47.5785 48.3703 48.0066 47.8238 47.8791 47.1314L47.0774 43.4239C47.0774 43.4239 47.5876 43.1324 47.6422 43.1051C47.8244 42.9867 47.9975 42.85 48.1615 42.7134C48.4894 42.431 48.7809 42.1031 49.036 41.7478C49.5461 41.0282 49.8558 40.1719 49.9469 39.2974C49.9833 38.8966 49.9651 38.5049 49.9196 38.1132L48.1159 21.2609C47.7971 18.3368 45.6746 16.1779 43.0693 16.2872C43.3517 16.4147 43.5157 16.5149 43.7343 16.6424C43.7343 16.6424 45.7566 17.7629 46.3487 21.3793L47.1777 27.9471L47.1685 27.9198Z" fill="#C1B5D9"/>
<path d="M153.159 38.2933C154.115 38.3753 155.072 38.0747 155.891 37.5919C159.162 35.6698 160.546 31.6071 159.28 28.0453C158.688 26.3874 157.504 24.8935 155.901 24.1829C152.084 22.4886 148.75 26.0048 148.121 29.5392C147.966 30.4319 147.912 31.3064 147.985 32.1445C148.212 34.8955 150.153 38.0383 153.159 38.2933Z" fill="black"/>
<path d="M150.163 28.9596L143.449 22.9656C143.449 22.9656 143.449 22.9565 143.449 22.9474C143.322 22.6559 142.629 21.2166 141.891 20.9798C141.709 20.9251 141.536 20.9342 141.372 21.0162C141.254 21.0617 141.099 21.1619 141.026 21.3532C141.008 21.3988 140.99 21.4443 140.981 21.499C140.826 21.3988 140.662 21.3259 140.498 21.3077C140.288 21.2804 140.088 21.3441 139.933 21.4899C139.769 21.6356 139.696 21.8178 139.705 22.0273C139.705 22.082 139.714 22.1367 139.733 22.1913C139.696 22.1913 139.66 22.1913 139.623 22.1913C139.459 22.1913 139.314 22.2733 139.213 22.4008C138.986 22.6832 139.058 22.9929 139.232 23.2844C139.086 23.3026 138.949 23.3664 138.831 23.5031C138.694 23.6579 138.649 23.8583 138.703 24.0861C138.831 24.6782 139.623 25.3705 140.88 26.0081C140.88 26.0081 140.88 26.0081 140.889 26.0081L148.295 33.4322C148.295 33.4322 148.359 33.4869 148.396 33.496C148.432 33.5051 148.468 33.5051 148.496 33.496C148.569 33.4869 148.632 33.4322 148.669 33.3685L150.236 29.2419C150.281 29.1509 150.254 29.0324 150.181 28.9687" fill="black"/>
<path d="M159.526 31.7561C161.065 31.7834 162.167 31.6741 163.488 31.4646C165.42 31.1549 168.335 30.4534 170.184 28.8229C170.22 28.7864 170.247 28.75 170.257 28.6953C170.266 28.6316 171.204 21.754 167.196 16.5526C163.962 12.3532 158.232 10.0029 152.958 10.9959C149.651 11.6153 147.046 13.592 145.616 16.7256C143.739 20.8066 145.707 26.0992 148.941 28.668C150.38 29.8067 151.892 30.3715 153.678 30.918C154.598 31.2004 156.738 31.6923 159.517 31.747" fill="black"/>
<path d="M158.064 16.7321C156.488 16.2584 154.812 16.0216 153.209 16.2129C152.754 16.2676 152.298 16.3586 151.861 16.5044C151.087 16.7504 150.376 17.1603 149.775 17.6977C149.283 18.1441 148.882 18.6724 148.554 19.2463C145.739 24.1927 150.467 27.554 150.513 27.5814C150.549 27.6087 154.156 30.1958 159.467 30.05C163.302 29.9498 165.88 26.0055 164.823 22.3981C164.122 20.0115 161.981 18.2989 159.786 17.3607C159.23 17.1238 158.647 16.9143 158.055 16.7321" fill="#E4AFAE"/>
<path d="M141.727 21.5045C141.682 21.4863 141.627 21.5045 141.581 21.5319C141.545 21.5592 141.536 21.6047 141.545 21.6503C141.545 21.7141 141.563 21.7687 141.581 21.8325C141.618 21.9327 141.663 22.0329 141.709 22.124C141.745 22.1969 141.791 22.2697 141.836 22.3335C141.918 22.461 141.882 22.625 141.754 22.707C141.627 22.789 141.509 22.7343 141.408 22.6159C141.162 22.3244 140.716 21.8689 140.452 21.8325C140.397 21.8325 140.361 21.8325 140.324 21.8689C140.279 21.9054 140.27 21.9418 140.279 21.9782C140.279 22.1604 140.516 22.4428 140.743 22.6705C140.889 22.7799 140.989 22.8801 141.035 22.9256C141.144 23.0258 141.153 23.1989 141.053 23.3082C140.953 23.4175 140.798 23.4175 140.68 23.3264C140.461 23.1624 140.27 22.9803 140.051 22.8163C139.978 22.7616 139.905 22.707 139.823 22.6797C139.769 22.6614 139.714 22.6614 139.668 22.6979C139.577 22.7799 139.65 22.8983 139.705 22.9712C139.878 23.2353 140.115 23.4357 140.343 23.6361L140.379 23.6726C140.488 23.7728 140.506 23.9367 140.406 24.0552C140.306 24.1645 140.142 24.1918 140.024 24.0916C139.841 23.955 139.596 23.8001 139.432 23.7637C139.34 23.7454 139.268 23.7819 139.249 23.873C139.24 23.9367 139.249 24.0005 139.286 24.0552C139.34 24.1554 139.413 24.2465 139.486 24.3376C139.668 24.5471 139.887 24.7201 140.106 24.875C140.224 24.957 140.352 25.039 140.479 25.121C140.552 25.1665 140.625 25.2029 140.689 25.2485C140.707 25.2576 140.907 25.3851 140.916 25.376L142.866 22.9985C142.565 22.3882 142.064 21.5956 141.718 21.4863" fill="#E4AFAE"/>
<g opacity="0.25">
<mask id="mask0_99_2832" style="mask-type:luminance" maskUnits="userSpaceOnUse" x="159" y="25" width="6" height="5">
<path d="M164.005 25.0176H159.059V29.2079H164.005V25.0176Z" fill="white"/>
</mask>
<g mask="url(#mask0_99_2832)">
<mask id="mask1_99_2832" style="mask-type:luminance" maskUnits="userSpaceOnUse" x="159" y="25" width="6" height="5">
<path d="M163.912 26.3863C164.276 27.4703 163.502 28.6727 162.181 29.0826C160.86 29.4835 159.503 28.9369 159.148 27.8529C158.783 26.7689 159.558 25.5664 160.878 25.1565C162.199 24.7466 163.557 25.3023 163.921 26.3863" fill="white"/>
</mask>
<g mask="url(#mask1_99_2832)">
<path d="M157.348 25.1981L163.752 23.2305L165.701 29.0513L159.288 31.019L157.348 25.1981Z" fill="url(#paint0_radial_99_2832)"/>
</g>
</g>
</g>
<g opacity="0.25">
<mask id="mask2_99_2832" style="mask-type:luminance" maskUnits="userSpaceOnUse" x="147" y="20" width="6" height="6">
<path d="M152.302 20.916H147.894V25.6529H152.302V20.916Z" fill="white"/>
</mask>
<g mask="url(#mask2_99_2832)">
<mask id="mask3_99_2832" style="mask-type:luminance" maskUnits="userSpaceOnUse" x="147" y="20" width="6" height="6">
<path d="M148.839 21.143C147.837 21.6987 147.591 23.1015 148.283 24.2949C148.976 25.4791 150.351 25.9892 151.353 25.4426C152.355 24.887 152.601 23.475 151.909 22.2908C151.217 21.1066 149.841 20.5874 148.839 21.143Z" fill="white"/>
</mask>
<g mask="url(#mask3_99_2832)">
<path d="M154.993 24.6644L151.376 18.4883L145.2 21.9043L148.807 28.0804L154.993 24.6644Z" fill="url(#paint1_radial_99_2832)"/>
</g>
</g>
</g>
<path d="M151.787 17.9791C151.714 17.9609 151.659 17.8971 151.641 17.8242C151.604 17.7058 151.677 17.5874 151.796 17.5601C151.869 17.5419 153.499 17.1501 154.829 18.0429C154.929 18.1157 154.957 18.2524 154.893 18.3435C154.829 18.4437 154.683 18.471 154.583 18.3981C153.417 17.6238 151.923 17.9791 151.914 17.9791C151.869 17.9882 151.832 17.9791 151.787 17.9791Z" fill="black"/>
<path d="M162.495 21.1781C162.495 21.1781 162.431 21.1508 162.404 21.1235C162.395 21.1143 161.311 20.0212 159.917 20.0577C159.789 20.0577 159.689 19.9666 159.68 19.8481C159.68 19.7297 159.771 19.6295 159.89 19.6204C161.493 19.5749 162.668 20.7682 162.714 20.8228C162.796 20.9139 162.796 21.0506 162.714 21.1326C162.65 21.1872 162.568 21.2054 162.495 21.1781Z" fill="black"/>
<path d="M158.586 25.9692L152.801 24.0562C152.692 24.0198 152.574 24.0745 152.528 24.1747C152.501 24.2384 151.799 25.8417 152.428 27.2081C152.756 27.9095 153.366 28.4105 154.25 28.702C154.277 28.702 154.295 28.7202 154.323 28.7202C155.58 29.1119 156.472 28.9662 157.119 28.5927L157.228 28.5198C158.176 27.9095 158.54 26.7982 158.704 26.2971L158.722 26.2334C158.759 26.115 158.695 25.9965 158.577 25.9601M154.459 28.3103C153.694 28.0735 153.166 27.6636 152.883 27.0988C153.43 26.9712 155.197 26.7253 156.7 28.3285C156.163 28.5654 155.443 28.62 154.459 28.3103ZM157.092 28.1008C155.388 26.2243 153.275 26.5522 152.719 26.6889C152.592 26.2425 152.61 25.7779 152.665 25.3771L157.912 27.1079C157.72 27.4723 157.465 27.8275 157.092 28.0917M158.24 26.3154C158.194 26.4429 158.149 26.5795 158.094 26.7162L152.747 24.949C152.792 24.785 152.838 24.6392 152.874 24.539L158.249 26.3154H158.24Z" fill="black"/>
<path d="M158.089 26.7142C158.143 26.5685 158.198 26.4319 158.234 26.3134L152.86 24.5371C152.824 24.6373 152.778 24.7831 152.732 24.947L158.08 26.7142H158.089Z" fill="white"/>
<path d="M157.096 28.1091C157.469 27.8449 157.733 27.4806 157.915 27.1253L152.668 25.3945C152.605 25.7953 152.596 26.2599 152.723 26.7063C153.279 26.5696 155.392 26.2417 157.096 28.1182" fill="#D25B53"/>
<path d="M152.886 27.109C153.178 27.6738 153.706 28.0746 154.462 28.3205C155.437 28.6302 156.166 28.5756 156.703 28.3387C155.2 26.7446 153.424 26.9906 152.886 27.1181" fill="#E1717B"/>
<path d="M157.1 24.9033C157 24.8759 156.936 24.7757 156.945 24.6755C156.963 24.4934 156.909 24.3021 156.836 24.1381C156.508 23.4276 155.433 23.2545 154.905 23.8284C154.868 23.8739 154.832 23.9195 154.795 23.965C154.732 24.0652 154.595 24.1017 154.486 24.0379C154.376 23.9741 154.349 23.8375 154.413 23.7373C154.586 23.4549 154.877 23.2272 155.196 23.1178C156.071 22.8172 157.191 23.3638 157.355 24.3112C157.382 24.4478 157.401 24.5753 157.382 24.712C157.373 24.8304 157.264 24.9215 157.146 24.9124C157.127 24.9124 157.109 24.9124 157.091 24.9033" fill="black"/>
<path d="M153.658 19.291C152.993 18.9812 152.328 18.881 151.754 18.9995C151.171 19.1179 150.734 19.4367 150.515 19.9104C150.297 20.3841 150.333 20.9306 150.615 21.4408C150.907 21.9509 151.408 22.3881 152.073 22.6979C152.219 22.7616 152.355 22.8163 152.492 22.8618C153.694 23.2626 154.806 22.962 155.216 22.0784C155.671 21.0946 155.015 19.9195 153.658 19.291ZM150.998 21.2313C150.779 20.8396 150.752 20.4387 150.916 20.0926C151.08 19.7464 151.408 19.5096 151.845 19.4185C152.219 19.3456 152.656 19.3821 153.102 19.5278C153.23 19.5642 153.348 19.6189 153.476 19.6736C153.512 19.6918 153.549 19.71 153.585 19.7282C153.312 19.8831 152.902 20.211 152.692 20.8669C152.483 21.5228 152.647 22.1331 152.793 22.4701C152.62 22.4246 152.446 22.3608 152.264 22.2788C151.69 22.0147 151.244 21.6412 151.007 21.213M153.303 22.5521C153.303 22.5521 152.865 21.8051 153.111 21.0126C153.184 20.794 153.275 20.5754 153.421 20.3932C153.576 20.2019 153.786 20.0835 154.022 20.0106C154.76 20.5389 155.097 21.2677 154.806 21.8871C154.569 22.3973 153.995 22.6341 153.303 22.5794C153.303 22.5794 153.303 22.5612 153.294 22.5521" fill="black"/>
<path d="M152.687 20.8873C152.896 20.2314 153.306 19.9035 153.579 19.7486C153.543 19.7304 153.506 19.7122 153.47 19.694C153.342 19.6393 153.224 19.5847 153.096 19.5482C152.65 19.4025 152.213 19.3569 151.839 19.4389C151.402 19.53 151.074 19.7669 150.91 20.113C150.746 20.4592 150.783 20.86 150.992 21.2517C151.229 21.6707 151.675 22.0533 152.249 22.3175C152.431 22.3995 152.605 22.4632 152.778 22.5088C152.641 22.1717 152.477 21.5614 152.677 20.9055" fill="white"/>
<path d="M154.811 21.8891C155.102 21.2694 154.765 20.5403 154.027 20.0117C153.79 20.0846 153.58 20.2031 153.426 20.3945C153.28 20.5767 153.179 20.7864 153.116 21.0142C152.87 21.807 153.298 22.5452 153.307 22.5543C153.307 22.5543 153.307 22.5726 153.316 22.5817C154.009 22.6364 154.583 22.3994 154.82 21.8891" fill="#2151A3"/>
<path d="M162.108 22.4157C161.707 21.9784 161.124 21.6687 160.405 21.5139C158.938 21.2041 157.708 21.7507 157.49 22.8165C157.298 23.773 158 24.6748 159.211 25.0665C159.348 25.1121 159.503 25.1485 159.649 25.1849C160.368 25.3398 161.033 25.2851 161.571 25.0483C162.108 24.8114 162.463 24.3924 162.564 23.8823C162.664 23.3722 162.509 22.8438 162.108 22.4066M159.74 24.775C158.528 24.5199 157.763 23.7365 157.927 22.9258C158.091 22.106 159.102 21.696 160.314 21.9511C160.45 21.9784 160.578 22.0149 160.696 22.0604C160.423 22.2244 160.031 22.5614 159.822 23.2082C159.621 23.855 159.758 24.4471 159.885 24.8023C159.831 24.8023 159.776 24.7932 159.731 24.7841M160.259 23.3357C160.505 22.5432 160.988 22.3701 161.051 22.3428C161.106 22.3155 161.133 22.3064 161.215 22.279C161.434 22.3975 161.634 22.5432 161.78 22.7072C162.081 23.0351 162.199 23.4268 162.126 23.8003C162.054 24.1738 161.78 24.4835 161.379 24.6657C161.097 24.7932 160.76 24.8479 160.396 24.8388C160.295 24.6384 160.04 24.0098 160.259 23.3357Z" fill="black"/>
<path d="M159.836 23.2054C160.036 22.5587 160.437 22.2216 160.71 22.0576C160.583 22.0212 160.455 21.9757 160.328 21.9483C159.107 21.6933 158.105 22.1032 157.941 22.923C157.777 23.7429 158.533 24.5172 159.754 24.7722C159.809 24.7813 159.863 24.7904 159.909 24.7996C159.781 24.4443 159.636 23.8522 159.845 23.2054" fill="white"/>
<path d="M161.782 22.7115C161.627 22.5475 161.436 22.4017 161.217 22.2832C161.135 22.3197 161.108 22.3288 161.053 22.3561C160.989 22.3834 160.506 22.5566 160.26 23.3495C160.051 24.0239 160.306 24.6527 160.397 24.8532C160.761 24.8532 161.099 24.8076 161.381 24.68C161.782 24.4977 162.056 24.1879 162.128 23.8142C162.201 23.4406 162.083 23.0487 161.782 22.7206" fill="#2151A3"/>
<defs>
<radialGradient id="paint0_radial_99_2832" cx="0" cy="0" r="1" gradientUnits="userSpaceOnUse" gradientTransform="translate(202.23 12.3602) rotate(-17.09) scale(2.49596 2.06782)">
<stop stop-color="#C63057"/>
<stop offset="0.24" stop-color="#C6305A"/>
<stop offset="0.44" stop-color="#C63165"/>
<stop offset="0.54" stop-color="#C6326D"/>
<stop offset="0.57" stop-color="#C63669"/>
<stop offset="0.84" stop-color="#CC544F"/>
<stop offset="1" stop-color="#CF6046"/>
</radialGradient>
<radialGradient id="paint1_radial_99_2832" cx="0" cy="0" r="1" gradientUnits="userSpaceOnUse" gradientTransform="translate(100.575 -50.5491) rotate(-120.34) scale(2.48685 2.06782)">
<stop stop-color="#C63057"/>
<stop offset="0.24" stop-color="#C6305A"/>
<stop offset="0.44" stop-color="#C63165"/>
<stop offset="0.54" stop-color="#C6326D"/>
<stop offset="0.57" stop-color="#C63669"/>
<stop offset="0.84" stop-color="#CC544F"/>
<stop offset="1" stop-color="#CF6046"/>
</radialGradient>
</defs>
</svg>
