<svg width="44" height="44" viewBox="0 0 44 44" fill="none" xmlns="http://www.w3.org/2000/svg">
<rect x="4" y="32" width="25" height="36" rx="3" transform="rotate(-90 4 32)" fill="#E8E8E8"/>
<rect x="3" y="34" width="25" height="38" rx="3" transform="rotate(-90 3 34)" fill="#DCDCDC"/>
<rect x="3" y="39" width="27" height="38" rx="2" transform="rotate(-90 3 39)" fill="white" stroke="#A9A9A9" stroke-width="2"/>
<path d="M9.74 24.16C9.22667 24.16 8.83333 24.3167 8.56 24.63C8.28667 24.9433 8.15 25.3867 8.15 25.96C8.15 26.54 8.3 26.9867 8.6 27.3C8.90667 27.6133 9.31667 27.77 9.83 27.77C10.1033 27.77 10.3333 27.7333 10.52 27.66C10.7133 27.5867 10.8967 27.5033 11.07 27.41C11.1833 27.5033 11.27 27.6167 11.33 27.75C11.3967 27.8767 11.43 28.0267 11.43 28.2C11.43 28.4733 11.2767 28.7067 10.97 28.9C10.67 29.0867 10.21 29.18 9.59 29.18C9.14333 29.18 8.72333 29.1167 8.33 28.99C7.93667 28.8633 7.59333 28.67 7.3 28.41C7.00667 28.1433 6.77333 27.81 6.6 27.41C6.43333 27.0033 6.35 26.52 6.35 25.96C6.35 25.44 6.43 24.9833 6.59 24.59C6.75667 24.19 6.98 23.8533 7.26 23.58C7.54667 23.3067 7.88 23.1 8.26 22.96C8.64 22.82 9.04667 22.75 9.48 22.75C10.0933 22.75 10.5667 22.85 10.9 23.05C11.24 23.25 11.41 23.5067 11.41 23.82C11.41 23.9933 11.3667 24.1433 11.28 24.27C11.1933 24.3967 11.0933 24.4967 10.98 24.57C10.8067 24.4567 10.62 24.36 10.42 24.28C10.2267 24.2 10 24.16 9.74 24.16ZM13.9129 27.92C14.0262 27.92 14.1496 27.91 14.2829 27.89C14.4229 27.8633 14.5262 27.83 14.5929 27.79V26.99L13.8729 27.05C13.6862 27.0633 13.5329 27.1033 13.4129 27.17C13.2929 27.2367 13.2329 27.3367 13.2329 27.47C13.2329 27.6033 13.2829 27.7133 13.3829 27.8C13.4896 27.88 13.6662 27.92 13.9129 27.92ZM13.8329 23.99C14.1929 23.99 14.5196 24.0267 14.8129 24.1C15.1129 24.1733 15.3662 24.2867 15.5729 24.44C15.7862 24.5867 15.9496 24.7767 16.0629 25.01C16.1762 25.2367 16.2329 25.5067 16.2329 25.82V28.06C16.2329 28.2333 16.1829 28.3767 16.0829 28.49C15.9896 28.5967 15.8762 28.69 15.7429 28.77C15.3096 29.03 14.6996 29.16 13.9129 29.16C13.5596 29.16 13.2396 29.1267 12.9529 29.06C12.6729 28.9933 12.4296 28.8933 12.2229 28.76C12.0229 28.6267 11.8662 28.4567 11.7529 28.25C11.6462 28.0433 11.5929 27.8033 11.5929 27.53C11.5929 27.07 11.7296 26.7167 12.0029 26.47C12.2762 26.2233 12.6996 26.07 13.2729 26.01L14.5829 25.87V25.8C14.5829 25.6067 14.4962 25.47 14.3229 25.39C14.1562 25.3033 13.9129 25.26 13.5929 25.26C13.3396 25.26 13.0929 25.2867 12.8529 25.34C12.6129 25.3933 12.3962 25.46 12.2029 25.54C12.1162 25.48 12.0429 25.39 11.9829 25.27C11.9229 25.1433 11.8929 25.0133 11.8929 24.88C11.8929 24.7067 11.9329 24.57 12.0129 24.47C12.0996 24.3633 12.2296 24.2733 12.4029 24.2C12.5962 24.1267 12.8229 24.0733 13.0829 24.04C13.3496 24.0067 13.5996 23.99 13.8329 23.99ZM19.9523 25.92C19.9523 25.7133 19.8923 25.5633 19.7723 25.47C19.659 25.37 19.5023 25.32 19.3023 25.32C19.169 25.32 19.0357 25.3367 18.9023 25.37C18.7757 25.4033 18.6657 25.4533 18.5723 25.52V28.99C18.5057 29.01 18.399 29.03 18.2523 29.05C18.1123 29.07 17.9657 29.08 17.8123 29.08C17.6657 29.08 17.5323 29.07 17.4123 29.05C17.299 29.03 17.2023 28.99 17.1223 28.93C17.0423 28.87 16.979 28.79 16.9323 28.69C16.8923 28.5833 16.8723 28.4467 16.8723 28.28V25.28C16.8723 25.1 16.909 24.9533 16.9823 24.84C17.0623 24.7267 17.169 24.6233 17.3023 24.53C17.529 24.37 17.8123 24.24 18.1523 24.14C18.499 24.04 18.8823 23.99 19.3023 23.99C20.0557 23.99 20.6357 24.1567 21.0423 24.49C21.449 24.8167 21.6523 25.2733 21.6523 25.86V28.99C21.5857 29.01 21.479 29.03 21.3323 29.05C21.1923 29.07 21.0457 29.08 20.8923 29.08C20.7457 29.08 20.6123 29.07 20.4923 29.05C20.379 29.03 20.2823 28.99 20.2023 28.93C20.1223 28.87 20.059 28.79 20.0123 28.69C19.9723 28.5833 19.9523 28.4467 19.9523 28.28V25.92ZM25.7844 28.96C25.711 28.98 25.5944 29 25.4344 29.02C25.281 29.04 25.1277 29.05 24.9744 29.05C24.821 29.05 24.6844 29.0367 24.5644 29.01C24.451 28.99 24.3544 28.95 24.2744 28.89C24.1944 28.83 24.1344 28.7467 24.0944 28.64C24.0544 28.5333 24.0344 28.3933 24.0344 28.22V22.94C24.1077 22.9267 24.2244 22.91 24.3844 22.89C24.5444 22.8633 24.6977 22.85 24.8444 22.85C24.9977 22.85 25.131 22.8633 25.2444 22.89C25.3644 22.91 25.4644 22.95 25.5444 23.01C25.6244 23.07 25.6844 23.1533 25.7244 23.26C25.7644 23.3667 25.7844 23.5067 25.7844 23.68V28.96ZM30.8832 25.87C31.0432 25.87 31.1665 25.8267 31.2532 25.74C31.3465 25.6533 31.4232 25.56 31.4832 25.46C31.6232 25.46 31.7532 25.4833 31.8732 25.53C31.9999 25.5767 32.1099 25.64 32.2032 25.72C32.2965 25.8 32.3699 25.9 32.4232 26.02C32.4765 26.1333 32.5032 26.26 32.5032 26.4C32.5032 26.5733 32.4699 26.7267 32.4032 26.86C32.3365 26.9867 32.2465 27.0933 32.1332 27.18C32.0265 27.26 31.8999 27.32 31.7532 27.36C31.6065 27.4 31.4532 27.42 31.2932 27.42C31.0865 27.42 30.8532 27.39 30.5932 27.33C30.3932 27.2833 30.2265 27.2433 30.0932 27.21C29.9665 27.1767 29.8599 27.1533 29.7732 27.14C29.6932 27.12 29.6265 27.1067 29.5732 27.1C29.5199 27.0933 29.4699 27.09 29.4232 27.09C29.2565 27.09 29.1265 27.14 29.0332 27.24C28.9465 27.3333 28.8765 27.4167 28.8232 27.49C28.6899 27.49 28.5599 27.4667 28.4332 27.42C28.3132 27.3733 28.2065 27.31 28.1132 27.23C28.0199 27.15 27.9465 27.0533 27.8932 26.94C27.8399 26.82 27.8132 26.69 27.8132 26.55C27.8132 26.37 27.8499 26.2167 27.9232 26.09C27.9965 25.9633 28.0899 25.86 28.2032 25.78C28.3232 25.6933 28.4532 25.63 28.5932 25.59C28.7332 25.55 28.8732 25.53 29.0132 25.53C29.1799 25.53 29.3432 25.55 29.5032 25.59C29.6632 25.6233 29.8199 25.66 29.9732 25.7C30.1265 25.74 30.2765 25.78 30.4232 25.82C30.5765 25.8533 30.7299 25.87 30.8832 25.87ZM34.8945 28.23C34.8945 27.9567 34.9778 27.7333 35.1445 27.56C35.3178 27.38 35.5545 27.29 35.8545 27.29C36.1545 27.29 36.3878 27.38 36.5545 27.56C36.7278 27.7333 36.8145 27.9567 36.8145 28.23C36.8145 28.5033 36.7278 28.73 36.5545 28.91C36.3878 29.0833 36.1545 29.17 35.8545 29.17C35.5545 29.17 35.3178 29.0833 35.1445 28.91C34.9778 28.73 34.8945 28.5033 34.8945 28.23ZM35.2245 26.92C35.1111 26.86 35.0045 26.7533 34.9045 26.6C34.8045 26.44 34.7545 26.2533 34.7545 26.04C34.7545 25.8333 34.8078 25.68 34.9145 25.58C35.0278 25.4733 35.1911 25.3933 35.4045 25.34L36.1845 25.15C36.5178 25.0633 36.6845 24.9033 36.6845 24.67C36.6845 24.5433 36.6211 24.4333 36.4945 24.34C36.3745 24.2467 36.1645 24.2 35.8645 24.2C35.5911 24.2 35.3345 24.2367 35.0945 24.31C34.8545 24.3767 34.6611 24.4567 34.5145 24.55C34.4011 24.4633 34.3045 24.36 34.2245 24.24C34.1445 24.1133 34.1045 23.9633 34.1045 23.79C34.1045 23.6167 34.1545 23.4667 34.2545 23.34C34.3545 23.2067 34.4911 23.1 34.6645 23.02C34.8445 22.9333 35.0545 22.87 35.2945 22.83C35.5411 22.79 35.8111 22.77 36.1045 22.77C36.8911 22.77 37.4845 22.9467 37.8845 23.3C38.2911 23.6467 38.4945 24.1033 38.4945 24.67C38.4945 25.7367 37.7411 26.42 36.2345 26.72L35.2245 26.92Z" fill="#A9A9A9"/>
</svg>
