<svg width="44" height="44" viewBox="0 0 44 44" fill="none" xmlns="http://www.w3.org/2000/svg">
<path d="M8.71315 2C7.7663 2 7 2.78552 7 3.75613V40.5C7 41.4706 7.7663 42.2561 8.71315 42.2561H35.2868C36.2337 42.2561 37 41.4706 37 40.5V10.1486L29.0508 2H8.71315Z" fill="#A9A9A9"/>
<path d="M30.7241 10H37L29 2V8.2759C29 9.22881 29.7712 10 30.7241 10Z" fill="#E2E2E2"/>
<path d="M14 34.12L19.14 19.6C19.54 18.48 20.64 17.94 21.72 17.94C22.74 17.94 23.8 18.52 24.18 19.6L29.4 34.12H25L24.22 31.64H19.08L18.32 34.12H14ZM21.66 23.28L20.12 28.26H23.18L21.66 23.28Z" fill="white"/>
<line opacity="0.3" x1="11" y1="17.5" x2="33" y2="17.5" stroke="white" stroke-dasharray="2 2"/>
<line opacity="0.3" x1="11" y1="26.5" x2="33" y2="26.5" stroke="white" stroke-dasharray="2 2"/>
<line x1="11" y1="35.5" x2="33" y2="35.5" stroke="white"/>
</svg>
