<svg width="72" height="55" viewBox="0 0 72 55" fill="none" xmlns="http://www.w3.org/2000/svg">
<g clip-path="url(#clip0_1527_12741)">
<path fill-rule="evenodd" clip-rule="evenodd" d="M40 19.2483C42.9485 17.9143 45 14.9467 45 11.5C45 6.80558 41.1944 3 36.5 3C31.8056 3 28 6.80558 28 11.5C28 14.9467 30.0515 17.9143 33 19.2483V12.5C33 10.567 34.567 9 36.5 9C38.433 9 40 10.567 40 12.5V19.2483Z" fill="#DD468F"/>
<mask id="mask0_1527_12741" style="mask-type:alpha" maskUnits="userSpaceOnUse" x="0" y="0" width="29" height="22">
<path d="M29 0H0V22H29V0Z" fill="url(#paint0_linear_1527_12741)"/>
</mask>
<g mask="url(#mask0_1527_12741)">
<path d="M12.9121 7.25796L13 0L1 11.1289L12.7336 22L12.8184 14.9998H29V7.25796H12.9121Z" fill="#DD468F"/>
</g>
<mask id="mask1_1527_12741" style="mask-type:alpha" maskUnits="userSpaceOnUse" x="0" y="0" width="29" height="22">
<path d="M29 0H0V22H29V0Z" fill="url(#paint1_linear_1527_12741)"/>
</mask>
<g mask="url(#mask1_1527_12741)">
<path d="M12.9121 7.25796L13 0L1 11.1289L12.7336 22L12.8184 14.9998H29V7.25796H12.9121Z" fill="#DD468F"/>
</g>
<mask id="mask2_1527_12741" style="mask-type:alpha" maskUnits="userSpaceOnUse" x="43" y="0" width="29" height="22">
<path d="M43 22L72 22V0L43 0V22Z" fill="url(#paint2_linear_1527_12741)"/>
</mask>
<g mask="url(#mask2_1527_12741)">
<path d="M59.0879 14.742L59 22L71 10.8711L59.2664 0L59.1816 7.00022H43V14.742H59.0879Z" fill="#DD468F"/>
</g>
<mask id="mask3_1527_12741" style="mask-type:alpha" maskUnits="userSpaceOnUse" x="43" y="0" width="29" height="22">
<path d="M43 22L72 22V0L43 0V22Z" fill="url(#paint3_linear_1527_12741)"/>
</mask>
<g mask="url(#mask3_1527_12741)">
<path d="M59.0879 14.742L59 22L71 10.8711L59.2664 0L59.1816 7.00022H43V14.742H59.0879Z" fill="#DD468F"/>
</g>
<mask id="mask4_1527_12741" style="mask-type:luminance" maskUnits="userSpaceOnUse" x="26" y="8" width="33" height="47">
<path d="M59 8H26V55H59V8Z" fill="white"/>
</mask>
<g mask="url(#mask4_1527_12741)">
<path d="M28 37.5L36 50.5V53.5H54.5V49.5L58 43L56 25L54.5 23.5L51 24.5L48.5 23L45.5 23.5L42 22L39.5 23V12L38 10.5L36 9.5L34 11L33 30L29 31L27.5 32.5L28 37.5Z" fill="white"/>
<path d="M55.9433 49.4695C55.9433 49.4695 55.9455 49.4666 55.947 49.4651C58.0595 46.9453 59.165 43.418 58.9806 39.7796C58.9806 39.7745 58.9792 39.7693 58.9792 39.7641C58.9792 39.7589 58.9792 39.7537 58.9792 39.7478L57.9378 25.9754C57.9378 25.971 57.9364 25.9673 57.9364 25.9629C57.9364 25.9584 57.9364 25.954 57.9364 25.9503C57.8373 24.9169 57.3636 23.9657 56.6028 23.272C55.853 22.5888 54.8889 22.2135 53.8825 22.2135C53.8679 22.2135 53.8526 22.2135 53.8381 22.2135C52.9454 22.2231 52.0899 22.5273 51.3903 23.0774C50.741 22.2638 49.8294 21.719 48.8048 21.5399C47.66 21.3385 46.548 21.6228 45.6728 22.2498C45.425 21.9018 45.1233 21.5895 44.7728 21.3259C43.5726 20.4236 41.992 20.2459 40.6286 20.8551L40.6242 12.1402C40.6242 12.1402 40.6242 12.1394 40.6242 12.1387C40.625 10.6641 39.846 9.29089 38.5896 8.55286C37.3319 7.81408 35.7695 7.81408 34.5117 8.55286C33.2547 9.29089 32.4757 10.6648 32.4772 12.1394V28.8136C31.9233 28.7373 31.3644 28.701 30.8048 28.7077C29.4318 28.7218 28.1114 29.3554 27.1823 30.4473C26.275 31.5125 25.8611 32.9234 26.0462 34.3188V34.3203C26.4317 37.2235 27.422 40.0691 28.9902 42.7776C30.4032 45.2183 32.2556 47.5034 34.4964 49.5702C34.7486 49.8456 34.8987 50.1446 34.9111 50.397L34.8899 53.7311C34.8856 54.4262 35.4365 54.9933 36.1208 54.9977H36.1288C36.8094 54.9977 37.3632 54.4396 37.3676 53.7474L37.3894 50.3711C37.3894 50.3623 37.3887 50.3541 37.388 50.3452C37.388 50.3363 37.388 50.3282 37.388 50.3193C37.3588 49.4503 36.9719 48.5723 36.2993 47.8424C36.2971 47.8395 36.2942 47.8365 36.292 47.8343C36.2854 47.8276 36.2796 47.8202 36.2731 47.8128C36.2621 47.801 36.2505 47.7914 36.2395 47.7803C36.2286 47.7692 36.2184 47.7581 36.2075 47.7477C33.1541 44.9421 29.3386 40.2763 28.5027 33.9827C28.4124 33.3017 28.6142 32.6133 29.0566 32.0929C29.5142 31.5554 30.1773 31.2305 30.8303 31.2238C31.3746 31.2186 31.9321 31.2653 32.4779 31.3608V33.2121C32.4779 33.2232 32.4764 33.2343 32.4728 33.2447C32.4313 33.3794 32.319 33.5119 32.1995 33.566C31.575 33.8502 31.2959 34.5949 31.575 35.2286C31.7812 35.6957 32.233 35.9725 32.706 35.9725C32.875 35.9725 33.047 35.937 33.2117 35.8622C33.9754 35.515 34.5824 34.8177 34.836 33.9975C34.836 33.9975 34.836 33.9968 34.836 33.9961C34.9147 33.7414 34.9548 33.4771 34.9548 33.2106V12.1416V12.1402C34.9541 11.562 35.2594 11.0231 35.752 10.7337C36.2446 10.4442 36.8568 10.4442 37.3501 10.7337C37.8427 11.0231 38.148 11.562 38.1473 12.1402C38.1473 12.1402 38.1473 12.1409 38.1473 12.1416C38.1473 12.1424 38.1473 12.1424 38.1473 12.1431L38.1531 24.529C38.1531 24.5364 38.1539 24.5438 38.1546 24.5512C38.1546 24.5741 38.1561 24.5971 38.1582 24.62C38.1597 24.6393 38.1612 24.6585 38.1633 24.6778C38.1663 24.7007 38.1699 24.7229 38.1735 24.7451C38.1765 24.7644 38.1801 24.7829 38.1845 24.8021C38.1889 24.8236 38.1947 24.8443 38.2005 24.8651C38.2056 24.8843 38.2107 24.9036 38.2173 24.9228C38.2238 24.942 38.2311 24.9613 38.2377 24.9805C38.245 24.9998 38.2523 25.019 38.2603 25.0383C38.2683 25.056 38.277 25.0738 38.285 25.0908C38.2945 25.1101 38.304 25.1286 38.3142 25.1471C38.3237 25.1634 38.3331 25.1797 38.3433 25.196C38.3543 25.2137 38.3659 25.2322 38.3776 25.2493C38.3885 25.2648 38.4002 25.2803 38.4118 25.2951C38.4242 25.3114 38.4366 25.3285 38.4505 25.344C38.4629 25.3588 38.476 25.3736 38.4898 25.3877C38.5037 25.4025 38.5168 25.4173 38.5314 25.4314C38.5459 25.4454 38.5605 25.4587 38.5758 25.4721C38.5904 25.4854 38.6049 25.498 38.6203 25.5106C38.6363 25.5231 38.653 25.5357 38.6691 25.5476C38.6844 25.5587 38.7004 25.5705 38.7164 25.5809C38.7339 25.592 38.7514 25.6031 38.7689 25.6135C38.7857 25.6231 38.8024 25.6334 38.8199 25.6423C38.8374 25.6519 38.8564 25.6601 38.8746 25.669C38.8928 25.6779 38.911 25.686 38.93 25.6941C38.9482 25.7015 38.9664 25.7082 38.9853 25.7149C39.0057 25.7223 39.0254 25.7289 39.0466 25.7349C39.0648 25.74 39.083 25.7445 39.1019 25.7489C39.1238 25.7541 39.1449 25.7593 39.1675 25.7637C39.1865 25.7674 39.2054 25.7696 39.2244 25.7726C39.2462 25.7756 39.2688 25.7785 39.2914 25.7808C39.2987 25.7808 39.306 25.783 39.314 25.7837C39.3278 25.7845 39.341 25.7837 39.3541 25.7837C39.3672 25.7837 39.3803 25.7859 39.3934 25.7859C39.4007 25.7859 39.408 25.7852 39.4153 25.7845C39.4386 25.7845 39.4619 25.7822 39.4852 25.7808C39.5035 25.7793 39.5217 25.7778 39.5392 25.7763C39.5632 25.7733 39.5865 25.7696 39.6099 25.7652C39.6266 25.7622 39.6434 25.7593 39.6601 25.7556C39.6835 25.7504 39.7068 25.7437 39.7301 25.7371C39.7461 25.7326 39.7622 25.7282 39.7775 25.723C39.8 25.7156 39.8226 25.7067 39.8452 25.6978C39.8605 25.6919 39.8751 25.686 39.8897 25.6793C39.9123 25.6697 39.9334 25.6586 39.9553 25.6475C39.9691 25.6401 39.983 25.6334 39.9968 25.6253C40.0187 25.6127 40.0391 25.6001 40.0595 25.5861C40.0719 25.5779 40.085 25.5698 40.0974 25.5609C40.1178 25.5461 40.1382 25.5305 40.1578 25.515C40.1688 25.5061 40.1804 25.4972 40.1914 25.4876C40.211 25.4706 40.23 25.4528 40.2482 25.4351C40.2584 25.4254 40.2686 25.4158 40.2781 25.4054C40.2963 25.3869 40.3131 25.3669 40.3298 25.347C40.3386 25.3366 40.348 25.3255 40.3568 25.3151C40.3728 25.2951 40.3881 25.2744 40.4027 25.253C40.4114 25.2411 40.4195 25.2293 40.4275 25.2167C40.4413 25.196 40.4537 25.1745 40.4654 25.153C40.4734 25.139 40.4814 25.1256 40.4887 25.1108C40.4996 25.0901 40.5091 25.0686 40.5186 25.0472C40.5259 25.0309 40.5331 25.0146 40.5397 24.9983C40.5477 24.9783 40.555 24.9576 40.5616 24.9369C40.5681 24.9176 40.5747 24.8991 40.5798 24.8799C40.5856 24.8606 40.59 24.8406 40.5944 24.8206C40.5995 24.7992 40.6046 24.7785 40.6082 24.7562C40.6118 24.737 40.614 24.717 40.6169 24.6978C40.6199 24.6756 40.6228 24.6526 40.625 24.6304C40.625 24.623 40.6271 24.6156 40.6279 24.6075C40.6672 23.9849 41.0381 23.4349 41.5949 23.1721C42.1516 22.9093 42.8046 22.9767 43.2986 23.3483C43.7971 23.7236 44.0543 24.341 43.9698 24.9598C43.969 24.9672 43.969 24.9746 43.9676 24.982C43.9647 25.005 43.9632 25.0287 43.9618 25.0516C43.9603 25.0709 43.9596 25.0901 43.9588 25.1086C43.9588 25.1315 43.9588 25.1545 43.9596 25.1774C43.9596 25.1967 43.961 25.2152 43.9625 25.2344C43.9639 25.2567 43.9669 25.2781 43.9698 25.3003C43.9727 25.3196 43.9749 25.3388 43.9785 25.3581C43.9822 25.3788 43.9865 25.3988 43.9916 25.4195C43.996 25.4395 44.0004 25.4587 44.0062 25.4787C44.0113 25.498 44.0179 25.5172 44.0244 25.5357C44.031 25.555 44.0375 25.575 44.0448 25.5942C44.0521 25.6127 44.0601 25.6305 44.0681 25.6482C44.0762 25.6668 44.0849 25.686 44.0944 25.7045C44.1031 25.7223 44.1133 25.7393 44.1228 25.7571C44.133 25.7748 44.1425 25.7919 44.1534 25.8089C44.1643 25.8259 44.176 25.8429 44.1877 25.8592C44.1986 25.8755 44.2095 25.891 44.2219 25.9066C44.2343 25.9229 44.2481 25.9392 44.262 25.9547C44.2744 25.9695 44.2868 25.9836 44.2992 25.9976C44.3137 26.0132 44.329 26.028 44.3443 26.0428C44.3575 26.0561 44.3713 26.0687 44.3851 26.0813C44.4012 26.0954 44.4179 26.1087 44.434 26.122C44.4485 26.1339 44.4638 26.1457 44.4791 26.1568C44.4959 26.1686 44.5134 26.1805 44.5309 26.1916C44.5476 26.2027 44.5644 26.2131 44.5812 26.2234C44.5987 26.2338 44.6161 26.2427 44.6344 26.2523C44.6533 26.2619 44.6715 26.2715 44.6905 26.2804C44.708 26.2886 44.7262 26.296 44.7444 26.3026C44.7648 26.3108 44.7852 26.3189 44.8063 26.3256C44.8246 26.3315 44.8435 26.3374 44.8625 26.3426C44.8836 26.3485 44.9054 26.3544 44.9273 26.3596C44.9346 26.3611 44.9419 26.3641 44.9492 26.3655C44.9623 26.3685 44.9754 26.3692 44.9885 26.3715C45.0016 26.3737 45.0148 26.3774 45.0279 26.3789C45.0381 26.3804 45.0483 26.3811 45.0577 26.3818C45.0679 26.3833 45.0782 26.3841 45.0891 26.3848C45.1248 26.3878 45.1598 26.39 45.1947 26.39C45.1962 26.39 45.1977 26.39 45.1991 26.39C45.2385 26.39 45.2785 26.3878 45.3179 26.3841C45.3266 26.3833 45.3354 26.3811 45.3441 26.3804C45.3747 26.3767 45.4046 26.3722 45.4345 26.3663C45.4454 26.3641 45.4564 26.3611 45.4666 26.3589C45.4935 26.353 45.5205 26.3463 45.5474 26.3382C45.5591 26.3345 45.5708 26.33 45.5824 26.3263C45.6072 26.3182 45.632 26.3093 45.6568 26.2997C45.6691 26.2945 45.6808 26.2893 45.6932 26.2841C45.7165 26.2738 45.7391 26.2634 45.761 26.2515C45.7734 26.2449 45.7857 26.2382 45.7981 26.2316C45.8193 26.2197 45.8397 26.2071 45.8601 26.1945C45.8725 26.1864 45.8848 26.1783 45.8972 26.1694C45.9162 26.1561 45.9351 26.142 45.9533 26.1279C45.9657 26.1183 45.9781 26.1087 45.9898 26.0983C46.0073 26.0835 46.024 26.0687 46.0401 26.0532C46.0517 26.0421 46.0634 26.0317 46.075 26.0198C46.0911 26.0036 46.1064 25.9865 46.1209 25.9695C46.1311 25.9577 46.1421 25.9458 46.1523 25.934C46.1683 25.9147 46.1829 25.8947 46.1975 25.874C46.2055 25.8629 46.2142 25.8526 46.2215 25.8407C46.2652 25.7756 46.3031 25.7067 46.3345 25.6327C46.3388 25.6231 46.3418 25.612 46.3461 25.6023C46.3571 25.575 46.3673 25.5476 46.376 25.5194C46.3804 25.5061 46.384 25.4921 46.3877 25.478C46.3949 25.4528 46.4015 25.4277 46.4073 25.4017C46.4088 25.3966 46.4102 25.3914 46.4117 25.3855C46.5997 24.4579 47.4669 23.8576 48.3851 24.0182C49.2799 24.1751 49.8986 24.9591 49.8418 25.8333C49.8338 25.9007 49.8265 25.9688 49.8214 26.0376C49.8214 26.045 49.8214 26.0532 49.8214 26.0606C49.8199 26.0843 49.8199 26.1079 49.8199 26.1309C49.8199 26.1501 49.8199 26.1686 49.8199 26.1879C49.8207 26.2108 49.8228 26.2338 49.825 26.2567C49.8272 26.276 49.8287 26.2945 49.8316 26.313C49.8345 26.3345 49.8389 26.3559 49.8432 26.3774C49.8469 26.3966 49.8505 26.4159 49.8556 26.4351C49.8607 26.4551 49.8666 26.4751 49.8724 26.4944C49.8782 26.5143 49.884 26.5336 49.8906 26.5528C49.8972 26.5713 49.9045 26.5898 49.9117 26.6076C49.9198 26.6269 49.9278 26.6468 49.9365 26.6653C49.9445 26.6831 49.9533 26.6994 49.962 26.7164C49.9715 26.7349 49.9817 26.7534 49.9919 26.7719C50.0014 26.7882 50.0123 26.8045 50.0225 26.8208C50.0334 26.8378 50.0451 26.8556 50.0568 26.8726C50.0684 26.8889 50.0808 26.9037 50.0925 26.9193C50.1048 26.9348 50.1172 26.9503 50.1304 26.9659C50.1435 26.9814 50.158 26.9955 50.1719 27.0103C50.1857 27.0244 50.1989 27.0384 50.2134 27.0518C50.2287 27.0658 50.244 27.0792 50.2601 27.0932C50.2746 27.1058 50.2892 27.1184 50.3045 27.1302C50.3213 27.1428 50.338 27.1547 50.3548 27.1672C50.3708 27.1783 50.3869 27.1894 50.4029 27.1998C50.4204 27.2109 50.4379 27.2205 50.4561 27.2309C50.4736 27.2405 50.4911 27.2509 50.5093 27.2598C50.5268 27.2687 50.545 27.2768 50.5639 27.2849C50.5829 27.2931 50.6026 27.302 50.6222 27.3094C50.6405 27.316 50.6587 27.3227 50.6776 27.3286C50.698 27.3353 50.7192 27.3419 50.7403 27.3479C50.7592 27.353 50.7789 27.3575 50.7979 27.3612C50.819 27.3656 50.8401 27.3701 50.862 27.3738C50.87 27.3753 50.8773 27.3775 50.886 27.3782C50.9094 27.3812 50.9319 27.3834 50.9545 27.3856C50.9575 27.3856 50.9604 27.3864 50.964 27.3871C50.9647 27.3871 50.9662 27.3871 50.9669 27.3871C50.9975 27.3893 51.0281 27.3908 51.0587 27.3908C51.0981 27.3908 51.1367 27.3886 51.1753 27.3849C51.1855 27.3841 51.195 27.3819 51.2045 27.3804C51.2329 27.3767 51.2606 27.3738 51.2883 27.3678C51.3029 27.3649 51.3174 27.3612 51.332 27.3575C51.3539 27.3523 51.3765 27.3479 51.3976 27.3412C51.4144 27.3368 51.4297 27.3301 51.4464 27.3249C51.4654 27.3183 51.485 27.3123 51.504 27.3049C51.5208 27.2983 51.5368 27.2909 51.5528 27.2835C51.5703 27.2753 51.5885 27.2679 51.606 27.259C51.622 27.2509 51.6373 27.242 51.6534 27.2331C51.6701 27.2235 51.6876 27.2139 51.7037 27.2035C51.7182 27.1939 51.7328 27.1843 51.7474 27.1746C51.7641 27.1635 51.7802 27.1524 51.7962 27.1399C51.81 27.1295 51.8224 27.1191 51.8356 27.108C51.8516 27.0947 51.8669 27.0821 51.8822 27.068C51.8946 27.0569 51.9062 27.0458 51.9179 27.034C51.9332 27.0192 51.9478 27.0044 51.9624 26.9888C51.9733 26.977 51.9835 26.9652 51.9944 26.9526C52.0083 26.9363 52.0221 26.9193 52.0352 26.9022C52.0447 26.8896 52.0542 26.8763 52.0636 26.863C52.076 26.8452 52.0877 26.8275 52.0993 26.8097C52.1081 26.7956 52.1168 26.7816 52.1249 26.7668C52.1351 26.7483 52.1453 26.7298 52.1547 26.7112C52.1628 26.6957 52.17 26.6802 52.1773 26.6646C52.1861 26.6461 52.1941 26.6269 52.2014 26.6084C52.2079 26.5913 52.2152 26.5743 52.221 26.5565C52.2276 26.538 52.2334 26.5188 52.2393 26.4995C52.2451 26.481 52.2502 26.4625 52.2546 26.444C52.2597 26.4248 52.2633 26.4048 52.2677 26.3848C52.2713 26.3663 52.275 26.347 52.2779 26.3278C52.2793 26.3204 52.2808 26.313 52.2823 26.3056C52.2895 26.2538 52.2946 26.2012 52.2997 26.1494C52.3974 25.3425 53.0562 24.7363 53.865 24.7274C53.8709 24.7274 53.8767 24.7274 53.8833 24.7274C54.7082 24.7274 55.3881 25.3514 55.4704 26.1871L56.5088 39.9173C56.6582 42.9161 55.7677 45.7971 54.0632 47.8299C53.3542 48.5701 52.9512 49.4525 52.9301 50.3208C52.9301 50.3275 52.9301 50.3334 52.9301 50.3393C52.9301 50.3452 52.9294 50.3512 52.9294 50.3578L52.9447 53.7437C52.9476 54.4366 53.5021 54.9962 54.1835 54.9962H54.1893C54.8736 54.9933 55.4252 54.427 55.4223 53.7319L55.407 50.3785C55.4143 50.1535 55.5928 49.8322 55.8625 49.5591C55.8763 49.545 55.888 49.5302 55.9011 49.5162C55.9098 49.5065 55.9193 49.4976 55.928 49.4873C55.9339 49.4806 55.9397 49.4732 55.9455 49.4666L55.9433 49.4695Z" fill="#17132C"/>
</g>
</g>
<defs>
<linearGradient id="paint0_linear_1527_12741" x1="-0.591837" y1="9.53333" x2="37.8765" y2="9.17511" gradientUnits="userSpaceOnUse">
<stop/>
<stop offset="0.632034" stop-opacity="0"/>
</linearGradient>
<linearGradient id="paint1_linear_1527_12741" x1="-0.591837" y1="9.53333" x2="37.8765" y2="9.17511" gradientUnits="userSpaceOnUse">
<stop/>
<stop offset="0.632034" stop-opacity="0"/>
</linearGradient>
<linearGradient id="paint2_linear_1527_12741" x1="72.5918" y1="12.4667" x2="34.124" y2="12.8249" gradientUnits="userSpaceOnUse">
<stop/>
<stop offset="0.632034" stop-opacity="0"/>
</linearGradient>
<linearGradient id="paint3_linear_1527_12741" x1="72.5918" y1="12.4667" x2="34.124" y2="12.8249" gradientUnits="userSpaceOnUse">
<stop/>
<stop offset="0.632034" stop-opacity="0"/>
</linearGradient>
<clipPath id="clip0_1527_12741">
<rect width="72" height="55" fill="white"/>
</clipPath>
</defs>
</svg>
