<svg width="44" height="44" viewBox="0 0 44 44" fill="none" xmlns="http://www.w3.org/2000/svg">
<rect x="11" y="1" width="30" height="34" rx="2" fill="#E8E8E8"/>
<rect x="7.00781" y="4.99268" width="30" height="34" rx="2" transform="rotate(0.0271917 7.00781 4.99268)" fill="#DCDCDC"/>
<rect x="3" y="9" width="30" height="34" rx="2" fill="#A9A9A9"/>
<rect x="4" y="10" width="28" height="22" rx="1" fill="white" stroke="#A9A9A9" stroke-width="2"/>
<path d="M13.4551 13.25C13.4551 14.4973 14.3536 16.7782 17.9475 15.9229C17.712 14.6043 16.4837 12.2237 13.4551 13.25Z" fill="#A9A9A9"/>
<path fill-rule="evenodd" clip-rule="evenodd" d="M19.6347 14.2693C19.7331 14.4771 19.6533 14.7298 19.4565 14.8337C18.1297 15.5341 17.9777 17.0258 18.0781 17.6971C18.1124 17.9266 17.964 18.142 17.7467 18.1783C17.5293 18.2145 17.3253 18.0578 17.291 17.8284C17.1637 16.9772 17.3305 15.0153 19.1001 14.0811C19.2969 13.9772 19.5363 14.0615 19.6347 14.2693Z" fill="#A9A9A9"/>
<path fill-rule="evenodd" clip-rule="evenodd" d="M17.5 17.1519C16.1947 16.2026 13.0382 15.099 10.8548 18.2792C9.80659 19.9603 8.87309 24.343 13.5248 28.4251C14.217 28.88 15.9811 29.5168 17.5 28.4252V28.4253C19.0188 29.517 20.783 28.8801 21.4752 28.4253C26.1269 24.3432 25.1934 19.9605 24.1452 18.2794C21.9618 15.0992 18.8054 16.2027 17.5 17.152V17.1519Z" fill="#A9A9A9"/>
<path opacity="0.2" fill-rule="evenodd" clip-rule="evenodd" d="M14.115 17.3449C14.1987 17.5131 14.1139 17.71 13.9255 17.7848C13.7129 17.8692 13.287 18.1509 12.8413 18.5758C12.4025 18.9941 11.9849 19.5133 11.7592 20.0424C11.6858 20.2144 11.4702 20.3007 11.2775 20.2352C11.0849 20.1697 10.9883 19.9772 11.0617 19.8052C11.3335 19.1681 11.8178 18.5766 12.2965 18.1202C12.7682 17.6705 13.2753 17.3135 13.6224 17.1758C13.8107 17.101 14.0313 17.1768 14.115 17.3449Z" fill="white"/>
<path d="M10 37L25 37" stroke="white" stroke-width="2" stroke-linecap="round"/>
</svg>
