<svg width="44" height="44" viewBox="0 0 44 44" fill="none" xmlns="http://www.w3.org/2000/svg">
<g clip-path="url(#clip0_1979_3919)">
<path d="M37 39.6V10.4142L27.5858 1H10.25C8.48751 1 7 2.48923 7 4.4V39.6C7 41.5108 8.48751 43 10.25 43H33.75C35.5125 43 37 41.5108 37 39.6Z" fill="white" stroke="#DF4642" stroke-width="2"/>
<path d="M18.5419 12.822V14.4349V16.1204V22.8644C18.0885 22.6054 17.5572 22.4535 16.9866 22.4535C15.3376 22.4535 14 23.6998 14 25.2357C14 26.7732 15.3372 28.0195 16.9866 28.0195C18.6348 28.0195 19.9717 26.7736 19.972 25.2363V15.7372L27.5698 13.7015V20.4627C27.1165 20.2038 26.5852 20.0519 26.0145 20.0519C24.3648 20.0519 23.028 21.2978 23.028 22.8337C23.028 24.3709 24.3648 25.6176 26.0145 25.6176C27.5677 25.6176 28.8441 24.5096 28.9857 23.095H29V13.3182V12.1233V10.0195L18.5419 12.822Z" fill="#DF4642"/>
<path d="M38 32.0195V39.2195C38 41.8705 36.0972 44.0195 33.75 44.0195H10.25C7.90282 44.0195 6 41.8705 6 39.2195V32.0195H38Z" fill="#DF4642"/>
<path d="M17.346 39.8095C17.08 39.8095 16.667 39.7045 16.597 39.4665L15.89 36.9115L15.568 40.0615H14.245L14.833 35.1125C14.875 34.6855 15.253 34.4405 15.568 34.4125C15.904 34.3845 16.373 34.5245 16.499 34.9865L17.346 38.1925L18.193 34.9865C18.319 34.5245 18.788 34.3845 19.124 34.4125C19.439 34.4405 19.817 34.6855 19.859 35.1125L20.447 40.0615H19.124L18.809 36.8905L18.095 39.4665C18.025 39.7045 17.612 39.8095 17.346 39.8095ZM23.3804 38.3955H22.5124V40.0615H21.0704V35.5325C21.0704 34.7275 21.3224 34.4265 22.1624 34.4265H23.3804C24.5914 34.4265 25.4804 35.0285 25.4804 36.3515V36.4705C25.4804 37.7935 24.5914 38.3955 23.3804 38.3955ZM22.5124 35.8475V37.1775H23.3104C23.7794 37.1775 24.0454 36.8275 24.0454 36.4355V36.3865C24.0454 35.9945 23.7794 35.6445 23.3104 35.6445H22.7154C22.5544 35.6445 22.5124 35.6795 22.5124 35.8475ZM29.7705 38.2975C29.7705 39.4875 28.8675 40.1805 27.7965 40.1805C27.1735 40.1805 26.4805 40.0265 26.1515 39.5715C25.9625 39.3125 25.9905 38.9345 26.2285 38.7245C26.4245 38.5495 26.7045 38.5495 26.9145 38.6055C27.0475 38.6405 27.1525 38.7455 27.2295 38.7945C27.3905 38.8925 27.5585 38.9065 27.7685 38.9065C28.1185 38.9065 28.3985 38.6335 28.3985 38.2555C28.3985 37.8495 28.0205 37.6255 27.5585 37.6255H27.2225C27.0195 37.6255 26.8235 37.4505 26.7745 37.2545C26.7115 37.0025 26.7675 36.7925 27.0055 36.5755L28.0835 35.6095H26.7045C26.2915 35.6095 26.1305 35.3015 26.1305 35.0285C26.1305 34.7625 26.2985 34.4405 26.7045 34.4405H28.8815C29.6375 34.4405 29.9245 35.3225 29.4485 35.7985L28.4685 36.7715C29.1125 36.8415 29.7705 37.4225 29.7705 38.2975Z" fill="white"/>
</g>
<defs>
<clipPath id="clip0_1979_3919">
<rect width="44" height="44" fill="white"/>
</clipPath>
</defs>
</svg>
