<svg width="516" height="141" viewBox="0 0 516 141" fill="none" xmlns="http://www.w3.org/2000/svg">
<path d="M513.094 105.899H484.594V57.8987H447.244V38.9987H484.594V30.1487H447.244V11.2487H484.594V0.44873H513.094V105.899ZM409.744 64.9487H474.544V86.3987H381.694V3.74873H409.744V64.9487ZM417.544 93.2987V118.649H515.944V140.399H388.594V93.2987H417.544Z" fill="#F2F3F6"/>
<path d="M288.059 31.1988V5.54883H372.809V27.5988L335.459 137.099H305.909L342.959 31.1988H288.059Z" fill="#F2F3F6"/>
<path d="M236.994 139.499C211.794 139.499 192.744 125.099 192.744 97.0487V45.5987C192.744 17.6987 211.794 3.14868 236.994 3.14868C262.194 3.14868 281.244 17.6987 281.244 45.5987V97.0487C281.244 125.099 262.194 139.499 236.994 139.499ZM236.994 114.299C245.244 114.299 252.594 109.649 252.594 99.1487V43.4987C252.594 33.2987 245.244 28.3487 236.994 28.3487C228.744 28.3487 221.394 33.2987 221.394 43.4987V99.1487C221.394 109.649 228.744 114.299 236.994 114.299Z" fill="#F2F3F6"/>
<path d="M137.93 139.499C112.73 139.499 93.6797 125.099 93.6797 97.0487V45.5987C93.6797 17.6987 112.73 3.14868 137.93 3.14868C163.13 3.14868 182.18 17.6987 182.18 45.5987V97.0487C182.18 125.099 163.13 139.499 137.93 139.499ZM137.93 114.299C146.18 114.299 153.53 109.649 153.53 99.1487V43.4987C153.53 33.2987 146.18 28.3487 137.93 28.3487C129.68 28.3487 122.33 33.2987 122.33 43.4987V99.1487C122.33 109.649 129.68 114.299 137.93 114.299Z" fill="#F2F3F6"/>
<path d="M61.2 85.6487L36.75 111.899H84.75V137.099H1.85061e-05V115.499L43.8 66.4487C52.65 56.3987 56.55 49.9487 56.55 41.8487C56.55 33.7487 50.7 28.3487 41.7 28.3487C32.7 28.3487 26.1 33.1487 25.5 46.6487H1.85061e-05C-0.149982 17.9987 19.05 3.14868 42.15 3.14868C66.3 3.14868 84.6 17.9987 84.6 40.9487C84.6 58.6487 76.2 69.4487 61.2 85.6487Z" fill="#F2F3F6"/>
</svg>
