<svg width="168" height="47" viewBox="0 0 168 47" fill="none" xmlns="http://www.w3.org/2000/svg">
<path d="M167.031 35.2999H157.531V19.2999H145.081V12.9999H157.531V10.0499H145.081V3.7499H157.531V0.149902H167.031V35.2999ZM132.581 21.6499H154.181V28.7999H123.231V1.2499H132.581V21.6499ZM135.181 31.0999V39.5499H167.981V46.7999H125.531V31.0999H135.181Z" fill="#F2F3F6"/>
<path d="M93.0195 10.3999V1.84985H121.27V9.19985L108.82 45.6999H98.9695L111.32 10.3999H93.0195Z" fill="#F2F3F6"/>
<path d="M76.998 46.4999C68.598 46.4999 62.248 41.6999 62.248 32.3499V15.1999C62.248 5.89993 68.598 1.04993 76.998 1.04993C85.398 1.04993 91.748 5.89993 91.748 15.1999V32.3499C91.748 41.6999 85.398 46.4999 76.998 46.4999ZM76.998 38.0999C79.748 38.0999 82.1981 36.5499 82.1981 33.0499V14.4999C82.1981 11.0999 79.748 9.44993 76.998 9.44993C74.248 9.44993 71.798 11.0999 71.798 14.4999V33.0499C71.798 36.5499 74.248 38.0999 76.998 38.0999Z" fill="#F2F3F6"/>
<path d="M44.9766 46.4999C36.5766 46.4999 30.2266 41.6999 30.2266 32.3499V15.1999C30.2266 5.89993 36.5766 1.04993 44.9766 1.04993C53.3766 1.04993 59.7266 5.89993 59.7266 15.1999V32.3499C59.7266 41.6999 53.3766 46.4999 44.9766 46.4999ZM44.9766 38.0999C47.7266 38.0999 50.1766 36.5499 50.1766 33.0499V14.4999C50.1766 11.0999 47.7266 9.44993 44.9766 9.44993C42.2266 9.44993 39.7766 11.0999 39.7766 14.4999V33.0499C39.7766 36.5499 42.2266 38.0999 44.9766 38.0999Z" fill="#F2F3F6"/>
<path d="M20.4 28.5499L12.25 37.2999H28.25V45.6999H4.68587e-05V38.4999L14.6 22.1499C17.55 18.7999 18.85 16.6499 18.85 13.9499C18.85 11.2499 16.9 9.44993 13.9 9.44993C10.9 9.44993 8.70005 11.0499 8.50005 15.5499H4.68587e-05C-0.0499532 5.99993 6.35005 1.04993 14.05 1.04993C22.1 1.04993 28.2 5.99993 28.2 13.6499C28.2 19.5499 25.4 23.1499 20.4 28.5499Z" fill="#F2F3F6"/>
</svg>
