<svg width="968" height="141" viewBox="0 0 968 141" fill="none" xmlns="http://www.w3.org/2000/svg">
<path d="M964.91 105.898H936.41V57.8975H899.06V38.9975H936.41V30.1475H899.06V11.2475H936.41V0.44751H964.91V105.898ZM861.56 64.9475H926.36V86.3975H833.51V3.74751H861.56V64.9475ZM869.36 93.2975V118.648H967.76V140.398H840.41V93.2975H869.36Z" fill="#F2F3F6"/>
<path d="M786.387 49.0476C805.437 49.0476 823.887 59.0976 823.887 86.3976V99.7476C823.887 127.348 801.837 139.648 779.637 139.648C757.437 139.648 735.387 127.348 735.387 99.7476V81.8976C735.387 68.8476 739.737 55.0476 746.487 44.2476L771.087 5.54761H804.387L778.137 45.5976C776.937 47.3976 775.887 49.1976 774.987 50.8476C778.437 49.6476 782.187 49.0476 786.387 49.0476ZM795.237 101.398V85.9476C795.237 77.0976 789.387 71.6976 779.487 71.6976C769.587 71.6976 763.887 77.0976 763.887 85.9476V101.398C763.887 110.248 769.587 115.648 779.487 115.648C789.387 115.648 795.237 110.248 795.237 101.398Z" fill="#F2F3F6"/>
<path d="M723.43 137.098H694.93V46.3476H674.08V23.9976C688.93 23.3976 697.18 18.5976 699.73 5.54761H723.43V137.098Z" fill="#F2F3F6"/>
<path d="M622.266 139.497C597.066 139.497 578.016 125.097 578.016 97.0475V45.5975C578.016 17.6975 597.066 3.14746 622.266 3.14746C647.466 3.14746 666.516 17.6975 666.516 45.5975V97.0475C666.516 125.097 647.466 139.497 622.266 139.497ZM622.266 114.297C630.516 114.297 637.866 109.647 637.866 99.1475V43.4975C637.866 33.2975 630.516 28.3475 622.266 28.3475C614.016 28.3475 606.666 33.2975 606.666 43.4975V99.1475C606.666 109.647 614.016 114.297 622.266 114.297Z" fill="#F2F3F6"/>
<path d="M545.536 85.6475L521.086 111.897H569.086V137.097H484.336V115.497L528.136 66.4475C536.986 56.3975 540.886 49.9475 540.886 41.8475C540.886 33.7475 535.036 28.3475 526.036 28.3475C517.036 28.3475 510.436 33.1475 509.836 46.6475H484.336C484.186 17.9975 503.386 3.14746 526.486 3.14746C550.636 3.14746 568.936 17.9975 568.936 40.9475C568.936 58.6475 560.536 69.4475 545.536 85.6475Z" fill="#F2F3F6"/>
<path d="M455.331 87.7476C448.431 87.7476 442.431 86.0976 434.331 81.5976C429.081 78.5976 422.931 73.7976 417.381 73.9476C411.981 73.9476 408.681 77.5476 407.931 84.7476H387.381C387.381 60.4476 402.381 51.2976 417.231 51.2976C424.131 51.2976 430.131 52.7976 438.231 57.4476C443.181 60.2976 449.481 65.0976 455.031 65.2476C460.431 65.2476 463.881 61.3476 464.631 52.7976H485.181C485.181 78.5976 470.181 87.7476 455.331 87.7476Z" fill="#F2F3F6"/>
<path d="M367.859 67.9475C376.259 73.1975 382.109 81.5975 382.109 93.8975V104.097C382.109 128.547 359.909 139.497 336.959 139.497C314.009 139.497 291.809 128.547 291.809 104.097V93.8975C291.809 81.5975 297.509 73.1975 305.909 67.9475C298.859 62.6975 294.059 54.8975 294.059 43.9475V37.9475C294.059 13.1975 315.059 3.14746 336.959 3.14746C358.409 3.14746 379.859 13.1975 379.859 37.9475V43.9475C379.859 54.8975 375.059 62.6975 367.859 67.9475ZM322.259 39.1475V45.5975C322.259 52.3475 328.109 57.2975 336.959 57.2975C345.809 57.2975 351.659 52.3475 351.659 45.5975V39.1475C351.659 32.3975 345.809 27.4475 336.959 27.4475C328.109 27.4475 322.259 32.3975 322.259 39.1475ZM353.609 100.947V94.3475C353.609 86.0975 347.759 80.2475 336.959 80.2475C326.159 80.2475 320.309 86.0975 320.309 94.3475V100.947C320.309 109.197 326.159 115.047 336.959 115.047C347.759 115.047 353.609 109.197 353.609 100.947Z" fill="#F2F3F6"/>
<path d="M236.994 139.497C211.794 139.497 192.744 125.097 192.744 97.0475V45.5975C192.744 17.6975 211.794 3.14746 236.994 3.14746C262.194 3.14746 281.244 17.6975 281.244 45.5975V97.0475C281.244 125.097 262.194 139.497 236.994 139.497ZM236.994 114.297C245.244 114.297 252.594 109.647 252.594 99.1475V43.4975C252.594 33.2975 245.244 28.3475 236.994 28.3475C228.744 28.3475 221.394 33.2975 221.394 43.4975V99.1475C221.394 109.647 228.744 114.297 236.994 114.297Z" fill="#F2F3F6"/>
<path d="M137.93 139.497C112.73 139.497 93.6797 125.097 93.6797 97.0475V45.5975C93.6797 17.6975 112.73 3.14746 137.93 3.14746C163.13 3.14746 182.18 17.6975 182.18 45.5975V97.0475C182.18 125.097 163.13 139.497 137.93 139.497ZM137.93 114.297C146.18 114.297 153.53 109.647 153.53 99.1475V43.4975C153.53 33.2975 146.18 28.3475 137.93 28.3475C129.68 28.3475 122.33 33.2975 122.33 43.4975V99.1475C122.33 109.647 129.68 114.297 137.93 114.297Z" fill="#F2F3F6"/>
<path d="M61.2 85.6475L36.75 111.897H84.75V137.097H1.85061e-05V115.497L43.8 66.4475C52.65 56.3975 56.55 49.9475 56.55 41.8475C56.55 33.7475 50.7 28.3475 41.7 28.3475C32.7 28.3475 26.1 33.1475 25.5 46.6475H1.85061e-05C-0.149982 17.9975 19.05 3.14746 42.15 3.14746C66.3 3.14746 84.6 17.9975 84.6 40.9475C84.6 58.6475 76.2 69.4475 61.2 85.6475Z" fill="#F2F3F6"/>
</svg>
