<svg width="940" height="141" viewBox="0 0 940 141" fill="none" xmlns="http://www.w3.org/2000/svg">
<path d="M937.078 105.898H908.578V57.8982H871.228V38.9982H908.578V30.1482H871.228V11.2482H908.578V0.448242H937.078V105.898ZM833.728 64.9482H898.528V86.3983H805.678V3.74824H833.728V64.9482ZM841.528 93.2982V118.648H939.928V140.398H812.578V93.2982H841.528Z" fill="#F2F3F6"/>
<path d="M791.059 30.2978L762.709 57.7478C782.359 59.8478 796.009 74.9979 796.009 93.8979V97.9479C796.009 124.648 774.859 139.498 750.259 139.498C727.309 139.498 709.609 126.448 706.459 106.048L731.809 100.648C733.909 108.748 740.959 114.298 750.259 114.298C760.159 114.298 768.109 107.998 768.109 96.4479V95.3979C768.109 83.9979 760.159 77.2478 746.509 77.2478H729.859V57.4478L757.909 30.2978H713.659V5.54785H791.059V30.2978Z" fill="#F2F3F6"/>
<path d="M678.479 85.648L654.029 111.898H702.029V137.098H617.279V115.498L661.079 66.448C669.929 56.398 673.829 49.948 673.829 41.8479C673.829 33.7479 667.979 28.348 658.979 28.348C649.979 28.348 643.379 33.1479 642.779 46.648H617.279C617.129 17.998 636.329 3.14795 659.429 3.14795C683.579 3.14795 701.879 17.998 701.879 40.948C701.879 58.648 693.479 69.448 678.479 85.648Z" fill="#F2F3F6"/>
<path d="M563.965 139.498C538.765 139.498 519.715 125.098 519.715 97.048V45.5979C519.715 17.6979 538.765 3.14795 563.965 3.14795C589.165 3.14795 608.215 17.6979 608.215 45.5979V97.048C608.215 125.098 589.165 139.498 563.965 139.498ZM563.965 114.298C572.215 114.298 579.565 109.648 579.565 99.1479V43.4979C579.565 33.298 572.215 28.348 563.965 28.348C555.715 28.348 548.365 33.298 548.365 43.4979V99.1479C548.365 109.648 555.715 114.298 563.965 114.298Z" fill="#F2F3F6"/>
<path d="M487.235 85.648L462.785 111.898H510.785V137.098H426.035V115.498L469.835 66.448C478.685 56.398 482.585 49.948 482.585 41.8479C482.585 33.7479 476.735 28.348 467.735 28.348C458.735 28.348 452.135 33.1479 451.535 46.648H426.035C425.885 17.998 445.085 3.14795 468.185 3.14795C492.335 3.14795 510.635 17.998 510.635 40.948C510.635 58.648 502.235 69.448 487.235 85.648Z" fill="#F2F3F6"/>
<path d="M397.03 87.7479C390.13 87.7479 384.13 86.0979 376.03 81.5979C370.78 78.5978 364.63 73.7978 359.08 73.9478C353.68 73.9478 350.38 77.5479 349.63 84.7479H329.08C329.08 60.4479 344.08 51.2979 358.93 51.2979C365.83 51.2979 371.83 52.7979 379.93 57.4478C384.88 60.2978 391.18 65.0978 396.73 65.2479C402.13 65.2479 405.58 61.3478 406.33 52.7979H426.88C426.88 78.5979 411.88 87.7479 397.03 87.7479Z" fill="#F2F3F6"/>
<path d="M248.801 31.1979V5.54785H333.551V27.5978L296.201 137.098H266.651L303.701 31.1979H248.801Z" fill="#F2F3F6"/>
<path d="M239.094 137.098H210.594V46.3479H189.744V23.9978C204.594 23.3978 212.844 18.5978 215.394 5.54785H239.094V137.098Z" fill="#F2F3F6"/>
<path d="M137.93 139.498C112.73 139.498 93.6797 125.098 93.6797 97.048V45.5979C93.6797 17.6979 112.73 3.14795 137.93 3.14795C163.13 3.14795 182.18 17.6979 182.18 45.5979V97.048C182.18 125.098 163.13 139.498 137.93 139.498ZM137.93 114.298C146.18 114.298 153.53 109.648 153.53 99.1479V43.4979C153.53 33.298 146.18 28.348 137.93 28.348C129.68 28.348 122.33 33.298 122.33 43.4979V99.1479C122.33 109.648 129.68 114.298 137.93 114.298Z" fill="#F2F3F6"/>
<path d="M61.1999 85.648L36.7499 111.898H84.7499V137.098H-0.000103564V115.498L43.7999 66.448C52.6499 56.398 56.5499 49.948 56.5499 41.8479C56.5499 33.7479 50.6999 28.348 41.6999 28.348C32.6999 28.348 26.0999 33.1479 25.4999 46.648H-0.000103564C-0.150104 17.998 19.0499 3.14795 42.1499 3.14795C66.2999 3.14795 84.5999 17.998 84.5999 40.948C84.5999 58.648 76.1999 69.448 61.1999 85.648Z" fill="#F2F3F6"/>
</svg>
