<svg width="516" height="141" viewBox="0 0 516 141" fill="none" xmlns="http://www.w3.org/2000/svg">
<path d="M513.094 105.898H484.594V57.8982H447.244V38.9982H484.594V30.1482H447.244V11.2482H484.594V0.448242H513.094V105.898ZM409.744 64.9482H474.544V86.3983H381.694V3.74824H409.744V64.9482ZM417.544 93.2982V118.648H515.944V140.398H388.594V93.2982H417.544Z" fill="#F2F3F6"/>
<path d="M359.394 90.8979H372.894V114.898H359.394V137.098H333.144V114.898H278.244V95.2479L329.994 5.54785H359.394V90.8979ZM333.144 46.9478L308.394 90.8979H333.144V46.9478Z" fill="#F2F3F6"/>
<path d="M252.444 85.648L227.994 111.898H275.994V137.098H191.244V115.498L235.044 66.448C243.894 56.398 247.794 49.948 247.794 41.8479C247.794 33.7479 241.944 28.348 232.944 28.348C223.944 28.348 217.344 33.1479 216.744 46.648H191.244C191.094 17.998 210.294 3.14795 233.394 3.14795C257.544 3.14795 275.844 17.998 275.844 40.948C275.844 58.648 267.444 69.448 252.444 85.648Z" fill="#F2F3F6"/>
<path d="M137.93 139.498C112.73 139.498 93.6797 125.098 93.6797 97.048V45.5979C93.6797 17.6979 112.73 3.14795 137.93 3.14795C163.13 3.14795 182.18 17.6979 182.18 45.5979V97.048C182.18 125.098 163.13 139.498 137.93 139.498ZM137.93 114.298C146.18 114.298 153.53 109.648 153.53 99.1479V43.4979C153.53 33.298 146.18 28.348 137.93 28.348C129.68 28.348 122.33 33.298 122.33 43.4979V99.1479C122.33 109.648 129.68 114.298 137.93 114.298Z" fill="#F2F3F6"/>
<path d="M61.1999 85.648L36.7499 111.898H84.7499V137.098H-0.000103564V115.498L43.7999 66.448C52.6499 56.398 56.5499 49.948 56.5499 41.8479C56.5499 33.7479 50.6999 28.348 41.6999 28.348C32.6999 28.348 26.0999 33.1479 25.4999 46.648H-0.000103564C-0.150104 17.998 19.0499 3.14795 42.1499 3.14795C66.2999 3.14795 84.5999 17.998 84.5999 40.948C84.5999 58.648 76.1999 69.448 61.1999 85.648Z" fill="#F2F3F6"/>
</svg>
