<svg width="337" height="96" viewBox="0 0 337 96" fill="none" xmlns="http://www.w3.org/2000/svg">
<g clip-path="url(#clip0_1495_1213)">
<path d="M337.095 44.3346C336.394 36.094 333.405 28.5883 327.722 22.2722C323.146 17.1984 316.448 13.3318 309.548 12.0022C302.481 10.6375 295.267 11.4948 288.68 14.1017C288.514 11.4598 287.093 9.06285 284.842 7.38324C284.528 7.15579 284.233 6.92834 283.919 6.7009C283.864 6.45596 283.809 6.21101 283.753 5.96607C283.218 3.48165 282.13 1.39964 279.934 -0.209981C276.539 -2.6944 271.926 -2.44946 268.55 -0.122502C268.273 0.069953 267.978 0.262408 267.701 0.472359C267.369 0.437367 267.018 0.402375 266.686 0.367383C263.771 0.069953 260.727 0.874764 258.66 2.92178C256.225 5.31872 255.579 8.67794 256.391 11.8272C256.483 12.1596 256.594 12.5095 256.704 12.842C256.76 12.9994 256.797 13.1569 256.852 13.3143C256.797 13.4193 256.76 13.5243 256.704 13.6293C256.631 13.8042 256.557 13.9617 256.483 14.1192C255.542 13.6993 254.582 13.2969 253.605 12.9294C244.232 9.41276 233.198 10.3051 223.825 13.3668C218.29 15.1689 213.031 17.6533 207.846 20.2252C205.835 18.3707 203.621 16.726 201.093 15.3789C196.591 12.9469 191.72 11.6522 186.591 11.2323C177.347 10.48 167.919 14.2416 161.073 19.9803C158.527 22.1148 156.387 24.5467 154.616 27.2236C151.073 21.5724 145.999 16.796 139.726 14.0317C133.84 11.4248 127.401 10.0951 120.887 10.55C114.817 10.9699 109.263 12.492 103.71 14.749C99.8351 16.3236 96.2187 18.3357 92.6761 20.4702C92.0488 19.4204 91.3292 18.4406 90.4251 17.4084C88.1372 14.784 84.6316 12.7895 81.1259 12.1246C77.8601 11.5123 74.7419 11.8972 71.5499 12.5795C66.3283 13.7168 61.1251 14.854 55.9036 15.9912C42.951 18.8256 30.017 21.6424 17.0645 24.4767C15.6991 24.7742 14.26 25.0191 12.9315 25.439C8.81695 26.7162 5.51424 28.8682 2.96802 32.1749C0.975331 34.7643 0.0896899 38.071 -0.00256443 41.2378C-0.0763679 43.8797 0.661667 46.5041 1.25209 49.076C1.97168 52.1552 2.67281 55.217 3.39239 58.2963C4.64705 63.72 5.86481 69.1613 7.17482 74.585C7.91286 77.6293 9.57343 80.3761 11.7691 82.6681C14.8688 85.9048 19.1494 87.5494 23.633 88.0393C26.3268 88.3368 29.076 87.7419 31.7329 87.357C42.988 85.7474 54.2614 84.1727 65.498 82.5106C65.8486 82.4581 66.1991 82.4057 66.5497 82.3532L77.1405 86.2198C78.838 86.8321 80.5355 87.5669 82.2514 88.0918C85.7202 89.1241 89.7793 88.1443 92.1964 85.5549C93.8385 83.7878 94.595 81.8283 94.7426 79.7113C95.0932 80.3062 95.5176 80.866 96.0157 81.3734C97.8424 83.263 100.702 84.1203 103.175 84.995C104.835 85.5899 106.551 86.0623 108.304 86.4122C118.249 88.4417 128.36 87.322 137.567 83.3329C138.453 82.948 139.301 82.5281 140.15 82.0907C140.445 83.4554 141.017 84.5751 141.921 85.6949C142.733 86.6922 143.416 87.392 144.652 88.0568C144.874 88.1793 145.113 88.2668 145.353 88.3718C145.501 88.4242 145.63 88.4942 145.778 88.5467C145.815 88.6342 145.852 88.7042 145.907 88.7917C147.106 91.2411 149.449 93.0082 152.162 93.7605C155.612 94.7228 159.284 93.2706 161.535 90.7687C161.59 90.6987 161.645 90.6462 161.701 90.5762C161.885 90.5587 162.051 90.5238 162.217 90.5063C162.42 90.4713 162.623 90.4538 162.826 90.4188C162.679 90.4363 162.513 90.4538 162.365 90.4713C163.361 90.3138 164.192 90.1039 165.373 89.439C167.421 88.3018 169.026 86.4122 169.635 84.2252C169.911 83.2455 169.985 82.2657 169.893 81.3209C170.594 81.6358 171.314 81.9333 172.033 82.2132C174.321 83.1055 176.609 83.5779 179.008 83.9103C185.336 84.6451 191.425 84.0328 197.348 81.6708C201.167 80.1487 204.728 77.9967 207.773 75.3023C207.828 75.5123 207.883 75.7222 207.957 75.9322C208.824 78.3291 210.466 80.0262 212.754 81.3034C216.389 83.3504 220.448 84.9426 224.563 85.9048C234.858 88.3018 245.652 87.3045 255.191 82.9655C261.907 79.9212 267.627 74.8299 271.428 68.7414C275.856 75.3023 282.48 80.4461 290.34 82.8256C297.352 84.9426 305.488 84.7851 312.352 82.2307C319.843 79.4314 325.858 74.8299 330.416 68.5314C335.453 61.568 337.943 52.7676 337.095 44.3521V44.3346Z" fill="#4416CE"/>
<path d="M180.654 84.1208C180.1 84.0508 179.565 83.9808 179.03 83.8933C178.864 83.8758 178.698 83.8583 178.532 83.8408C179.252 83.9283 179.953 84.0158 180.654 84.1208Z" fill="#4416CE"/>
<path d="M211.061 40.4334C210.083 36.3218 208.33 32.6477 205.839 29.4284C205.064 28.4312 204.234 27.4864 203.33 26.5941C198.182 21.5378 191.392 18.7734 184.51 18.7734C182.111 18.7734 179.694 19.1758 177.37 19.8407C166.447 22.85 158.716 31.7379 156.908 43.0577C156.649 44.8423 156.483 46.5569 156.483 48.2715C156.483 57.072 160.432 65.3825 167.148 70.7712C168.255 71.646 169.38 72.4159 170.524 73.0982C173.679 74.9703 177.037 76.1425 180.635 76.5624C181.761 76.7199 182.868 76.7199 184.159 76.7199C186.226 76.7199 188.2 76.5624 190.082 76.0725C200.396 73.6231 208.127 65.9599 211.042 55.3749C211.725 52.8554 212.076 50.3185 212.076 47.8691C212.076 45.4197 211.725 42.9878 211.042 40.4509L211.061 40.4334ZM186.374 34.0823C189.805 34.9746 192.628 37.4766 194.307 40.4509C197.924 46.8369 196.374 54.955 190.414 59.5564C188.901 60.7111 187.075 61.5509 185.137 61.6734C179.03 62.0408 174.196 56.6346 172.904 51.4733C172.517 49.8986 172.351 48.219 172.388 46.4869C172.572 39.5936 178.181 31.9653 186.355 34.0823H186.374Z" fill="#F7CE46"/>
<path d="M184.157 76.6848C186.224 76.6848 188.198 76.5273 190.08 76.0375C200.394 73.588 208.125 65.9248 211.04 55.3398C211.723 52.8204 212.073 50.2835 212.073 47.8341C212.073 45.3846 211.723 42.9527 211.04 40.4158C210.062 36.3043 208.309 32.6301 205.818 29.4109C206.519 31.1955 207.128 33.015 207.645 34.8521C210.616 45.3671 208.106 58.1916 199.84 66.0473C195.228 70.4213 189.028 73.0981 182.57 73.798C179.507 74.1304 176.408 73.9904 173.363 73.5355C172.441 73.3956 171.481 73.2556 170.522 73.0632C173.677 74.9352 177.035 76.1074 180.633 76.5273C181.758 76.6848 182.865 76.6848 184.157 76.6848Z" fill="#F19A38"/>
<path d="M329.07 44.3349C328.701 39.646 327.317 35.342 324.918 31.4929C324.513 30.8281 324.07 30.1807 323.608 29.5334C319.309 23.8122 313.036 20.1031 306.228 19.1233C303.848 18.7909 301.412 18.8434 299.013 19.1583C287.74 20.593 278.699 28.2737 275.12 39.2261C274.584 40.9582 274.142 42.6378 273.865 44.3174C272.481 53.0129 275.083 61.7958 280.858 68.0594C281.448 68.6892 282.076 69.2841 282.703 69.844C285.821 72.6608 289.327 74.6378 293.294 75.6876C294.364 76.0025 295.471 76.16 296.744 76.3524C298.792 76.6499 300.766 76.7548 302.704 76.5449C313.294 75.5826 322.132 69.1091 326.708 59.049C327.778 56.652 328.516 54.2026 328.904 51.7882C329.291 49.3737 329.328 46.9068 329.051 44.3174L329.07 44.3349ZM289.899 44.8598C291.172 38.0714 297.925 31.318 305.656 34.5722C308.903 35.9369 311.302 38.8062 312.501 41.9905C315.084 48.8139 312.261 56.617 305.637 60.3262C303.958 61.2535 302.021 61.8308 300.102 61.6734C294.013 61.1835 290.065 55.1299 289.622 49.8636C289.474 48.254 289.585 46.5744 289.899 44.8598Z" fill="#ED739F"/>
<path d="M296.762 76.3875C298.81 76.6849 300.784 76.7899 302.722 76.5799C313.312 75.6177 322.15 69.1442 326.726 59.084C327.796 56.6871 328.534 54.2377 328.922 51.8232C329.309 49.4088 329.346 46.9419 329.069 44.3525C328.7 39.6636 327.317 35.3596 324.918 31.5105C325.379 33.505 325.711 35.5346 325.951 37.5641C326.892 45.5247 325.822 52.663 321.578 59.6964C316.578 67.937 307.722 72.8358 296.651 72.5209C292.979 72.4159 289.474 71.9785 285.968 70.9463C284.916 70.6313 283.809 70.2814 282.702 69.879C285.821 72.6959 289.326 74.6729 293.293 75.7226C294.363 76.0376 295.47 76.195 296.743 76.3875H296.762Z" fill="#DD468F"/>
<path d="M269.256 43.2502C268.924 40.6783 268.278 38.1589 267.337 35.7795C264.827 29.4634 260.122 24.0397 253.111 20.9429C244.624 17.1638 235.841 18.1436 229.937 19.5783C223.147 21.2229 216.966 24.2847 211.56 26.979L218.793 40.031C220.01 39.3836 221.228 38.7363 222.446 38.1764L222.833 62.7056L218.479 68.8817L215.767 72.7308C215.379 73.2732 215.545 74.008 216.136 74.3404C220.047 76.6324 225.951 79.1343 233.387 79.5017C234.734 79.6067 236.063 79.6417 237.409 79.5717C245.602 79.2218 253.056 76.4399 258.794 71.5236C266.949 64.5427 270.566 53.4853 269.274 43.2327L269.256 43.2502ZM224.18 37.3541C227.409 35.8669 230.638 34.5372 233.904 33.7149C238.756 32.4902 243.221 32.6302 246.506 34.0998C253.886 37.4066 255.713 47.7991 253 54.3251C252.004 56.6871 250.473 58.7866 248.517 60.5012C246.93 61.9008 245.085 63.0381 243.074 63.8429C240.399 64.9276 238.517 65.0851 238.517 65.1376C238.517 65.1901 238.074 37.1616 238.074 37.1616L234.125 37.2141L224.162 37.3541H224.18Z" fill="#ED739F"/>
<path d="M216.121 74.358C220.033 76.65 225.937 79.1519 233.373 79.5193C234.719 79.6243 236.048 79.6593 237.395 79.5893C245.587 79.2394 253.041 76.4575 258.779 71.5412C266.935 64.5603 270.551 53.5029 269.259 43.2503C268.927 40.6784 268.282 38.159 267.341 35.7795C267.71 40.9233 267.544 46.0846 266.363 51.0885C264.831 57.5094 261.399 63.4756 255.919 67.7271C251.104 71.4887 244.794 74.3755 238.594 74.393C231.122 74.4105 225.014 73.0808 218.206 69.2842L215.77 72.7309C215.383 73.2733 215.549 74.0081 216.139 74.3405L216.121 74.358Z" fill="#DD468F"/>
<path d="M235.729 64.2208L235.286 36.2449L231.337 36.2974C231.319 36.5423 231.301 36.7872 231.301 37.0322C231.54 44.7304 231.448 52.4111 231.651 60.0918C231.651 60.0918 231.651 60.1093 231.651 60.1268C231.651 60.1793 231.651 60.2317 231.651 60.2842C231.651 60.5992 231.651 60.9141 231.67 61.2465C231.706 62.7512 233.681 64.3783 235.729 64.2208Z" fill="#DD468F"/>
<path d="M151.554 40.1185C150.945 37.5991 150.023 35.1671 148.805 32.8752C145.595 26.8566 140.318 21.9402 133.011 19.5433C124.155 16.639 115.52 18.4935 109.818 20.5231C103.25 22.85 97.4378 26.5241 92.3638 29.7434L101.017 41.9905C102.161 41.2207 103.287 40.4684 104.449 39.786L107.586 64.1228L103.932 70.7188L101.663 74.8128C101.349 75.3902 101.589 76.09 102.198 76.3875C106.35 78.277 112.494 80.1666 119.929 79.7817C121.276 79.7642 122.605 79.6417 123.933 79.4492C132.033 78.2595 139.137 74.7603 144.303 69.3016C151.646 61.5509 153.99 50.1786 151.554 40.1185ZM106.073 38.7888C109.117 36.9692 112.18 35.3246 115.335 34.1874C120.022 32.4728 124.487 32.1753 127.9 33.2951C135.613 35.8495 138.602 45.9796 136.609 52.7505C135.889 55.1999 134.579 57.4394 132.845 59.3465C131.424 60.9036 129.727 62.2158 127.808 63.2131C125.262 64.5602 123.417 64.9102 123.417 64.9626C123.417 65.0151 119.856 37.1792 119.856 37.1792L115.926 37.634L106.036 38.7713L106.073 38.7888Z" fill="#F7CE46"/>
<path d="M102.193 76.3873C106.345 78.2769 112.489 80.1664 119.925 79.7815C121.271 79.764 122.6 79.6415 123.928 79.4491C132.028 78.2594 139.132 74.7602 144.298 69.3015C151.642 61.5508 153.985 50.1784 151.549 40.1183C150.94 37.5989 150.018 35.167 148.8 32.875C149.741 37.9488 150.166 43.0926 149.538 48.2014C148.745 54.7449 145.977 61.0084 141.014 65.8023C136.641 70.0188 130.7 73.5355 124.537 74.1828C117.102 74.9526 110.884 74.2353 103.688 71.156L101.658 74.8302C101.345 75.4075 101.584 76.1074 102.193 76.4048V76.3873Z" fill="#F19A38"/>
<path d="M123.453 64.98L119.892 37.1965L115.962 37.6514C115.962 37.8964 115.962 38.1413 116.017 38.3863C117.106 46.0145 117.899 53.6602 118.951 61.2884C118.951 61.2884 118.951 61.3059 118.951 61.3234C118.951 61.3759 118.951 61.4284 118.969 61.4808C119.006 61.7958 119.043 62.1107 119.098 62.4256C119.32 63.9303 121.441 65.3474 123.453 64.9625V64.98Z" fill="#F19A38"/>
<path d="M175.632 26.8565C175.06 25.9467 173.897 25.6493 172.79 26.1392C170.225 27.2764 167.882 29.3759 165.631 32.5602C163.971 34.9221 162.605 37.5815 161.72 40.2584C161.554 40.7308 161.627 41.2557 161.886 41.7106C162.162 42.2004 162.642 42.5679 163.177 42.7078C163.362 42.7603 163.546 42.7778 163.712 42.7778C164.616 42.7778 165.447 42.2179 165.742 41.3256C165.926 40.8008 166.129 40.2584 166.351 39.716C166.388 39.611 166.443 39.5061 166.48 39.4011L166.572 39.2086C166.701 38.9287 166.831 38.6488 166.978 38.3863C167.624 37.0916 168.344 35.8669 169.137 34.7472C170.927 32.1753 172.753 30.5482 174.894 29.6034C175.336 29.4109 175.669 29.026 175.835 28.5361C176.019 27.9763 175.945 27.3464 175.668 26.874L175.632 26.8565Z" fill="white"/>
<path d="M111.944 25.8593C111.539 24.8095 110.413 24.2672 109.324 24.5646C105.856 25.5444 102.645 27.2415 99.8222 29.6384C99.4532 29.9533 99.2502 30.4432 99.2502 30.9856C99.2502 31.5805 99.5086 32.1228 99.9145 32.4727C100.339 32.8052 100.819 32.9801 101.298 32.9801C101.833 32.9801 102.368 32.7702 102.848 32.3853L102.977 32.2803C103.07 32.1928 103.18 32.1053 103.291 32.0353C103.291 32.0353 103.328 32.0004 103.346 31.9829L103.512 31.8604C103.826 31.6329 104.14 31.4055 104.472 31.178C105.118 30.7407 105.8 30.3382 106.483 29.9708C106.834 29.7959 107.184 29.6209 107.535 29.446L107.719 29.3585C107.719 29.3585 107.738 29.3585 107.756 29.3585L107.922 29.2885C108.051 29.236 108.18 29.1835 108.31 29.131C109.011 28.8511 109.767 28.6062 110.561 28.3787C111.096 28.2212 111.539 27.8538 111.815 27.3464C112.074 26.8741 112.11 26.3317 111.944 25.8768V25.8593Z" fill="white"/>
<path d="M230.784 24.8446C230.397 23.8123 229.4 23.3225 228.183 23.5324C225.175 24.0923 222.205 25.247 219.566 26.8741C219.086 27.1716 218.736 27.6614 218.625 28.2213C218.514 28.7287 218.625 29.2361 218.92 29.621C219.363 30.2158 220.046 30.5483 220.71 30.5483C221.079 30.5483 221.466 30.4433 221.799 30.2333C222.426 29.8484 223.053 29.4985 223.681 29.1836L223.791 29.1311C224.031 29.0086 224.271 28.8861 224.511 28.7812C224.585 28.7462 224.677 28.7112 224.806 28.6587C224.954 28.5887 225.12 28.5362 225.267 28.4662C226.577 27.9764 227.943 27.5915 229.363 27.3115C229.843 27.224 230.286 26.9091 230.563 26.4367C230.876 25.9293 230.95 25.2995 230.766 24.8096L230.784 24.8446Z" fill="white"/>
<path d="M279.914 13.3322L276.648 10.9002L275.762 6.84119C275.762 6.84119 275.614 5.9489 274.876 5.66896C274.138 5.38903 273.363 5.9314 273.345 5.9489L269.932 8.31084L265.836 7.89094C265.706 7.89094 264.581 7.78596 264.212 8.4683C263.88 9.09816 264.101 9.79799 264.12 9.81549L265.319 13.7171L263.621 17.4787C263.566 17.5837 263.142 18.5284 263.677 19.0883C264.157 19.6132 265.024 19.6832 265.097 19.7007L269.175 19.7357L272.183 22.43C272.183 22.43 272.718 22.8324 273.327 22.9024C273.419 22.9024 273.53 22.9024 273.622 22.9024C274.415 22.8499 274.766 21.8702 274.784 21.7652L276.205 17.8986L279.821 15.8691C279.821 15.8691 280.522 15.5017 280.707 14.8193C280.928 14.0845 280.043 13.4021 279.932 13.3147L279.914 13.3322Z" fill="#F7EBA1"/>
<path d="M160.039 78.417L160.574 75.2852C160.648 75.0053 160.648 74.4279 160.224 74.043C159.726 73.5706 158.969 73.7456 158.895 73.7631L155.796 74.4629L153.01 73.0108C152.917 72.9583 152.05 72.5209 151.497 72.9758C151.035 73.3607 150.98 73.973 150.98 74.0255L150.703 77.1223L148.415 79.2918C148.415 79.2918 147.677 79.9741 147.936 80.639C148.157 81.1988 148.766 81.5138 148.84 81.5488L151.737 82.7385L153.102 85.5203C153.102 85.5203 153.471 86.1327 154.024 86.3251C154.043 86.3251 154.061 86.3251 154.08 86.3426C154.762 86.5526 155.353 85.8877 155.408 85.8178L157.53 83.4733L160.667 83.0534C160.667 83.0534 161.349 82.9659 161.718 82.4935C162.143 81.9512 161.663 81.1114 161.608 81.0239L159.984 78.382L160.039 78.417Z" fill="#F7EBA1"/>
<path d="M90.9855 61.2708L87.3322 28.9034C86.6864 23.2872 82.3874 19.1407 77.1104 19.3506C76.5015 19.3681 75.8927 19.4381 75.2653 19.5781L17.0344 32.2976C9.5249 33.7323 7.05248 38.6486 8.34404 44.2648L14.9495 72.6956C15.1524 73.5879 15.4845 74.4452 15.9273 75.2151C17.9569 78.8717 22.2744 81.0762 26.7949 80.4288L61.8884 75.39L67.4975 74.5677L84.583 80.7962C84.7306 80.8487 84.8598 80.8662 85.0074 80.8662C86.262 80.9887 87.1292 79.9389 86.8709 78.6093C86.8709 78.6093 85.2472 71.4884 85.2472 71.4709C85.2472 71.4534 86.2805 70.9111 86.3912 70.8586C86.7602 70.6311 87.1108 70.3687 87.4429 70.1062C88.1071 69.5639 88.716 68.934 89.2142 68.2517C90.2474 66.8695 90.8747 65.2249 91.0593 63.5453C91.1331 62.7755 91.0962 62.0231 91.0039 61.2708H90.9855Z" fill="white"/>
<path d="M52.2767 33.9597C52.7564 37.4939 55.1366 54.8848 57.4245 63.8602C57.5167 64.2101 57.2769 64.5775 56.8894 64.6825L49.7674 66.4496C49.3799 66.537 48.9924 66.3271 48.9002 65.9772C48.0514 62.7054 47.2949 59.3637 46.6307 56.022C46.5569 55.6546 46.1879 55.4271 45.782 55.4971C42.1471 56.2495 38.5308 57.0893 34.9144 58.0165C34.5638 58.104 34.324 58.4539 34.3793 58.7864L35.9846 68.0592C36.0399 68.4266 35.7816 68.7765 35.3941 68.8465L28.1429 70.0887C27.7555 70.1587 27.3865 69.9137 27.3311 69.5463L22.1095 39.086C22.0542 38.7186 22.3125 38.3686 22.6999 38.2987L29.9511 37.0565C30.3386 36.9865 30.7076 37.2314 30.763 37.5988L32.7741 49.3211C32.8479 49.706 33.2538 49.9509 33.6597 49.846C37.2392 48.9187 40.8371 48.0964 44.4535 47.344C44.8225 47.2741 45.0624 46.9241 45.0255 46.5742C44.4166 42.6726 43.9369 38.7536 43.5679 34.852C43.531 34.4846 43.8262 34.1521 44.2321 34.1171L51.5202 33.3998C51.9077 33.3648 52.2398 33.6098 52.2951 33.9597H52.2767Z" fill="black"/>
<path d="M72.7593 34.3447C72.7962 33.0326 71.726 31.9478 70.3422 31.8953L64.2165 31.7204C62.8327 31.6854 61.6888 32.7001 61.6334 34.0123L61.5227 37.1266L72.6486 37.459L72.7593 34.3447Z" fill="black"/>
<path d="M61.1932 59.2764L65.0495 62.5831L65.0126 63.9478C65.0126 64.4902 65.4554 64.9626 66.0274 64.9626H66.3595C66.9315 64.9976 67.4296 64.5602 67.4296 64.0178L67.4665 62.6531L71.5442 59.5739C71.8025 59.3814 71.9501 59.1015 71.9501 58.804L72.5405 40.6608L61.4146 40.3284L60.8242 58.4716C60.8242 58.769 60.9534 59.0665 61.1748 59.2764H61.1932Z" fill="black"/>
<path d="M62.1118 71.6459L26.9445 76.6322C25.0625 76.8772 23.7709 76.8597 21.7413 76.7197C21.7413 76.7197 21.2432 76.6672 21.2247 76.6672C20.745 76.6147 20.2468 76.5447 19.7671 76.4748C18.6231 76.3173 17.0733 75.7924 15.9293 75.2325C17.9589 78.8892 22.2764 81.0937 26.7969 80.4463L61.8904 75.4075L67.4995 74.5852C67.1305 74.0253 67.0198 73.8679 66.7799 73.6054C65.2854 72.0308 64.658 71.366 62.1303 71.6634L62.1118 71.6459Z" fill="#C7B9F0"/>
<path d="M85.0596 41.9767C85.4286 44.8285 85.7608 47.6629 86.056 50.5147C86.2958 52.7542 86.6833 54.9936 86.9047 57.2506C87.0339 58.5278 87.1077 59.805 87.0708 61.0822C87.0708 61.3796 87.0339 61.6771 87.0154 61.9745C86.9601 62.6043 86.8309 63.3917 86.5172 64.249C86.3881 64.6164 86.222 64.9663 86.0744 65.2637C85.9453 65.4912 85.8161 65.7186 85.6685 65.9286C85.4471 66.261 85.1334 66.6459 84.6906 67.0483C84.2478 67.4507 83.8234 67.7481 83.4544 67.9581C83.1038 68.168 82.7533 68.3605 82.3842 68.5355C81.3694 69.0428 80.4469 69.6027 81.148 71.4048C82.3842 74.5365 83.0854 77.3884 84.34 80.5027C84.4138 80.7126 84.5061 80.9051 84.6168 81.115C85.8715 81.2375 86.7387 80.1877 86.4803 78.858C86.4803 78.858 84.8567 71.7372 84.8567 71.7197C84.8567 71.7022 85.8899 71.1598 86.0006 71.1074C86.3696 70.8799 86.7202 70.6175 87.0523 70.355C87.7165 69.8127 88.3254 69.1828 88.8236 68.5005C89.8568 67.1183 90.4842 65.4737 90.6687 63.7941C90.7425 63.0243 90.7056 62.2719 90.6133 61.5196L86.9601 29.1522C86.3143 23.536 82.0152 19.3895 76.7383 19.5994C77.3103 19.8269 77.6424 20.0368 78.0852 20.2818C78.0852 20.2818 82.1813 22.4338 83.3806 29.3796L85.0412 41.9942L85.0596 41.9767Z" fill="#C7B9F0"/>
<path d="M300.103 61.6734C302.04 61.8309 303.978 61.2535 305.638 60.3262C312.262 56.6346 315.067 48.8314 312.502 41.9905C311.303 38.8063 308.904 35.9369 305.657 34.5723C297.926 31.318 291.173 38.0714 289.9 44.8598C289.586 46.5744 289.475 48.2541 289.623 49.8637C290.084 55.1474 294.014 61.1835 300.103 61.6734Z" fill="black"/>
<path d="M294.016 43.74L280.418 32.2277C280.418 32.2277 280.418 32.2102 280.418 32.1927C280.159 31.6328 278.757 28.8685 277.263 28.4136C276.894 28.3086 276.543 28.3261 276.211 28.4836C275.971 28.571 275.657 28.7635 275.51 29.1309C275.473 29.2184 275.436 29.3059 275.418 29.4108C275.104 29.2184 274.772 29.0784 274.44 29.0434C274.015 28.9909 273.609 29.1134 273.296 29.3933C272.964 29.6733 272.816 30.0232 272.834 30.4256C272.834 30.5306 272.853 30.6356 272.89 30.7405C272.816 30.7405 272.742 30.7405 272.668 30.7405C272.318 30.758 272.041 30.898 271.838 31.1429C271.377 31.6853 271.524 32.2802 271.875 32.84C271.58 32.875 271.303 32.9975 271.063 33.2599C270.786 33.5574 270.694 33.9423 270.805 34.3797C271.063 35.5169 272.668 36.8466 275.215 38.0713C275.215 38.0713 275.215 38.0713 275.233 38.0713L290.234 52.348C290.234 52.348 290.363 52.4529 290.437 52.4704C290.51 52.4879 290.584 52.4879 290.64 52.4704C290.787 52.4529 290.916 52.348 290.99 52.2255L294.164 44.2999C294.256 44.1249 294.201 43.8974 294.034 43.775L294.016 43.74Z" fill="black"/>
<path d="M312.986 49.1113C316.104 49.1638 318.336 48.9539 321.012 48.5515C324.923 47.9566 330.828 46.6094 334.573 43.4776C334.647 43.4077 334.702 43.3377 334.721 43.2327C334.739 43.0927 336.64 29.9008 328.521 19.9107C321.971 11.8451 310.366 7.33111 299.683 9.23816C292.966 10.4454 287.708 14.2245 284.811 20.2431C281.01 28.0812 284.996 38.2464 291.546 43.1802C294.461 45.3672 297.524 46.4519 301.14 47.5017C303.004 48.0441 307.34 48.9888 312.967 49.0938L312.986 49.1113Z" fill="black"/>
<path d="M310.017 20.2606C306.825 19.3508 303.43 18.8959 300.183 19.2633C299.26 19.3683 298.337 19.5432 297.452 19.8232C295.883 20.2956 294.444 21.0829 293.227 22.1151C292.23 22.9724 291.418 23.9872 290.754 25.0894C285.053 34.5897 294.629 41.0457 294.721 41.0982C294.795 41.1507 302.101 46.1195 312.858 45.8396C320.626 45.6471 325.848 38.0714 323.707 31.143C322.287 26.5591 317.951 23.2699 313.504 21.4678C312.379 21.0129 311.198 20.6105 309.998 20.2606H310.017Z" fill="#EAB3B1"/>
<path d="M276.934 29.4285C276.842 29.3936 276.731 29.4285 276.657 29.481C276.584 29.5335 276.565 29.621 276.584 29.7085C276.584 29.831 276.621 29.9359 276.657 30.0584C276.731 30.2509 276.823 30.4433 276.916 30.6183C276.99 30.7582 277.082 30.8982 277.174 31.0207C277.34 31.2656 277.266 31.5805 277.008 31.738C276.75 31.8955 276.51 31.7905 276.307 31.563C275.809 31.0032 274.905 30.1284 274.37 30.0584C274.259 30.0584 274.185 30.0584 274.111 30.1284C274.019 30.1984 274 30.2683 274 30.3383C274 30.6882 274.48 31.2306 274.941 31.668C275.237 31.878 275.44 32.0704 275.532 32.1579C275.753 32.3504 275.772 32.6828 275.569 32.8927C275.366 33.1027 275.052 33.1027 274.812 32.9277C274.37 32.6128 273.982 32.2629 273.539 31.948C273.392 31.843 273.244 31.738 273.078 31.6855C272.967 31.6505 272.857 31.6505 272.764 31.7205C272.58 31.878 272.727 32.1054 272.838 32.2454C273.189 32.7528 273.65 33.1377 274.13 33.5226L274.203 33.5926C274.425 33.785 274.462 34.1 274.259 34.3274C274.056 34.5373 273.724 34.5898 273.465 34.3974C273.096 34.1349 272.598 33.8375 272.266 33.7675C272.1 33.7325 271.934 33.8025 271.897 33.9775C271.879 34.1 271.897 34.2224 271.971 34.3274C272.082 34.5199 272.229 34.6948 272.377 34.8698C272.746 35.2722 273.189 35.6046 273.631 35.902C273.871 36.0595 274.13 36.217 274.388 36.3744C274.536 36.4619 274.683 36.5319 274.812 36.6194C274.849 36.6369 275.255 36.8643 275.274 36.8643L279.222 32.2979C278.613 31.1256 277.598 29.6035 276.897 29.3936L276.934 29.4285Z" fill="#EAB3B1"/>
<path opacity="0.25" d="M321.891 38.789C322.629 40.8711 321.06 43.1805 318.385 43.9678C315.71 44.7376 312.961 43.6879 312.222 41.6059C311.484 39.5239 313.053 37.2144 315.728 36.4271C318.404 35.6573 321.153 36.707 321.891 38.789Z" fill="url(#paint0_radial_1495_1213)"/>
<path opacity="0.25" d="M291.335 28.7288C289.306 29.796 288.808 32.5079 290.21 34.7824C291.612 37.0568 294.398 38.0366 296.428 36.9869C298.457 35.9196 298.956 33.2077 297.553 30.9333C296.151 28.6588 293.365 27.679 291.335 28.7288Z" fill="url(#paint1_radial_1495_1213)"/>
<path d="M297.307 22.6577C297.159 22.6052 297.049 22.5002 297.012 22.3602C296.957 22.1328 297.086 21.9053 297.326 21.8528C297.473 21.8178 300.776 21.0655 303.47 22.7801C303.673 22.9026 303.728 23.165 303.599 23.3575C303.47 23.5499 303.174 23.6024 302.972 23.4625C300.61 21.9753 297.584 22.6577 297.565 22.6577C297.473 22.6751 297.399 22.6577 297.307 22.6577Z" fill="black"/>
<path d="M318.991 28.7987C318.991 28.7987 318.862 28.7462 318.807 28.6937C318.788 28.6762 316.592 26.5767 313.769 26.6467C313.53 26.6467 313.308 26.4717 313.308 26.2443C313.308 26.0168 313.493 25.8244 313.733 25.8069C316.98 25.7194 319.36 28.0114 319.452 28.1163C319.618 28.2913 319.618 28.5537 319.452 28.7112C319.323 28.8162 319.157 28.8512 318.991 28.7987Z" fill="black"/>
<path d="M311.078 38.0016L299.362 34.3274C299.141 34.2574 298.901 34.3624 298.809 34.5549C298.753 34.6773 297.333 37.7566 298.606 40.381C299.27 41.7282 300.506 42.6905 302.314 43.2503C302.37 43.2503 302.407 43.2853 302.462 43.2853C305.008 44.0376 306.816 43.7577 308.126 43.0404L308.348 42.9004C310.267 41.7282 311.005 39.5937 311.337 38.6314L311.374 38.5089C311.447 38.2815 311.318 38.054 311.078 37.9841V38.0016ZM302.72 42.498C301.17 42.0256 300.1 41.2558 299.528 40.171C300.617 39.9261 304.215 39.4537 307.259 42.5155C306.171 42.9704 304.713 43.0754 302.72 42.4805V42.498ZM308.053 42.1131C304.602 38.5089 300.322 39.1388 299.196 39.4012C298.938 38.5439 298.975 37.6516 299.085 36.8818L309.713 40.206C309.326 40.9059 308.809 41.5882 308.053 42.0956V42.1131ZM310.377 38.6664C310.285 38.8938 310.193 39.1738 310.082 39.4362L299.251 36.042C299.344 35.7271 299.436 35.4472 299.491 35.2547L310.377 38.6664Z" fill="black"/>
<path d="M310.085 39.4362C310.196 39.1562 310.306 38.8938 310.38 38.6663L299.494 35.2546C299.42 35.4471 299.328 35.727 299.254 36.042L310.085 39.4362Z" fill="white"/>
<path d="M308.048 42.113C308.804 41.6056 309.339 40.9057 309.708 40.2234L299.08 36.8992C298.951 37.669 298.933 38.5438 299.191 39.4186C300.335 39.1561 304.597 38.5263 308.048 42.1304V42.113Z" fill="#DE5C56"/>
<path d="M299.527 40.1885C300.118 41.2732 301.188 42.043 302.719 42.5154C304.694 43.1103 306.151 43.0053 307.258 42.5504C304.214 39.4886 300.616 39.961 299.527 40.2059V40.1885Z" fill="#ED7580"/>
<path d="M308.069 35.9545C307.884 35.9021 307.736 35.7096 307.755 35.5171C307.792 35.1672 307.681 34.7998 307.533 34.5024C306.869 33.1377 304.692 32.8053 303.622 33.9075C303.548 33.995 303.474 34.0825 303.4 34.17C303.271 34.3624 302.995 34.4324 302.773 34.3099C302.552 34.1875 302.496 33.925 302.626 33.7326C302.976 33.1902 303.567 32.7528 304.212 32.5428C305.984 31.9655 308.253 33.0152 308.585 34.8348C308.641 35.0972 308.659 35.3597 308.641 35.6046C308.622 35.8321 308.401 36.007 308.161 35.9895C308.124 35.9895 308.087 35.9895 308.05 35.972L308.069 35.9545Z" fill="black"/>
<path d="M301.1 25.177C299.753 24.5822 298.406 24.3897 297.244 24.6172C296.063 24.8446 295.177 25.457 294.734 26.3668C294.291 27.2765 294.365 28.3263 294.937 29.3061C295.509 30.2858 296.542 31.1256 297.889 31.7205C298.184 31.843 298.461 31.9479 298.738 32.0354C301.174 32.8052 303.425 32.2279 304.255 30.5308C305.177 28.6412 303.849 26.3843 301.1 25.177ZM295.712 28.9037C295.269 28.1513 295.214 27.3815 295.546 26.7167C295.878 26.0518 296.542 25.5969 297.428 25.422C298.184 25.282 299.07 25.352 299.974 25.6319C300.233 25.7194 300.472 25.8069 300.731 25.9119C300.805 25.9469 300.878 25.9818 300.952 26.0168C300.399 26.3143 299.568 26.9441 299.144 28.2038C298.72 29.4635 299.07 30.6358 299.347 31.2831C298.996 31.1956 298.627 31.0732 298.277 30.9157C297.114 30.4083 296.21 29.691 295.731 28.8687L295.712 28.9037ZM300.38 31.4406C300.38 31.4406 299.495 30.0059 299.993 28.4838C300.14 28.0639 300.325 27.644 300.62 27.294C300.934 26.9266 301.358 26.6992 301.838 26.5592C303.332 27.574 304.015 28.9736 303.425 30.1634C302.945 31.1431 301.782 31.598 300.38 31.4931C300.38 31.4756 300.38 31.4581 300.362 31.4406H300.38Z" fill="black"/>
<path d="M299.119 28.239C299.544 26.9793 300.374 26.3494 300.927 26.052C300.854 26.017 300.78 25.982 300.706 25.947C300.448 25.8421 300.208 25.7371 299.95 25.6671C299.045 25.3872 298.16 25.2997 297.403 25.4572C296.518 25.6146 295.853 26.087 295.521 26.7519C295.189 27.4167 295.263 28.1865 295.687 28.9388C296.167 29.7436 297.071 30.4785 298.234 30.9859C298.603 31.1433 298.953 31.2658 299.304 31.3533C299.027 30.7059 298.695 29.5337 299.101 28.274L299.119 28.239Z" fill="white"/>
<path d="M303.44 30.1635C304.03 28.9738 303.348 27.5741 301.853 26.5593C301.374 26.6993 300.949 26.9267 300.635 27.2942C300.34 27.6441 300.137 28.0465 300.008 28.4839C299.51 30.006 300.377 31.4232 300.396 31.4407C300.396 31.4407 300.396 31.4757 300.414 31.4932C301.816 31.5981 302.96 31.1433 303.458 30.1635H303.44Z" fill="#2255B2"/>
<path d="M318.224 31.1781C317.412 30.3383 316.231 29.7435 314.773 29.446C311.803 28.8512 309.312 29.9184 308.869 31.9654C308.481 33.8025 309.902 35.5346 312.356 36.2869C312.633 36.3744 312.928 36.4444 313.242 36.5144C314.699 36.8118 316.046 36.7068 317.135 36.2519C318.224 35.7971 318.943 34.9922 319.146 34.0125C319.367 33.0327 319.035 32.0179 318.224 31.1781ZM313.426 35.7096C310.972 35.2197 309.422 33.7325 309.755 32.1579C310.087 30.5833 312.135 29.796 314.589 30.2858C314.865 30.3383 315.124 30.4083 315.364 30.4958C314.81 30.8107 314.017 31.4581 313.592 32.7003C313.186 33.9425 313.463 35.0797 313.74 35.7621C313.629 35.7621 313.519 35.7446 313.426 35.7096ZM314.478 32.9452C314.976 31.4231 315.954 31.0907 316.083 31.0382C316.194 30.9857 316.249 30.9682 316.415 30.9157C316.858 31.1431 317.264 31.4231 317.559 31.738C318.168 32.3679 318.408 33.1202 318.26 33.8375C318.113 34.5548 317.559 35.1497 316.747 35.4996C316.175 35.7446 315.493 35.8495 314.755 35.832C314.552 35.4471 314.035 34.2399 314.478 32.9452Z" fill="black"/>
<path d="M313.6 32.7004C314.006 31.4582 314.817 30.8108 315.371 30.4959C315.113 30.4084 314.854 30.3384 314.596 30.2859C312.124 29.7961 310.094 30.5834 309.762 32.158C309.43 33.7326 310.961 35.2198 313.434 35.7097C313.544 35.7272 313.655 35.7447 313.747 35.7622C313.489 35.0798 313.194 33.9426 313.6 32.7004Z" fill="white"/>
<path d="M317.555 31.7381C317.241 31.4232 316.854 31.1432 316.411 30.9158C316.245 30.9858 316.171 31.0033 316.079 31.0382C315.949 31.0907 314.972 31.4232 314.473 32.9453C314.049 34.24 314.566 35.4472 314.75 35.8321C315.488 35.8321 316.171 35.7446 316.743 35.4997C317.555 35.1498 318.108 34.5549 318.256 33.8376C318.403 33.1203 318.164 32.3679 317.555 31.7381Z" fill="#2255B2"/>
</g>
<defs>
<radialGradient id="paint0_radial_1495_1213" cx="0" cy="0" r="1" gradientUnits="userSpaceOnUse" gradientTransform="translate(336.218 33.1544) rotate(-16.2533) scale(5.02907 3.9953)">
<stop stop-color="#D32E5B" stop-opacity="0.8"/>
<stop offset="0.14" stop-color="#D32E5C" stop-opacity="0.78"/>
<stop offset="0.27" stop-color="#D32E5F" stop-opacity="0.73"/>
<stop offset="0.38" stop-color="#D32E66" stop-opacity="0.65"/>
<stop offset="0.49" stop-color="#D32F6E" stop-opacity="0.53"/>
<stop offset="0.54" stop-color="#D33073" stop-opacity="0.47"/>
<stop offset="0.57" stop-color="#D3346F" stop-opacity="0.43"/>
<stop offset="0.76" stop-color="#D54D5A" stop-opacity="0.2"/>
<stop offset="0.91" stop-color="#D75D4C" stop-opacity="0.05"/>
<stop offset="1" stop-color="#D86348" stop-opacity="0"/>
</radialGradient>
<radialGradient id="paint1_radial_1495_1213" cx="0" cy="0" r="1" gradientUnits="userSpaceOnUse" gradientTransform="translate(322.799 76.152) rotate(-121.695) scale(4.85776 4.1362)">
<stop stop-color="#D32E5B" stop-opacity="0.8"/>
<stop offset="0.14" stop-color="#D32E5C" stop-opacity="0.78"/>
<stop offset="0.27" stop-color="#D32E5F" stop-opacity="0.73"/>
<stop offset="0.38" stop-color="#D32E66" stop-opacity="0.65"/>
<stop offset="0.49" stop-color="#D32F6E" stop-opacity="0.53"/>
<stop offset="0.54" stop-color="#D33073" stop-opacity="0.47"/>
<stop offset="0.57" stop-color="#D3346F" stop-opacity="0.43"/>
<stop offset="0.76" stop-color="#D54D5A" stop-opacity="0.2"/>
<stop offset="0.91" stop-color="#D75D4C" stop-opacity="0.05"/>
<stop offset="1" stop-color="#D86348" stop-opacity="0"/>
</radialGradient>
<clipPath id="clip0_1495_1213">
<rect width="337" height="96" fill="white"/>
</clipPath>
</defs>
</svg>
