<svg width="430" height="57" viewBox="0 0 430 57" fill="none" xmlns="http://www.w3.org/2000/svg">
<path d="M251.285 56.2694C239.709 56.2694 230.291 46.8513 230.291 35.2746C230.291 23.6979 239.709 14.2799 251.285 14.2799C255.994 14.2799 260.445 15.8081 264.16 18.6928C266.319 20.3643 266.701 23.4687 265.029 25.6273C263.358 27.7765 260.254 28.1681 258.095 26.4966C256.128 24.9683 253.778 24.1659 251.285 24.1659C245.163 24.1659 240.177 29.1519 240.177 35.2746C240.177 41.3973 245.163 46.3833 251.285 46.3833C255.64 46.3833 259.413 43.8616 261.238 40.2129H254.074C251.352 40.2129 249.136 38.0064 249.136 35.2746C249.136 32.5428 251.352 30.3364 254.074 30.3364H267.341C270.072 30.3364 272.279 32.5524 272.279 35.2746C272.279 46.8513 262.861 56.2694 251.285 56.2694Z" fill="white"/>
<path d="M303.397 55.0945C288.325 55.0945 276.071 42.8301 276.071 27.7669C276.071 12.7038 288.325 0.439381 303.397 0.439381C309.529 0.439381 315.327 2.42614 320.16 6.17998C322.309 7.85154 322.71 10.9559 321.029 13.1146C319.357 15.2732 316.253 15.6553 314.095 13.9838C311.009 11.5863 307.313 10.3159 303.397 10.3159C293.779 10.3159 285.947 18.1483 285.947 27.7669C285.947 37.3856 293.769 45.2084 303.397 45.2084C311.306 45.2084 317.992 39.9263 320.131 32.7052H307.284C304.553 32.7052 302.346 30.4892 302.346 27.7669C302.346 25.0447 304.553 22.8287 307.284 22.8287H325.785C328.517 22.8287 330.733 25.0447 330.733 27.7669C330.733 42.8396 318.469 55.0945 303.407 55.0945H303.397Z" fill="white"/>
<path d="M5.41505 56.8329C2.82664 56.8329 0.658487 54.8271 0.486563 52.2099C0.324191 49.7837 -0.97479 28.2063 1.48945 18.2916L1.51811 18.177C3.88684 7.6414 13.4477 0 24.2694 0C37.1255 0 47.5842 10.4592 47.5842 23.3158C47.5842 30.7662 44.0693 37.4047 38.6155 41.6838L48.0331 44.7404C50.6311 45.581 52.0542 48.3701 51.2041 50.9681C50.3541 53.5662 47.5746 54.9799 44.9767 54.1393L21.3371 46.4597C19.0735 45.7242 17.6599 43.4796 17.9655 41.1107C18.2807 38.7515 20.2292 36.9462 22.6074 36.822L23.9924 36.7456C24.0784 36.7456 24.1643 36.7456 24.2503 36.7456C31.6526 36.7456 37.6794 30.7184 37.6794 23.3063C37.6794 15.8941 31.6526 9.86696 24.2503 9.86696C17.9942 9.86696 12.4735 14.299 11.1267 20.393C11.1172 20.4599 11.0981 20.5172 11.079 20.584L11.0408 20.7369C9.27379 27.8147 9.92328 45.3899 10.3244 51.5699C10.4964 54.2922 8.43327 56.6419 5.71114 56.8138C5.60608 56.8138 5.49146 56.8234 5.3864 56.8234L5.41505 56.8329Z" fill="white"/>
<path d="M192.993 56.0497C190.262 56.0497 188.046 53.8337 188.046 51.1114V20.4885C188.046 18.4826 189.259 16.6774 191.112 15.9228C192.965 15.1586 195.095 15.598 196.499 17.0212L217.903 38.7228V20.6031C217.903 17.8713 220.109 15.6649 222.841 15.6649C225.573 15.6649 227.779 17.8809 227.779 20.6031V50.7771C227.779 52.783 226.566 54.5883 224.713 55.3428C222.86 56.107 220.73 55.6676 219.326 54.2444L197.922 32.5428V51.1114C197.922 53.8432 195.715 56.0497 192.984 56.0497H192.993Z" fill="white"/>
<path d="M178.848 56.0497C176.116 56.0497 173.91 53.8337 173.91 51.1114V20.6318C173.91 17.9 176.126 15.6935 178.848 15.6935C181.57 15.6935 183.786 17.9095 183.786 20.6318V51.1114C183.786 53.8432 181.57 56.0497 178.848 56.0497Z" fill="white"/>
<path d="M151.626 56.3076C148.895 56.3076 146.688 54.1011 146.688 51.3693C146.688 48.6375 148.895 46.4311 151.626 46.4311C157.08 46.4311 161.512 41.9895 161.512 36.5354C161.512 30.7948 156.65 25.3599 151.521 25.3599H143.107V51.2356C143.107 53.9674 140.891 56.1738 138.159 56.1738C135.427 56.1738 133.211 53.9578 133.211 51.2356V20.4216C133.211 17.6898 135.427 15.4738 138.159 15.4738H151.521C162.114 15.4738 171.398 25.3121 171.398 36.5259C171.398 47.7397 162.525 56.298 151.626 56.298V56.3076Z" fill="white"/>
<path d="M109.811 56.2216C107.089 56.2216 104.873 54.0152 104.873 51.2929C104.873 48.5611 107.079 46.3451 109.801 46.3451H117.796L109.171 30.7566L96.7731 53.6235C95.4742 56.021 92.475 56.9189 90.0777 55.6103C87.6803 54.3112 86.792 51.312 88.091 48.9145L104.787 18.1197C105.646 16.5341 107.299 15.5407 109.104 15.5311H109.123C110.919 15.5311 112.571 16.5054 113.44 18.0815L130.48 48.8763C131.33 50.4046 131.301 52.2672 130.413 53.7764C129.525 55.2855 127.91 56.2121 126.163 56.2121L109.801 56.2407H109.792L109.811 56.2216Z" fill="white"/>
<path d="M347.973 56.2216C345.251 56.2216 343.035 54.0152 343.035 51.2929C343.035 48.5611 345.241 46.3451 347.964 46.3451H355.958L347.333 30.7566L334.936 53.6235C333.637 56.021 330.638 56.9189 328.24 55.6103C325.843 54.3112 324.954 51.312 326.253 48.9145L342.949 18.1197C343.809 16.5341 345.471 15.5407 347.266 15.5311H347.285C349.081 15.5311 350.743 16.5054 351.612 18.0815L368.652 48.8763C369.492 50.4046 369.473 52.2672 368.594 53.7764C367.706 55.2855 366.082 56.2121 364.344 56.2121L347.983 56.2407H347.973V56.2216Z" fill="white"/>
<path d="M80.555 46.4215H70.8986C66.3617 46.4215 62.503 43.4987 61.0703 39.4392H80.9466C83.6783 39.4392 85.8846 37.2232 85.8846 34.5009C85.8846 31.7787 83.6687 29.5627 80.9466 29.5627H62.7226C64.6329 27.1461 67.5843 25.5796 70.8986 25.5796H80.7269C83.4586 25.5796 85.6745 23.3636 85.6745 20.6413C85.6745 17.9191 83.4586 15.7031 80.7269 15.7031H70.8986C59.7044 15.7031 50.602 24.8154 50.602 36.0101C50.602 47.2048 59.7044 56.3171 70.8986 56.3171H80.555C83.2867 56.3171 85.493 54.1107 85.493 51.3789C85.493 48.6471 83.2867 46.4406 80.555 46.4406V46.4215Z" fill="white"/>
<path d="M424.67 46.517H415.014C411.05 46.517 407.602 44.2915 405.835 41.0343H425.062C427.794 41.0343 430 38.8183 430 36.0961C430 33.3738 427.794 31.1578 425.062 31.1578H405.835C407.602 27.9007 411.05 25.6751 415.014 25.6751H424.842C427.574 25.6751 429.78 23.4591 429.78 20.7368C429.78 18.0146 427.574 15.7986 424.842 15.7986H415.014C403.82 15.7986 394.708 24.9014 394.708 36.1056C394.708 47.3098 403.81 56.4126 415.014 56.4126H424.67C427.402 56.4126 429.608 54.1966 429.608 51.4744C429.608 48.7521 427.392 46.5361 424.67 46.5361V46.517Z" fill="white"/>
<path d="M392.043 15.7413H365.194C362.463 15.7413 360.256 17.9573 360.256 20.6795C360.256 23.4018 362.463 25.6178 365.194 25.6178H373.934V51.2356C373.934 53.9674 376.14 56.1739 378.872 56.1739C381.603 56.1739 383.81 53.9578 383.81 51.2356V25.6178H392.033C394.765 25.6178 396.971 23.4018 396.971 20.6795C396.971 17.9573 394.756 15.7413 392.033 15.7413H392.043Z" fill="white"/>
</svg>
