<svg width="606" height="1110" viewBox="0 0 606 1110" fill="none" xmlns="http://www.w3.org/2000/svg">
<g filter="url(#filter0_d_99_2128)">
<path d="M60.9115 219.82H63.6015V257.6H60.9115C60.4115 257.6 60.0015 257.19 60.0015 256.69V220.73C60.0015 220.23 60.4115 219.82 60.9115 219.82Z" fill="#EAEAEC"/>
<path d="M459.522 31H146.102C100.538 31 63.6016 67.9365 63.6016 113.5V936.35C63.6016 981.913 100.538 1018.85 146.102 1018.85H459.522C505.085 1018.85 542.022 981.913 542.022 936.35V113.5C542.022 67.9365 505.085 31 459.522 31Z" fill="white" stroke="#E0E1E6" stroke-miterlimit="10"/>
<path d="M458.331 36.4199H147.291C104.329 36.4199 69.5015 71.2477 69.5015 114.21V934.29C69.5015 977.252 104.329 1012.08 147.291 1012.08H458.331C501.294 1012.08 536.121 977.252 536.121 934.29V114.21C536.121 71.2477 501.294 36.4199 458.331 36.4199Z" fill="white" stroke="#E0E1E6" stroke-miterlimit="10"/>
<path d="M459.801 51.0298H145.831C112.009 51.0298 84.5913 78.4479 84.5913 112.27V936.23C84.5913 970.052 112.009 997.47 145.831 997.47H459.801C493.623 997.47 521.041 970.052 521.041 936.23V112.27C521.041 78.4479 493.623 51.0298 459.801 51.0298Z" fill="#EAEAEC"/>
<path d="M63.6111 219.82H60.9111V257.6H63.6111V219.82Z" fill="#E0E1E4"/>
<path d="M60.9115 291.57H63.6015V366.33H60.9115C60.4115 366.33 60.0015 365.92 60.0015 365.42V292.47C60.0015 291.97 60.4115 291.57 60.9115 291.57Z" fill="#EAEAEC"/>
<path d="M63.6111 291.57H60.9111V366.33H63.6111V291.57Z" fill="#E0E1E4"/>
<path d="M60.9115 386.88H63.6015V461.64H60.9115C60.4115 461.65 60.0015 461.24 60.0015 460.74V387.79C60.0015 387.29 60.4115 386.88 60.9115 386.88Z" fill="#EAEAEC"/>
<path d="M63.6111 386.88H60.9111V461.64H63.6111V386.88Z" fill="#E0E1E4"/>
<path opacity="0.48" d="M458.341 36.4202H147.291C104.331 36.4202 69.5015 71.2402 69.5015 114.2V934.29C69.5015 977.25 104.331 1012.08 147.291 1012.08H458.341C501.301 1012.08 536.131 977.25 536.131 934.29V114.2C536.131 71.2402 501.301 36.4102 458.341 36.4102V36.4202ZM532.131 934.87C532.131 975.05 499.561 1007.62 459.381 1007.62H146.241C106.061 1007.62 73.4915 975.05 73.4915 934.87V113.63C73.5015 73.4602 106.071 40.8902 146.241 40.8902H459.391C499.571 40.8902 532.141 73.4602 532.141 113.64V934.86L532.131 934.87Z" fill="#EAEAEC"/>
<path d="M544.732 461.6H542.032V343.18H544.732C545.232 343.18 545.642 343.59 545.642 344.09V460.69C545.642 461.19 545.232 461.6 544.732 461.6Z" fill="#EAEAEC"/>
<path d="M542.022 461.6H544.722V343.18H542.022V461.6Z" fill="#E0E1E4"/>
<g clip-path="url(#clip0_99_2128)">
<path d="M460.211 51.5H146.241C112.42 51.5 85.0015 78.9181 85.0015 112.74V936.7C85.0015 970.522 112.42 997.94 146.241 997.94H460.211C494.033 997.94 521.451 970.522 521.451 936.7V112.74C521.451 78.9181 494.033 51.5 460.211 51.5Z" fill="url(#paint0_linear_99_2128)"/>
<path d="M565.407 446.962C566.044 443.592 566.378 440.115 566.378 436.559C566.378 405.992 541.758 381.213 511.388 381.213C492.807 381.213 476.377 390.489 466.424 404.693C456.867 396.618 444.542 391.755 431.089 391.755C401.01 391.755 376.573 416.06 376.107 446.222H376.1C342.356 446.222 315.001 473.754 315.001 507.717C315.001 541.681 342.356 569.213 376.1 569.213H555.904C589.647 569.213 617.001 541.681 617.001 507.717C617.001 477.008 594.637 451.557 565.407 446.962Z" fill="white" fill-opacity="0.1"/>
<path d="M401.324 813.855C360.146 799.942 315.486 822.045 301.574 863.223C287.661 904.402 309.764 949.061 350.942 962.973C309.764 949.061 265.105 971.164 251.192 1012.34C237.28 1053.52 259.383 1098.18 300.561 1112.09C341.74 1126 386.399 1103.9 400.311 1062.72C386.399 1103.9 408.501 1148.56 449.68 1162.47C490.859 1176.39 535.517 1154.28 549.43 1113.1C563.342 1071.93 541.24 1027.27 500.061 1013.35C541.24 1027.27 585.898 1005.16 599.811 963.986C613.723 922.808 591.621 878.148 550.442 864.236C509.264 850.323 464.605 872.427 450.692 913.605C464.605 872.427 442.502 827.767 401.324 813.855Z" fill="white" fill-opacity="0.1"/>
<path fill-rule="evenodd" clip-rule="evenodd" d="M162.066 300.765L265.58 256.52C229.347 171.751 131.256 132.406 46.488 168.639C-38.2803 204.872 -77.6258 302.963 -41.3929 387.731L62.1212 343.485C50.3243 315.886 63.1344 283.95 90.7337 272.153C118.333 260.356 150.269 273.166 162.066 300.765Z" fill="white" fill-opacity="0.1"/>
<path d="M227.799 356.822C227.301 356.277 226.59 356.253 225.926 356.49C225.878 356.49 225.855 356.514 225.831 356.514C225.902 356.514 225.926 356.466 225.736 356.514C225.57 356.561 225.38 356.633 225.214 356.68C224.882 356.775 224.55 356.822 224.218 356.822C224.052 356.822 223.91 356.822 223.768 356.822C221.135 356.585 218.574 353.976 218.384 353.786C217.364 352.529 215.182 353.644 215.68 355.209C215.799 355.66 216.771 359.977 214.352 362.111H214.376C214.186 362.277 214.02 362.419 213.83 362.585C213.759 362.633 213.688 362.68 213.641 362.751C213.664 362.751 213.641 362.751 213.498 362.846C212.905 363.226 212.526 363.819 212.668 364.554C212.81 365.218 213.427 365.787 214.115 365.787C214.589 365.787 214.921 365.692 215.206 365.669C215.324 365.669 215.443 365.669 215.562 365.669C216.913 365.669 219.878 366.001 222.439 368.515C222.89 369.084 223.72 369.297 224.384 368.965C224.432 368.965 224.455 368.918 224.503 368.918C225.119 368.61 225.452 367.874 225.309 367.21C225.309 367.21 224.859 365.005 225.594 362.443C225.712 362.087 226.139 360.902 226.946 359.834C227.017 359.739 227.112 359.645 227.183 359.55C227.207 359.502 227.254 359.479 227.278 359.431C227.325 359.384 227.373 359.336 227.42 359.289C227.562 359.123 227.752 358.957 227.918 358.72C228.321 358.15 228.203 357.32 227.752 356.822" fill="#43499E"/>
<path d="M427.449 406.793C426.762 398.255 423.821 390.476 418.247 383.93C413.765 378.665 407.171 374.68 400.388 373.305C400.294 373.305 400.175 373.281 400.056 373.257C389.099 360.545 371.027 353.335 354.947 348.995C354.947 348.805 354.9 348.616 354.876 348.402C354.164 341.69 353.429 334.978 352.718 328.243C352.457 325.824 352.196 323.381 351.935 320.962C351.887 320.606 351.864 320.226 351.816 319.847C351.366 315.863 350.298 312.234 347.808 309.008C343.468 303.387 336.875 301.134 329.926 302.605C328.882 302.818 327.839 303.079 326.819 303.316C314.439 306.162 302.058 309.008 289.702 311.854C284.745 312.993 279.788 314.131 274.808 315.293C273.622 315.578 272.389 315.791 271.226 316.147C268.001 317.12 264.704 318.827 262.475 321.412C259.89 324.424 258.585 327.768 258.206 331.705C257.945 334.433 258.585 337.137 259.178 339.769C259.676 342.046 260.174 344.299 260.672 346.576C253.368 348.189 246.324 350.513 239.944 353.952L232.26 341.453L249.525 333.223C250.047 332.939 250.427 332.488 250.616 331.919L253.747 322.147C254.15 320.843 253.344 319.491 252.016 319.23L241.462 317.214C240.845 317.096 240.205 317.238 239.707 317.618L224.267 328.432L221.421 323.784C220.97 323.12 220.543 323.191 219.951 323.286L215.99 324.401C215.421 324.661 215.16 325.349 215.444 325.918L218.883 332.203L212.432 336.733C211.436 337.445 211.199 338.82 211.887 339.84L216.891 346.671C217.555 347.643 218.836 347.951 219.856 347.406L225.69 344.631L239.754 370.293C236.979 371.763 234.204 373.328 231.477 374.989C230.22 374.467 228.939 373.993 227.611 373.637C217.152 370.672 206.337 372.925 196.708 377.384C191.917 379.613 187.482 382.507 183.095 385.448C179.727 387.701 177.782 392.515 180.272 396.215C183.118 400.437 185.941 404.682 188.787 408.904C189.617 410.137 190.826 411.204 192.226 411.94C192.747 416.185 193.269 420.43 193.791 424.675C193.862 425.221 193.933 425.766 193.981 426.312C192.866 428.446 191.728 430.605 190.613 432.739C190.233 433.474 189.806 434.21 189.451 434.969C188.051 437.862 187.838 440.945 189.38 443.839C190.281 445.523 191.799 446.898 193.53 447.705C197.775 449.626 201.997 450.93 206.598 451.547C209.942 451.997 213.357 452.068 216.749 451.784C221.208 455.223 226.307 458.211 231.833 460.844C232.331 462.362 233.256 463.761 234.679 464.828C237.24 466.82 239.873 466.773 242.576 466.156C242.885 466.986 243.169 467.84 243.478 468.67C244.592 471.682 246.324 473.888 249.502 474.884C251.684 475.572 254.364 475.145 256.285 473.935C257.826 472.963 258.894 471.659 259.558 470.141C280.452 474.884 302.39 475.596 317.593 472.987C324.305 471.848 322.384 467.413 319.514 466.963C304.027 464.544 297.102 462.196 294.635 460.535C294.042 460.132 294.161 459.278 294.848 459.421C324.494 465.492 357.295 463.856 382.791 446.946C389.408 448.772 396.902 448.511 403.282 446.021C410.634 443.127 416.563 438.36 421.022 431.814C425.979 424.604 428.422 415.473 427.592 406.769M262.522 355.066C262.902 356.798 263.281 358.529 263.661 360.26C258.965 361.66 254.364 363.32 249.976 365.288C249.17 365.644 248.363 366.024 247.557 366.403L243.288 359.454C249.644 357.58 256.119 356.157 262.522 355.066Z" fill="#43499E"/>
<path d="M245.824 445.284L246.251 435.513C246.274 434.777 247.294 434.611 247.555 435.299L250.947 444.525C251.113 444.999 251.658 445.236 252.109 445.023L259.39 441.821C260.006 441.56 260.576 442.224 260.22 442.794L256.164 449.173C255.927 449.553 255.998 450.027 256.354 450.312L261.358 454.486C261.833 454.866 261.572 455.648 260.979 455.672L253.698 456.075C253.247 456.099 252.891 456.455 252.868 456.905L252.37 466.748C252.322 467.483 251.302 467.625 251.065 466.937L247.65 457.308C247.484 456.881 247.01 456.621 246.583 456.763L239.966 458.779C239.396 458.969 238.898 458.328 239.183 457.806L242.29 452.328C242.48 451.972 242.409 451.521 242.124 451.261L236.74 446.375C236.266 445.948 236.622 445.142 237.262 445.213L244.851 446.114C245.349 446.161 245.8 445.782 245.824 445.284Z" fill="#EEDE9D"/>
<path d="M303.624 403.33C302.651 399.061 300.944 395.266 298.477 391.922C297.718 390.902 296.912 389.906 296.011 388.981C290.935 383.74 284.271 380.87 277.511 380.87C275.14 380.87 272.792 381.297 270.491 381.961C259.771 385.092 252.158 394.294 250.403 406.034C250.142 407.884 249.976 409.662 249.976 411.441C249.976 420.572 253.866 429.181 260.435 434.755C261.526 435.656 262.641 436.462 263.756 437.174C266.862 439.119 270.159 440.328 273.693 440.755C274.784 440.921 275.875 440.921 277.156 440.921C279.195 440.921 281.116 440.755 282.99 440.257C293.117 437.719 300.73 429.774 303.6 418.817C304.264 416.208 304.62 413.576 304.62 411.038C304.62 408.5 304.288 405.963 303.6 403.354M279.361 396.76C282.729 397.685 285.504 400.271 287.164 403.354C290.722 409.971 289.204 418.39 283.346 423.134C281.875 424.343 280.073 425.197 278.175 425.339C272.175 425.719 267.408 420.122 266.151 414.762C265.772 413.125 265.605 411.394 265.653 409.591C265.843 402.452 271.345 394.531 279.361 396.737" fill="#ECC058"/>
<path d="M277.202 440.898C279.218 440.898 281.163 440.732 283.037 440.234C293.164 437.696 300.777 429.774 303.647 418.794C304.335 416.185 304.667 413.552 304.667 411.014C304.667 408.477 304.335 405.939 303.647 403.33C302.674 399.061 300.967 395.266 298.524 391.922C299.212 393.772 299.805 395.67 300.303 397.567C303.22 408.453 300.753 421.758 292.642 429.893C288.112 434.423 282.017 437.198 275.685 437.909C272.673 438.265 269.637 438.099 266.625 437.648C265.724 437.506 264.775 437.364 263.826 437.15C266.933 439.095 270.23 440.305 273.764 440.732C274.855 440.898 275.969 440.898 277.226 440.898" fill="#E79149"/>
<path d="M419.574 407.384C419.218 402.522 417.843 398.063 415.495 394.079C415.091 393.391 414.664 392.703 414.19 392.063C409.969 386.134 403.802 382.292 397.114 381.296C394.79 380.94 392.371 381.011 390.023 381.343C378.947 382.837 370.053 390.806 366.567 402.143C366.045 403.945 365.594 405.677 365.333 407.432C363.982 416.444 366.519 425.551 372.211 432.05C372.804 432.714 373.397 433.33 374.014 433.9C377.073 436.817 380.536 438.856 384.425 439.947C385.493 440.28 386.584 440.446 387.817 440.635C389.809 440.944 391.754 441.062 393.675 440.849C404.063 439.853 412.767 433.141 417.25 422.729C418.317 420.239 419.028 417.701 419.408 415.187C419.787 412.673 419.835 410.135 419.55 407.432M381.081 407.906C382.338 400.862 388.955 393.866 396.569 397.257C399.77 398.68 402.118 401.645 403.304 404.941C405.842 412.009 403.067 420.096 396.569 423.939C394.932 424.911 393.011 425.504 391.114 425.338C385.137 424.816 381.271 418.555 380.821 413.1C380.678 411.44 380.773 409.685 381.105 407.93" fill="#DF7299"/>
<path d="M387.819 440.59C389.811 440.898 391.756 441.017 393.677 440.803C404.065 439.807 412.769 433.095 417.251 422.684C418.319 420.193 419.03 417.656 419.409 415.142C419.789 412.628 419.836 410.09 419.552 407.386C419.196 402.524 417.82 398.065 415.472 394.081C415.923 396.144 416.255 398.255 416.492 400.342C417.417 408.596 416.374 415.995 412.2 423.277C407.29 431.815 398.586 436.89 387.7 436.582C384.095 436.463 380.656 436.012 377.193 434.945C376.174 434.613 375.083 434.257 373.992 433.854C377.051 436.771 380.514 438.811 384.403 439.902C385.471 440.234 386.562 440.4 387.795 440.59" fill="#CE4E8C"/>
<path d="M360.779 406.246C360.447 403.59 359.831 400.981 358.882 398.491C356.416 391.945 351.791 386.324 344.913 383.123C336.588 379.209 327.955 380.229 322.145 381.723C315.48 383.431 309.385 386.609 304.096 389.408L311.211 402.926C312.421 402.262 313.607 401.598 314.816 401.005L315.196 426.406L310.903 432.809L308.247 436.794C307.867 437.363 308.033 438.098 308.602 438.454C312.445 440.849 318.255 443.411 325.56 443.79C326.888 443.909 328.193 443.933 329.521 443.861C337.561 443.482 344.889 440.612 350.534 435.537C358.55 428.303 362.108 416.848 360.827 406.223M316.524 400.128C319.702 398.586 322.88 397.21 326.082 396.357C330.849 395.076 335.236 395.242 338.462 396.76C345.719 400.199 347.522 410.942 344.842 417.725C343.869 420.168 342.351 422.35 340.454 424.129C338.913 425.576 337.086 426.762 335.118 427.592C332.485 428.706 330.635 428.896 330.635 428.944C330.635 428.991 330.208 399.962 330.208 399.962L326.319 400.009L316.548 400.151L316.524 400.128Z" fill="#DF7299"/>
<path d="M308.58 438.479C312.423 440.874 318.233 443.436 325.538 443.815C326.866 443.934 328.171 443.958 329.475 443.91C337.515 443.531 344.844 440.661 350.488 435.586C358.504 428.352 362.062 416.897 360.781 406.272C360.449 403.615 359.833 401.006 358.884 398.516C359.24 403.852 359.097 409.189 357.912 414.383C356.417 421.023 353.026 427.214 347.666 431.625C342.922 435.514 336.732 438.503 330.637 438.526C323.285 438.526 317.285 437.151 310.596 433.238L308.201 436.819C307.822 437.388 307.988 438.123 308.557 438.479" fill="#CE4E8C"/>
<path d="M330.611 428.922L330.184 399.94L326.295 399.988C326.271 400.225 326.247 400.486 326.271 400.747C326.508 408.716 326.413 416.685 326.603 424.653C326.603 424.653 326.603 424.677 326.603 424.701C326.603 424.748 326.603 424.819 326.603 424.867C326.603 425.199 326.603 425.531 326.603 425.863C326.651 427.428 328.572 429.112 330.588 428.946" fill="#CE4E8C"/>
<path d="M245.16 402.998C244.567 400.389 243.642 397.851 242.457 395.503C239.302 389.266 234.132 384.167 226.922 381.7C218.218 378.688 209.751 380.609 204.13 382.72C197.679 385.139 191.963 388.934 186.983 392.278L195.497 404.966C196.612 404.16 197.727 403.377 198.865 402.666L201.948 427.877L198.367 434.707L196.138 438.953C195.829 439.546 196.066 440.281 196.683 440.565C200.762 442.534 206.81 444.479 214.115 444.076C215.443 444.052 216.748 443.933 218.052 443.744C226.021 442.51 232.994 438.882 238.069 433.237C245.279 425.197 247.579 413.433 245.184 402.998M200.478 401.622C203.466 399.749 206.478 398.041 209.585 396.855C214.186 395.077 218.574 394.768 221.942 395.93C229.507 398.563 232.448 409.069 230.503 416.09C229.792 418.627 228.511 420.952 226.804 422.92C225.404 424.533 223.744 425.885 221.87 426.928C219.38 428.328 217.554 428.683 217.554 428.731C217.554 428.778 214.044 399.962 214.044 399.962L210.178 400.437L200.478 401.622Z" fill="#ECC058"/>
<path d="M196.659 440.588C200.738 442.557 206.786 444.502 214.091 444.098C215.419 444.075 216.723 443.956 218.028 443.766C225.996 442.533 232.969 438.905 238.021 433.26C245.231 425.22 247.555 413.456 245.136 403.021C244.543 400.412 243.618 397.874 242.432 395.526C243.357 400.792 243.76 406.128 243.167 411.393C242.385 418.176 239.681 424.674 234.795 429.631C230.503 433.995 224.668 437.648 218.597 438.312C211.292 439.118 205.173 438.359 198.105 435.181L196.113 438.976C195.805 439.569 196.042 440.304 196.659 440.588Z" fill="#E79149"/>
<path d="M217.554 428.755L214.044 399.987L210.178 400.461C210.178 400.722 210.178 400.959 210.226 401.22C211.293 409.118 212.076 417.039 213.095 424.937C213.095 424.937 213.095 424.961 213.095 424.984C213.095 425.032 213.095 425.103 213.095 425.15C213.143 425.482 213.167 425.814 213.214 426.123C213.427 427.664 215.515 429.135 217.507 428.755" fill="#E79149"/>
<path d="M268.806 389.267C268.261 388.318 267.099 388.01 266.008 388.532C263.47 389.717 261.169 391.876 258.964 395.172C257.327 397.615 255.999 400.366 255.122 403.165C254.956 403.663 255.027 404.185 255.288 404.683C255.572 405.181 256.023 405.56 256.545 405.703C256.734 405.75 256.9 405.774 257.066 405.774C257.944 405.774 258.774 405.181 259.059 404.28C259.225 403.734 259.438 403.165 259.651 402.619C259.699 402.501 259.746 402.406 259.794 402.287L259.889 402.074C260.007 401.789 260.15 401.505 260.268 401.22C260.908 399.892 261.62 398.611 262.379 397.449C264.134 394.793 265.936 393.085 268.024 392.113C268.45 391.923 268.782 391.52 268.948 390.998C269.138 390.429 269.067 389.765 268.782 389.267" fill="white"/>
<path d="M206.242 388.247C205.839 387.156 204.748 386.587 203.657 386.919C200.242 387.939 197.111 389.694 194.312 392.16C193.957 392.492 193.743 392.99 193.743 393.56C193.743 394.176 194.004 394.746 194.407 395.101C194.81 395.457 195.285 395.623 195.783 395.623C196.305 395.623 196.826 395.41 197.301 395.006L197.419 394.888C197.419 394.888 197.609 394.698 197.728 394.627C197.728 394.627 197.775 394.603 197.775 394.58L197.941 394.461C198.249 394.224 198.558 393.987 198.866 393.773C199.506 393.323 200.17 392.896 200.858 392.516C201.19 392.326 201.546 392.137 201.902 391.971L202.091 391.876C202.091 391.876 202.115 391.876 202.139 391.876L202.305 391.805C202.424 391.757 202.566 391.686 202.684 391.639C203.372 391.354 204.131 391.093 204.89 390.856C205.412 390.714 205.862 390.31 206.123 389.789C206.384 389.291 206.408 388.745 206.242 388.247Z" fill="white"/>
<path d="M322.999 387.179C322.619 386.112 321.623 385.59 320.437 385.827C317.496 386.42 314.555 387.606 311.97 389.29C311.496 389.598 311.164 390.096 311.045 390.689C310.95 391.211 311.045 391.732 311.33 392.159C311.757 392.776 312.421 393.108 313.085 393.108C313.464 393.108 313.82 393.013 314.152 392.8C314.769 392.397 315.386 392.041 316.002 391.709L316.121 391.661C316.358 391.543 316.595 391.424 316.832 391.306C316.903 391.282 316.998 391.234 317.117 391.187C317.283 391.116 317.425 391.045 317.567 390.997C318.848 390.475 320.2 390.072 321.599 389.811C322.074 389.717 322.501 389.384 322.785 388.91C323.094 388.365 323.165 387.724 322.975 387.226" fill="white"/>
<path d="M347.523 353.384L343.919 319.848C343.278 314.014 339.057 309.745 333.886 309.958C333.293 309.958 332.7 310.053 332.084 310.196L274.879 323.382C267.503 324.853 265.084 329.952 266.341 335.786L272.839 365.242C273.053 366.167 273.361 367.045 273.788 367.851C275.78 371.646 280.025 373.923 284.46 373.235L318.921 368.017L324.423 367.163L341.215 373.614C341.357 373.662 341.476 373.686 341.618 373.686C342.851 373.804 343.705 372.713 343.444 371.338L341.855 363.962C341.855 363.962 342.875 363.392 342.97 363.321C343.326 363.084 343.681 362.823 344.013 362.539C344.677 361.969 345.247 361.329 345.745 360.618C346.741 359.171 347.381 357.487 347.547 355.732C347.618 354.926 347.595 354.167 347.5 353.36" fill="white"/>
<path d="M309.479 325.089C309.954 328.742 312.302 346.79 314.531 356.064C314.626 356.443 314.389 356.823 314.009 356.917L307.013 358.767C306.633 358.862 306.254 358.649 306.159 358.269C305.329 354.878 304.594 351.415 303.93 347.952C303.858 347.573 303.479 347.336 303.099 347.407C299.518 348.19 295.961 349.043 292.427 350.016C292.071 350.111 291.858 350.466 291.905 350.822L293.47 360.428C293.542 360.807 293.281 361.163 292.901 361.234L285.762 362.515C285.383 362.586 285.027 362.325 284.956 361.945L279.81 330.378C279.738 329.999 279.999 329.643 280.402 329.572L287.541 328.291C287.921 328.22 288.276 328.481 288.348 328.86L290.316 341.003C290.387 341.407 290.79 341.644 291.17 341.549C294.68 340.577 298.214 339.723 301.771 338.964C302.127 338.893 302.388 338.537 302.317 338.181C301.724 334.126 301.25 330.07 300.894 326.038C300.87 325.659 301.155 325.303 301.534 325.255L308.697 324.52C309.076 324.473 309.408 324.734 309.456 325.113" fill="black"/>
<path d="M329.616 325.493C329.664 324.141 328.596 323.002 327.245 322.955L321.22 322.765C319.869 322.718 318.73 323.785 318.683 325.137L318.588 328.362L329.521 328.694L329.616 325.469V325.493Z" fill="black"/>
<path d="M318.255 351.32L322.05 354.759L322.003 356.158C322.003 356.727 322.43 357.202 322.999 357.225H323.331C323.9 357.249 324.374 356.798 324.398 356.229L324.445 354.83L328.454 351.652C328.691 351.462 328.857 351.154 328.857 350.846L329.45 332.038L318.516 331.706L317.923 350.514C317.923 350.822 318.042 351.13 318.279 351.344" fill="black"/>
<path d="M319.156 364.127L284.601 369.297C282.751 369.558 281.494 369.534 279.478 369.392L278.98 369.345C278.506 369.273 278.031 369.202 277.533 369.131C276.418 368.965 274.877 368.42 273.762 367.85C275.754 371.645 280 373.922 284.435 373.234L318.895 368.016L324.398 367.163C324.042 366.57 323.923 366.427 323.686 366.143C322.216 364.506 321.599 363.819 319.133 364.127" fill="#B6AED6"/>
<path d="M342.068 333.153C342.424 336.094 342.756 339.059 343.04 342C343.278 344.324 343.657 346.648 343.871 348.972C343.989 350.3 344.084 351.629 344.037 352.957C344.037 353.265 344.013 353.573 343.989 353.882C343.942 354.546 343.799 355.352 343.491 356.23C343.349 356.609 343.206 356.965 343.064 357.273C342.946 357.51 342.803 357.748 342.661 357.961C342.448 358.293 342.139 358.696 341.712 359.123C341.285 359.55 340.859 359.858 340.503 360.072C340.171 360.285 339.815 360.499 339.459 360.665C338.463 361.186 337.562 361.779 338.25 363.629C339.459 366.878 340.147 369.819 341.38 373.069C341.451 373.282 341.546 373.495 341.641 373.709C342.874 373.828 343.728 372.737 343.467 371.361L341.878 363.985C341.878 363.985 342.898 363.416 342.993 363.345C343.349 363.108 343.705 362.847 344.037 362.562C344.701 361.993 345.27 361.352 345.768 360.641C346.764 359.194 347.404 357.51 347.57 355.755C347.642 354.973 347.618 354.19 347.523 353.407L343.918 319.872C343.278 314.061 339.056 309.768 333.886 309.982C334.455 310.219 334.787 310.432 335.214 310.693C335.214 310.693 339.246 312.923 340.432 320.133L342.068 333.201V333.153Z" fill="#B6AED6"/>
<path d="M391.092 425.34C392.989 425.506 394.886 424.913 396.547 423.941C403.045 420.099 405.82 412.035 403.282 404.944C402.096 401.647 399.748 398.682 396.547 397.259C388.957 393.891 382.316 400.888 381.059 407.908C380.751 409.687 380.656 411.418 380.799 413.078C381.249 418.533 385.115 424.818 391.092 425.316" fill="black"/>
<path d="M385.138 406.77L371.785 394.84C371.785 394.84 371.785 394.84 371.785 394.817C371.525 394.247 370.149 391.378 368.678 390.903C368.323 390.785 367.967 390.808 367.659 390.974C367.421 391.069 367.113 391.259 366.971 391.638C366.923 391.733 366.9 391.828 366.876 391.923C366.568 391.733 366.236 391.567 365.904 391.544C365.477 391.496 365.097 391.615 364.765 391.899C364.457 392.184 364.291 392.563 364.315 392.967C364.315 393.061 364.315 393.18 364.362 393.275C364.291 393.275 364.22 393.275 364.149 393.275C363.817 393.275 363.532 393.441 363.318 393.678C362.868 394.247 363.01 394.864 363.342 395.433C363.058 395.481 362.773 395.599 362.56 395.86C362.299 396.168 362.204 396.572 362.299 397.022C362.56 398.184 364.125 399.584 366.639 400.841L381.367 415.616C381.367 415.616 381.486 415.711 381.58 415.735C381.652 415.735 381.723 415.758 381.794 415.735C381.936 415.735 382.079 415.616 382.126 415.474L385.233 407.268C385.328 407.078 385.28 406.865 385.114 406.722" fill="black"/>
<path d="M403.754 412.342C406.814 412.413 409.02 412.199 411.628 411.772C415.471 411.156 421.281 409.756 424.957 406.531C425.029 406.46 425.076 406.389 425.1 406.294C425.123 406.152 426.973 392.491 419.028 382.126C412.601 373.778 401.193 369.082 390.71 371.074C384.117 372.308 378.947 376.245 376.101 382.458C372.377 390.593 376.29 401.124 382.718 406.223C385.587 408.5 388.599 409.614 392.157 410.705C393.983 411.274 398.228 412.247 403.778 412.342" fill="black"/>
<path d="M400.838 382.436C397.708 381.487 394.364 381.013 391.186 381.392C390.284 381.511 389.359 381.677 388.506 381.961C386.964 382.459 385.541 383.266 384.355 384.357C383.383 385.234 382.576 386.302 381.912 387.44C376.315 397.283 385.707 403.971 385.826 404.042C385.897 404.089 393.083 409.236 403.661 408.951C411.274 408.738 416.42 400.911 414.31 393.725C412.91 388.958 408.665 385.566 404.277 383.693C403.163 383.218 402.024 382.792 400.838 382.436Z" fill="#E1A8AA"/>
<path d="M368.322 391.923C368.322 391.923 368.109 391.923 368.037 391.971C367.966 392.042 367.966 392.113 367.966 392.208C367.966 392.327 368.014 392.445 368.037 392.564C368.109 392.777 368.203 392.967 368.298 393.157C368.369 393.299 368.464 393.441 368.536 393.584C368.702 393.844 368.63 394.177 368.369 394.343C368.109 394.509 367.871 394.39 367.682 394.153C367.184 393.584 366.306 392.659 365.761 392.611C365.666 392.611 365.595 392.611 365.5 392.682C365.405 392.754 365.405 392.825 365.405 392.896C365.405 393.275 365.879 393.821 366.33 394.271C366.614 394.509 366.828 394.698 366.923 394.793C367.136 395.007 367.16 395.339 366.946 395.552C366.757 395.766 366.448 395.766 366.211 395.576C365.784 395.244 365.405 394.888 364.954 394.556C364.812 394.461 364.67 394.343 364.504 394.271C364.409 394.248 364.266 394.248 364.195 394.319C364.006 394.485 364.148 394.722 364.266 394.864C364.599 395.386 365.073 395.789 365.547 396.192L365.618 396.264C365.856 396.453 365.879 396.809 365.689 397.023C365.5 397.26 365.168 397.283 364.907 397.094C364.551 396.833 364.053 396.524 363.721 396.453C363.555 396.406 363.389 396.477 363.365 396.667C363.365 396.785 363.365 396.928 363.436 397.023C363.555 397.212 363.697 397.402 363.84 397.568C364.195 397.971 364.622 398.327 365.073 398.635C365.31 398.801 365.571 398.967 365.808 399.11C365.95 399.204 366.093 399.276 366.235 399.371C366.282 399.371 366.686 399.631 366.686 399.608L370.575 394.888C369.982 393.678 368.962 392.089 368.298 391.876" fill="#E1A8AA"/>
<g opacity="0.25">
<mask id="mask0_99_2128" style="mask-type:luminance" maskUnits="userSpaceOnUse" x="402" y="398" width="11" height="10">
<path d="M412.696 398.92H402.854V407.245H412.696V398.92Z" fill="white"/>
</mask>
<g mask="url(#mask0_99_2128)">
<mask id="mask1_99_2128" style="mask-type:luminance" maskUnits="userSpaceOnUse" x="402" y="398" width="11" height="10">
<path d="M412.508 401.623C413.22 403.781 411.678 406.177 409.069 406.983C406.437 407.789 403.733 406.698 403.022 404.54C402.31 402.382 403.852 399.987 406.461 399.18C409.069 398.374 411.797 399.465 412.508 401.623Z" fill="white"/>
</mask>
<g mask="url(#mask1_99_2128)">
<path d="M399.465 399.252L412.225 395.338L416.09 406.912L403.331 410.849L399.465 399.252Z" fill="url(#paint1_radial_99_2128)"/>
</g>
</g>
</g>
<g opacity="0.25">
<mask id="mask2_99_2128" style="mask-type:luminance" maskUnits="userSpaceOnUse" x="380" y="390" width="10" height="11">
<path d="M389.383 390.759H380.607V400.199H389.383V390.759Z" fill="white"/>
</mask>
<g mask="url(#mask2_99_2128)">
<mask id="mask3_99_2128" style="mask-type:luminance" maskUnits="userSpaceOnUse" x="380" y="390" width="10" height="11">
<path d="M382.505 391.185C380.513 392.3 380.015 395.098 381.391 397.446C382.766 399.794 385.517 400.838 387.51 399.723C389.502 398.632 390 395.81 388.624 393.462C387.249 391.09 384.498 390.07 382.505 391.185Z" fill="white"/>
</mask>
<g mask="url(#mask3_99_2128)">
<path d="M394.742 398.207L387.556 385.921L375.247 392.728L382.433 405.013L394.742 398.207Z" fill="url(#paint2_radial_99_2128)"/>
</g>
</g>
</g>
<path d="M388.363 384.926C388.22 384.879 388.102 384.76 388.078 384.618C388.007 384.381 388.149 384.143 388.386 384.096C388.529 384.072 391.778 383.29 394.41 385.045C394.624 385.187 394.671 385.448 394.529 385.661C394.387 385.851 394.126 385.922 393.912 385.78C391.588 384.238 388.623 384.95 388.6 384.95C388.505 384.95 388.434 384.95 388.363 384.95" fill="black"/>
<path d="M409.661 391.282C409.661 391.282 409.519 391.235 409.471 391.163C409.471 391.163 407.289 388.958 404.515 389.053C404.277 389.053 404.064 388.863 404.064 388.626C404.064 388.389 404.254 388.175 404.491 388.175C407.669 388.08 410.017 390.476 410.112 390.571C410.278 390.737 410.278 391.021 410.112 391.187C409.993 391.306 409.827 391.329 409.661 391.282Z" fill="black"/>
<path d="M401.906 400.817L390.404 397.022C390.19 396.951 389.953 397.046 389.858 397.26C389.787 397.402 388.411 400.58 389.668 403.307C390.309 404.707 391.542 405.703 393.297 406.296C393.345 406.296 393.392 406.319 393.439 406.343C395.93 407.126 397.708 406.841 398.989 406.106L399.203 405.964C401.076 404.754 401.811 402.548 402.143 401.529L402.191 401.41C402.262 401.173 402.144 400.936 401.906 400.865M393.677 405.466C392.159 404.991 391.115 404.185 390.546 403.07C391.613 402.809 395.147 402.335 398.135 405.513C397.068 405.987 395.621 406.082 393.677 405.489M398.918 405.062C395.526 401.339 391.329 401.979 390.214 402.24C389.953 401.339 390 400.438 390.119 399.631L400.554 403.07C400.175 403.782 399.653 404.493 398.918 405.039M401.195 401.505C401.124 401.742 401.005 402.027 400.91 402.311L390.261 398.801C390.356 398.469 390.427 398.185 390.499 397.971L401.195 401.505Z" fill="black"/>
<path d="M400.909 402.312C401.027 402.028 401.122 401.743 401.193 401.506L390.497 397.972C390.426 398.186 390.331 398.47 390.26 398.802L400.909 402.312Z" fill="white"/>
<path d="M398.917 405.061C399.652 404.539 400.174 403.804 400.554 403.092L390.118 399.653C390 400.436 389.976 401.361 390.213 402.262C391.328 402.001 395.526 401.337 398.917 405.061Z" fill="#D2605E"/>
<path d="M390.545 403.071C391.114 404.185 392.181 404.992 393.676 405.466C395.62 406.083 397.067 405.964 398.134 405.49C395.146 402.312 391.612 402.81 390.545 403.047" fill="#E27480"/>
<path d="M398.917 398.682C398.727 398.611 398.585 398.445 398.609 398.231C398.633 397.876 398.538 397.496 398.395 397.164C397.731 395.741 395.597 395.409 394.553 396.547C394.482 396.619 394.387 396.713 394.34 396.808C394.221 397.022 393.937 397.069 393.723 396.951C393.51 396.832 393.439 396.547 393.581 396.358C393.937 395.788 394.506 395.338 395.146 395.124C396.901 394.508 399.107 395.599 399.439 397.496C399.486 397.757 399.51 398.042 399.486 398.302C399.486 398.54 399.249 398.729 399.012 398.706C398.965 398.706 398.941 398.706 398.917 398.706" fill="black"/>
<path d="M392.064 387.537C390.735 386.92 389.431 386.73 388.269 386.944C387.107 387.181 386.253 387.821 385.802 388.77C385.375 389.719 385.447 390.786 386.016 391.829C386.585 392.849 387.581 393.703 388.909 394.32C389.194 394.438 389.478 394.557 389.763 394.652C392.158 395.434 394.364 394.841 395.17 393.086C396.095 391.118 394.791 388.794 392.064 387.537ZM386.798 391.402C386.371 390.62 386.3 389.837 386.632 389.149C386.964 388.462 387.605 387.987 388.482 387.821C389.218 387.679 390.095 387.75 390.973 388.058C391.21 388.13 391.471 388.248 391.708 388.343C391.779 388.367 391.85 388.414 391.921 388.462C391.376 388.77 390.569 389.41 390.142 390.715C389.739 392.019 390.071 393.229 390.332 393.916C389.976 393.822 389.644 393.703 389.265 393.537C388.127 393.015 387.249 392.256 386.775 391.426M391.376 394.011C391.376 394.011 390.498 392.517 390.996 390.952C391.139 390.525 391.328 390.074 391.613 389.719C391.921 389.339 392.348 389.102 392.822 388.96C394.293 390.027 394.957 391.474 394.388 392.683C393.913 393.703 392.775 394.177 391.399 394.059V394.011" fill="black"/>
<path d="M390.14 390.689C390.544 389.384 391.374 388.72 391.919 388.436C391.848 388.412 391.777 388.365 391.706 388.317C391.445 388.199 391.208 388.104 390.971 388.033C390.093 387.748 389.216 387.653 388.48 387.795C387.603 387.961 386.962 388.436 386.63 389.124C386.298 389.811 386.37 390.618 386.796 391.4C387.271 392.23 388.148 392.989 389.287 393.511C389.642 393.677 389.998 393.796 390.354 393.891C390.069 393.203 389.737 392.017 390.164 390.689" fill="white"/>
<path d="M394.362 392.705C394.932 391.471 394.267 390.024 392.797 388.981C392.323 389.123 391.92 389.36 391.587 389.74C391.303 390.096 391.113 390.523 390.971 390.973C390.473 392.538 391.35 394.033 391.35 394.033V394.08C392.726 394.199 393.864 393.724 394.339 392.705" fill="#2D5DAB"/>
<path d="M408.901 393.75C408.118 392.872 406.932 392.256 405.509 391.971C402.592 391.354 400.149 392.445 399.722 394.58C399.343 396.477 400.742 398.28 403.138 399.062C403.422 399.157 403.707 399.228 404.015 399.299C405.438 399.608 406.766 399.513 407.834 399.015C408.901 398.541 409.612 397.71 409.802 396.691C410.015 395.671 409.683 394.627 408.901 393.75ZM404.181 398.422C401.762 397.924 400.244 396.359 400.576 394.746C400.908 393.109 402.9 392.303 405.32 392.801C405.58 392.848 405.841 392.943 406.078 393.014C405.533 393.347 404.75 394.011 404.347 395.291C403.944 396.572 404.229 397.758 404.489 398.469C404.395 398.469 404.276 398.469 404.181 398.422ZM405.225 395.576C405.723 394.011 406.671 393.655 406.79 393.607C406.885 393.56 406.956 393.536 407.122 393.465C407.573 393.702 407.952 393.987 408.26 394.319C408.853 394.983 409.091 395.742 408.948 396.501C408.782 397.236 408.26 397.853 407.454 398.208C406.909 398.469 406.221 398.564 405.486 398.564C405.296 398.161 404.774 396.904 405.201 395.576" fill="black"/>
<path d="M404.371 395.314C404.774 394.033 405.557 393.345 406.102 393.037C405.865 392.966 405.604 392.871 405.343 392.823C402.924 392.325 400.932 393.132 400.6 394.768C400.268 396.405 401.786 397.946 404.205 398.444C404.324 398.444 404.418 398.468 404.513 398.492C404.252 397.78 403.968 396.618 404.371 395.314Z" fill="white"/>
<path d="M408.261 394.319C407.953 393.987 407.574 393.702 407.123 393.465C406.957 393.536 406.886 393.56 406.791 393.607C406.672 393.655 405.7 394.01 405.226 395.576C404.799 396.904 405.32 398.161 405.51 398.564C406.245 398.564 406.91 398.469 407.455 398.208C408.261 397.852 408.783 397.236 408.949 396.501C409.091 395.765 408.854 394.983 408.261 394.319Z" fill="#2D5DAB"/>
<path d="M372.567 375.961C372.472 375.202 371.879 374.751 371.168 374.561C371.12 374.561 371.097 374.561 371.073 374.538C371.144 374.538 371.191 374.538 370.978 374.49C370.788 374.443 370.599 374.395 370.433 374.324C370.1 374.206 369.768 374.063 369.508 373.85C369.389 373.755 369.247 373.66 369.128 373.589C367.017 371.81 366.353 368.015 366.33 367.778C366.211 366.094 363.65 365.739 363.151 367.375C362.985 367.826 361.254 372.142 357.886 372.522H357.91C357.649 372.569 357.412 372.593 357.151 372.617C357.056 372.617 356.961 372.617 356.89 372.617C356.914 372.617 356.89 372.617 356.724 372.617C355.989 372.617 355.301 372.877 354.993 373.589C354.708 374.229 354.898 375.107 355.491 375.51C355.894 375.795 356.25 375.889 356.511 376.079C356.606 376.15 356.724 376.198 356.819 376.269C357.981 377.075 360.329 379.139 361.017 382.815C361.064 383.574 361.657 384.262 362.44 384.356C362.487 384.356 362.535 384.356 362.559 384.356C363.294 384.451 363.982 384.024 364.266 383.384C364.266 383.384 365.215 381.226 367.349 379.471C367.658 379.234 368.725 378.475 370.077 378.048C370.195 378.024 370.338 377.977 370.456 377.953C370.504 377.953 370.551 377.929 370.599 377.905C370.67 377.905 370.741 377.882 370.812 377.858C371.025 377.811 371.286 377.763 371.571 377.668C372.235 377.407 372.662 376.625 372.567 375.937" fill="#EEDE9D"/>
<circle cx="100.001" cy="712.621" r="100" fill="white" fill-opacity="0.1"/>
</g>
<path d="M254.032 64.3701H352.982C363.84 64.3703 372.642 73.1725 372.642 84.0303C372.642 94.888 363.84 103.69 352.982 103.69H254.032C243.174 103.69 234.372 94.8881 234.372 84.0303C234.372 73.1724 243.174 64.3701 254.032 64.3701Z" fill="#F5F5F6" stroke="#ECECEF"/>
<path d="M352.302 95.1399C358.432 95.1399 363.402 90.1703 363.402 84.0399C363.402 77.9096 358.432 72.9399 352.302 72.9399C346.171 72.9399 341.202 77.9096 341.202 84.0399C341.202 90.1703 346.171 95.1399 352.302 95.1399Z" fill="#E0E1E4"/>
<path d="M352.301 90.0503C355.621 90.0503 358.311 87.3595 358.311 84.0403C358.311 80.721 355.621 78.0303 352.301 78.0303C348.982 78.0303 346.292 80.721 346.292 84.0403C346.292 87.3595 348.982 90.0503 352.301 90.0503Z" fill="#A8AEB8"/>
</g>
<defs>
<filter id="filter0_d_99_2128" x="0.00146484" y="0.5" width="605.64" height="1108.85" filterUnits="userSpaceOnUse" color-interpolation-filters="sRGB">
<feFlood flood-opacity="0" result="BackgroundImageFix"/>
<feColorMatrix in="SourceAlpha" type="matrix" values="0 0 0 0 0 0 0 0 0 0 0 0 0 0 0 0 0 0 127 0" result="hardAlpha"/>
<feOffset dy="30"/>
<feGaussianBlur stdDeviation="30"/>
<feComposite in2="hardAlpha" operator="out"/>
<feColorMatrix type="matrix" values="0 0 0 0 0 0 0 0 0 0 0 0 0 0 0 0 0 0 0.1 0"/>
<feBlend mode="normal" in2="BackgroundImageFix" result="effect1_dropShadow_99_2128"/>
<feBlend mode="normal" in="SourceGraphic" in2="effect1_dropShadow_99_2128" result="shape"/>
</filter>
<linearGradient id="paint0_linear_99_2128" x1="303.226" y1="51.5" x2="303.226" y2="997.94" gradientUnits="userSpaceOnUse">
<stop stop-color="#9F7FFF"/>
<stop offset="1" stop-color="#7E52FF"/>
</linearGradient>
<radialGradient id="paint1_radial_99_2128" cx="0" cy="0" r="1" gradientUnits="userSpaceOnUse" gradientTransform="translate(508.488 382.738) rotate(-17.09) scale(4.95683 4.10302)">
<stop stop-color="#C63B61"/>
<stop offset="0.25" stop-color="#C53B64"/>
<stop offset="0.47" stop-color="#C53C6F"/>
<stop offset="0.54" stop-color="#C53D74"/>
<stop offset="0.82" stop-color="#CB585D"/>
<stop offset="1" stop-color="#CE6454"/>
</radialGradient>
<radialGradient id="paint2_radial_99_2128" cx="0" cy="0" r="1" gradientUnits="userSpaceOnUse" gradientTransform="translate(497.463 614.516) rotate(-120.34) scale(4.95682 4.12673)">
<stop stop-color="#C63B61"/>
<stop offset="0.25" stop-color="#C53B64"/>
<stop offset="0.47" stop-color="#C53C6F"/>
<stop offset="0.54" stop-color="#C53D74"/>
<stop offset="0.82" stop-color="#CB585D"/>
<stop offset="1" stop-color="#CE6454"/>
</radialGradient>
<clipPath id="clip0_99_2128">
<rect x="85.0015" y="51.5" width="436.45" height="946.44" rx="66" fill="white"/>
</clipPath>
</defs>
</svg>
