<svg width="844" height="63" viewBox="0 0 844 63" fill="none" xmlns="http://www.w3.org/2000/svg">
<path d="M0 7H844V63H0V7Z" fill="url(#paint0_linear_1500_4515)"/>
<g clip-path="url(#clip0_1500_4515)">
<path d="M453.394 57.8281H465.761V46.9644H453.394V57.8281Z" fill="black"/>
<path d="M452.969 57.8282V46.9645C452.969 46.7245 453.161 46.5298 453.398 46.5298H465.765C466.002 46.5298 466.194 46.7245 466.194 46.9645V57.8282C466.194 58.0682 466.002 58.263 465.765 58.263H453.398C453.161 58.263 452.969 58.0682 452.969 57.8282ZM465.336 47.3992H453.827V57.3935H465.336V47.3992Z" fill="black"/>
<path d="M456.182 51.3072C456.182 51.3072 455.462 60.0561 449.873 64.657C449.873 64.657 452.362 67.9673 449.927 69.8194C447.492 71.6716 443.341 67.7998 443.341 67.7998C443.341 67.7998 439.137 63.928 443.064 60.9573C446.991 57.9867 449.319 53.7209 450.204 49.1245L456.182 51.3117V51.3072Z" fill="#F0514F"/>
<path d="M443.055 68.1211C442.966 68.0395 440.852 66.0697 440.964 63.7375C441.022 62.5466 441.643 61.4914 442.809 60.6084C446.446 57.8596 448.854 53.8565 449.784 49.0383C449.806 48.9115 449.882 48.8073 449.994 48.7439C450.101 48.6805 450.235 48.6715 450.351 48.7122L456.329 50.8994C456.512 50.9674 456.628 51.1485 456.611 51.3432C456.579 51.701 455.838 60.0197 450.449 64.7383C450.847 65.3678 451.589 66.7671 451.397 68.1528C451.285 68.9634 450.878 69.6426 450.186 70.1679C449.632 70.5891 449.011 70.7566 448.376 70.7566C445.914 70.7566 443.198 68.2569 443.055 68.1211ZM450.525 49.6994C449.489 54.5131 447.005 58.5163 443.323 61.3012C442.371 62.0213 441.867 62.8545 441.822 63.7738C441.728 65.6938 443.614 67.4554 443.636 67.478C444.717 68.4879 447.907 70.811 449.672 69.4705C450.181 69.0856 450.467 68.6147 450.548 68.035C450.749 66.5678 449.547 64.9376 449.533 64.924C449.395 64.7383 449.426 64.4711 449.605 64.3217C454.381 60.391 455.52 53.218 455.721 51.6013L450.53 49.6994H450.525Z" fill="black"/>
<path d="M469.902 38.6955C469.902 38.6955 486.317 33.6916 485.544 18.861C484.771 4.03034 470.318 1.07781 470.318 1.07781C470.318 1.07781 443.372 -5.73295 436.116 24.4083C436.116 24.4083 442.541 32.7859 452.116 35.983C452.116 35.983 444.918 46.6519 434.571 47.7388C434.571 47.7388 436.889 61.2425 457.173 51.9593C457.173 51.9593 464.487 49.609 470.197 53.0461L469.898 38.7L469.902 38.6955Z" fill="black"/>
<path d="M439.047 54.3229C434.928 52.113 434.177 47.9876 434.146 47.811C434.124 47.6932 434.155 47.571 434.227 47.4759C434.298 47.3808 434.405 47.3174 434.526 47.3038C443.323 46.38 449.9 38.2469 451.428 36.2001C442.144 32.8672 435.844 24.7567 435.781 24.6707C435.701 24.5665 435.674 24.4307 435.705 24.2994C437.997 14.7851 442.47 7.93361 449.002 3.93047C458.943 -2.15574 470.313 0.620189 470.407 0.642831C470.555 0.67453 485.196 3.83538 485.978 18.829C486.701 32.677 472.632 38.1926 470.34 38.9986L470.631 53.0277C470.631 53.1862 470.55 53.3311 470.416 53.4126C470.282 53.4942 470.117 53.4896 469.983 53.4126C464.662 50.211 457.772 52.2262 457.325 52.362C452.522 54.5583 448.363 55.6587 444.873 55.6542C442.653 55.6542 440.709 55.2104 439.047 54.3183V54.3229ZM469.755 52.2986L469.473 38.7043C469.473 38.5096 469.594 38.333 469.777 38.2786C469.817 38.265 473.874 37.0061 477.77 33.9766C482.953 29.9508 485.424 24.8745 485.111 18.8834C484.365 4.57351 470.367 1.5304 470.211 1.4987C470.099 1.47153 459.059 -1.21383 449.426 4.68672C443.149 8.53589 438.828 15.1338 436.581 24.3039C437.528 25.4767 443.631 32.6951 452.245 35.5706C452.375 35.6114 452.473 35.7155 452.518 35.8423C452.563 35.9691 452.54 36.114 452.464 36.2272C452.169 36.662 445.258 46.7513 435.098 48.1099C435.411 49.1921 436.469 51.9635 439.454 53.5621C443.484 55.7176 449.382 55.0429 456.986 51.5605C456.999 51.5515 457.017 51.5469 457.03 51.5424C457.205 51.4881 459.631 50.7273 462.763 50.7273C464.925 50.7273 467.423 51.0896 469.741 52.2986H469.755Z" fill="black"/>
<path d="M474.67 71.6894L426.126 36.8657L428.244 33.8271L477.091 68.9451C477.091 68.9451 477.806 70.032 476.747 71.2229C476.747 71.2229 475.898 72.1739 474.67 71.6848V71.6894Z" fill="#4F3128"/>
<path d="M474.513 72.0924C474.482 72.0788 474.451 72.0607 474.424 72.0426L425.881 37.2235C425.689 37.0831 425.639 36.8114 425.778 36.6167L427.896 33.5781C427.963 33.483 428.061 33.4196 428.173 33.4015C428.284 33.3834 428.4 33.4106 428.494 33.474L477.341 68.5919C477.386 68.6236 477.422 68.6599 477.449 68.7052C477.761 69.1761 478.083 70.3761 477.064 71.5173C477.029 71.5535 476.385 72.2645 475.375 72.2645C475.112 72.2645 474.821 72.2147 474.509 72.0924H474.513ZM428.347 34.4385L426.721 36.7661L474.866 71.3045C475.769 71.6351 476.399 70.9648 476.425 70.9422C477.127 70.1497 476.872 69.4614 476.765 69.2531L428.347 34.4385Z" fill="black"/>
<path d="M425.309 17.806C425.309 17.806 418.67 9.18385 417.494 10.4201C416.319 11.6609 417.481 12.8202 417.481 12.8202C417.481 12.8202 415.935 12.0005 415.207 13.0783C414.479 14.1561 415.609 15.2293 415.609 15.2293C415.609 15.2293 414.3 14.2195 413.576 15.4512C412.852 16.6829 414.099 17.6611 414.099 17.6611C414.099 17.6611 412.517 16.5969 411.91 17.7335C411.302 18.8702 412.879 19.9343 412.879 19.9343C412.879 19.9343 411.298 18.8702 410.659 19.9162C410.02 20.9623 411.749 22.022 411.749 22.022C411.749 22.022 409.975 20.2649 409.073 21.5555C408.17 22.8461 410.14 24.028 410.14 24.028C410.14 24.028 408.38 22.8778 407.714 24.2862C407.714 24.2862 407.308 25.219 408.845 26.0024C408.845 26.0024 406.857 24.739 406.164 26.3013C406.164 26.3013 405.637 27.2613 407.482 28.1897C407.482 28.1897 405.257 27.1164 404.73 28.7195C404.73 28.7195 404.413 29.5527 406.227 30.3135C406.227 30.3135 404.051 29.3761 403.448 31.0562C403.448 31.0562 402.889 31.9256 405.002 32.6004C405.002 32.6004 402.858 31.6766 402.451 33.4925C402.451 33.4925 401.643 35.6435 411.941 38.6821L425.805 18.5849L425.313 17.8105L425.309 17.806Z" fill="#A76828"/>
<path d="M411.811 39.0941C404.797 37.0246 402.688 35.2993 402.161 34.217C401.955 33.7958 401.996 33.497 402.031 33.3747C402.197 32.6456 402.608 32.3015 402.92 32.1339C403.01 32.0886 403.104 32.0479 403.197 32.0207C403.117 31.912 403.054 31.7988 403.01 31.6765C402.894 31.3505 402.956 31.0471 403.054 30.8614C403.247 30.3497 403.577 29.992 404.037 29.7882C404.203 29.7157 404.372 29.6704 404.542 29.6433C404.149 29.0953 404.296 28.6425 404.323 28.5746C404.484 28.09 404.797 27.7368 405.226 27.5511C405.436 27.4606 405.664 27.4153 405.887 27.4017C405.82 27.2885 405.766 27.1707 405.731 27.0485C405.565 26.5141 405.766 26.1292 405.775 26.1202C405.994 25.6311 406.347 25.3005 406.803 25.1601C406.973 25.1058 407.151 25.0831 407.326 25.0831C407.138 24.5533 407.312 24.1367 407.326 24.1005C407.54 23.6476 407.88 23.3397 408.313 23.2129C408.425 23.1812 408.541 23.1631 408.653 23.154C408.554 22.982 408.478 22.7963 408.438 22.597C408.344 22.1487 408.438 21.7049 408.72 21.3064C408.992 20.917 409.363 20.6951 409.796 20.6543C409.904 20.6453 410.006 20.6453 410.114 20.6543C410.051 20.3147 410.114 19.9841 410.297 19.6853C410.498 19.3547 410.797 19.1373 411.164 19.0558C411.275 19.0286 411.391 19.0196 411.508 19.0196C411.302 18.5667 411.248 18.0505 411.53 17.5252C411.726 17.1584 412.03 16.9139 412.406 16.8188C412.602 16.7689 412.803 16.7644 413 16.7871C412.861 16.3297 412.875 15.7908 413.205 15.2293C413.531 14.6768 413.956 14.4957 414.255 14.4368C414.38 14.4142 414.501 14.4051 414.622 14.4096C414.479 13.9296 414.492 13.3771 414.858 12.8337C415.301 12.1771 415.984 12.0367 416.605 12.1092C416.453 11.5295 416.529 10.8186 417.191 10.1212C417.311 9.99441 417.517 9.85403 417.861 9.86761C419.728 9.96724 424.679 16.2753 425.653 17.5388C425.662 17.5478 425.671 17.5614 425.675 17.5705L426.167 18.3448C426.26 18.4943 426.256 18.6845 426.158 18.8294L412.294 38.9266C412.213 39.0443 412.079 39.1122 411.941 39.1122C411.901 39.1122 411.861 39.1077 411.82 39.0941H411.811ZM424.956 18.055C421.761 13.907 418.477 10.5559 417.798 10.719C416.967 11.5929 417.637 12.3673 417.776 12.5077C417.928 12.6571 417.946 12.8971 417.821 13.0737C417.696 13.2458 417.463 13.3002 417.276 13.2051C417.262 13.2005 416.056 12.5801 415.555 13.3228C415.046 14.0745 415.864 14.8761 415.895 14.9078C416.06 15.0663 416.078 15.3289 415.931 15.5055C415.783 15.6821 415.524 15.7093 415.345 15.5734C415.22 15.4783 414.774 15.2157 414.412 15.2836C414.224 15.3198 414.068 15.4466 413.938 15.6731C413.429 16.538 414.26 17.2399 414.354 17.3124C414.537 17.4573 414.573 17.7199 414.438 17.9101C414.304 18.1003 414.045 18.1501 413.853 18.0188C413.661 17.892 413.022 17.5524 412.607 17.661C412.464 17.6973 412.361 17.7833 412.28 17.9373C411.865 18.7071 413.103 19.5585 413.112 19.5675C413.237 19.6536 413.304 19.7894 413.304 19.9298C413.304 20.0113 413.281 20.0973 413.232 20.1698C413.103 20.369 412.835 20.4234 412.638 20.2921C412.441 20.1607 411.785 19.8075 411.342 19.9026C411.204 19.9343 411.101 20.0113 411.021 20.1426C410.945 20.2694 410.927 20.3872 410.958 20.523C411.012 20.7449 411.181 20.9713 411.374 21.166C411.735 21.4061 411.99 21.6551 412.044 21.7095C412.2 21.8634 412.218 22.1125 412.084 22.2846C411.95 22.4567 411.709 22.5065 411.521 22.3887C411.458 22.3525 411.15 22.1578 410.837 21.8544C410.529 21.6551 410.172 21.4876 409.868 21.5147C409.685 21.5329 409.542 21.6234 409.417 21.8046C409.274 22.0083 409.229 22.1985 409.274 22.4114C409.381 22.9321 410.011 23.4348 410.301 23.6205C410.333 23.6386 410.355 23.6522 410.368 23.6612C410.565 23.788 410.623 24.0552 410.502 24.2544C410.382 24.4582 410.123 24.5216 409.921 24.3994C409.908 24.3903 409.886 24.3767 409.854 24.3586C409.604 24.2092 408.988 23.9239 408.55 24.0507C408.353 24.105 408.21 24.2409 408.112 24.4492C408.041 24.6439 408.121 25.0605 408.787 25.4726C408.939 25.5496 409.041 25.613 409.073 25.6356C409.265 25.7579 409.332 26.016 409.22 26.2153C409.108 26.419 408.858 26.496 408.653 26.3919C408.554 26.342 408.465 26.2922 408.38 26.2424C408.032 26.0703 407.469 25.8711 407.049 25.9979C406.83 26.0658 406.669 26.2243 406.544 26.5005C406.45 26.7089 406.571 27.2477 407.67 27.8002C407.88 27.9044 407.969 28.1625 407.866 28.3798C407.764 28.5927 407.513 28.6832 407.299 28.5836C407 28.4387 406.101 28.1217 405.556 28.3572C405.351 28.4478 405.217 28.6063 405.136 28.8463C405.11 28.9821 405.275 29.444 406.378 29.9059C406.383 29.9059 406.387 29.9059 406.392 29.9105C406.611 30.0055 406.709 30.2591 406.62 30.4765C406.53 30.6984 406.276 30.8026 406.061 30.712H406.057C405.999 30.6848 405.038 30.2999 404.381 30.5897C404.131 30.6984 403.957 30.8976 403.85 31.2011C403.841 31.2328 403.823 31.2599 403.805 31.2916C403.805 31.2916 403.805 31.3414 403.823 31.3912C403.854 31.4818 404.015 31.7716 404.819 32.075C405.007 32.1294 405.132 32.1837 405.172 32.1973C405.382 32.2879 405.485 32.5324 405.409 32.7498C405.329 32.9671 405.096 33.0849 404.877 33.0124C404.77 32.9762 404.667 32.9445 404.569 32.9037C404.225 32.8041 403.689 32.7226 403.322 32.9083C403.095 33.026 402.947 33.2479 402.876 33.583C402.871 33.6011 402.867 33.6238 402.858 33.6419C402.858 33.6419 402.916 33.7868 402.938 33.8321C403.233 34.4344 404.685 36.051 411.767 38.1748L425.291 18.5713L424.965 18.0595L424.956 18.055Z" fill="black"/>
<path d="M421.14 20.5591C421.261 20.5591 421.386 20.5048 421.471 20.4051C421.623 20.2195 421.6 19.9478 421.417 19.7938L417.253 16.2571C417.07 16.1031 416.802 16.1258 416.65 16.3114C416.498 16.4971 416.521 16.7688 416.704 16.9228L420.868 20.4595C420.948 20.5274 421.046 20.5591 421.14 20.5591Z" fill="black"/>
<path d="M419.483 22.6197C419.608 22.6197 419.728 22.5654 419.813 22.4612C419.965 22.2756 419.938 21.9993 419.755 21.8499L415.743 18.517C415.56 18.363 415.292 18.3902 415.14 18.5758C414.988 18.7615 415.015 19.0377 415.198 19.1872L419.21 22.5201C419.291 22.588 419.384 22.6197 419.483 22.6197Z" fill="black"/>
<path d="M418.384 24.8201C418.509 24.8201 418.634 24.7657 418.719 24.6571C418.866 24.4714 418.835 24.1952 418.652 24.0457L414.568 20.74C414.38 20.5905 414.112 20.6222 413.965 20.8079C413.817 20.9936 413.849 21.2698 414.032 21.4192L418.116 24.725C418.196 24.7884 418.29 24.8201 418.384 24.8201Z" fill="black"/>
<path d="M410.694 36.7934C410.855 36.7934 411.007 36.7029 411.083 36.5444C411.186 36.327 411.092 36.0689 410.882 35.9647L405.418 33.3246C405.203 33.2205 404.949 33.3156 404.846 33.5284C404.743 33.7458 404.837 34.0039 405.047 34.1081L410.511 36.7481C410.569 36.7753 410.632 36.7889 410.694 36.7889V36.7934Z" fill="#231F20"/>
<path d="M411.896 34.896C412.048 34.896 412.196 34.8145 412.276 34.6696C412.388 34.4568 412.312 34.1941 412.102 34.0809L407.116 31.3548C406.906 31.2416 406.647 31.3186 406.535 31.5314C406.423 31.7443 406.499 32.0069 406.709 32.1201L411.695 34.8462C411.762 34.8825 411.829 34.896 411.896 34.896Z" fill="#231F20"/>
<path d="M413.42 32.4551C413.576 32.4551 413.728 32.369 413.8 32.2196C413.907 32.0067 413.826 31.7441 413.612 31.6354L408.528 28.9908C408.318 28.8821 408.058 28.9636 407.951 29.181C407.844 29.3938 407.924 29.6565 408.139 29.7652L413.223 32.4098C413.286 32.4415 413.353 32.4596 413.42 32.4596V32.4551Z" fill="black"/>
<path d="M414.845 30.3495C414.993 30.3495 415.131 30.2771 415.211 30.1412C415.332 29.9374 415.27 29.6703 415.064 29.5435L410.149 26.5366C409.948 26.4098 409.685 26.4777 409.56 26.686C409.439 26.8898 409.502 27.157 409.707 27.2838L414.622 30.2907C414.689 30.3314 414.769 30.3541 414.841 30.3541L414.845 30.3495Z" fill="black"/>
<path d="M416.221 28.2213C416.36 28.2213 416.494 28.1533 416.574 28.0311C416.708 27.8318 416.659 27.5646 416.462 27.4243L411.744 24.1321C411.548 23.9962 411.28 24.0461 411.15 24.2453C411.016 24.4446 411.065 24.7117 411.262 24.8521L415.98 28.1443C416.056 28.1941 416.141 28.2213 416.221 28.2213Z" fill="black"/>
<path d="M417.378 26.4281C417.508 26.4281 417.637 26.3693 417.722 26.2561C417.865 26.0659 417.825 25.7942 417.637 25.6493L413.348 22.3752C413.161 22.2303 412.893 22.271 412.75 22.4612C412.607 22.6514 412.647 22.9231 412.835 23.068L417.124 26.3421C417.2 26.401 417.293 26.4281 417.383 26.4281H417.378Z" fill="black"/>
<path d="M422.494 18.8746C422.61 18.8746 422.726 18.8293 422.811 18.7342C422.972 18.5576 422.959 18.2814 422.784 18.1183L418.821 14.4458C418.647 14.2828 418.375 14.2963 418.214 14.4729C418.053 14.6496 418.066 14.9258 418.241 15.0888L422.204 18.7614C422.284 18.8384 422.391 18.8746 422.494 18.8746Z" fill="black"/>
<path d="M425.42 17.8286L411.315 38.6413C411.315 38.6413 414.564 41.3719 418.647 37.8624C422.731 34.3529 427.668 38.3786 427.668 38.3786L430.25 34.8963C430.25 34.8963 424.312 31.2735 427.208 25.5451C430.103 19.8166 425.425 17.8286 425.425 17.8286H425.42Z" fill="#F0514F"/>
<path d="M411.043 38.9762C410.873 38.8313 410.837 38.5822 410.963 38.3966L425.068 17.5839C425.184 17.4164 425.398 17.3484 425.586 17.4299C425.666 17.4616 427.538 18.2768 428.284 20.3417C428.847 21.8995 428.611 23.7154 427.587 25.7441C426.47 27.9585 426.6 30.096 427.976 32.0975C429.03 33.6327 430.456 34.5157 430.469 34.5248C430.572 34.5882 430.643 34.6923 430.67 34.8146C430.693 34.9369 430.666 35.0591 430.59 35.1587L428.007 38.6411C427.936 38.7362 427.833 38.7951 427.717 38.8132C427.601 38.8313 427.485 38.7951 427.395 38.7226C427.351 38.6864 422.691 34.955 418.92 38.1973C417.24 39.6419 415.681 40.0812 414.398 40.0812C412.388 40.0812 411.061 38.9943 411.038 38.9762H411.043ZM427.578 37.7762L429.638 34.9957C428.316 34.0176 424.236 30.4628 426.823 25.3456C427.73 23.5479 427.954 21.9674 427.48 20.6497C427.033 19.3998 426.055 18.6888 425.559 18.39L411.91 38.5279C412.776 39.0668 415.292 40.1717 418.37 37.5271C419.693 36.3905 421.1 35.9965 422.414 35.9965C424.737 35.9965 426.774 37.2237 427.578 37.7762Z" fill="black"/>
<path d="M461.239 55.6904C461.239 55.6904 464.831 43.1376 471.908 45.2026C478.986 47.2676 470.568 58.0271 470.568 58.0271C470.568 58.0271 474.696 55.6361 476.09 59.4943C477.484 63.3525 470.032 63.6786 470.032 63.6786L460.81 57.375L461.239 55.6904Z" fill="#F0514F"/>
<path d="M469.791 64.0413L460.569 57.7377C460.417 57.6336 460.35 57.4479 460.395 57.2668L460.824 55.5822C460.824 55.5822 460.824 55.5731 460.824 55.5686C460.859 55.4373 461.757 52.3398 463.554 49.4416C465.997 45.4929 468.924 43.8807 472.025 44.7864C473.57 45.2347 474.558 46.1133 474.96 47.3948C475.916 50.4198 473.258 54.912 471.788 57.063C472.556 56.8502 473.526 56.7324 474.433 57.0675C475.375 57.4162 476.068 58.1815 476.488 59.3408C476.814 60.242 476.743 61.0525 476.282 61.7499C474.888 63.8692 470.242 64.0957 470.045 64.1047C470.041 64.1047 470.032 64.1047 470.027 64.1047C469.943 64.1047 469.858 64.0775 469.786 64.0323L469.791 64.0413ZM470.778 58.4079C470.599 58.5121 470.376 58.4713 470.242 58.3128C470.108 58.1544 470.103 57.9234 470.233 57.7604C470.282 57.697 475.282 51.244 474.147 47.6665C473.83 46.6657 473.057 45.9955 471.788 45.6287C465.251 43.7268 461.744 55.4962 461.65 55.8131L461.297 57.1943L470.148 63.2443C471.471 63.1628 474.647 62.6873 475.568 61.279C475.871 60.8171 475.907 60.2827 475.679 59.6487C475.353 58.743 474.835 58.1498 474.138 57.8917C473.83 57.7785 473.508 57.7332 473.191 57.7332C471.966 57.7332 470.787 58.3989 470.774 58.4079H470.778Z" fill="black"/>
<path d="M462.705 59.0871C462.861 59.0871 463.008 59.0011 463.084 58.8562L467.642 50.0529C467.753 49.8401 467.673 49.5774 467.463 49.4642C467.253 49.351 466.994 49.4371 466.882 49.6454L462.325 58.4486C462.213 58.6615 462.294 58.9241 462.504 59.0373C462.566 59.069 462.638 59.0871 462.705 59.0871Z" fill="black"/>
<path d="M462.169 57.9818L464.863 59.8158C464.863 59.8158 465.653 55.4866 460.73 54.7802C455.811 54.0738 455.346 56.7546 455.346 56.7546C455.346 56.7546 454.283 60.3773 457.245 61.4143C457.245 61.4143 457.701 62.4242 459.322 62.5963C459.322 62.5963 460.006 63.8099 461.002 63.4612C461.999 63.1125 461.628 61.6136 461.628 61.6136L461.114 59.0143C461.114 59.0143 461.597 57.9727 462.169 57.9727V57.9818Z" fill="#EBABAB"/>
<path d="M459.068 63.0039C457.772 62.8047 457.169 62.1027 456.95 61.7722C454.466 60.794 454.528 58.0226 454.926 56.6505C454.998 56.3109 455.735 53.6255 460.788 54.3501C462.472 54.5901 463.723 55.2648 464.492 56.3516C465.618 57.9411 465.296 59.8114 465.278 59.8929C465.251 60.0378 465.158 60.1555 465.023 60.2144C464.889 60.2733 464.738 60.2551 464.617 60.1736L462.075 58.4438C461.927 58.5298 461.713 58.7925 461.561 59.0823L462.039 61.514C462.2 62.1661 462.218 63.502 461.136 63.8779C460.962 63.9368 460.792 63.9639 460.632 63.9639C459.93 63.9639 459.372 63.4477 459.063 63.0039H459.068ZM462.405 57.6196L464.474 59.0325C464.456 58.4528 464.326 57.6105 463.795 56.8634C463.165 55.9758 462.11 55.4188 460.667 55.215C456.262 54.5856 455.784 56.7501 455.766 56.8362C455.766 56.8543 455.762 56.8679 455.753 56.886C455.712 57.0173 454.846 60.1238 457.379 61.0114C457.491 61.0521 457.58 61.1337 457.629 61.2423C457.629 61.2514 458.022 62.0303 459.363 62.1752C459.497 62.1888 459.622 62.2703 459.689 62.3926C459.693 62.4016 460.212 63.2892 460.859 63.0628C461.472 62.8499 461.212 61.7405 461.203 61.7133L460.69 59.114C460.672 59.0234 460.685 58.9283 460.721 58.8423C460.819 58.6249 461.36 57.5517 462.16 57.5517C462.227 57.5471 462.329 57.5788 462.401 57.6241L462.405 57.6196Z" fill="black"/>
<path d="M457.16 57.8369C457.16 57.8369 456.503 59.7434 457.245 61.4144L457.16 57.8369Z" fill="#EBABAB"/>
<path d="M457.245 61.8495C457.303 61.8495 457.361 61.836 457.419 61.8133C457.634 61.7137 457.732 61.4556 457.634 61.2382C456.972 59.7393 457.558 57.9958 457.562 57.9823C457.638 57.7558 457.522 57.5068 457.299 57.4298C457.075 57.3528 456.829 57.4705 456.753 57.697C456.727 57.783 456.052 59.7846 456.852 61.5959C456.923 61.759 457.08 61.8541 457.245 61.8541V61.8495Z" fill="black"/>
<path d="M459.01 59.0508C459.01 59.0508 458.469 60.9573 459.322 62.6011L459.01 59.0508Z" fill="#EBABAB"/>
<path d="M459.322 63.036C459.39 63.036 459.457 63.0179 459.524 62.9862C459.734 62.873 459.814 62.6103 459.702 62.3975C458.938 60.9257 459.416 59.1868 459.421 59.1687C459.488 58.9378 459.354 58.6978 459.126 58.6298C458.898 58.5619 458.661 58.6978 458.594 58.9287C458.572 59.0147 458.018 61.0208 458.938 62.8005C459.014 62.9499 459.166 63.0315 459.318 63.0315L459.322 63.036Z" fill="black"/>
<path d="M444.516 43.6855C444.516 43.6855 439.476 47.4713 434.58 47.743C434.58 47.743 435.831 55.7131 445.892 55.1878C445.892 55.1878 450.485 55.0972 456.222 52.362" fill="black"/>
<path d="M444.963 55.6452C445.271 55.6452 445.588 55.6362 445.914 55.6181C446.093 55.6181 450.65 55.4958 456.405 52.7516C456.619 52.6474 456.713 52.3893 456.61 52.1719C456.508 51.9546 456.253 51.8595 456.039 51.9636C450.463 54.6218 445.928 54.7486 445.883 54.7486C441.844 54.9569 438.788 53.8248 436.796 51.3794C435.759 50.107 435.299 48.8028 435.111 48.1326C439.905 47.648 444.57 44.1838 444.771 44.0298C444.963 43.8849 444.999 43.6132 444.86 43.423C444.717 43.2283 444.449 43.192 444.261 43.3324C444.212 43.3686 439.266 47.0412 434.557 47.3039C434.437 47.3084 434.325 47.3673 434.249 47.4669C434.173 47.562 434.142 47.6888 434.16 47.8065C434.173 47.888 435.504 55.6407 444.963 55.6407V55.6452Z" fill="black"/>
<path d="M458.76 41.0229L462.405 54.8618C462.405 54.8618 456.829 54.2822 455.757 55.8038L450.753 41.6796" fill="black"/>
<path d="M455.757 56.2343C455.896 56.2343 456.025 56.1664 456.106 56.0532C456.78 55.0977 460.301 55.0796 462.361 55.2924C462.499 55.306 462.638 55.2516 462.731 55.143C462.825 55.0343 462.857 54.8848 462.821 54.749L459.175 40.9101C459.113 40.6791 458.876 40.5388 458.652 40.6022C458.424 40.6656 458.286 40.901 458.349 41.132L461.838 54.3731C460.48 54.278 457.401 54.1739 455.954 55.0614L451.16 41.5305C451.079 41.3041 450.834 41.1863 450.61 41.2678C450.387 41.3494 450.271 41.5984 450.351 41.8248L455.355 55.949C455.409 56.103 455.543 56.2117 455.699 56.2343C455.717 56.2343 455.739 56.2343 455.757 56.2343Z" fill="black"/>
<path d="M464.166 7.56677C464.166 7.56677 478.087 6.78788 480.339 18.4078C482.591 30.0278 471.435 33.4513 471.435 33.4513C471.435 33.4513 463.196 36.2 453.318 32.5184C443.439 28.8368 445.794 17.9912 445.794 17.9912C445.794 17.9912 447.585 7.15015 464.17 7.56224L464.166 7.56677Z" fill="#EBABAB"/>
<path d="M453.166 32.9263C443.055 29.1541 445.347 18.0096 445.369 17.9236C445.387 17.8059 445.87 15.048 448.452 12.3265C452.723 7.82067 459.34 7.0146 464.161 7.13687C464.76 7.1097 478.503 6.67497 480.759 18.3312C483.06 30.2002 471.672 33.841 471.564 33.8727C471.363 33.9407 468.423 34.8916 464 34.8916C460.953 34.8916 457.205 34.4388 453.166 32.9308V32.9263ZM464.188 8.0018C464.188 8.0018 464.166 8.0018 464.152 8.0018C448.148 7.6033 446.285 17.6383 446.209 18.0866C446.115 18.5123 444.06 28.6062 453.461 32.1112C463.071 35.6932 471.216 33.0667 471.305 33.035C471.412 33.0033 482.068 29.5979 479.915 18.4896C479.012 13.8435 476.113 10.669 471.292 9.04787C468.459 8.0969 465.756 7.98822 464.675 7.98822C464.367 7.98822 464.188 7.99727 464.183 7.99727L464.188 8.0018Z" fill="black"/>
<mask id="mask0_1500_4515" style="mask-type:luminance" maskUnits="userSpaceOnUse" x="446" y="7" width="35" height="28">
<path d="M464.148 7.93854C464.148 7.93854 477.699 7.18229 479.892 18.4581C482.086 29.7294 471.22 33.0532 471.22 33.0532C471.22 33.0532 463.196 35.7205 453.581 32.1475C443.966 28.5746 446.258 18.0551 446.258 18.0551C446.258 18.0551 448.001 7.53551 464.148 7.93854Z" fill="white"/>
</mask>
<g mask="url(#mask0_1500_4515)">
<path opacity="0.25" d="M455.521 28.2476C456.813 26.411 456.099 23.6483 453.925 22.0769C451.752 20.5055 448.942 20.7204 447.65 22.557C446.357 24.3935 447.071 27.1562 449.245 28.7276C451.419 30.2991 454.228 30.0841 455.521 28.2476Z" fill="url(#paint1_radial_1500_4515)"/>
<path opacity="0.25" d="M477.46 28.3827C479.457 26.5902 479.879 23.7681 478.403 22.0793C476.928 20.3905 474.113 20.4746 472.116 22.2671C470.119 24.0596 469.697 26.8817 471.172 28.5705C472.648 30.2593 475.463 30.1752 477.46 28.3827Z" fill="url(#paint2_radial_1500_4515)"/>
</g>
<path d="M463.612 28.7598C464.099 28.7598 465.251 28.6829 466.002 27.9945C466.44 27.5915 466.668 27.0617 466.686 26.4096C466.699 25.8118 466.502 25.3092 466.096 24.9197C465.082 23.9461 463.08 24.091 462.995 24.0956C462.758 24.1137 462.584 24.322 462.602 24.562C462.62 24.802 462.821 24.9786 463.062 24.9605C463.536 24.9243 464.894 24.9605 465.506 25.5492C465.729 25.762 465.832 26.0383 465.823 26.387C465.814 26.7945 465.685 27.107 465.421 27.347C464.858 27.8677 463.799 27.913 463.442 27.8813C463.196 27.8677 463 28.0444 462.982 28.2844C462.964 28.5244 463.143 28.7327 463.379 28.7508C463.393 28.7508 463.478 28.7598 463.607 28.7598H463.612Z" fill="black"/>
<path d="M463.531 31.7038C467.963 31.7038 470.51 30.0056 470.666 29.8969C470.863 29.7611 470.912 29.4939 470.782 29.2946C470.653 29.0954 470.385 29.0456 470.188 29.1769C470.188 29.1769 468.79 30.1143 466.324 30.5671C464.045 30.9883 460.346 31.0788 455.672 29.1362C455.453 29.0456 455.203 29.1497 455.114 29.3716C455.024 29.5935 455.127 29.8471 455.346 29.9377C458.523 31.26 461.27 31.6992 463.531 31.6992V31.7038Z" fill="black"/>
<path d="M474.647 15.3421C474.79 15.3421 474.924 15.2696 475.009 15.1429C475.139 14.9391 475.081 14.6719 474.88 14.5406C474.763 14.4636 472.025 12.7066 469.053 13.5534C468.826 13.6168 468.692 13.8568 468.759 14.0877C468.821 14.3187 469.058 14.4545 469.286 14.3866C471.886 13.6439 474.388 15.2515 474.415 15.2697C474.486 15.3149 474.567 15.3376 474.647 15.3376V15.3421Z" fill="black"/>
<path d="M453.166 14.7038C453.233 14.7038 453.304 14.6857 453.367 14.654C453.394 14.6404 456.025 13.2457 458.55 14.1921C458.773 14.2781 459.019 14.1604 459.099 13.934C459.179 13.7076 459.068 13.4585 458.844 13.377C455.958 12.2902 453.081 13.8208 452.96 13.8842C452.75 13.9974 452.674 14.26 452.786 14.4729C452.862 14.6178 453.014 14.7038 453.166 14.7038Z" fill="black"/>
<path d="M471.223 24.5047C473.723 24.2128 475.583 22.5079 475.378 20.6967C475.172 18.8854 472.978 17.6538 470.478 17.9456C467.977 18.2375 466.117 19.9424 466.323 21.7537C466.529 23.5649 468.723 24.7966 471.223 24.5047Z" fill="white"/>
<path d="M460.859 21.7589C461.064 19.9476 459.204 18.2427 456.704 17.9508C454.204 17.659 452.01 18.8907 451.804 20.7019C451.598 22.5131 453.458 24.2181 455.959 24.5099C458.459 24.8018 460.653 23.5701 460.859 21.7589Z" fill="white"/>
<path d="M454.488 18.0229C455.614 18.5256 456.409 19.7392 456.409 21.1566C456.409 22.642 455.538 23.8963 454.327 24.3537C452.5 23.688 451.477 22.2797 451.642 20.7762C451.79 19.4222 452.866 18.3716 454.488 18.0229Z" fill="#005CA3"/>
<path d="M469.161 18.1499C470.148 18.7205 470.827 19.8662 470.827 21.193C470.827 22.8504 469.768 24.2361 468.361 24.5531C467.043 24.0957 466.185 23.1266 466.051 21.913C465.872 20.2783 467.07 18.7522 469.156 18.1499H469.161Z" fill="#005CA3"/>
<path d="M455.909 25.0783C454.506 24.9153 453.322 24.4081 452.487 23.6202C451.656 22.8277 451.258 21.8224 451.379 20.7899C451.495 19.7529 452.107 18.8653 453.094 18.2857C454.082 17.706 455.346 17.4887 456.753 17.6517C459.622 17.9868 461.525 19.7891 461.284 21.9447C461.065 23.8738 459.229 25.1327 456.785 25.1327C456.503 25.1327 456.208 25.1146 455.913 25.0829L455.909 25.0783ZM460.43 21.845C460.618 20.1922 459.028 18.7929 456.655 18.5166C455.453 18.3762 454.341 18.5619 453.523 19.0374C452.777 19.4721 452.317 20.1288 452.232 20.885C452.147 21.6412 452.446 22.3839 453.076 22.9817C453.764 23.6338 454.805 24.073 456.007 24.2134C458.38 24.4896 460.243 23.4934 460.43 21.8405V21.845Z" fill="black"/>
<path d="M465.895 21.9449C465.649 19.7939 467.557 17.987 470.425 17.6519C473.293 17.3168 475.554 18.6346 475.8 20.7856C476.046 22.9366 474.138 24.7435 471.269 25.0786C470.97 25.1148 470.68 25.1284 470.398 25.1284C467.954 25.1284 466.118 23.8695 465.899 21.9404L465.895 21.9449ZM470.523 18.5169C468.146 18.7931 466.56 20.1924 466.748 21.8453C466.936 23.4981 468.794 24.4944 471.171 24.2182C473.548 23.9419 475.134 22.5426 474.947 20.8898C474.781 19.4226 473.293 18.4716 471.301 18.4716C471.051 18.4716 470.791 18.4852 470.523 18.5169Z" fill="black"/>
<path d="M469.389 24.8068C469.487 24.8068 469.59 24.7706 469.67 24.6981C469.733 24.6438 471.202 23.3079 471.234 21.2656C471.265 19.187 469.956 18.2225 469.902 18.1817C469.71 18.0413 469.442 18.0911 469.304 18.2859C469.17 18.4806 469.214 18.7523 469.402 18.8881C469.447 18.9244 470.398 19.6489 470.376 21.252C470.354 22.9049 469.116 24.0324 469.103 24.046C468.924 24.2045 468.91 24.4808 469.067 24.6574C469.152 24.757 469.268 24.8023 469.389 24.8023V24.8068Z" fill="black"/>
<path d="M454.94 24.807C455.042 24.807 455.145 24.7707 455.225 24.6937C455.288 24.6349 456.754 23.2763 456.785 21.1933C456.816 19.074 455.511 18.0913 455.453 18.0505C455.261 17.9102 454.993 17.9509 454.855 18.1456C454.716 18.3404 454.756 18.6075 454.948 18.7524C454.993 18.7841 455.949 19.5313 455.927 21.1797C455.905 22.8733 454.667 24.0371 454.654 24.0462C454.479 24.2092 454.466 24.4809 454.622 24.6575C454.707 24.7526 454.823 24.8024 454.94 24.8024V24.807Z" fill="black"/>
</g>
<path d="M285.215 21.605V20.945C285.215 20.39 285.32 19.91 285.53 19.505H284.48V17.45H287.885V16.1H290.825V17.45H294.215V19.505H293.18C293.39 19.91 293.495 20.39 293.495 20.945V21.605C293.495 24.08 291.8 25.175 289.355 25.175C286.91 25.175 285.215 24.08 285.215 21.605ZM295.25 30.14V16.145H298.1V30.14H295.25ZM290.825 21.77V20.705C290.825 19.88 290.24 19.415 289.355 19.415C288.47 19.415 287.885 19.88 287.885 20.705V21.77C287.885 22.61 288.47 23.06 289.355 23.06C290.24 23.06 290.825 22.61 290.825 21.77ZM290.705 25.655V27.23H291.365C292.91 27.23 293.72 27.17 294.515 27.05V29.435C293.72 29.555 292.91 29.615 291.365 29.615H284.6V27.23H287.945V25.655H290.705ZM306.215 26.735V24.77H309.65V16.145H312.5V27.29H309.65V26.735H306.215ZM305.465 21.305H302.075C300.32 21.305 299.345 20.315 299.345 18.86V18.815C299.345 17.375 300.32 16.385 302.075 16.385H305.465C307.235 16.385 308.195 17.375 308.195 18.815V18.86C308.195 20.315 307.235 21.305 305.465 21.305ZM302.045 18.83V18.875C302.045 19.22 302.3 19.49 302.78 19.49H304.775C305.255 19.49 305.495 19.22 305.495 18.875V18.83C305.495 18.47 305.255 18.185 304.775 18.185H302.78C302.3 18.185 302.045 18.47 302.045 18.83ZM302.87 26.615V28.01H312.785V30.14H299.975V25.805H302.27V24.14H299V22.055H305.765C307.31 22.055 308.12 21.995 308.915 21.875V23.96C308.12 24.08 307.31 24.14 305.765 24.14H305.03V26.615H302.87ZM330.054 21.38H331.479V23.84H330.054V30.14H327.204V16.145H330.054V21.38ZM322.749 19.025H317.424V16.595H325.554V20.165C325.554 25.88 321.939 29.315 317.349 29.66V27.035C320.349 26.57 322.749 24.26 322.749 20.285V19.025ZM342.054 16.145H344.904V23.69H342.054V16.145ZM335.949 23.555C333.489 23.555 331.674 22.43 331.674 20.255V19.52C331.674 17.36 333.474 16.22 335.934 16.22C338.409 16.22 340.209 17.345 340.209 19.52V20.255C340.209 22.43 338.409 23.555 335.949 23.555ZM334.449 19.52V20.24C334.449 20.96 335.004 21.5 335.934 21.5C336.864 21.5 337.434 20.96 337.434 20.24V19.52C337.434 18.8 336.864 18.26 335.934 18.275C335.004 18.29 334.449 18.8 334.449 19.52ZM342.069 25.355V24.245H344.919V30.14H332.304V24.245H335.154V25.355H342.069ZM335.154 27.17V28.25H342.069V27.17H335.154ZM348.759 16.13H351.654V17.705H354.789V19.91H353.829C354.024 20.315 354.129 20.795 354.129 21.335V26.03C354.129 28.64 352.509 29.855 350.214 29.855C347.934 29.855 346.299 28.64 346.299 26.03V21.335C346.299 20.795 346.404 20.315 346.599 19.91H345.639V17.705H348.759V16.13ZM358.854 21.38H360.279V23.84H358.854V30.14H356.004V16.145H358.854V21.38ZM351.429 26.195V21.05C351.429 20.135 350.949 19.79 350.214 19.79C349.479 19.79 348.984 20.135 348.984 21.05V26.195C348.984 27.11 349.479 27.515 350.214 27.515C350.949 27.515 351.429 27.11 351.429 26.195ZM370.419 20.27V18.935H360.699V16.505H373.224V20.27C373.224 22.52 373.029 23.885 372.474 25.73H369.579C370.179 23.87 370.419 22.25 370.419 20.27ZM367.434 21.83V27.455H374.004V29.765H360.204V27.455H364.524V21.83H367.434ZM371.788 36.13H374.683V37.705H377.818V39.91H376.858C377.053 40.315 377.158 40.795 377.158 41.335V46.03C377.158 48.64 375.538 49.855 373.243 49.855C370.963 49.855 369.328 48.64 369.328 46.03V41.335C369.328 40.795 369.433 40.315 369.628 39.91H368.668V37.705H371.788V36.13ZM381.883 41.38H383.308V43.84H381.883V50.14H379.033V36.145H381.883V41.38ZM374.458 46.195V41.05C374.458 40.135 373.978 39.79 373.243 39.79C372.508 39.79 372.013 40.135 372.013 41.05V46.195C372.013 47.11 372.508 47.515 373.243 47.515C373.978 47.515 374.458 47.11 374.458 46.195ZM396.733 50.14H393.883V36.145H396.733V50.14ZM383.578 49.69V47.065C386.608 46.615 389.053 44.275 389.053 40.255V39.055H383.653V36.625H391.858V40.15C391.858 45.895 388.198 49.36 383.578 49.69Z" fill="white"/>
<path d="M284.375 39.22V36.655H292.85V38.86L289.115 49.81H286.16L289.865 39.22H284.375ZM293.499 39.97V39.43C293.499 37.27 295.299 36.145 297.759 36.145C300.234 36.145 302.034 37.255 302.034 39.43V39.97C302.034 42.145 300.234 43.255 297.774 43.255C295.314 43.255 293.499 42.145 293.499 39.97ZM306.729 43.315H303.879V36.145H306.729V43.315ZM296.274 39.43V39.97C296.274 40.675 296.829 41.2 297.759 41.2C298.689 41.2 299.259 40.675 299.259 39.97V39.43C299.259 38.725 298.689 38.185 297.759 38.2C296.829 38.215 296.274 38.725 296.274 39.43ZM306.954 50.14H294.234V46.165H303.894V45.46H294.234V43.765H306.714V47.695H297.174V48.415H306.954V50.14ZM311.833 36.355H324.433V43.3H311.833V36.355ZM314.668 41.05H321.598V38.605H314.668V41.05ZM311.233 44.38H325.033V46.69H319.588V50.215H316.678V46.69H311.233V44.38ZM326.203 39.76H335.728V38.785H326.128V36.505H338.698V41.905H329.158V42.91H338.908V45.145H326.203V39.76ZM336.613 45.655V47.53H339.433V49.765H325.633V47.53H328.453V45.655H331.213V47.53H333.853V45.655H336.613ZM344.818 43.57C346.663 44.395 347.608 46.12 347.368 49.255H345.028C345.148 47.635 344.923 46.555 344.278 45.865C343.603 47.605 342.313 48.94 339.958 49.645V46.885C341.713 46.105 342.448 44.38 342.448 42.04V40.075H340.078V37.735H342.373V36.13H345.013V37.735H347.293V40.075H344.953V41.2C344.953 42.025 344.923 42.82 344.818 43.57ZM345.748 41.17H347.983V36.145H350.383V50.14H347.983V43.585H345.748V41.17ZM351.283 50.14V36.145H353.758V50.14H351.283ZM354.898 41.155V40.21C354.898 39.835 354.973 39.505 355.123 39.205H354.268V37.255H357.313V36.055H360.178V37.255H363.208V39.205H362.338C362.488 39.505 362.563 39.835 362.563 40.21V41.155C362.563 43.075 361.048 44.23 358.738 44.23C356.413 44.23 354.898 43.075 354.898 41.155ZM363.148 41.74V39.4H365.083V36.145H367.933V44.29H365.083V41.74H363.148ZM360.013 41.08V40.105C360.013 39.43 359.488 39.04 358.738 39.04C357.973 39.04 357.448 39.43 357.448 40.105V41.08C357.448 41.755 357.838 42.19 358.738 42.19C359.488 42.19 360.013 41.755 360.013 41.08ZM355.318 50.14V44.815H367.948V50.14H355.318ZM358.123 48.235H365.143V46.705H358.123V48.235Z" fill="#F7EBA1"/>
<path d="M494.048 41.12C494.208 41.12 494.348 41.16 494.468 41.24C494.596 41.32 494.66 41.448 494.66 41.624V42.824C494.66 43.224 494.724 43.572 494.852 43.868C494.98 44.156 495.188 44.428 495.476 44.684C495.756 44.924 496.016 45.14 496.256 45.332C496.496 45.524 496.72 45.7 496.928 45.86C497.064 45.972 497.132 46.096 497.132 46.232C497.132 46.368 497.088 46.492 497 46.604C496.92 46.716 496.812 46.796 496.676 46.844C496.54 46.884 496.404 46.852 496.268 46.748C496.076 46.612 495.864 46.452 495.632 46.268C495.408 46.076 495.168 45.872 494.912 45.656C494.624 45.4 494.42 45.2 494.3 45.056C494.18 44.904 494.104 44.76 494.072 44.624H494.06C494.028 44.76 493.952 44.912 493.832 45.08C493.712 45.24 493.5 45.452 493.196 45.716C492.94 45.94 492.684 46.156 492.428 46.364C492.172 46.564 491.916 46.756 491.66 46.94C491.524 47.044 491.384 47.076 491.24 47.036C491.104 46.988 490.996 46.908 490.916 46.796C490.828 46.684 490.78 46.556 490.772 46.412C490.772 46.268 490.844 46.14 490.988 46.028C491.268 45.82 491.54 45.612 491.804 45.404C492.068 45.196 492.34 44.968 492.62 44.72C492.908 44.464 493.116 44.192 493.244 43.904C493.372 43.608 493.436 43.264 493.436 42.872V41.624C493.436 41.448 493.496 41.32 493.616 41.24C493.744 41.16 493.888 41.12 494.048 41.12ZM498.968 40.664C499.128 40.664 499.268 40.704 499.388 40.784C499.508 40.864 499.568 40.992 499.568 41.168V48.272C499.568 48.448 499.508 48.576 499.388 48.656C499.268 48.736 499.128 48.776 498.968 48.776C498.808 48.776 498.668 48.736 498.548 48.656C498.428 48.576 498.368 48.448 498.368 48.272V41.168C498.368 40.992 498.428 40.864 498.548 40.784C498.668 40.704 498.808 40.664 498.968 40.664ZM493.172 47.768C493.324 47.768 493.46 47.808 493.58 47.888C493.708 47.968 493.772 48.096 493.772 48.272V50.3C493.772 50.388 493.788 50.448 493.82 50.48C493.86 50.52 493.928 50.54 494.024 50.54H499.424C499.576 50.54 499.684 50.592 499.748 50.696C499.82 50.8 499.856 50.924 499.856 51.068C499.856 51.204 499.82 51.324 499.748 51.428C499.684 51.532 499.576 51.584 499.424 51.584H493.484C493.132 51.584 492.888 51.52 492.752 51.392C492.624 51.264 492.56 51.028 492.56 50.684V48.272C492.56 48.096 492.62 47.968 492.74 47.888C492.868 47.808 493.012 47.768 493.172 47.768ZM503.95 40.544C504.11 40.544 504.25 40.584 504.37 40.664C504.49 40.744 504.55 40.872 504.55 41.048V41.936H506.542C506.686 41.936 506.79 41.988 506.854 42.092C506.926 42.196 506.962 42.316 506.962 42.452C506.962 42.588 506.926 42.708 506.854 42.812C506.79 42.908 506.686 42.956 506.542 42.956H504.55V43.544C504.55 43.904 504.606 44.2 504.718 44.432C504.838 44.664 505.034 44.88 505.306 45.08C505.586 45.288 505.846 45.476 506.086 45.644C506.326 45.804 506.538 45.944 506.722 46.064C506.858 46.152 506.934 46.268 506.95 46.412C506.974 46.556 506.942 46.684 506.854 46.796C506.79 46.9 506.69 46.976 506.554 47.024C506.426 47.072 506.282 47.048 506.122 46.952C505.986 46.864 505.806 46.748 505.582 46.604C505.366 46.452 505.134 46.284 504.886 46.1C504.574 45.876 504.35 45.688 504.214 45.536C504.078 45.384 503.998 45.248 503.974 45.128H503.962C503.93 45.264 503.842 45.412 503.698 45.572C503.562 45.732 503.334 45.928 503.014 46.16C502.758 46.344 502.51 46.52 502.27 46.688C502.03 46.848 501.794 47.004 501.562 47.156C501.426 47.244 501.29 47.264 501.154 47.216C501.018 47.16 500.918 47.08 500.854 46.976C500.774 46.856 500.738 46.728 500.746 46.592C500.754 46.448 500.83 46.328 500.974 46.232C501.238 46.056 501.502 45.88 501.766 45.704C502.03 45.52 502.306 45.324 502.594 45.116C502.866 44.908 503.058 44.692 503.17 44.468C503.29 44.236 503.35 43.94 503.35 43.58V42.956H501.274C501.122 42.956 501.01 42.908 500.938 42.812C500.874 42.708 500.842 42.588 500.842 42.452C500.842 42.316 500.874 42.196 500.938 42.092C501.01 41.988 501.122 41.936 501.274 41.936H503.35V41.048C503.35 40.872 503.41 40.744 503.53 40.664C503.658 40.584 503.798 40.544 503.95 40.544ZM509.014 40.664C509.166 40.664 509.302 40.704 509.422 40.784C509.542 40.864 509.602 40.992 509.602 41.168V46.988C509.602 47.156 509.542 47.28 509.422 47.36C509.302 47.44 509.166 47.48 509.014 47.48C508.854 47.48 508.714 47.44 508.594 47.36C508.474 47.28 508.414 47.156 508.414 46.988V44.876H506.722C506.578 44.876 506.47 44.824 506.398 44.72C506.334 44.616 506.302 44.496 506.302 44.36C506.302 44.224 506.334 44.104 506.398 44C506.47 43.896 506.578 43.844 506.722 43.844H508.414V41.168C508.414 40.992 508.474 40.864 508.594 40.784C508.714 40.704 508.854 40.664 509.014 40.664ZM506.146 47.588C507.266 47.588 508.13 47.768 508.738 48.128C509.354 48.488 509.662 49.024 509.662 49.736C509.662 50.456 509.354 50.992 508.738 51.344C508.13 51.704 507.266 51.884 506.146 51.884C505.026 51.884 504.158 51.704 503.542 51.344C502.934 50.992 502.63 50.456 502.63 49.736C502.63 49.016 502.934 48.48 503.542 48.128C504.158 47.768 505.026 47.588 506.146 47.588ZM506.146 48.56C505.33 48.56 504.738 48.668 504.37 48.884C504.002 49.092 503.818 49.376 503.818 49.736C503.818 50.096 504.002 50.38 504.37 50.588C504.738 50.804 505.33 50.912 506.146 50.912C506.962 50.912 507.554 50.804 507.922 50.588C508.29 50.38 508.474 50.096 508.474 49.736C508.474 49.376 508.29 49.092 507.922 48.884C507.554 48.668 506.962 48.56 506.146 48.56ZM511.44 41.372C511.592 41.372 511.728 41.412 511.848 41.492C511.976 41.572 512.04 41.7 512.04 41.876V43.94H514.836V41.876C514.836 41.7 514.896 41.572 515.016 41.492C515.136 41.412 515.272 41.372 515.424 41.372C515.576 41.372 515.712 41.412 515.832 41.492C515.952 41.572 516.012 41.7 516.012 41.876V47.384C516.012 47.728 515.944 47.964 515.808 48.092C515.68 48.22 515.44 48.284 515.088 48.284H511.776C511.424 48.284 511.18 48.22 511.044 48.092C510.916 47.964 510.852 47.728 510.852 47.384V41.876C510.852 41.7 510.912 41.572 511.032 41.492C511.152 41.412 511.288 41.372 511.44 41.372ZM512.04 47.012C512.04 47.108 512.056 47.176 512.088 47.216C512.128 47.248 512.196 47.264 512.292 47.264H514.584C514.672 47.264 514.736 47.248 514.776 47.216C514.816 47.176 514.836 47.108 514.836 47.012V44.96H512.04V47.012ZM518.376 40.664C518.536 40.664 518.676 40.704 518.796 40.784C518.916 40.864 518.976 40.992 518.976 41.168V44.288H520.296C520.456 44.288 520.568 44.34 520.632 44.444C520.704 44.54 520.74 44.66 520.74 44.804C520.74 44.948 520.704 45.072 520.632 45.176C520.568 45.28 520.456 45.332 520.296 45.332H518.976V50.528C518.976 50.704 518.916 50.832 518.796 50.912C518.676 50.992 518.536 51.032 518.376 51.032C518.216 51.032 518.076 50.992 517.956 50.912C517.836 50.832 517.776 50.704 517.776 50.528V41.168C517.776 40.992 517.836 40.864 517.956 40.784C518.076 40.704 518.216 40.664 518.376 40.664ZM528.146 41.288C528.498 41.288 528.738 41.352 528.866 41.48C529.002 41.608 529.07 41.844 529.07 42.188V43.784C529.07 44.12 529.002 44.352 528.866 44.48C528.738 44.608 528.498 44.672 528.146 44.672H523.238C523.07 44.672 522.986 44.756 522.986 44.924V45.824C522.986 45.984 523.07 46.064 523.238 46.064H528.914C529.058 46.064 529.162 46.116 529.226 46.22C529.298 46.324 529.334 46.444 529.334 46.58C529.334 46.716 529.298 46.836 529.226 46.94C529.162 47.036 529.058 47.084 528.914 47.084H522.734C522.382 47.084 522.138 47.02 522.002 46.892C521.874 46.764 521.81 46.528 521.81 46.184V44.588C521.81 44.244 521.874 44.012 522.002 43.892C522.138 43.764 522.382 43.7 522.734 43.7H527.642C527.81 43.7 527.894 43.616 527.894 43.448V42.56C527.894 42.392 527.81 42.308 527.642 42.308H522.206C522.062 42.308 521.954 42.26 521.882 42.164C521.818 42.06 521.786 41.94 521.786 41.804C521.786 41.668 521.818 41.548 521.882 41.444C521.954 41.34 522.062 41.288 522.206 41.288H528.146ZM526.046 48.968H530.066C530.21 48.968 530.314 49.02 530.378 49.124C530.45 49.22 530.486 49.336 530.486 49.472C530.486 49.608 530.45 49.728 530.378 49.832C530.314 49.936 530.21 49.988 530.066 49.988H520.826C520.682 49.988 520.574 49.936 520.502 49.832C520.438 49.728 520.406 49.608 520.406 49.472C520.406 49.336 520.438 49.22 520.502 49.124C520.574 49.02 520.682 48.968 520.826 48.968H524.846V46.568H526.046V48.968ZM534.82 41.492C535.172 41.492 535.412 41.556 535.54 41.684C535.676 41.812 535.744 42.048 535.744 42.392V43.724C535.744 44.06 535.724 44.364 535.684 44.636C535.644 44.9 535.568 45.152 535.456 45.392C535.344 45.632 535.188 45.868 534.988 46.1C534.796 46.324 534.54 46.564 534.22 46.82C533.908 47.068 533.528 47.34 533.08 47.636C532.632 47.932 532.104 48.268 531.496 48.644C531.36 48.724 531.224 48.74 531.088 48.692C530.952 48.636 530.844 48.552 530.764 48.44C530.684 48.328 530.644 48.196 530.644 48.044C530.652 47.892 530.724 47.772 530.86 47.684C531.42 47.34 531.9 47.04 532.3 46.784C532.7 46.52 533.036 46.284 533.308 46.076C533.588 45.86 533.808 45.664 533.968 45.488C534.128 45.304 534.252 45.124 534.34 44.948C534.428 44.764 534.484 44.572 534.508 44.372C534.532 44.164 534.544 43.932 534.544 43.676V42.776C534.544 42.688 534.524 42.628 534.484 42.596C534.452 42.556 534.388 42.536 534.292 42.536H531.196C531.044 42.536 530.932 42.484 530.86 42.38C530.796 42.276 530.764 42.156 530.764 42.02C530.764 41.876 530.796 41.752 530.86 41.648C530.932 41.544 531.044 41.492 531.196 41.492H534.82ZM538.3 40.664C538.46 40.664 538.6 40.704 538.72 40.784C538.84 40.864 538.9 40.992 538.9 41.168V44.288H540.22C540.38 44.288 540.492 44.34 540.556 44.444C540.628 44.54 540.664 44.66 540.664 44.804C540.664 44.948 540.628 45.072 540.556 45.176C540.492 45.28 540.38 45.332 540.22 45.332H538.9V50.528C538.9 50.704 538.84 50.832 538.72 50.912C538.6 50.992 538.46 51.032 538.3 51.032C538.14 51.032 538 50.992 537.88 50.912C537.76 50.832 537.7 50.704 537.7 50.528V41.168C537.7 40.992 537.76 40.864 537.88 40.784C538 40.704 538.14 40.664 538.3 40.664ZM545.046 41.48C545.398 41.48 545.638 41.544 545.766 41.672C545.902 41.8 545.97 42.036 545.97 42.38V43.736C545.97 44.072 545.95 44.376 545.91 44.648C545.87 44.912 545.794 45.164 545.682 45.404C545.57 45.644 545.414 45.88 545.214 46.112C545.014 46.336 544.754 46.576 544.434 46.832C544.122 47.08 543.742 47.352 543.294 47.648C542.846 47.944 542.314 48.28 541.698 48.656C541.562 48.736 541.426 48.752 541.29 48.704C541.154 48.648 541.046 48.564 540.966 48.452C540.886 48.34 540.846 48.208 540.846 48.056C540.854 47.904 540.926 47.784 541.062 47.696C541.63 47.352 542.114 47.052 542.514 46.796C542.922 46.532 543.262 46.296 543.534 46.088C543.806 45.872 544.022 45.676 544.182 45.5C544.35 45.316 544.478 45.136 544.566 44.96C544.654 44.776 544.71 44.584 544.734 44.384C544.758 44.176 544.77 43.944 544.77 43.688V42.764C544.77 42.676 544.75 42.616 544.71 42.584C544.678 42.544 544.614 42.524 544.518 42.524H541.398C541.246 42.524 541.134 42.472 541.062 42.368C540.998 42.264 540.966 42.144 540.966 42.008C540.966 41.864 540.998 41.74 541.062 41.636C541.134 41.532 541.246 41.48 541.398 41.48H545.046ZM548.766 40.664C548.926 40.664 549.066 40.704 549.186 40.784C549.314 40.864 549.378 40.992 549.378 41.168V50.528C549.378 50.704 549.314 50.832 549.186 50.912C549.066 50.992 548.926 51.032 548.766 51.032C548.614 51.032 548.474 50.992 548.346 50.912C548.226 50.832 548.166 50.704 548.166 50.528V41.168C548.166 40.992 548.226 40.864 548.346 40.784C548.474 40.704 548.614 40.664 548.766 40.664Z" fill="white"/>
<path d="M556.05 41.0503L561 46L556.05 50.9498" stroke="white" stroke-width="2"/>
<defs>
<linearGradient id="paint0_linear_1500_4515" x1="1034.35" y1="23.8" x2="-22.599" y2="37.4257" gradientUnits="userSpaceOnUse">
<stop stop-color="#4416CE"/>
<stop offset="1" stop-color="#DD468F"/>
</linearGradient>
<radialGradient id="paint1_radial_1500_4515" cx="0" cy="0" r="1" gradientUnits="userSpaceOnUse" gradientTransform="translate(460.7 29.6531) rotate(-143.693) scale(4.83211 4.05728)">
<stop stop-color="#D9315C" stop-opacity="0.8"/>
<stop offset="0.14" stop-color="#D9315D" stop-opacity="0.78"/>
<stop offset="0.26" stop-color="#D93160" stop-opacity="0.73"/>
<stop offset="0.38" stop-color="#D93166" stop-opacity="0.65"/>
<stop offset="0.49" stop-color="#D9316F" stop-opacity="0.54"/>
<stop offset="0.54" stop-color="#D93174" stop-opacity="0.47"/>
<stop offset="0.58" stop-color="#D9366F" stop-opacity="0.42"/>
<stop offset="0.77" stop-color="#DB4F5A" stop-opacity="0.19"/>
<stop offset="0.91" stop-color="#DD5E4D" stop-opacity="0.05"/>
<stop offset="1" stop-color="#DE6449" stop-opacity="0"/>
</radialGradient>
<radialGradient id="paint2_radial_1500_4515" cx="0" cy="0" r="1" gradientUnits="userSpaceOnUse" gradientTransform="translate(480.533 21.0973) rotate(-42.374) scale(4.83884 4.05163)">
<stop stop-color="#D9315C" stop-opacity="0.8"/>
<stop offset="0.14" stop-color="#D9315D" stop-opacity="0.78"/>
<stop offset="0.26" stop-color="#D93160" stop-opacity="0.73"/>
<stop offset="0.38" stop-color="#D93166" stop-opacity="0.65"/>
<stop offset="0.49" stop-color="#D9316F" stop-opacity="0.54"/>
<stop offset="0.54" stop-color="#D93174" stop-opacity="0.47"/>
<stop offset="0.58" stop-color="#D9366F" stop-opacity="0.42"/>
<stop offset="0.77" stop-color="#DB4F5A" stop-opacity="0.19"/>
<stop offset="0.91" stop-color="#DD5E4D" stop-opacity="0.05"/>
<stop offset="1" stop-color="#DE6449" stop-opacity="0"/>
</radialGradient>
<clipPath id="clip0_1500_4515">
<rect width="84" height="63" fill="white" transform="translate(402)"/>
</clipPath>
</defs>
</svg>
