<svg width="1100" height="154" viewBox="0 0 1100 154" fill="none" xmlns="http://www.w3.org/2000/svg">
<path d="M0 64C0 36.3858 22.3858 14 50 14H1050C1077.61 14 1100 36.3858 1100 64V94H0V64Z" fill="url(#paint0_linear_1644_12562)"/>
<path d="M231.43 53.21V51.89C231.43 50.78 231.64 49.82 232.06 49.01H229.96V44.9H236.77V42.2H242.65V44.9H249.43V49.01H247.36C247.78 49.82 247.99 50.78 247.99 51.89V53.21C247.99 58.16 244.6 60.35 239.71 60.35C234.82 60.35 231.43 58.16 231.43 53.21ZM251.5 70.28V42.29H257.2V70.28H251.5ZM242.65 53.54V51.41C242.65 49.76 241.48 48.83 239.71 48.83C237.94 48.83 236.77 49.76 236.77 51.41V53.54C236.77 55.22 237.94 56.12 239.71 56.12C241.48 56.12 242.65 55.22 242.65 53.54ZM242.41 61.31V64.46H243.73C246.82 64.46 248.44 64.34 250.03 64.1V68.87C248.44 69.11 246.82 69.23 243.73 69.23H230.2V64.46H236.89V61.31H242.41ZM273.43 63.47V59.54H280.3V42.29H286V64.58H280.3V63.47H273.43ZM271.93 52.61H265.15C261.64 52.61 259.69 50.63 259.69 47.72V47.63C259.69 44.75 261.64 42.77 265.15 42.77H271.93C275.47 42.77 277.39 44.75 277.39 47.63V47.72C277.39 50.63 275.47 52.61 271.93 52.61ZM265.09 47.66V47.75C265.09 48.44 265.6 48.98 266.56 48.98H270.55C271.51 48.98 271.99 48.44 271.99 47.75V47.66C271.99 46.94 271.51 46.37 270.55 46.37H266.56C265.6 46.37 265.09 46.94 265.09 47.66ZM266.74 63.23V66.02H286.57V70.28H260.95V61.61H265.54V58.28H259V54.11H272.53C275.62 54.11 277.24 53.99 278.83 53.75V57.92C277.24 58.16 275.62 58.28 272.53 58.28H271.06V63.23H266.74ZM321.108 52.76H323.958V57.68H321.108V70.28H315.408V42.29H321.108V52.76ZM306.498 48.05H295.848V43.19H312.108V50.33C312.108 61.76 304.878 68.63 295.698 69.32V64.07C301.698 63.14 306.498 58.52 306.498 50.57V48.05ZM345.108 42.29H350.808V57.38H345.108V42.29ZM332.898 57.11C327.978 57.11 324.348 54.86 324.348 50.51V49.04C324.348 44.72 327.948 42.44 332.868 42.44C337.818 42.44 341.418 44.69 341.418 49.04V50.51C341.418 54.86 337.818 57.11 332.898 57.11ZM329.898 49.04V50.48C329.898 51.92 331.008 53 332.868 53C334.728 53 335.868 51.92 335.868 50.48V49.04C335.868 47.6 334.728 46.52 332.868 46.55C331.008 46.58 329.898 47.6 329.898 49.04ZM345.138 60.71V58.49H350.838V70.28H325.608V58.49H331.308V60.71H345.138ZM331.308 64.34V66.5H345.138V64.34H331.308ZM358.518 42.26H364.308V45.41H370.578V49.82H368.658C369.048 50.63 369.258 51.59 369.258 52.67V62.06C369.258 67.28 366.018 69.71 361.428 69.71C356.868 69.71 353.598 67.28 353.598 62.06V52.67C353.598 51.59 353.808 50.63 354.198 49.82H352.278V45.41H358.518V42.26ZM378.708 52.76H381.558V57.68H378.708V70.28H373.008V42.29H378.708V52.76ZM363.858 62.39V52.1C363.858 50.27 362.898 49.58 361.428 49.58C359.958 49.58 358.968 50.27 358.968 52.1V62.39C358.968 64.22 359.958 65.03 361.428 65.03C362.898 65.03 363.858 64.22 363.858 62.39ZM401.838 50.54V47.87H382.398V43.01H407.448V50.54C407.448 55.04 407.058 57.77 405.948 61.46H400.158C401.358 57.74 401.838 54.5 401.838 50.54ZM395.868 53.66V64.91H409.008V69.53H381.408V64.91H390.048V53.66H395.868ZM591.792 42.26H597.582V45.41H603.852V49.82H601.932C602.322 50.63 602.532 51.59 602.532 52.67V62.06C602.532 67.28 599.292 69.71 594.702 69.71C590.142 69.71 586.872 67.28 586.872 62.06V52.67C586.872 51.59 587.082 50.63 587.472 49.82H585.552V45.41H591.792V42.26ZM611.982 52.76H614.832V57.68H611.982V70.28H606.282V42.29H611.982V52.76ZM597.132 62.39V52.1C597.132 50.27 596.172 49.58 594.702 49.58C593.232 49.58 592.242 50.27 592.242 52.1V62.39C592.242 64.22 593.232 65.03 594.702 65.03C596.172 65.03 597.132 64.22 597.132 62.39ZM641.682 70.28H635.982V42.29H641.682V70.28ZM615.372 69.38V64.13C621.432 63.23 626.322 58.55 626.322 50.51V48.11H615.522V43.25H631.932V50.3C631.932 61.79 624.612 68.72 615.372 69.38Z" fill="white"/>
<path d="M416.966 48.44V43.31H433.916V47.72L426.446 69.62H420.536L427.946 48.44H416.966ZM435.213 49.94V48.86C435.213 44.54 438.813 42.29 443.733 42.29C448.683 42.29 452.283 44.51 452.283 48.86V49.94C452.283 54.29 448.683 56.51 443.763 56.51C438.843 56.51 435.213 54.29 435.213 49.94ZM461.673 56.63H455.973V42.29H461.673V56.63ZM440.763 48.86V49.94C440.763 51.35 441.873 52.4 443.733 52.4C445.593 52.4 446.733 51.35 446.733 49.94V48.86C446.733 47.45 445.593 46.37 443.733 46.4C441.873 46.43 440.763 47.45 440.763 48.86ZM462.123 70.28H436.683V62.33H456.003V60.92H436.683V57.53H461.643V65.39H442.563V66.83H462.123V70.28ZM471.882 42.71H497.082V56.6H471.882V42.71ZM477.552 52.1H491.412V47.21H477.552V52.1ZM470.682 58.76H498.282V63.38H487.392V70.43H481.572V63.38H470.682V58.76ZM500.622 49.52H519.672V47.57H500.472V43.01H525.612V53.81H506.532V55.82H526.032V60.29H500.622V49.52ZM521.442 61.31V65.06H527.082V69.53H499.482V65.06H505.122V61.31H510.642V65.06H515.922V61.31H521.442ZM537.852 57.14C541.542 58.79 543.432 62.24 542.952 68.51H538.272C538.512 65.27 538.062 63.11 536.772 61.73C535.422 65.21 532.842 67.88 528.132 69.29V63.77C531.642 62.21 533.112 58.76 533.112 54.08V50.15H528.372V45.47H532.962V42.26H538.242V45.47H542.802V50.15H538.122V52.4C538.122 54.05 538.062 55.64 537.852 57.14ZM539.712 52.34H544.182V42.29H548.982V70.28H544.182V57.17H539.712V52.34ZM550.782 70.28V42.29H555.732V70.28H550.782ZM558.012 52.31V50.42C558.012 49.67 558.162 49.01 558.462 48.41H556.752V44.51H562.842V42.11H568.572V44.51H574.632V48.41H572.892C573.192 49.01 573.342 49.67 573.342 50.42V52.31C573.342 56.15 570.312 58.46 565.692 58.46C561.042 58.46 558.012 56.15 558.012 52.31ZM574.512 53.48V48.8H578.382V42.29H584.082V58.58H578.382V53.48H574.512ZM568.242 52.16V50.21C568.242 48.86 567.192 48.08 565.692 48.08C564.162 48.08 563.112 48.86 563.112 50.21V52.16C563.112 53.51 563.892 54.38 565.692 54.38C567.192 54.38 568.242 53.51 568.242 52.16ZM558.852 70.28V59.63H584.112V70.28H558.852ZM564.462 66.47H578.502V63.41H564.462V66.47Z" fill="#F7EBA1"/>
<path d="M793.606 52.64C793.793 52.64 793.956 52.6867 794.096 52.78C794.245 52.8733 794.32 53.0227 794.32 53.228V54.628C794.32 55.0947 794.395 55.5007 794.544 55.846C794.693 56.182 794.936 56.4993 795.272 56.798C795.599 57.078 795.902 57.33 796.182 57.554C796.462 57.778 796.723 57.9833 796.966 58.17C797.125 58.3007 797.204 58.4453 797.204 58.604C797.204 58.7627 797.153 58.9073 797.05 59.038C796.957 59.1687 796.831 59.262 796.672 59.318C796.513 59.3647 796.355 59.3273 796.196 59.206C795.972 59.0473 795.725 58.8607 795.454 58.646C795.193 58.422 794.913 58.184 794.614 57.932C794.278 57.6333 794.04 57.4 793.9 57.232C793.76 57.0547 793.671 56.8867 793.634 56.728H793.62C793.583 56.8867 793.494 57.064 793.354 57.26C793.214 57.4467 792.967 57.694 792.612 58.002C792.313 58.2633 792.015 58.5153 791.716 58.758C791.417 58.9913 791.119 59.2153 790.82 59.43C790.661 59.5513 790.498 59.5887 790.33 59.542C790.171 59.486 790.045 59.3927 789.952 59.262C789.849 59.1313 789.793 58.982 789.784 58.814C789.784 58.646 789.868 58.4967 790.036 58.366C790.363 58.1233 790.68 57.8807 790.988 57.638C791.296 57.3953 791.613 57.1293 791.94 56.84C792.276 56.5413 792.519 56.224 792.668 55.888C792.817 55.5427 792.892 55.1413 792.892 54.684V53.228C792.892 53.0227 792.962 52.8733 793.102 52.78C793.251 52.6867 793.419 52.64 793.606 52.64ZM799.346 52.108C799.533 52.108 799.696 52.1547 799.836 52.248C799.976 52.3413 800.046 52.4907 800.046 52.696V60.984C800.046 61.1893 799.976 61.3387 799.836 61.432C799.696 61.5253 799.533 61.572 799.346 61.572C799.159 61.572 798.996 61.5253 798.856 61.432C798.716 61.3387 798.646 61.1893 798.646 60.984V52.696C798.646 52.4907 798.716 52.3413 798.856 52.248C798.996 52.1547 799.159 52.108 799.346 52.108ZM792.584 60.396C792.761 60.396 792.92 60.4427 793.06 60.536C793.209 60.6293 793.284 60.7787 793.284 60.984V63.35C793.284 63.4527 793.303 63.5227 793.34 63.56C793.387 63.6067 793.466 63.63 793.578 63.63H799.878C800.055 63.63 800.181 63.6907 800.256 63.812C800.34 63.9333 800.382 64.078 800.382 64.246C800.382 64.4047 800.34 64.5447 800.256 64.666C800.181 64.7873 800.055 64.848 799.878 64.848H792.948C792.537 64.848 792.253 64.7733 792.094 64.624C791.945 64.4747 791.87 64.1993 791.87 63.798V60.984C791.87 60.7787 791.94 60.6293 792.08 60.536C792.229 60.4427 792.397 60.396 792.584 60.396ZM805.158 51.968C805.345 51.968 805.508 52.0147 805.648 52.108C805.788 52.2013 805.858 52.3507 805.858 52.556V53.592H808.182C808.35 53.592 808.472 53.6527 808.546 53.774C808.63 53.8953 808.672 54.0353 808.672 54.194C808.672 54.3527 808.63 54.4927 808.546 54.614C808.472 54.726 808.35 54.782 808.182 54.782H805.858V55.468C805.858 55.888 805.924 56.2333 806.054 56.504C806.194 56.7747 806.423 57.0267 806.74 57.26C807.067 57.5027 807.37 57.722 807.65 57.918C807.93 58.1047 808.178 58.268 808.392 58.408C808.551 58.5107 808.64 58.646 808.658 58.814C808.686 58.982 808.649 59.1313 808.546 59.262C808.472 59.3833 808.355 59.472 808.196 59.528C808.047 59.584 807.879 59.556 807.692 59.444C807.534 59.3413 807.324 59.206 807.062 59.038C806.81 58.8607 806.54 58.6647 806.25 58.45C805.886 58.1887 805.625 57.9693 805.466 57.792C805.308 57.6147 805.214 57.456 805.186 57.316H805.172C805.135 57.4747 805.032 57.6473 804.864 57.834C804.706 58.0207 804.44 58.2493 804.066 58.52C803.768 58.7347 803.478 58.94 803.198 59.136C802.918 59.3227 802.643 59.5047 802.372 59.682C802.214 59.7847 802.055 59.808 801.896 59.752C801.738 59.6867 801.621 59.5933 801.546 59.472C801.453 59.332 801.411 59.1827 801.42 59.024C801.43 58.856 801.518 58.716 801.686 58.604C801.994 58.3987 802.302 58.1933 802.61 57.988C802.918 57.7733 803.24 57.5447 803.576 57.302C803.894 57.0593 804.118 56.8073 804.248 56.546C804.388 56.2753 804.458 55.93 804.458 55.51V54.782H802.036C801.859 54.782 801.728 54.726 801.644 54.614C801.57 54.4927 801.532 54.3527 801.532 54.194C801.532 54.0353 801.57 53.8953 801.644 53.774C801.728 53.6527 801.859 53.592 802.036 53.592H804.458V52.556C804.458 52.3507 804.528 52.2013 804.668 52.108C804.818 52.0147 804.981 51.968 805.158 51.968ZM811.066 52.108C811.244 52.108 811.402 52.1547 811.542 52.248C811.682 52.3413 811.752 52.4907 811.752 52.696V59.486C811.752 59.682 811.682 59.8267 811.542 59.92C811.402 60.0133 811.244 60.06 811.066 60.06C810.88 60.06 810.716 60.0133 810.576 59.92C810.436 59.8267 810.366 59.682 810.366 59.486V57.022H808.392C808.224 57.022 808.098 56.9613 808.014 56.84C807.94 56.7187 807.902 56.5787 807.902 56.42C807.902 56.2613 807.94 56.1213 808.014 56C808.098 55.8787 808.224 55.818 808.392 55.818H810.366V52.696C810.366 52.4907 810.436 52.3413 810.576 52.248C810.716 52.1547 810.88 52.108 811.066 52.108ZM807.72 60.186C809.027 60.186 810.035 60.396 810.744 60.816C811.463 61.236 811.822 61.8613 811.822 62.692C811.822 63.532 811.463 64.1573 810.744 64.568C810.035 64.988 809.027 65.198 807.72 65.198C806.414 65.198 805.401 64.988 804.682 64.568C803.973 64.1573 803.618 63.532 803.618 62.692C803.618 61.852 803.973 61.2267 804.682 60.816C805.401 60.396 806.414 60.186 807.72 60.186ZM807.72 61.32C806.768 61.32 806.078 61.446 805.648 61.698C805.219 61.9407 805.004 62.272 805.004 62.692C805.004 63.112 805.219 63.4433 805.648 63.686C806.078 63.938 806.768 64.064 807.72 64.064C808.672 64.064 809.363 63.938 809.792 63.686C810.222 63.4433 810.436 63.112 810.436 62.692C810.436 62.272 810.222 61.9407 809.792 61.698C809.363 61.446 808.672 61.32 807.72 61.32ZM813.896 52.934C814.074 52.934 814.232 52.9807 814.372 53.074C814.522 53.1673 814.596 53.3167 814.596 53.522V55.93H817.858V53.522C817.858 53.3167 817.928 53.1673 818.068 53.074C818.208 52.9807 818.367 52.934 818.544 52.934C818.722 52.934 818.88 52.9807 819.02 53.074C819.16 53.1673 819.23 53.3167 819.23 53.522V59.948C819.23 60.3493 819.151 60.6247 818.992 60.774C818.843 60.9233 818.563 60.998 818.152 60.998H814.288C813.878 60.998 813.593 60.9233 813.434 60.774C813.285 60.6247 813.21 60.3493 813.21 59.948V53.522C813.21 53.3167 813.28 53.1673 813.42 53.074C813.56 52.9807 813.719 52.934 813.896 52.934ZM814.596 59.514C814.596 59.626 814.615 59.7053 814.652 59.752C814.699 59.7893 814.778 59.808 814.89 59.808H817.564C817.667 59.808 817.742 59.7893 817.788 59.752C817.835 59.7053 817.858 59.626 817.858 59.514V57.12H814.596V59.514ZM821.988 52.108C822.175 52.108 822.338 52.1547 822.478 52.248C822.618 52.3413 822.688 52.4907 822.688 52.696V56.336H824.228C824.415 56.336 824.546 56.3967 824.62 56.518C824.704 56.63 824.746 56.77 824.746 56.938C824.746 57.106 824.704 57.2507 824.62 57.372C824.546 57.4933 824.415 57.554 824.228 57.554H822.688V63.616C822.688 63.8213 822.618 63.9707 822.478 64.064C822.338 64.1573 822.175 64.204 821.988 64.204C821.802 64.204 821.638 64.1573 821.498 64.064C821.358 63.9707 821.288 63.8213 821.288 63.616V52.696C821.288 52.4907 821.358 52.3413 821.498 52.248C821.638 52.1547 821.802 52.108 821.988 52.108ZM833.387 52.836C833.797 52.836 834.077 52.9107 834.227 53.06C834.385 53.2093 834.465 53.4847 834.465 53.886V55.748C834.465 56.14 834.385 56.4107 834.227 56.56C834.077 56.7093 833.797 56.784 833.387 56.784H827.661C827.465 56.784 827.367 56.882 827.367 57.078V58.128C827.367 58.3147 827.465 58.408 827.661 58.408H834.283C834.451 58.408 834.572 58.4687 834.647 58.59C834.731 58.7113 834.773 58.8513 834.773 59.01C834.773 59.1687 834.731 59.3087 834.647 59.43C834.572 59.542 834.451 59.598 834.283 59.598H827.073C826.662 59.598 826.377 59.5233 826.219 59.374C826.069 59.2247 825.995 58.9493 825.995 58.548V56.686C825.995 56.2847 826.069 56.014 826.219 55.874C826.377 55.7247 826.662 55.65 827.073 55.65H832.799C832.995 55.65 833.093 55.552 833.093 55.356V54.32C833.093 54.124 832.995 54.026 832.799 54.026H826.457C826.289 54.026 826.163 53.97 826.079 53.858C826.004 53.7367 825.967 53.5967 825.967 53.438C825.967 53.2793 826.004 53.1393 826.079 53.018C826.163 52.8967 826.289 52.836 826.457 52.836H833.387ZM830.937 61.796H835.627C835.795 61.796 835.916 61.8567 835.991 61.978C836.075 62.09 836.117 62.2253 836.117 62.384C836.117 62.5427 836.075 62.6827 835.991 62.804C835.916 62.9253 835.795 62.986 835.627 62.986H824.847C824.679 62.986 824.553 62.9253 824.469 62.804C824.394 62.6827 824.357 62.5427 824.357 62.384C824.357 62.2253 824.394 62.09 824.469 61.978C824.553 61.8567 824.679 61.796 824.847 61.796H829.537V58.996H830.937V61.796ZM841.173 53.074C841.583 53.074 841.863 53.1487 842.013 53.298C842.171 53.4473 842.251 53.7227 842.251 54.124V55.678C842.251 56.07 842.227 56.4247 842.181 56.742C842.134 57.05 842.045 57.344 841.915 57.624C841.784 57.904 841.602 58.1793 841.369 58.45C841.145 58.7113 840.846 58.9913 840.473 59.29C840.109 59.5793 839.665 59.8967 839.143 60.242C838.62 60.5873 838.004 60.9793 837.295 61.418C837.136 61.5113 836.977 61.53 836.819 61.474C836.66 61.4087 836.534 61.3107 836.441 61.18C836.347 61.0493 836.301 60.8953 836.301 60.718C836.31 60.5407 836.394 60.4007 836.553 60.298C837.206 59.8967 837.766 59.5467 838.233 59.248C838.699 58.94 839.091 58.6647 839.409 58.422C839.735 58.17 839.992 57.9413 840.179 57.736C840.365 57.5213 840.51 57.3113 840.613 57.106C840.715 56.8913 840.781 56.6673 840.809 56.434C840.837 56.1913 840.851 55.9207 840.851 55.622V54.572C840.851 54.4693 840.827 54.3993 840.781 54.362C840.743 54.3153 840.669 54.292 840.557 54.292H836.945C836.767 54.292 836.637 54.2313 836.553 54.11C836.478 53.9887 836.441 53.8487 836.441 53.69C836.441 53.522 836.478 53.3773 836.553 53.256C836.637 53.1347 836.767 53.074 836.945 53.074H841.173ZM845.233 52.108C845.419 52.108 845.583 52.1547 845.723 52.248C845.863 52.3413 845.933 52.4907 845.933 52.696V56.336H847.473C847.659 56.336 847.79 56.3967 847.865 56.518C847.949 56.63 847.991 56.77 847.991 56.938C847.991 57.106 847.949 57.2507 847.865 57.372C847.79 57.4933 847.659 57.554 847.473 57.554H845.933V63.616C845.933 63.8213 845.863 63.9707 845.723 64.064C845.583 64.1573 845.419 64.204 845.233 64.204C845.046 64.204 844.883 64.1573 844.743 64.064C844.603 63.9707 844.533 63.8213 844.533 63.616V52.696C844.533 52.4907 844.603 52.3413 844.743 52.248C844.883 52.1547 845.046 52.108 845.233 52.108ZM853.103 53.06C853.514 53.06 853.794 53.1347 853.943 53.284C854.102 53.4333 854.181 53.7087 854.181 54.11V55.692C854.181 56.084 854.158 56.4387 854.111 56.756C854.064 57.064 853.976 57.358 853.845 57.638C853.714 57.918 853.532 58.1933 853.299 58.464C853.066 58.7253 852.762 59.0053 852.389 59.304C852.025 59.5933 851.582 59.9107 851.059 60.256C850.536 60.6013 849.916 60.9933 849.197 61.432C849.038 61.5253 848.88 61.544 848.721 61.488C848.562 61.4227 848.436 61.3247 848.343 61.194C848.25 61.0633 848.203 60.9093 848.203 60.732C848.212 60.5547 848.296 60.4147 848.455 60.312C849.118 59.9107 849.682 59.5607 850.149 59.262C850.625 58.954 851.022 58.6787 851.339 58.436C851.656 58.184 851.908 57.9553 852.095 57.75C852.291 57.5353 852.44 57.3253 852.543 57.12C852.646 56.9053 852.711 56.6813 852.739 56.448C852.767 56.2053 852.781 55.9347 852.781 55.636V54.558C852.781 54.4553 852.758 54.3853 852.711 54.348C852.674 54.3013 852.599 54.278 852.487 54.278H848.847C848.67 54.278 848.539 54.2173 848.455 54.096C848.38 53.9747 848.343 53.8347 848.343 53.676C848.343 53.508 848.38 53.3633 848.455 53.242C848.539 53.1207 848.67 53.06 848.847 53.06H853.103ZM857.443 52.108C857.63 52.108 857.793 52.1547 857.933 52.248C858.082 52.3413 858.157 52.4907 858.157 52.696V63.616C858.157 63.8213 858.082 63.9707 857.933 64.064C857.793 64.1573 857.63 64.204 857.443 64.204C857.266 64.204 857.102 64.1573 856.953 64.064C856.813 63.9707 856.743 63.8213 856.743 63.616V52.696C856.743 52.4907 856.813 52.3413 856.953 52.248C857.102 52.1547 857.266 52.108 857.443 52.108Z" fill="white"/>
<path d="M864.95 54.0503L869.9 59L864.95 63.9498" stroke="white" stroke-width="2"/>
<g clip-path="url(#clip0_1644_12562)">
<path d="M735.479 85.3652H753.882V69.3283H735.479V85.3652Z" fill="black"/>
<path d="M734.847 85.3652V69.3283C734.847 68.974 735.133 68.6865 735.485 68.6865H753.889C754.241 68.6865 754.527 68.974 754.527 69.3283V85.3652C754.527 85.7195 754.241 86.0069 753.889 86.0069H735.485C735.133 86.0069 734.847 85.7195 734.847 85.3652ZM753.25 69.97H736.124V84.7234H753.25V69.97Z" fill="black"/>
<path d="M739.627 75.7392C739.627 75.7392 738.557 88.6543 730.24 95.446C730.24 95.446 733.943 100.333 730.319 103.067C726.696 105.801 720.519 100.085 720.519 100.085C720.519 100.085 714.263 94.3698 720.107 89.9845C725.951 85.5993 729.415 79.3022 730.732 72.5171L739.627 75.7459V75.7392Z" fill="#F0514F"/>
<path d="M720.094 100.56C719.961 100.439 716.816 97.5315 716.982 94.0888C717.069 92.3307 717.993 90.7731 719.728 89.4696C725.14 85.4119 728.724 79.5025 730.107 72.3899C730.14 72.2027 730.253 72.0489 730.419 71.9553C730.579 71.8617 730.778 71.8484 730.951 71.9085L739.847 75.1373C740.119 75.2376 740.292 75.505 740.266 75.7924C740.219 76.3205 739.115 88.6006 731.097 95.5662C731.689 96.4953 732.793 98.5609 732.507 100.607C732.341 101.803 731.736 102.806 730.705 103.581C729.881 104.203 728.956 104.45 728.012 104.45C724.349 104.45 720.307 100.76 720.094 100.56ZM731.21 73.3658C729.668 80.4718 725.971 86.3812 720.493 90.4924C719.077 91.5552 718.325 92.7853 718.259 94.1423C718.119 96.9766 720.925 99.577 720.958 99.6105C722.567 101.101 727.314 104.53 729.94 102.552C730.698 101.984 731.124 101.288 731.244 100.433C731.543 98.2668 729.754 95.8603 729.734 95.8402C729.528 95.5661 729.575 95.1717 729.841 94.9511C736.948 89.1487 738.643 78.5599 738.943 76.1735L731.217 73.3658H731.21Z" fill="black"/>
<path d="M760.045 57.1216C760.045 57.1216 784.472 49.7349 783.322 27.8421C782.172 5.94925 760.663 1.59075 760.663 1.59075C760.663 1.59075 720.566 -8.46323 709.769 36.031C709.769 36.031 719.329 48.3979 733.577 53.1174C733.577 53.1174 722.866 68.8668 707.468 70.4712C707.468 70.4712 710.919 90.4054 741.103 76.7015C741.103 76.7015 751.987 73.232 760.484 78.3058L760.038 57.1283L760.045 57.1216Z" fill="black"/>
<path d="M714.13 80.1914C708 76.9292 706.883 70.8393 706.837 70.5786C706.803 70.4048 706.85 70.2243 706.956 70.084C707.063 69.9436 707.222 69.85 707.402 69.8299C720.493 68.4662 730.279 56.4603 732.553 53.4387C718.738 48.5187 709.363 36.5462 709.27 36.4192C709.15 36.2654 709.11 36.0649 709.157 35.871C712.568 21.8262 719.223 11.712 728.943 5.80266C743.736 -3.18175 760.657 0.916051 760.796 0.949475C761.016 0.996269 782.803 5.66228 783.967 27.7957C785.044 48.2379 764.107 56.3801 760.697 57.57L761.129 78.2796C761.129 78.5135 761.009 78.7274 760.81 78.8478C760.61 78.9681 760.364 78.9614 760.165 78.8478C752.246 74.1216 741.994 77.0963 741.329 77.2969C734.182 80.539 727.992 82.1634 722.8 82.1568C719.495 82.1568 716.603 81.5016 714.13 80.1847V80.1914ZM759.826 77.2033L759.407 57.1354C759.407 56.848 759.586 56.5873 759.859 56.5071C759.919 56.487 765.956 54.6286 771.753 50.1565C779.466 44.2137 783.142 36.72 782.677 27.876C781.567 6.75191 760.737 2.2597 760.504 2.21291C760.338 2.1728 743.909 -1.7913 729.575 6.91903C720.233 12.6011 713.804 22.3409 710.46 35.8777C711.87 37.6091 720.952 48.2647 733.77 52.5096C733.963 52.5697 734.109 52.7235 734.176 52.9106C734.242 53.0978 734.209 53.3117 734.096 53.4788C733.657 54.1206 723.372 69.0144 708.253 71.0198C708.718 72.6175 710.294 76.7086 714.735 79.0684C720.732 82.2503 729.508 81.2543 740.824 76.1137C740.844 76.1003 740.871 76.0936 740.891 76.0869C741.15 76.0067 744.76 74.8837 749.421 74.8837C752.639 74.8837 756.355 75.4184 759.806 77.2033H759.826Z" fill="black"/>
<path d="M767.139 105.827L694.902 54.4211L698.054 49.9355L770.743 101.776C770.743 101.776 771.806 103.381 770.231 105.139C770.231 105.139 768.968 106.543 767.139 105.821V105.827Z" fill="#4F3128"/>
<path d="M766.906 106.423C766.86 106.403 766.813 106.376 766.773 106.349L694.537 54.9494C694.251 54.7422 694.178 54.3411 694.384 54.0537L697.535 49.5682C697.635 49.4278 697.781 49.3342 697.947 49.3074C698.114 49.2807 698.286 49.3208 698.426 49.4144L771.115 101.255C771.182 101.302 771.235 101.356 771.275 101.422C771.74 102.118 772.219 103.889 770.703 105.574C770.65 105.627 769.692 106.677 768.19 106.677C767.797 106.677 767.365 106.603 766.9 106.423H766.906ZM698.207 50.8383L695.787 54.2743L767.432 105.259C768.775 105.747 769.712 104.758 769.752 104.725C770.796 103.555 770.417 102.539 770.257 102.231L698.207 50.8383Z" fill="black"/>
<path d="M693.686 26.2846C693.686 26.2846 683.806 13.5567 682.057 15.3817C680.309 17.2133 682.037 18.9246 682.037 18.9246C682.037 18.9246 679.737 17.7147 678.653 19.3057C677.57 20.8967 679.252 22.481 679.252 22.481C679.252 22.481 677.304 20.9902 676.226 22.8085C675.149 24.6268 677.004 26.0707 677.004 26.0707C677.004 26.0707 674.651 24.4998 673.747 26.1777C672.842 27.8556 675.189 29.4265 675.189 29.4265C675.189 29.4265 672.836 27.8556 671.885 29.3998C670.934 30.944 673.507 32.5082 673.507 32.5082C673.507 32.5082 670.868 29.9145 669.525 31.8197C668.182 33.7248 671.114 35.4696 671.114 35.4696C671.114 35.4696 668.494 33.7716 667.504 35.8506C667.504 35.8506 666.899 37.2277 669.186 38.3842C669.186 38.3842 666.227 36.5191 665.196 38.8254C665.196 38.8254 664.412 40.2425 667.158 41.6129C667.158 41.6129 663.847 40.0286 663.062 42.3951C663.062 42.3951 662.59 43.6251 665.29 44.7481C665.29 44.7481 662.052 43.3644 661.154 45.8444C661.154 45.8444 660.323 47.1279 663.468 48.124C663.468 48.124 660.277 46.7603 659.672 49.4409C659.672 49.4409 658.468 52.6162 673.793 57.1017L694.424 27.4344L693.692 26.2913L693.686 26.2846Z" fill="#A76828"/>
<path d="M673.6 57.7102C663.162 54.6552 660.024 52.1083 659.239 50.5106C658.933 49.8889 658.993 49.4477 659.046 49.2672C659.292 48.191 659.904 47.6829 660.37 47.4356C660.503 47.3687 660.642 47.3086 660.782 47.2685C660.662 47.108 660.569 46.9409 660.503 46.7604C660.33 46.2791 660.423 45.8312 660.569 45.5571C660.855 44.8018 661.347 44.2737 662.032 43.9728C662.278 43.8659 662.53 43.799 662.783 43.7589C662.198 42.9501 662.417 42.2816 662.457 42.1813C662.697 41.466 663.162 40.9446 663.8 40.6705C664.113 40.5368 664.452 40.47 664.784 40.4499C664.684 40.2828 664.605 40.109 664.552 39.9285C664.306 39.1397 664.605 38.5715 664.618 38.5581C664.944 37.8362 665.469 37.3482 666.147 37.141C666.4 37.0607 666.666 37.0273 666.925 37.0273C666.646 36.2452 666.905 35.6302 666.925 35.5767C667.244 34.9082 667.749 34.4536 668.394 34.2665C668.561 34.2197 668.733 34.1929 668.9 34.1796C668.753 33.9256 668.64 33.6515 668.581 33.3573C668.441 32.6955 668.581 32.0404 668.999 31.4522C669.405 30.8773 669.957 30.5497 670.602 30.4895C670.761 30.4762 670.914 30.4762 671.074 30.4895C670.981 29.9882 671.074 29.5002 671.346 29.059C671.646 28.571 672.091 28.2501 672.636 28.1298C672.802 28.0897 672.975 28.0763 673.148 28.0763C672.842 27.4078 672.763 26.6458 673.181 25.8703C673.474 25.3289 673.926 24.9679 674.484 24.8275C674.777 24.754 675.076 24.7473 675.369 24.7807C675.163 24.1055 675.183 23.31 675.675 22.4811C676.16 21.6656 676.792 21.3982 677.237 21.3113C677.423 21.2779 677.603 21.2645 677.782 21.2712C677.569 20.5626 677.589 19.747 678.135 18.9449C678.793 17.9756 679.81 17.7683 680.734 17.8753C680.508 17.0196 680.621 15.9701 681.605 14.9406C681.785 14.7535 682.09 14.5462 682.602 14.5663C685.382 14.7134 692.748 24.0253 694.198 25.8904C694.211 25.9038 694.224 25.9238 694.231 25.9372L694.962 27.0803C695.102 27.3009 695.095 27.5816 694.949 27.7956L674.318 57.4628C674.199 57.6366 673.999 57.7369 673.793 57.7369C673.733 57.7369 673.673 57.7302 673.614 57.7102H673.6ZM693.16 26.6525C688.407 20.5292 683.52 15.5824 682.509 15.823C681.273 17.1132 682.27 18.2563 682.476 18.4635C682.702 18.6841 682.729 19.0384 682.543 19.2991C682.356 19.5532 682.011 19.6334 681.731 19.493C681.712 19.4863 679.916 18.5705 679.172 19.6668C678.414 20.7765 679.631 21.9597 679.677 22.0065C679.923 22.2405 679.95 22.6282 679.73 22.8889C679.511 23.1496 679.125 23.1897 678.859 22.9892C678.673 22.8488 678.008 22.4611 677.47 22.5613C677.19 22.6148 676.958 22.802 676.765 23.1362C676.007 24.413 677.244 25.4492 677.383 25.5561C677.656 25.7701 677.709 26.1578 677.51 26.4385C677.31 26.7193 676.925 26.7928 676.639 26.599C676.353 26.4118 675.402 25.9104 674.784 26.0709C674.571 26.1244 674.418 26.2514 674.298 26.4787C673.68 27.6151 675.522 28.8718 675.535 28.8852C675.721 29.0122 675.821 29.2127 675.821 29.42C675.821 29.5403 675.788 29.6673 675.714 29.7743C675.522 30.0684 675.123 30.1486 674.83 29.9548C674.538 29.7609 673.56 29.2395 672.902 29.3799C672.696 29.4267 672.543 29.5403 672.423 29.7342C672.31 29.9213 672.284 30.0951 672.33 30.2957C672.41 30.6232 672.663 30.9575 672.949 31.2449C673.487 31.5992 673.866 31.9669 673.946 32.0471C674.179 32.2744 674.205 32.6421 674.006 32.8961C673.806 33.1501 673.447 33.2236 673.168 33.0498C673.075 32.9964 672.616 32.7089 672.151 32.261C671.692 31.9669 671.16 31.7196 670.708 31.7597C670.436 31.7864 670.223 31.9201 670.037 32.1875C669.824 32.4883 669.757 32.7691 669.824 33.0833C669.983 33.852 670.921 34.594 671.353 34.8681C671.4 34.8948 671.433 34.9149 671.453 34.9283C671.745 35.1154 671.832 35.5099 671.652 35.804C671.473 36.1048 671.087 36.1984 670.788 36.0179C670.768 36.0045 670.735 35.9845 670.688 35.9577C670.316 35.7371 669.398 35.316 668.747 35.5032C668.454 35.5834 668.241 35.7839 668.095 36.0914C667.989 36.3789 668.109 36.9939 669.099 37.6022C669.325 37.7158 669.478 37.8094 669.525 37.8429C669.811 38.0233 669.91 38.4044 669.744 38.6985C669.578 38.9993 669.206 39.113 668.9 38.9592C668.753 38.8857 668.62 38.8122 668.494 38.7386C667.976 38.4846 667.138 38.1905 666.513 38.3776C666.187 38.4779 665.948 38.7119 665.762 39.1197C665.622 39.4272 665.801 40.2227 667.437 41.0382C667.749 41.192 667.882 41.573 667.73 41.8939C667.577 42.208 667.204 42.3417 666.885 42.1947C666.44 41.9808 665.103 41.5128 664.292 41.8604C663.986 41.9941 663.787 42.2281 663.667 42.5824C663.627 42.7829 663.873 43.4648 665.516 44.1467C665.522 44.1467 665.529 44.1467 665.536 44.1533C665.861 44.2937 666.008 44.6681 665.875 44.9889C665.742 45.3165 665.363 45.4702 665.044 45.3365H665.037C664.95 45.2964 663.521 44.7282 662.544 45.1561C662.171 45.3165 661.912 45.6106 661.752 46.0585C661.739 46.1053 661.713 46.1454 661.686 46.1922C661.686 46.1922 661.686 46.2657 661.713 46.3393C661.759 46.473 661.998 46.9008 663.195 47.3487C663.474 47.4289 663.661 47.5091 663.72 47.5292C664.033 47.6629 664.186 48.0238 664.073 48.3447C663.953 48.6656 663.607 48.8394 663.282 48.7324C663.122 48.679 662.969 48.6322 662.823 48.572C662.311 48.4249 661.513 48.3046 660.968 48.5787C660.629 48.7525 660.409 49.0801 660.303 49.5747C660.296 49.6015 660.29 49.6349 660.276 49.6616C660.276 49.6616 660.363 49.8755 660.396 49.9424C660.835 50.8315 662.996 53.218 673.534 56.3531L693.659 27.4145L693.174 26.6591L693.16 26.6525Z" fill="black"/>
<path d="M687.483 30.349C687.662 30.349 687.848 30.2688 687.975 30.1218C688.201 29.8477 688.167 29.4466 687.895 29.2193L681.698 23.9985C681.426 23.7712 681.027 23.8046 680.801 24.0787C680.575 24.3528 680.608 24.7538 680.88 24.9811L687.077 30.202C687.197 30.3022 687.343 30.349 687.483 30.349Z" fill="black"/>
<path d="M685.016 33.3905C685.202 33.3905 685.382 33.3103 685.508 33.1566C685.734 32.8825 685.694 32.4747 685.421 32.2541L679.451 27.3341C679.178 27.1068 678.78 27.1469 678.554 27.421C678.327 27.6951 678.367 28.1028 678.64 28.3234L684.61 33.2435C684.73 33.3438 684.87 33.3905 685.016 33.3905Z" fill="black"/>
<path d="M683.38 36.6395C683.567 36.6395 683.753 36.5593 683.879 36.3989C684.098 36.1248 684.052 35.717 683.779 35.4964L677.702 30.6165C677.423 30.3959 677.024 30.4427 676.805 30.7168C676.585 30.9909 676.632 31.3986 676.905 31.6192L682.981 36.4991C683.101 36.5927 683.241 36.6395 683.38 36.6395Z" fill="black"/>
<path d="M671.938 54.3141C672.177 54.3141 672.404 54.1804 672.517 53.9464C672.669 53.6255 672.53 53.2445 672.217 53.0907L664.086 49.1935C663.767 49.0397 663.388 49.1801 663.235 49.4943C663.082 49.8152 663.222 50.1962 663.534 50.35L671.666 54.2472C671.752 54.2873 671.845 54.3074 671.938 54.3074V54.3141Z" fill="#231F20"/>
<path d="M673.727 51.5134C673.953 51.5134 674.172 51.3931 674.292 51.1791C674.458 50.865 674.345 50.4772 674.032 50.3101L666.613 46.2859C666.3 46.1187 665.915 46.2324 665.748 46.5466C665.582 46.8607 665.695 47.2485 666.008 47.4156L673.427 51.4399C673.527 51.4933 673.627 51.5134 673.727 51.5134Z" fill="#231F20"/>
<path d="M675.994 47.9102C676.226 47.9102 676.453 47.7832 676.559 47.5626C676.718 47.2484 676.599 46.8607 676.28 46.7003L668.714 42.7963C668.401 42.6359 668.015 42.7562 667.856 43.0771C667.696 43.3913 667.816 43.779 668.135 43.9394L675.701 47.8434C675.794 47.8902 675.894 47.9169 675.994 47.9169V47.9102Z" fill="black"/>
<path d="M678.115 44.8016C678.334 44.8016 678.54 44.6947 678.66 44.4941C678.839 44.1933 678.746 43.7989 678.44 43.6117L671.127 39.173C670.828 38.9858 670.436 39.0861 670.249 39.3936C670.07 39.6944 670.163 40.0888 670.469 40.276L677.782 44.7147C677.882 44.7749 678.002 44.8083 678.108 44.8083L678.115 44.8016Z" fill="black"/>
<path d="M680.162 41.66C680.369 41.66 680.568 41.5597 680.688 41.3792C680.887 41.0851 680.814 40.6907 680.521 40.4834L673.501 35.6236C673.208 35.423 672.809 35.4966 672.616 35.7907C672.417 36.0848 672.49 36.4792 672.783 36.6865L679.803 41.5463C679.916 41.6199 680.043 41.66 680.162 41.66Z" fill="black"/>
<path d="M681.884 39.0129C682.077 39.0129 682.27 38.926 682.396 38.7589C682.609 38.4781 682.549 38.077 682.27 37.8631L675.887 33.03C675.608 32.816 675.209 32.8762 674.996 33.157C674.784 33.4377 674.844 33.8388 675.123 34.0527L681.505 38.8859C681.618 38.9728 681.758 39.0129 681.891 39.0129H681.884Z" fill="black"/>
<path d="M689.497 27.8622C689.67 27.8622 689.843 27.7953 689.969 27.6549C690.208 27.3942 690.188 26.9864 689.929 26.7458L684.032 21.3244C683.773 21.0837 683.367 21.1038 683.128 21.3645C682.888 21.6252 682.908 22.033 683.168 22.2736L689.065 27.695C689.185 27.8087 689.344 27.8622 689.497 27.8622Z" fill="black"/>
<path d="M693.852 26.3184L672.862 57.0418C672.862 57.0418 677.696 61.0728 683.773 55.892C689.849 50.7113 697.196 56.6541 697.196 56.6541L701.039 51.5135C701.039 51.5135 692.203 46.1656 696.511 37.7093C700.82 29.253 693.859 26.3184 693.859 26.3184H693.852Z" fill="#F0514F"/>
<path d="M672.457 57.5364C672.204 57.3225 672.151 56.9549 672.337 56.6808L693.327 25.9573C693.5 25.71 693.819 25.6097 694.098 25.73C694.218 25.7768 697.003 26.9801 698.114 30.0284C698.951 32.328 698.599 35.0086 697.076 38.0034C695.414 41.2722 695.607 44.4275 697.655 47.3822C699.224 49.6483 701.345 50.9519 701.365 50.9652C701.518 51.0588 701.624 51.2126 701.664 51.3931C701.697 51.5736 701.657 51.7541 701.544 51.9011L697.701 57.0418C697.595 57.1821 697.442 57.269 697.269 57.2958C697.096 57.3225 696.924 57.269 696.791 57.1621C696.724 57.1086 689.79 51.6003 684.178 56.3866C681.678 58.5191 679.358 59.1675 677.45 59.1675C674.458 59.1675 672.483 57.5632 672.45 57.5364H672.457ZM697.063 55.765L700.128 51.6605C698.16 50.2165 692.09 44.969 695.94 37.4151C697.289 34.7612 697.622 32.4282 696.917 30.4829C696.252 28.6379 694.796 27.5884 694.058 27.1472L673.747 56.8746C675.036 57.6701 678.78 59.3012 683.36 55.3973C685.328 53.7194 687.423 53.1378 689.377 53.1378C692.835 53.1378 695.866 54.9494 697.063 55.765Z" fill="black"/>
<path d="M747.154 82.2099C747.154 82.2099 752.499 63.6796 763.03 66.7279C773.562 69.7761 761.036 85.6593 761.036 85.6593C761.036 85.6593 767.179 82.1297 769.253 87.8252C771.328 93.5207 760.238 94.002 760.238 94.002L746.515 84.6967L747.154 82.2099Z" fill="#F0514F"/>
<path d="M759.879 94.5366L746.156 85.2314C745.93 85.0776 745.831 84.8035 745.897 84.5361L746.535 82.0494C746.535 82.0494 746.535 82.036 746.535 82.0293C746.588 81.8355 747.925 77.263 750.598 72.9848C754.234 67.1556 758.589 64.7758 763.203 66.1128C765.504 66.7745 766.973 68.0714 767.571 69.9632C768.994 74.4287 765.038 81.06 762.851 84.2353C763.994 83.9211 765.437 83.7473 766.787 84.242C768.19 84.7567 769.22 85.8865 769.845 87.5978C770.331 88.9281 770.224 90.1246 769.539 91.1541C767.465 94.2826 760.55 94.6168 760.258 94.6302C760.251 94.6302 760.238 94.6302 760.231 94.6302C760.105 94.6302 759.979 94.5901 759.872 94.5233L759.879 94.5366ZM761.348 86.2207C761.082 86.3745 760.75 86.3143 760.55 86.0803C760.351 85.8464 760.344 85.5054 760.537 85.2648C760.61 85.1712 768.05 75.6453 766.361 70.3643C765.889 68.887 764.739 67.8976 762.851 67.3561C753.124 64.5485 747.905 81.9224 747.765 82.3903L747.24 84.4292L760.411 93.3601C762.379 93.2398 767.106 92.5379 768.476 90.4589C768.928 89.777 768.981 88.9882 768.642 88.0524C768.156 86.7154 767.385 85.8397 766.348 85.4586C765.889 85.2915 765.411 85.2247 764.939 85.2247C763.117 85.2247 761.362 86.2073 761.342 86.2207H761.348Z" fill="black"/>
<path d="M749.334 87.2237C749.567 87.2237 749.786 87.0966 749.899 86.8827L756.681 73.8874C756.847 73.5732 756.728 73.1855 756.415 73.0184C756.103 72.8513 755.717 72.9783 755.551 73.2858L748.769 86.2811C748.603 86.5953 748.723 86.983 749.035 87.1501C749.128 87.1969 749.235 87.2237 749.334 87.2237Z" fill="black"/>
<path d="M748.536 85.5926L752.546 88.3C752.546 88.3 753.722 81.9093 746.396 80.8664C739.076 79.8236 738.384 83.781 738.384 83.781C738.384 83.781 736.802 89.1289 741.21 90.6597C741.21 90.6597 741.888 92.1504 744.301 92.4045C744.301 92.4045 745.319 94.196 746.801 93.6813C748.284 93.1665 747.732 90.9538 747.732 90.9538L746.967 87.1168C746.967 87.1168 747.685 85.5793 748.536 85.5793V85.5926Z" fill="#EBABAB"/>
<path d="M743.922 93.0059C741.994 92.7117 741.097 91.6756 740.771 91.1876C737.074 89.7437 737.167 85.6525 737.759 83.627C737.866 83.1257 738.963 79.1616 746.482 80.2311C748.989 80.5854 750.85 81.5815 751.994 83.1858C753.669 85.5322 753.191 88.293 753.164 88.4134C753.124 88.6273 752.984 88.8011 752.785 88.888C752.585 88.9749 752.359 88.9482 752.18 88.8278L748.397 86.2742C748.177 86.4012 747.858 86.789 747.632 87.2168L748.344 90.8065C748.583 91.7692 748.61 93.7412 747.001 94.296C746.741 94.3829 746.489 94.423 746.249 94.423C745.206 94.423 744.374 93.661 743.916 93.0059H743.922ZM748.889 85.0576L751.967 87.1433C751.941 86.2876 751.748 85.0442 750.957 83.9412C750.019 82.631 748.45 81.8088 746.303 81.508C739.747 80.5788 739.036 83.7741 739.009 83.9011C739.009 83.9279 739.002 83.9479 738.989 83.9747C738.929 84.1685 737.639 88.7543 741.409 90.0645C741.575 90.1247 741.708 90.245 741.782 90.4055C741.782 90.4188 742.367 91.5686 744.361 91.7825C744.561 91.8026 744.747 91.9229 744.847 92.1034C744.853 92.1168 745.624 93.427 746.588 93.0928C747.499 92.7786 747.114 91.1408 747.1 91.1007L746.336 87.2636C746.309 87.1299 746.329 86.9895 746.382 86.8625C746.529 86.5416 747.333 84.9573 748.523 84.9573C748.623 84.9506 748.776 84.9974 748.882 85.0643L748.889 85.0576Z" fill="black"/>
<path d="M741.083 85.3784C741.083 85.3784 740.106 88.1927 741.21 90.6594L741.083 85.3784Z" fill="#EBABAB"/>
<path d="M741.21 91.3013C741.296 91.3013 741.383 91.2813 741.469 91.2478C741.788 91.1008 741.934 90.7197 741.788 90.3989C740.804 88.1862 741.675 85.6125 741.682 85.5925C741.795 85.2582 741.622 84.8906 741.289 84.7769C740.957 84.6633 740.591 84.8371 740.478 85.1713C740.438 85.2984 739.435 88.253 740.625 90.927C740.731 91.1676 740.964 91.308 741.21 91.308V91.3013Z" fill="black"/>
<path d="M743.836 87.1699C743.836 87.1699 743.031 89.9842 744.301 92.4108L743.836 87.1699Z" fill="#EBABAB"/>
<path d="M744.301 93.0527C744.401 93.0527 744.501 93.0259 744.6 92.9791C744.913 92.812 745.033 92.4243 744.866 92.1101C743.73 89.9375 744.441 87.3706 744.448 87.3438C744.547 87.0029 744.348 86.6486 744.009 86.5483C743.67 86.4481 743.317 86.6486 743.218 86.9895C743.184 87.1165 742.36 90.0779 743.73 92.705C743.843 92.9256 744.069 93.046 744.295 93.046L744.301 93.0527Z" fill="black"/>
<path d="M722.268 64.4883C722.268 64.4883 714.768 70.0768 707.481 70.4779C707.481 70.4779 709.343 82.2432 724.316 81.4677C724.316 81.4677 731.15 81.334 739.687 77.2964" fill="black"/>
<path d="M722.933 82.1431C723.392 82.1431 723.864 82.1297 724.349 82.103C724.615 82.103 731.396 81.9225 739.96 77.8715C740.279 77.7178 740.419 77.3367 740.266 77.0159C740.113 76.695 739.734 76.5546 739.415 76.7084C731.117 80.6323 724.369 80.8195 724.302 80.8195C718.292 81.127 713.744 79.4558 710.779 75.846C709.237 73.9676 708.552 72.0423 708.273 71.053C715.407 70.3377 722.348 65.2238 722.647 64.9965C722.933 64.7826 722.986 64.3815 722.78 64.1008C722.567 63.8133 722.168 63.7598 721.889 63.9671C721.816 64.0205 714.456 69.4419 707.448 69.8297C707.269 69.8363 707.102 69.9232 706.989 70.0703C706.876 70.2107 706.83 70.3979 706.856 70.5717C706.876 70.692 708.858 82.1364 722.933 82.1364V82.1431Z" fill="black"/>
<path d="M743.464 60.5576L748.889 80.9865C748.889 80.9865 740.591 80.1308 738.996 82.3769L731.549 61.5269" fill="black"/>
<path d="M738.996 83.0121C739.202 83.0121 739.395 82.9118 739.514 82.7447C740.518 81.3342 745.757 81.3075 748.822 81.6217C749.028 81.6417 749.235 81.5615 749.374 81.4011C749.514 81.2406 749.56 81.02 749.507 80.8195L744.082 60.3906C743.989 60.0497 743.636 59.8425 743.304 59.9361C742.965 60.0297 742.759 60.3773 742.852 60.7182L748.044 80.2646C746.023 80.1243 741.442 79.9705 739.288 81.2807L732.154 61.3065C732.035 60.9722 731.669 60.7984 731.337 60.9188C731.004 61.0391 730.831 61.4067 730.951 61.741L738.397 82.591C738.477 82.8182 738.677 82.9787 738.909 83.0121C738.936 83.0121 738.969 83.0121 738.996 83.0121Z" fill="black"/>
<path d="M751.508 11.1706C751.508 11.1706 772.225 10.0208 775.576 27.174C778.927 44.3273 762.326 49.381 762.326 49.381C762.326 49.381 750.066 53.4387 735.366 48.004C720.666 42.5692 724.169 26.559 724.169 26.559C724.169 26.559 726.835 10.5556 751.515 11.1639L751.508 11.1706Z" fill="#EBABAB"/>
<path d="M735.14 48.6054C720.094 43.037 723.505 26.5856 723.538 26.4586C723.564 26.2848 724.282 22.2138 728.125 18.1962C734.481 11.5448 744.328 10.3549 751.502 10.5354C752.393 10.4953 772.844 9.85351 776.201 27.0603C779.625 44.5812 762.678 49.9558 762.518 50.0026C762.219 50.1029 757.844 51.5067 751.262 51.5067C746.728 51.5067 741.15 50.8382 735.14 48.6121V48.6054ZM751.542 11.8122C751.542 11.8122 751.508 11.8122 751.488 11.8122C727.673 11.2239 724.901 26.0375 724.788 26.6993C724.648 27.3276 721.59 42.2281 735.578 47.4022C749.879 52.6899 762 48.8127 762.133 48.7659C762.292 48.7191 778.149 43.6921 774.945 27.2942C773.602 20.4356 769.287 15.7495 762.113 13.3564C757.898 11.9525 753.875 11.7921 752.266 11.7921C751.808 11.7921 751.542 11.8055 751.535 11.8055L751.542 11.8122Z" fill="black"/>
<mask id="mask0_1644_12562" style="mask-type:luminance" maskUnits="userSpaceOnUse" x="724" y="11" width="52" height="40">
<path d="M751.482 11.7183C751.482 11.7183 771.647 10.602 774.911 27.2472C778.176 43.8857 762.006 48.7924 762.006 48.7924C762.006 48.7924 750.066 52.7297 735.758 47.4554C721.45 42.1811 724.861 26.6522 724.861 26.6522C724.861 26.6522 727.454 11.1234 751.482 11.7183Z" fill="white"/>
</mask>
<g mask="url(#mask0_1644_12562)">
<path opacity="0.25" d="M738.644 41.6981C740.567 38.987 739.504 34.9087 736.27 32.589C733.035 30.2693 728.854 30.5866 726.931 33.2977C725.008 36.0088 726.07 40.087 729.305 42.4068C732.539 44.7265 736.721 44.4092 738.644 41.6981Z" fill="url(#paint1_radial_1644_12562)"/>
<path opacity="0.25" d="M771.291 41.8973C774.263 39.2513 774.892 35.0853 772.696 32.5923C770.5 30.0993 766.311 30.2235 763.339 32.8695C760.368 35.5156 759.739 39.6816 761.935 42.1745C764.131 44.6675 768.32 44.5434 771.291 41.8973Z" fill="url(#paint2_radial_1644_12562)"/>
</g>
<path d="M750.684 42.4555C751.409 42.4555 753.124 42.3418 754.241 41.3257C754.893 40.7308 755.232 39.9487 755.258 38.9861C755.278 38.1037 754.986 37.3616 754.381 36.7867C752.871 35.3495 749.893 35.5634 749.766 35.5701C749.414 35.5968 749.155 35.9044 749.181 36.2586C749.208 36.6129 749.507 36.8737 749.866 36.8469C750.571 36.7934 752.592 36.8469 753.503 37.7159C753.835 38.0301 753.988 38.4379 753.975 38.9526C753.962 39.5543 753.769 40.0155 753.377 40.3698C752.539 41.1386 750.963 41.2054 750.431 41.1586C750.066 41.1386 749.773 41.3993 749.747 41.7536C749.72 42.1079 749.986 42.4154 750.338 42.4421C750.358 42.4421 750.485 42.4555 750.677 42.4555H750.684Z" fill="black"/>
<path d="M750.564 46.8004C757.16 46.8004 760.949 44.2936 761.182 44.1331C761.475 43.9326 761.548 43.5382 761.355 43.2441C761.162 42.9499 760.763 42.8764 760.471 43.0703C760.471 43.0703 758.39 44.454 754.72 45.1225C751.329 45.7442 745.824 45.8779 738.869 43.0101C738.544 42.8764 738.171 43.0301 738.038 43.3577C737.905 43.6853 738.058 44.0596 738.384 44.1933C743.111 46.1453 747.2 46.7937 750.564 46.7937V46.8004Z" fill="black"/>
<path d="M767.106 22.6482C767.319 22.6482 767.518 22.5412 767.644 22.3541C767.837 22.0532 767.751 21.6588 767.452 21.465C767.279 21.3513 763.203 18.7576 758.782 20.0077C758.443 20.1013 758.243 20.4556 758.343 20.7965C758.436 21.1374 758.789 21.338 759.128 21.2377C762.997 20.1414 766.72 22.5145 766.76 22.5412C766.867 22.6081 766.986 22.6415 767.106 22.6415V22.6482Z" fill="black"/>
<path d="M735.14 21.7058C735.239 21.7058 735.346 21.6791 735.439 21.6323C735.479 21.6122 739.395 19.5533 743.151 20.9504C743.484 21.0774 743.849 20.9036 743.969 20.5694C744.089 20.2351 743.922 19.8675 743.59 19.7471C739.295 18.1428 735.013 20.4022 734.834 20.4958C734.521 20.663 734.408 21.0507 734.574 21.3649C734.687 21.5788 734.914 21.7058 735.14 21.7058Z" fill="black"/>
<path d="M762.01 36.1733C765.731 35.7424 768.499 33.2257 768.193 30.5519C767.887 27.8782 764.622 26.06 760.901 26.4908C757.181 26.9217 754.413 29.4385 754.719 32.1122C755.025 34.786 758.29 36.6042 762.01 36.1733Z" fill="white"/>
<path d="M746.587 32.1204C746.894 29.4467 744.126 26.9299 740.405 26.4991C736.684 26.0682 733.419 27.8864 733.113 30.5601C732.807 33.2339 735.575 35.7507 739.296 36.1815C743.016 36.6124 746.281 34.7942 746.587 32.1204Z" fill="white"/>
<path d="M737.108 26.6055C738.783 27.3475 739.966 29.139 739.966 31.2314C739.966 33.424 738.67 35.2757 736.868 35.9509C734.149 34.9682 732.626 32.8892 732.872 30.6698C733.092 28.6711 734.694 27.1202 737.108 26.6055Z" fill="#005CA3"/>
<path d="M758.941 26.793C760.411 27.6353 761.421 29.3265 761.421 31.2852C761.421 33.7318 759.846 35.7774 757.751 36.2453C755.79 35.5701 754.514 34.1396 754.314 32.3481C754.048 29.9348 755.83 27.6821 758.935 26.793H758.941Z" fill="#005CA3"/>
<path d="M739.222 37.0207C737.134 36.7801 735.372 36.0314 734.129 34.8682C732.892 33.6984 732.301 32.2143 732.48 30.6902C732.653 29.1594 733.564 27.8491 735.033 26.9935C736.503 26.1378 738.384 25.8169 740.478 26.0576C744.747 26.5523 747.579 29.2128 747.22 32.3948C746.894 35.2425 744.162 37.1009 740.525 37.1009C740.106 37.1009 739.667 37.0742 739.228 37.0274L739.222 37.0207ZM745.95 32.2477C746.229 29.8078 743.863 27.7422 740.332 27.3344C738.544 27.1272 736.888 27.4012 735.671 28.1032C734.561 28.7449 733.876 29.7142 733.75 30.8306C733.624 31.9469 734.069 33.0432 735.007 33.9256C736.03 34.8883 737.58 35.5367 739.368 35.7439C742.898 36.1517 745.671 34.681 745.95 32.2411V32.2477Z" fill="black"/>
<path d="M754.081 32.3947C753.716 29.2194 756.555 26.5522 760.823 26.0575C765.091 25.5628 768.456 27.5081 768.821 30.6834C769.187 33.8587 766.348 36.5259 762.08 37.0206C761.634 37.0741 761.202 37.0941 760.783 37.0941C757.146 37.0941 754.414 35.2358 754.088 32.388L754.081 32.3947ZM760.969 27.3343C757.432 27.7421 755.072 29.8077 755.351 32.2476C755.63 34.6876 758.396 36.1583 761.933 35.7505C765.47 35.3427 767.831 33.2771 767.551 30.8371C767.305 28.6713 765.091 27.2674 762.126 27.2674C761.754 27.2674 761.368 27.2875 760.969 27.3343Z" fill="black"/>
<path d="M759.281 36.6194C759.427 36.6194 759.58 36.5659 759.699 36.459C759.793 36.3788 761.98 34.4067 762.026 31.3919C762.073 28.3235 760.125 26.8997 760.045 26.8395C759.759 26.6323 759.36 26.7058 759.154 26.9933C758.955 27.2807 759.021 27.6818 759.301 27.8823C759.367 27.9358 760.783 29.0054 760.75 31.3718C760.717 33.8118 758.875 35.4763 758.855 35.4964C758.589 35.7303 758.569 36.1381 758.802 36.3988C758.928 36.5459 759.101 36.6127 759.281 36.6127V36.6194Z" fill="black"/>
<path d="M737.779 36.6196C737.932 36.6196 738.085 36.5661 738.205 36.4525C738.298 36.3656 740.478 34.3601 740.525 31.2851C740.571 28.1566 738.63 26.706 738.544 26.6458C738.258 26.4386 737.859 26.4988 737.653 26.7862C737.447 27.0737 737.506 27.4681 737.792 27.682C737.859 27.7288 739.282 28.8318 739.248 31.2651C739.215 33.7652 737.374 35.4832 737.354 35.4966C737.094 35.7372 737.074 36.1383 737.307 36.399C737.433 36.5394 737.606 36.6129 737.779 36.6129V36.6196Z" fill="black"/>
</g>
<defs>
<linearGradient id="paint0_linear_1644_12562" x1="1348.09" y1="38" x2="-29.4921" y2="54.202" gradientUnits="userSpaceOnUse">
<stop stop-color="#4416CE"/>
<stop offset="1" stop-color="#DD468F"/>
</linearGradient>
<radialGradient id="paint1_radial_1644_12562" cx="0" cy="0" r="1" gradientUnits="userSpaceOnUse" gradientTransform="translate(746.351 43.7729) rotate(-143.912) scale(7.17053 6.00611)">
<stop stop-color="#D9315C" stop-opacity="0.8"/>
<stop offset="0.14" stop-color="#D9315D" stop-opacity="0.78"/>
<stop offset="0.26" stop-color="#D93160" stop-opacity="0.73"/>
<stop offset="0.38" stop-color="#D93166" stop-opacity="0.65"/>
<stop offset="0.49" stop-color="#D9316F" stop-opacity="0.54"/>
<stop offset="0.54" stop-color="#D93174" stop-opacity="0.47"/>
<stop offset="0.58" stop-color="#D9366F" stop-opacity="0.42"/>
<stop offset="0.77" stop-color="#DB4F5A" stop-opacity="0.19"/>
<stop offset="0.91" stop-color="#DD5E4D" stop-opacity="0.05"/>
<stop offset="1" stop-color="#DE6449" stop-opacity="0"/>
</radialGradient>
<radialGradient id="paint2_radial_1644_12562" cx="0" cy="0" r="1" gradientUnits="userSpaceOnUse" gradientTransform="translate(775.864 31.1427) rotate(-42.1449) scale(7.17455 6.00275)">
<stop stop-color="#D9315C" stop-opacity="0.8"/>
<stop offset="0.14" stop-color="#D9315D" stop-opacity="0.78"/>
<stop offset="0.26" stop-color="#D93160" stop-opacity="0.73"/>
<stop offset="0.38" stop-color="#D93166" stop-opacity="0.65"/>
<stop offset="0.49" stop-color="#D9316F" stop-opacity="0.54"/>
<stop offset="0.54" stop-color="#D93174" stop-opacity="0.47"/>
<stop offset="0.58" stop-color="#D9366F" stop-opacity="0.42"/>
<stop offset="0.77" stop-color="#DB4F5A" stop-opacity="0.19"/>
<stop offset="0.91" stop-color="#DD5E4D" stop-opacity="0.05"/>
<stop offset="1" stop-color="#DE6449" stop-opacity="0"/>
</radialGradient>
<clipPath id="clip0_1644_12562">
<rect width="125" height="93" fill="white" transform="translate(659)"/>
</clipPath>
</defs>
</svg>
