<svg width="32" height="44" viewBox="0 0 32 44" fill="none" xmlns="http://www.w3.org/2000/svg">
<g filter="url(#filter0_d_1680_2444)">
<path fill-rule="evenodd" clip-rule="evenodd" d="M6.95147 4.7829C8.51357 3.2208 11.0462 3.2208 12.6083 4.7829L24.997 17.1716C26.5591 18.7337 26.5591 21.2663 24.997 22.8284L12.6083 35.2171C11.0462 36.7792 8.51357 36.7792 6.95147 35.2171C5.38938 33.655 5.38938 31.1223 6.95147 29.5602L16.5117 20L6.95147 10.4398C5.38938 8.87766 5.38938 6.345 6.95147 4.7829Z" fill="#DD468F"/>
<path d="M13.669 3.72224C11.5211 1.57436 8.0387 1.57436 5.89081 3.72224C3.74293 5.87012 3.74293 9.35253 5.89081 11.5004L14.3904 20L5.89081 28.4996C3.74293 30.6475 3.74293 34.1299 5.89081 36.2778C8.0387 38.4256 11.5211 38.4256 13.669 36.2778L26.0577 23.8891C28.2055 21.7412 28.2055 18.2588 26.0577 16.1109L13.669 3.72224Z" stroke="white" stroke-width="3" stroke-linecap="round" stroke-linejoin="round"/>
</g>
<defs>
<filter id="filter0_d_1680_2444" x="0.779785" y="0.611328" width="30.3887" height="42.7773" filterUnits="userSpaceOnUse" color-interpolation-filters="sRGB">
<feFlood flood-opacity="0" result="BackgroundImageFix"/>
<feColorMatrix in="SourceAlpha" type="matrix" values="0 0 0 0 0 0 0 0 0 0 0 0 0 0 0 0 0 0 127 0" result="hardAlpha"/>
<feOffset dy="2"/>
<feGaussianBlur stdDeviation="1"/>
<feComposite in2="hardAlpha" operator="out"/>
<feColorMatrix type="matrix" values="0 0 0 0 0 0 0 0 0 0 0 0 0 0 0 0 0 0 0.25 0"/>
<feBlend mode="normal" in2="BackgroundImageFix" result="effect1_dropShadow_1680_2444"/>
<feBlend mode="normal" in="SourceGraphic" in2="effect1_dropShadow_1680_2444" result="shape"/>
</filter>
</defs>
</svg>
