<svg width="31" height="44" viewBox="0 0 31 44" fill="none" xmlns="http://www.w3.org/2000/svg">
<g filter="url(#filter0_d_1680_2446)">
<path fill-rule="evenodd" clip-rule="evenodd" d="M6.2171 4.7829C7.7792 3.2208 10.3119 3.2208 11.874 4.7829L24.2626 17.1716C25.8247 18.7337 25.8247 21.2663 24.2626 22.8284L11.874 35.2171C10.3119 36.7792 7.7792 36.7792 6.2171 35.2171C4.655 33.655 4.655 31.1223 6.2171 29.5602L15.7773 20L6.2171 10.4398C4.655 8.87766 4.655 6.345 6.2171 4.7829Z" fill="#7E1BA5"/>
<path d="M12.9346 3.72224C10.7867 1.57436 7.30432 1.57436 5.15644 3.72224C3.00856 5.87012 3.00855 9.35253 5.15644 11.5004L13.656 20L5.15644 28.4996C3.00855 30.6475 3.00856 34.1299 5.15644 36.2778C7.30432 38.4256 10.7867 38.4256 12.9346 36.2778L25.3233 23.8891C27.4712 21.7412 27.4712 18.2588 25.3233 16.1109L12.9346 3.72224Z" stroke="white" stroke-width="3" stroke-linecap="round" stroke-linejoin="round"/>
</g>
<defs>
<filter id="filter0_d_1680_2446" x="0.0454102" y="0.611328" width="30.3887" height="42.7773" filterUnits="userSpaceOnUse" color-interpolation-filters="sRGB">
<feFlood flood-opacity="0" result="BackgroundImageFix"/>
<feColorMatrix in="SourceAlpha" type="matrix" values="0 0 0 0 0 0 0 0 0 0 0 0 0 0 0 0 0 0 127 0" result="hardAlpha"/>
<feOffset dy="2"/>
<feGaussianBlur stdDeviation="1"/>
<feComposite in2="hardAlpha" operator="out"/>
<feColorMatrix type="matrix" values="0 0 0 0 0 0 0 0 0 0 0 0 0 0 0 0 0 0 0.25 0"/>
<feBlend mode="normal" in2="BackgroundImageFix" result="effect1_dropShadow_1680_2446"/>
<feBlend mode="normal" in="SourceGraphic" in2="effect1_dropShadow_1680_2446" result="shape"/>
</filter>
</defs>
</svg>
