<svg width="56" height="52" viewBox="0 0 56 52" fill="none" xmlns="http://www.w3.org/2000/svg">
<path d="M0 26C0 11.6406 11.6406 0 26 0H28C43.464 0 56 12.536 56 28V47.2727C56 49.8835 53.8835 52 51.2727 52H26C11.6406 52 0 40.3594 0 26Z" fill="#DD468F"/>
<path d="M23.04 17.06C26.6 17.06 29.28 19.92 29.28 25.64C29.28 31.34 26.6 34.2 23.04 34.2C19.48 34.2 16.8 31.34 16.8 25.64C16.8 19.92 19.48 17.06 23.04 17.06ZM23.04 20.24C21.44 20.24 20.24 21.92 20.24 25.64C20.24 29.34 21.44 31.02 23.04 31.02C24.64 31.02 25.84 29.34 25.84 25.64C25.84 21.92 24.64 20.24 23.04 20.24ZM37.182 17.5V33.8H33.562V20.66H30.682V17.5H37.182Z" fill="white"/>
<circle cx="22.5" cy="21.5" r="17.5" fill="url(#paint0_linear_1780_12878)" fill-opacity="0.5"/>
<defs>
<linearGradient id="paint0_linear_1780_12878" x1="5" y1="5.48936" x2="27.3404" y2="26.3404" gradientUnits="userSpaceOnUse">
<stop stop-color="white"/>
<stop offset="1" stop-color="white" stop-opacity="0"/>
</linearGradient>
</defs>
</svg>
