<svg width="56" height="52" viewBox="0 0 56 52" fill="none" xmlns="http://www.w3.org/2000/svg">
<path d="M0 26C0 11.6406 11.6406 0 26 0H28C43.464 0 56 12.536 56 28V47.2727C56 49.8835 53.8835 52 51.2727 52H26C11.6406 52 0 40.3594 0 26Z" fill="#148EF1"/>
<path d="M21.04 17.06C24.6 17.06 27.28 19.92 27.28 25.64C27.28 31.34 24.6 34.2 21.04 34.2C17.48 34.2 14.8 31.34 14.8 25.64C14.8 19.92 17.48 17.06 21.04 17.06ZM21.04 20.24C19.44 20.24 18.24 21.92 18.24 25.64C18.24 29.34 19.44 31.02 21.04 31.02C22.64 31.02 23.84 29.34 23.84 25.64C23.84 21.92 22.64 20.24 21.04 20.24ZM34.602 17.06C37.982 17.06 40.322 19.04 40.322 21.96C40.322 23.84 38.942 25.22 37.582 25.46C39.082 25.7 40.762 27 40.762 29.1C40.762 32.24 38.102 34.2 34.722 34.2C31.142 34.2 28.922 32.2 28.662 29.06H32.242C32.382 30.36 33.202 31.14 34.722 31.14C36.222 31.14 37.222 30.32 37.222 29.12C37.222 27.76 36.082 27.04 34.382 27.04H32.762V24.08H34.382C35.862 24.08 36.742 23.28 36.742 22.04C36.742 20.84 35.942 20.1 34.582 20.1C33.162 20.1 32.502 21.24 32.502 22.4H28.922C28.922 19.3 31.262 17.06 34.602 17.06Z" fill="white"/>
<circle cx="22.5" cy="21.5" r="17.5" fill="url(#paint0_linear_1792_1876)" fill-opacity="0.5"/>
<defs>
<linearGradient id="paint0_linear_1792_1876" x1="5" y1="5.48936" x2="27.3404" y2="26.3404" gradientUnits="userSpaceOnUse">
<stop stop-color="white"/>
<stop offset="1" stop-color="white" stop-opacity="0"/>
</linearGradient>
</defs>
</svg>
