<svg width="56" height="52" viewBox="0 0 56 52" fill="none" xmlns="http://www.w3.org/2000/svg">
<path d="M0 26C0 11.6406 11.6406 0 26 0H28C43.464 0 56 12.536 56 28V47.2727C56 49.8835 53.8835 52 51.2727 52H26C11.6406 52 0 40.3594 0 26Z" fill="#4416CE"/>
<path d="M21.04 17.06C24.6 17.06 27.28 19.92 27.28 25.64C27.28 31.34 24.6 34.2 21.04 34.2C17.48 34.2 14.8 31.34 14.8 25.64C14.8 19.92 17.48 17.06 21.04 17.06ZM21.04 20.24C19.44 20.24 18.24 21.92 18.24 25.64C18.24 29.34 19.44 31.02 21.04 31.02C22.64 31.02 23.84 29.34 23.84 25.64C23.84 21.92 22.64 20.24 21.04 20.24ZM34.522 17.06C38.182 17.06 40.342 19.22 40.342 22.18C40.342 23.88 39.522 25.34 36.662 28.3L34.322 30.72H40.662V33.8H29.002V31.72L34.342 26.22C36.302 24.2 36.762 23.14 36.762 22.22C36.762 21.02 36.102 20.22 34.522 20.22C33.042 20.22 32.242 21.42 32.242 22.66H28.662C28.662 19.46 31.082 17.06 34.522 17.06Z" fill="white"/>
<circle cx="22.5" cy="21.5" r="17.5" fill="url(#paint0_linear_1790_13053)" fill-opacity="0.5"/>
<defs>
<linearGradient id="paint0_linear_1790_13053" x1="5" y1="5.48936" x2="27.3404" y2="26.3404" gradientUnits="userSpaceOnUse">
<stop stop-color="white"/>
<stop offset="1" stop-color="white" stop-opacity="0"/>
</linearGradient>
</defs>
</svg>
