<svg width="56" height="53" viewBox="0 0 56 53" fill="none" xmlns="http://www.w3.org/2000/svg">
<path d="M0 26.8394C0 12.48 11.6406 0.839355 26 0.839355H28C43.464 0.839355 56 13.3754 56 28.8394V48.1121C56 50.7229 53.8835 52.8394 51.2727 52.8394H26C11.6406 52.8394 0 41.1988 0 26.8394Z" fill="#81E73C"/>
<path d="M21.04 17.8994C24.6 17.8994 27.28 20.7594 27.28 26.4794C27.28 32.1794 24.6 35.0394 21.04 35.0394C17.48 35.0394 14.8 32.1794 14.8 26.4794C14.8 20.7594 17.48 17.8994 21.04 17.8994ZM21.04 21.0794C19.44 21.0794 18.24 22.7594 18.24 26.4794C18.24 30.1794 19.44 31.8594 21.04 31.8594C22.64 31.8594 23.84 30.1794 23.84 26.4794C23.84 22.7594 22.64 21.0794 21.04 21.0794ZM35.882 34.6394V31.3594H28.562V28.3594L34.862 18.3394H39.322V28.3594H41.462V31.3594H39.322V34.6394H35.882ZM32.042 28.3594H35.882V22.0794L32.042 28.3594Z" fill="white"/>
<circle cx="22.5" cy="26.8394" r="17.5" fill="url(#paint0_linear_1792_1891)" fill-opacity="0.5"/>
<defs>
<linearGradient id="paint0_linear_1792_1891" x1="5" y1="10.8287" x2="27.3404" y2="31.6798" gradientUnits="userSpaceOnUse">
<stop stop-color="white"/>
<stop offset="1" stop-color="white" stop-opacity="0"/>
</linearGradient>
</defs>
</svg>
