<svg width="88" height="107" viewBox="0 0 88 107" fill="none" xmlns="http://www.w3.org/2000/svg">
<path d="M85.903 39.2101L82.599 36.6457L81.7084 32.3431C81.7084 32.3431 81.5647 31.4028 80.789 31.0894C80.042 30.7759 79.2663 31.3743 79.2376 31.3743L75.79 33.8818L71.6529 33.4544C71.6529 33.4544 70.3888 33.3404 70.0153 34.0527C69.6705 34.7081 69.9003 35.4774 69.9291 35.4774L71.1357 39.609L69.4119 43.5982C69.4119 43.5982 68.9235 44.7094 69.4694 45.3078C69.9578 45.8492 70.8484 45.9347 70.9059 45.9632L75.043 46.0202L78.0884 48.8695C78.0884 48.8695 78.6343 49.297 79.2376 49.3824C79.3238 49.3824 79.4387 49.3824 79.5536 49.3824C80.3581 49.3255 80.7028 48.2712 80.7316 48.1857L82.1681 44.0826L85.8168 41.917C85.8168 41.917 86.535 41.5181 86.7361 40.8058C86.9372 40.0364 86.0466 39.2956 85.9604 39.2101H85.903Z" fill="#F7CE46"/>
<path d="M11.4347 48.5279L11.9519 45.4506C12.0093 45.1656 12.0093 44.5958 11.6358 44.2254C11.1474 43.7694 10.4579 43.9404 10.3717 43.9404L7.44126 44.6243L4.82683 43.1996C4.82683 43.1996 3.90747 42.7152 3.41906 43.1711C2.98811 43.5415 2.93065 44.1399 2.93065 44.1969L2.67208 47.2457L0.517328 49.3827C0.517328 49.3827 -0.172192 50.0666 0.0576483 50.6935C0.258758 51.2349 0.833358 51.5768 0.890818 51.6053L3.62017 52.7735L4.91302 55.5089C4.91302 55.5089 5.25778 56.1073 5.77492 56.3068C5.77492 56.3068 5.80365 56.3068 5.83238 56.3068C6.46444 56.5062 7.03904 55.8509 7.0965 55.7939L9.1076 53.4859L12.0668 53.087C12.0668 53.087 12.6988 53.0015 13.0723 52.5456C13.4746 52.0042 13.0149 51.1779 12.9574 51.0924L11.4347 48.4709V48.5279Z" fill="#F7CE46"/>
<path d="M59.8444 103.834C64.786 102.495 69.5839 100.643 73.9509 98.4776C79.1797 95.8847 84.5235 92.5224 87.8562 87.6215C87.9424 87.5075 87.9711 87.365 87.9711 87.2225C87.9711 87.0231 85.5291 67.0204 70.3596 55.3094C58.0919 45.8494 40.1069 43.4274 25.8856 50.0665C16.9505 54.2551 11.0322 61.692 9.2509 71.5509C6.92377 84.4016 16.4047 97.8793 27.4945 102.723C37.5787 107.14 49.1281 106.741 59.8444 103.863V103.834Z" fill="black"/>
<path d="M44.5892 62.4042C39.7625 62.2048 34.8497 62.7746 30.454 64.4843C29.1899 64.9687 27.9832 65.567 26.834 66.2794C24.8229 67.5331 23.0991 69.1858 21.8063 71.1803C20.7433 72.776 19.9963 74.5711 19.4792 76.4232C15.1409 92.3798 31.0286 98.392 31.1723 98.449C31.3159 98.506 42.0897 103.891 58.4083 98.8479C69.5843 95.4002 73.6065 82.7774 67.9754 73.4029C64.2405 67.1912 56.8856 63.9429 49.9617 62.9171C48.2092 62.6607 46.3992 62.4897 44.5892 62.4042Z" fill="#EAB3B1"/>
<path opacity="0.25" d="M68.3197 85.2563C70.1297 88.0487 68.8369 92.0094 65.3893 94.0894C61.9417 96.198 57.6896 95.6281 55.8796 92.8642C54.0696 90.0718 55.3625 86.1111 58.8101 84.0311C62.2577 81.9225 66.5097 82.4924 68.3197 85.2563Z" fill="url(#paint0_radial_1909_2082)"/>
<path opacity="0.25" d="M21.6622 81.5521C19.2202 83.8316 19.5649 87.9917 22.4092 90.8126C25.2535 93.6335 29.5342 94.0894 31.9763 91.7814C34.4183 89.5019 34.0736 85.3418 31.2293 82.5209C28.385 79.7 24.1043 79.2441 21.6622 81.5521Z" fill="url(#paint1_radial_1909_2082)"/>
<path d="M27.7247 70.5253C27.5235 70.5253 27.2937 70.3828 27.2075 70.2118C27.0351 69.8984 27.1501 69.528 27.4661 69.357C27.6385 69.2715 31.9767 66.9635 36.4298 68.5022C36.7746 68.6162 36.947 68.9866 36.8321 69.3C36.7171 69.642 36.3437 69.8129 35.9989 69.6989C32.1203 68.3597 28.1556 70.4683 28.1269 70.4683C28.012 70.5253 27.897 70.5538 27.7534 70.5538L27.7247 70.5253Z" fill="black"/>
<path d="M60.4485 71.6931C60.4485 71.6931 60.2473 71.6647 60.1612 71.6077C60.1324 71.6077 56.2539 69.2997 52.3179 70.4394C51.9731 70.5534 51.5996 70.3539 51.5134 70.012C51.3985 69.6701 51.5996 69.3282 51.9444 69.2142C56.455 67.9035 60.6783 70.4109 60.8507 70.5249C61.1667 70.7244 61.2529 71.0948 61.0518 71.4082C60.9081 71.6077 60.6783 71.7216 60.4485 71.6931Z" fill="black"/>
<path d="M52.8919 88.0201L35.0793 86.8804C34.7346 86.8804 34.4473 87.0798 34.3898 87.4218C34.3611 87.6212 33.5279 92.6646 36.3435 96.0269C37.78 97.765 39.906 98.7338 42.6353 98.9048C42.6928 98.9048 42.779 98.9048 42.8364 98.9048C46.6863 99.1043 49.0996 98.0215 50.6797 96.5113L50.9383 96.2264C53.1792 93.8044 53.4091 90.4136 53.4953 88.8749V88.6755C53.524 88.3336 53.2654 88.0201 52.8919 87.9916V88.0201ZM42.8939 97.6226C40.5668 97.5086 38.7568 96.7393 37.5214 95.3716C38.9579 94.6307 43.8133 92.6361 49.2432 96.0269C47.8929 97.0812 45.8818 97.765 42.8939 97.6226ZM50.1913 95.1151C43.9856 91.069 38.2396 93.5479 36.7457 94.3458C36.0562 93.1775 35.7689 91.8668 35.6252 90.6986L51.8002 91.7528C51.5416 92.8926 51.0532 94.1178 50.1913 95.1436V95.1151ZM52.145 89.2169C52.145 89.5873 52.0875 90.0147 52.03 90.4706L35.5677 89.4163C35.5677 88.9034 35.5677 88.476 35.6252 88.1626L52.1737 89.2169H52.145Z" fill="black"/>
<path d="M52.0301 90.4706C52.0875 90.0147 52.1163 89.5873 52.145 89.2169L35.5965 88.1626C35.5965 88.476 35.5391 88.9034 35.5391 89.4163L52.0014 90.4706H52.0301Z" fill="white"/>
<path d="M50.2199 95.1155C51.0818 94.0897 51.5702 92.8929 51.8288 91.7247L35.6538 90.6704C35.7687 91.8387 36.0848 93.1494 36.7743 94.3176C38.2682 93.5483 44.0142 91.0693 50.2199 95.087V95.1155Z" fill="#DE5C56"/>
<path d="M37.5215 95.3717C38.7569 96.7394 40.5381 97.5087 42.894 97.6227C45.8819 97.7652 47.893 97.0813 49.2433 96.0271C43.8134 92.6363 38.958 94.6309 37.5215 95.3717Z" fill="#ED7580"/>
<path d="M47.8643 86.1111C47.577 86.1111 47.3185 85.8832 47.261 85.5983C47.1748 85.0854 46.8875 84.5725 46.5715 84.1736C45.1063 82.4069 41.946 82.7204 40.8542 84.7149C40.768 84.8574 40.7106 85.0284 40.6531 85.1708C40.5382 85.5128 40.1647 85.6837 39.8487 85.5983C39.5039 85.4843 39.3028 85.1424 39.4177 84.8004C39.705 83.8601 40.3658 83.0338 41.199 82.4924C43.4686 81.0107 47.0312 81.7231 48.2091 84.259C48.3815 84.601 48.5251 84.9999 48.5826 85.3703C48.64 85.7122 48.4102 86.0542 48.0367 86.1111C47.9793 86.1111 47.9218 86.1111 47.8931 86.1111H47.8643Z" fill="black"/>
<path d="M33.9877 72.8329C31.8617 72.4625 29.9081 72.662 28.3566 73.4028C26.8052 74.1437 25.7997 75.3689 25.5124 76.8791C25.2251 78.3892 25.7422 79.8709 26.9201 81.1247C28.0981 82.3499 29.8506 83.2047 31.9766 83.5751C32.4363 83.6606 32.8672 83.7176 33.2982 83.7461C37.0044 83.9741 39.9348 82.3214 40.452 79.5575C41.0266 76.4517 38.2972 73.6308 33.959 72.8614L33.9877 72.8329ZM27.897 80.2414C27.0063 79.3011 26.6041 78.1898 26.8052 77.107C27.0063 76.0243 27.782 75.1124 28.9312 74.5426C29.9368 74.0582 31.2009 73.8587 32.5799 73.9442C32.9534 73.9442 33.3557 74.0297 33.7579 74.0867C33.8728 74.0867 33.9877 74.1437 34.1026 74.1722C33.4418 74.799 32.5225 76.0243 32.4076 78.0188C32.3214 80.0419 33.212 81.6091 33.8728 82.4639C33.3557 82.4639 32.8098 82.4069 32.2352 82.3214C30.4252 82.008 28.8738 81.2671 27.897 80.2414ZM35.3955 82.2644C35.3955 82.2644 33.6142 80.4693 33.7291 78.0758C33.7579 77.4205 33.8728 76.7366 34.1601 76.1097C34.4761 75.4544 34.9645 74.97 35.5966 74.5996C38.0961 75.5399 39.5613 77.3635 39.2166 79.3011C38.9293 80.9252 37.464 82.008 35.4817 82.3499C35.4817 82.3499 35.4817 82.2929 35.4242 82.2644H35.3955Z" fill="black"/>
<path d="M32.4072 78.0192C32.4934 76.0246 33.4415 74.7993 34.1023 74.1725C33.9874 74.1725 33.8725 74.1155 33.7576 74.087C33.3553 74.03 32.9819 73.973 32.5796 73.9445C31.2006 73.859 29.9365 74.0585 28.9309 74.5429C27.753 75.1128 27.006 76.0246 26.8049 77.1073C26.6038 78.1901 26.9773 79.3014 27.8966 80.2417C28.8735 81.2675 30.4249 82.0083 32.2349 82.3217C32.8095 82.4357 33.3553 82.4642 33.8725 82.4642C33.2404 81.6094 32.3211 80.0137 32.4072 78.0192Z" fill="white"/>
<path d="M39.1589 79.3011C39.5323 77.3635 38.0384 75.5399 35.5389 74.5996C34.9068 74.97 34.4184 75.4544 34.1024 76.1098C33.8151 76.7082 33.7002 77.392 33.6714 78.0759C33.5565 80.4693 35.309 82.2645 35.3378 82.2645C35.3378 82.2645 35.3665 82.3215 35.3952 82.3499C37.4063 82.008 38.8428 80.9253 39.1301 79.3011H39.1589Z" fill="#2255B2"/>
<path d="M60.2756 75.4545C58.8391 74.5142 56.9141 74.0868 54.7594 74.1723C50.3637 74.3718 47.2896 76.8222 47.462 79.9851C47.6056 82.806 50.2775 84.829 54.0124 85.057C54.4434 85.057 54.8743 85.0855 55.334 85.057C57.4888 84.943 59.3275 84.3446 60.6778 83.2619C62.0281 82.1791 62.7176 80.7544 62.6314 79.2442C62.5452 77.734 61.7121 76.3663 60.2756 75.426V75.4545ZM55.2765 83.8032C51.6278 83.9742 48.8985 82.3501 48.7836 79.9281C48.6686 77.5061 51.1969 75.6255 54.8456 75.4545C55.2478 75.4545 55.65 75.4545 56.0235 75.4545C55.3627 76.1099 54.5008 77.3351 54.3859 79.3297C54.2997 81.2958 55.1329 82.8629 55.7649 83.7463C55.5926 83.7463 55.4489 83.8032 55.3053 83.8032H55.2765ZM55.6788 79.3867C55.7937 76.9932 57.0291 76.1384 57.2014 76.0244C57.3451 75.9104 57.4026 75.8819 57.6324 75.711C58.3506 75.8819 59.0114 76.1669 59.5573 76.5088C60.6491 77.2212 61.2811 78.2184 61.3386 79.3297C61.396 80.441 60.8789 81.4952 59.8446 82.2931C59.1551 82.8629 58.207 83.2619 57.1727 83.5183C56.7418 83.0339 55.5638 81.4382 55.6788 79.3867Z" fill="black"/>
<path d="M54.3859 79.3297C54.4721 77.3637 55.3627 76.1099 56.0235 75.4546C55.65 75.4546 55.2478 75.4261 54.8456 75.4546C51.1969 75.6255 48.6686 77.5061 48.7835 79.9281C48.8985 82.3501 51.6565 83.9742 55.2765 83.8033C55.4489 83.8033 55.5926 83.7748 55.7362 83.7463C55.1041 82.8345 54.271 81.2673 54.3572 79.3297H54.3859Z" fill="white"/>
<path d="M59.5571 76.5088C59.0113 76.1668 58.3505 75.8819 57.6322 75.7109C57.4311 75.8819 57.3449 75.9104 57.2013 76.0244C57.0289 76.1668 55.7935 76.9932 55.6786 79.3867C55.5637 81.4382 56.7703 83.0054 57.1725 83.5183C58.2068 83.2618 59.1262 82.8629 59.8444 82.293C60.85 81.4952 61.3959 80.4409 61.3384 79.3297C61.2809 78.2184 60.6489 77.2211 59.5571 76.5088Z" fill="#2255B2"/>
<path d="M63.8667 29.4655L60.7925 7.35421C60.2467 3.50754 57.3449 0.772124 53.8973 1.00007C53.4951 1.00007 53.0929 1.08556 52.6907 1.19953L14.7671 11.0869C9.88297 12.1982 8.36028 15.6459 9.30837 19.4641L14.2212 38.8115C14.3649 39.4383 14.6234 40.0082 14.9107 40.5211C16.3185 43.0001 19.1915 44.3963 22.1507 43.8834L45.0485 39.7518L48.6972 39.0679L60.0168 43.0001C60.103 43.0286 60.1892 43.0286 60.3041 43.0571C61.1373 43.1141 61.6832 42.3732 61.4821 41.4614L60.2754 36.6174C60.2754 36.6174 60.9362 36.2185 61.0224 36.1615C61.2522 35.9906 61.4821 35.8196 61.7119 35.6202C62.1429 35.2212 62.5163 34.7938 62.8324 34.3094C63.4644 33.3406 63.8667 32.2009 63.9528 31.0326C63.9816 30.4913 63.9528 29.9784 63.8667 29.4655Z" fill="#4416CE"/>
<path d="M39.5324 12.2552C39.9059 14.6772 41.8596 26.5591 43.5259 32.6568C43.5834 32.9133 43.4397 33.1412 43.2099 33.2267L38.5843 34.5944C38.3258 34.6799 38.0672 34.5374 38.0097 34.281C37.3777 32.0585 36.8318 29.7789 36.3147 27.4994C36.2572 27.243 35.9986 27.1005 35.7401 27.1575C33.3842 27.7559 31.0284 28.3827 28.6725 29.0951C28.4427 29.1806 28.299 29.4085 28.3277 29.6365L29.5631 35.9621C29.6206 36.2186 29.4482 36.4465 29.1896 36.5035L24.4492 37.5008C24.1906 37.5578 23.9608 37.3868 23.9033 37.1589L19.8524 16.3868C19.7949 16.1304 19.9673 15.9024 20.2259 15.8454L24.9663 14.8481C25.2249 14.7911 25.4547 14.9621 25.5122 15.1901L27.0636 23.1968C27.1211 23.4533 27.3796 23.6243 27.6382 23.5388C29.9653 22.8264 32.2925 22.1996 34.6483 21.6012C34.8782 21.5442 35.0506 21.3162 34.9931 21.0598C34.5047 18.4099 34.1025 15.7314 33.7864 13.053C33.7577 12.7966 33.9301 12.5686 34.1887 12.5401L38.9578 11.9133C39.2164 11.8848 39.4462 12.0557 39.475 12.2837L39.5324 12.2552Z" fill="white"/>
<path d="M52.9493 12.1124C52.9493 11.2006 52.231 10.4883 51.3117 10.4883H47.2895C46.3701 10.4883 45.6519 11.2006 45.6519 12.1124V14.2495H52.9493V12.1124Z" fill="white"/>
<path d="M45.9105 29.4371L48.4962 31.6311V32.5714C48.4962 32.9418 48.8122 33.2552 49.1857 33.2552H49.4156C49.7891 33.2552 50.1051 32.9418 50.1051 32.5714V31.6311L52.7195 29.4371C52.8919 29.2946 52.9781 29.0951 52.9781 28.8957V16.4438H45.6807V28.8957C45.6807 29.0951 45.7669 29.2946 45.9105 29.4371Z" fill="white"/>
<defs>
<radialGradient id="paint0_radial_1909_2082" cx="0" cy="0" r="1" gradientUnits="userSpaceOnUse" gradientTransform="translate(97.7735 64.1908) rotate(-31.4392) scale(7.27236 6.01724)">
<stop stop-color="#D32E5B" stop-opacity="0.8"/>
<stop offset="0.14" stop-color="#D32E5C" stop-opacity="0.78"/>
<stop offset="0.27" stop-color="#D32E5F" stop-opacity="0.73"/>
<stop offset="0.38" stop-color="#D32E66" stop-opacity="0.65"/>
<stop offset="0.49" stop-color="#D32F6E" stop-opacity="0.53"/>
<stop offset="0.54" stop-color="#D33073" stop-opacity="0.47"/>
<stop offset="0.57" stop-color="#D3346F" stop-opacity="0.43"/>
<stop offset="0.76" stop-color="#D54D5A" stop-opacity="0.2"/>
<stop offset="0.91" stop-color="#D75D4C" stop-opacity="0.05"/>
<stop offset="1" stop-color="#D86348" stop-opacity="0"/>
</radialGradient>
<radialGradient id="paint1_radial_1909_2082" cx="0" cy="0" r="1" gradientUnits="userSpaceOnUse" gradientTransform="translate(106.683 161.189) rotate(-135.136) scale(7.25881 6.02847)">
<stop stop-color="#D32E5B" stop-opacity="0.8"/>
<stop offset="0.14" stop-color="#D32E5C" stop-opacity="0.78"/>
<stop offset="0.27" stop-color="#D32E5F" stop-opacity="0.73"/>
<stop offset="0.38" stop-color="#D32E66" stop-opacity="0.65"/>
<stop offset="0.49" stop-color="#D32F6E" stop-opacity="0.53"/>
<stop offset="0.54" stop-color="#D33073" stop-opacity="0.47"/>
<stop offset="0.57" stop-color="#D3346F" stop-opacity="0.43"/>
<stop offset="0.76" stop-color="#D54D5A" stop-opacity="0.2"/>
<stop offset="0.91" stop-color="#D75D4C" stop-opacity="0.05"/>
<stop offset="1" stop-color="#D86348" stop-opacity="0"/>
</radialGradient>
</defs>
</svg>
